<?xml version="1.0" encoding="UTF-8" standalone="no"?>
<!DOCTYPE svg PUBLIC "-//W3C//DTD SVG 1.1//EN"
 "http://www.w3.org/Graphics/SVG/1.1/DTD/svg11.dtd">
<!-- Generated by graphviz version 13.0.1 (0)
 -->
<!-- Pages: 1 -->
<svg width="98pt" height="372pt"
 viewBox="0.00 0.00 98.00 372.00" xmlns="http://www.w3.org/2000/svg" xmlns:xlink="http://www.w3.org/1999/xlink">
<g id="graph0" class="graph" transform="scale(1 1) rotate(0) translate(4 367.6)">
<polygon fill="white" stroke="none" points="-4,4 -4,-367.6 94,-367.6 94,4 -4,4"/>
<!-- rec1 -->
<g id="node1" class="node">
<title>rec1</title>
<ellipse fill="none" stroke="black" cx="72" cy="-234" rx="18" ry="18"/>
<text xml:space="preserve" text-anchor="middle" x="72" y="-228.95" font-family="Times,serif" font-size="14.00">rec1</text>
</g>
<!-- c -->
<g id="node2" class="node">
<title>c</title>
<ellipse fill="none" stroke="black" cx="45" cy="-162" rx="18" ry="18"/>
<text xml:space="preserve" text-anchor="middle" x="45" y="-156.95" font-family="Times,serif" font-size="14.00">c</text>
</g>
<!-- rec1&#45;&gt;c -->
<g id="edge1" class="edge">
<title>rec1&#45;&gt;c</title>
<path fill="none" stroke="black" d="M65.74,-216.76C61.92,-206.87 57.01,-194.13 52.92,-183.54"/>
<polygon fill="black" stroke="black" points="46.92,-181.88 56.25,-178.28 56.97,-180.15 47.64,-183.75 46.92,-181.88"/>
<polyline fill="none" stroke="black" points="51.23,-179.15 53.03,-183.81"/>
</g>
<!-- e -->
<g id="node5" class="node">
<title>e</title>
<ellipse fill="none" stroke="black" cx="18" cy="-90" rx="18" ry="18"/>
<text xml:space="preserve" text-anchor="middle" x="18" y="-84.95" font-family="Times,serif" font-size="14.00">e</text>
</g>
<!-- c&#45;&gt;e -->
<g id="edge3" class="edge">
<title>c&#45;&gt;e</title>
<path fill="none" stroke="black" d="M38.74,-144.76C34.92,-134.87 30.01,-122.13 25.92,-111.54"/>
<polygon fill="black" stroke="black" points="19.92,-109.88 29.25,-106.28 29.97,-108.15 20.64,-111.75 19.92,-109.88"/>
<polyline fill="none" stroke="black" points="24.23,-107.15 26.03,-111.81"/>
</g>
<!-- tf2 -->
<g id="node7" class="node">
<title>tf2</title>
<ellipse fill="none" stroke="black" cx="72" cy="-90" rx="18" ry="18"/>
<text xml:space="preserve" text-anchor="middle" x="72" y="-84.95" font-family="Times,serif" font-size="14.00">tf2</text>
</g>
<!-- c&#45;&gt;tf2 -->
<g id="edge6" class="edge">
<title>c&#45;&gt;tf2</title>
<path fill="none" stroke="black" d="M51.26,-144.76C55.08,-134.87 59.99,-122.13 64.08,-111.54"/>
<polygon fill="black" stroke="black" points="60.75,-106.28 70.08,-109.88 69.36,-111.75 60.03,-108.15 60.75,-106.28"/>
<polyline fill="none" stroke="black" points="65.77,-107.15 63.97,-111.81"/>
</g>
<!-- rec2 -->
<g id="node3" class="node">
<title>rec2</title>
<ellipse fill="none" stroke="black" cx="18" cy="-306" rx="18" ry="18"/>
<text xml:space="preserve" text-anchor="middle" x="18" y="-300.95" font-family="Times,serif" font-size="14.00">rec2</text>
</g>
<!-- d -->
<g id="node4" class="node">
<title>d</title>
<ellipse fill="none" stroke="black" cx="18" cy="-234" rx="18" ry="18"/>
<text xml:space="preserve" text-anchor="middle" x="18" y="-228.95" font-family="Times,serif" font-size="14.00">d</text>
</g>
<!-- rec2&#45;&gt;d -->
<g id="edge2" class="edge">
<title>rec2&#45;&gt;d</title>
<path fill="none" stroke="black" d="M18,-287.7C18,-278.37 18,-266.77 18,-256.83"/>
<polygon fill="black" stroke="black" points="13,-253.1 23,-253.1 23,-255.1 13,-255.1 13,-253.1"/>
<polyline fill="none" stroke="black" points="18,-252.1 18,-257.1"/>
</g>
<!-- d&#45;&gt;c -->
<g id="edge4" class="edge">
<title>d&#45;&gt;c</title>
<path fill="none" stroke="black" d="M24.26,-216.76C28.08,-206.87 32.99,-194.13 37.08,-183.54"/>
<polygon fill="black" stroke="black" points="33.75,-178.28 43.08,-181.88 42.36,-183.75 33.03,-180.15 33.75,-178.28"/>
<polyline fill="none" stroke="black" points="38.77,-179.15 36.97,-183.81"/>
</g>
<!-- tf1 -->
<g id="node6" class="node">
<title>tf1</title>
<ellipse fill="none" stroke="black" cx="18" cy="-18" rx="18" ry="18"/>
<text xml:space="preserve" text-anchor="middle" x="18" y="-12.95" font-family="Times,serif" font-size="14.00">tf1</text>
</g>
<!-- e&#45;&gt;tf1 -->
<g id="edge5" class="edge">
<title>e&#45;&gt;tf1</title>
<path fill="none" stroke="black" d="M18,-71.7C18,-64.41 18,-55.73 18,-47.54"/>
<polygon fill="black" stroke="black" points="21.5,-47.62 18,-37.62 14.5,-47.62 21.5,-47.62"/>
</g>
<!-- e_6_source -->
<g id="node8" class="node">
<title>e_6_source</title>
<ellipse fill="black" stroke="black" cx="72" cy="-306" rx="1.8" ry="1.8"/>
</g>
<!-- e_6_source&#45;&gt;rec1 -->
<g id="edge7" class="edge">
<title>e_6_source&#45;&gt;rec1</title>
<path fill="none" stroke="black" d="M72,-303.79C72,-298.89 72,-280.06 72,-263.34"/>
<polygon fill="black" stroke="black" points="75.5,-263.81 72,-253.81 68.5,-263.81 75.5,-263.81"/>
</g>
<!-- e_7_source -->
<g id="node9" class="node">
<title>e_7_source</title>
<ellipse fill="black" stroke="black" cx="18" cy="-361.8" rx="1.8" ry="1.8"/>
</g>
<!-- e_7_source&#45;&gt;rec2 -->
<g id="edge8" class="edge">
<title>e_7_source&#45;&gt;rec2</title>
<path fill="none" stroke="black" d="M18,-359.87C18,-356.77 18,-346.44 18,-335.72"/>
<polygon fill="black" stroke="black" points="21.5,-335.77 18,-325.77 14.5,-335.77 21.5,-335.77"/>
</g>
</g>
</svg>