<?xml version="1.0" encoding="UTF-8" standalone="no"?>
<!DOCTYPE svg PUBLIC "-//W3C//DTD SVG 1.1//EN"
 "http://www.w3.org/Graphics/SVG/1.1/DTD/svg11.dtd">
<!-- Generated by graphviz version 2.43.0 (0)
 -->
<!-- Title: %3 Pages: 1 -->
<svg width="44pt" height="195pt"
 viewBox="0.00 0.00 44.00 195.20" xmlns="http://www.w3.org/2000/svg" xmlns:xlink="http://www.w3.org/1999/xlink">
<g id="graph0" class="graph" transform="scale(1 1) rotate(0) translate(4 191.2)">
<title>%3</title>
<polygon fill="white" stroke="transparent" points="-4,4 -4,-191.2 40,-191.2 40,4 -4,4"/>
<!-- e_0_source -->
<g id="node1" class="node">
<title>e_0_source</title>
<ellipse fill="black" stroke="black" cx="18" cy="-185.4" rx="1.8" ry="1.8"/>
</g>
<!-- A -->
<g id="node2" class="node">
<title>A</title>
<ellipse fill="none" stroke="black" cx="18" cy="-129.6" rx="18" ry="18"/>
<text text-anchor="middle" x="18" y="-125.9" font-family="Times,serif" font-size="14.00">A</text>
</g>
<!-- e_0_source&#45;&gt;A -->
<g id="edge1" class="edge">
<title>e_0_source&#45;&gt;A</title>
<path fill="none" stroke="black" d="M18,-183.47C18,-180.24 18,-169.15 18,-157.95"/>
<polygon fill="black" stroke="black" points="21.5,-157.86 18,-147.86 14.5,-157.86 21.5,-157.86"/>
</g>
<!-- B -->
<g id="node3" class="node">
<title>B</title>
<ellipse fill="none" stroke="black" cx="18" cy="-57.6" rx="18" ry="18"/>
<text text-anchor="middle" x="18" y="-53.9" font-family="Times,serif" font-size="14.00">B</text>
</g>
<!-- A&#45;&gt;B -->
<g id="edge2" class="edge">
<title>A&#45;&gt;B</title>
<path fill="none" stroke="black" d="M18,-111.3C18,-103.58 18,-94.31 18,-85.71"/>
<polygon fill="black" stroke="black" points="21.5,-85.7 18,-75.7 14.5,-85.7 21.5,-85.7"/>
</g>
<!-- e_2_target -->
<g id="node4" class="node">
<title>e_2_target</title>
<ellipse fill="black" stroke="black" cx="18" cy="-1.8" rx="1.8" ry="1.8"/>
</g>
<!-- B&#45;&gt;e_2_target -->
<g id="edge3" class="edge">
<title>B&#45;&gt;e_2_target</title>
<path fill="none" stroke="black" d="M18,-39.58C18,-31.17 18,-21.28 18,-13.87"/>
<polygon fill="black" stroke="black" points="21.5,-13.73 18,-3.73 14.5,-13.73 21.5,-13.73"/>
</g>
</g>
</svg>