<?xml version="1.0" encoding="UTF-8" standalone="no"?>
<!DOCTYPE svg PUBLIC "-//W3C//DTD SVG 1.1//EN"
 "http://www.w3.org/Graphics/SVG/1.1/DTD/svg11.dtd">
<!-- Generated by graphviz version 2.43.0 (0)
 -->
<!-- Title: %3 Pages: 1 -->
<svg width="98pt" height="188pt"
 viewBox="0.00 0.00 98.00 188.00" xmlns="http://www.w3.org/2000/svg" xmlns:xlink="http://www.w3.org/1999/xlink">
<g id="graph0" class="graph" transform="scale(1 1) rotate(0) translate(4 184)">
<title>%3</title>
<polygon fill="white" stroke="transparent" points="-4,4 -4,-184 94,-184 94,4 -4,4"/>
<!-- I2 -->
<g id="node1" class="node">
<title>I2</title>
<ellipse fill="none" stroke="black" cx="45" cy="-162" rx="18" ry="18"/>
<text text-anchor="middle" x="45" y="-158.3" font-family="Times,serif" font-size="14.00">I2</text>
</g>
<!-- N2 -->
<g id="node2" class="node">
<title>N2</title>
<ellipse fill="none" stroke="black" cx="45" cy="-90" rx="18" ry="18"/>
<text text-anchor="middle" x="45" y="-86.3" font-family="Times,serif" font-size="14.00">N2</text>
</g>
<!-- I2&#45;&gt;N2 -->
<g id="edge1" class="edge">
<title>I2&#45;&gt;N2</title>
<path fill="none" stroke="black" d="M45,-143.7C45,-134.46 45,-122.98 45,-113.11"/>
<polygon fill="black" stroke="black" points="40,-109.1 50,-109.1 50,-111.1 40,-111.1 40,-109.1"/>
<polyline fill="none" stroke="black" points="45,-108.1 45,-113.1 "/>
</g>
<!-- M2 -->
<g id="node3" class="node">
<title>M2</title>
<ellipse fill="none" stroke="black" cx="18" cy="-18" rx="18" ry="18"/>
<text text-anchor="middle" x="18" y="-14.3" font-family="Times,serif" font-size="14.00">M2</text>
</g>
<!-- N2&#45;&gt;M2 -->
<g id="edge2" class="edge">
<title>N2&#45;&gt;M2</title>
<path fill="none" stroke="black" d="M38.74,-72.76C34.96,-62.96 30.1,-50.36 26.03,-39.83"/>
<polygon fill="black" stroke="black" points="19.92,-37.88 29.25,-34.28 29.97,-36.15 20.64,-39.75 19.92,-37.88"/>
<polyline fill="none" stroke="black" points="24.23,-35.15 26.03,-39.81 "/>
</g>
<!-- M1 -->
<g id="node4" class="node">
<title>M1</title>
<ellipse fill="none" stroke="black" cx="72" cy="-18" rx="18" ry="18"/>
<text text-anchor="middle" x="72" y="-14.3" font-family="Times,serif" font-size="14.00">M1</text>
</g>
<!-- N2&#45;&gt;M1 -->
<g id="edge3" class="edge">
<title>N2&#45;&gt;M1</title>
<path fill="none" stroke="black" d="M51.26,-72.76C55.04,-62.96 59.9,-50.36 63.97,-39.83"/>
<polygon fill="black" stroke="black" points="60.75,-34.28 70.08,-37.88 69.36,-39.75 60.03,-36.15 60.75,-34.28"/>
<polyline fill="none" stroke="black" points="65.77,-35.15 63.97,-39.81 "/>
</g>
</g>
</svg>