<?xml version="1.0" encoding="UTF-8" standalone="no"?>
<!DOCTYPE svg PUBLIC "-//W3C//DTD SVG 1.1//EN"
 "http://www.w3.org/Graphics/SVG/1.1/DTD/svg11.dtd">
<!-- Generated by graphviz version 2.43.0 (0)
 -->
<!-- Title: %3 Pages: 1 -->
<svg width="476pt" height="332pt"
 viewBox="0.00 0.00 476.00 332.00" xmlns="http://www.w3.org/2000/svg" xmlns:xlink="http://www.w3.org/1999/xlink">
<g id="graph0" class="graph" transform="scale(1 1) rotate(0) translate(4 328)">
<title>%3</title>
<polygon fill="white" stroke="transparent" points="-4,4 -4,-328 472,-328 472,4 -4,4"/>
<!-- EGFR -->
<g id="node1" class="node">
<title>EGFR</title>
<ellipse fill="none" stroke="#104e8b" stroke-width="2" cx="261" cy="-306" rx="18" ry="18"/>
<text text-anchor="middle" x="261" y="-302.3" font-family="Times,serif" font-size="14.00">EGFR</text>
</g>
<!-- STAT1 -->
<g id="node2" class="node">
<title>STAT1</title>
<ellipse fill="none" stroke="#104e8b" stroke-width="2" cx="66" cy="-234" rx="18" ry="18"/>
<text text-anchor="middle" x="66" y="-230.3" font-family="Times,serif" font-size="14.00">STAT1</text>
</g>
<!-- EGFR&#45;&gt;STAT1 -->
<g id="edge1" class="edge">
<title>EGFR&#45;&gt;STAT1</title>
<path fill="none" stroke="black" d="M244.13,-298.98C216.64,-289.16 160.51,-269.1 113,-252 106.46,-249.65 99.42,-247.1 92.82,-244.72"/>
<polygon fill="black" stroke="black" points="93.56,-241.26 82.96,-241.15 91.18,-247.84 93.56,-241.26"/>
</g>
<!-- ERBB2 -->
<g id="node5" class="node">
<title>ERBB2</title>
<ellipse fill="none" stroke="#104e8b" stroke-width="2" cx="140" cy="-234" rx="18" ry="18"/>
<text text-anchor="middle" x="140" y="-230.3" font-family="Times,serif" font-size="14.00">ERBB2</text>
</g>
<!-- EGFR&#45;&gt;ERBB2 -->
<g id="edge3" class="edge">
<title>EGFR&#45;&gt;ERBB2</title>
<path fill="none" stroke="black" d="M245.68,-296.13C225.13,-284.25 188.43,-263.02 164.15,-248.97"/>
<polygon fill="black" stroke="black" points="165.61,-245.77 155.2,-243.79 162.1,-251.83 165.61,-245.77"/>
</g>
<!-- MAP2K1 -->
<g id="node6" class="node">
<title>MAP2K1</title>
<ellipse fill="none" stroke="#104e8b" stroke-width="2" cx="234" cy="-234" rx="18" ry="18"/>
<text text-anchor="middle" x="234" y="-230.3" font-family="Times,serif" font-size="14.00">MAP2K1</text>
</g>
<!-- EGFR&#45;&gt;MAP2K1 -->
<g id="edge13" class="edge">
<title>EGFR&#45;&gt;MAP2K1</title>
<path fill="none" stroke="black" d="M254.74,-288.76C251.5,-280.37 247.47,-269.93 243.83,-260.5"/>
<polygon fill="black" stroke="black" points="247.09,-259.22 240.23,-251.15 240.56,-261.74 247.09,-259.22"/>
</g>
<!-- PIK3R1 -->
<g id="node14" class="node">
<title>PIK3R1</title>
<ellipse fill="none" stroke="#104e8b" stroke-width="2" cx="288" cy="-234" rx="18" ry="18"/>
<text text-anchor="middle" x="288" y="-230.3" font-family="Times,serif" font-size="14.00">PIK3R1</text>
</g>
<!-- EGFR&#45;&gt;PIK3R1 -->
<g id="edge14" class="edge">
<title>EGFR&#45;&gt;PIK3R1</title>
<path fill="none" stroke="black" d="M267.26,-288.76C270.5,-280.37 274.53,-269.93 278.17,-260.5"/>
<polygon fill="black" stroke="black" points="281.44,-261.74 281.77,-251.15 274.91,-259.22 281.44,-261.74"/>
</g>
<!-- CRK -->
<g id="node19" class="node">
<title>CRK</title>
<ellipse fill="none" stroke="#8b1a1a" stroke-width="2" cx="342" cy="-234" rx="18" ry="18"/>
<text text-anchor="middle" x="342" y="-230.3" font-family="Times,serif" font-size="14.00">CRK</text>
</g>
<!-- EGFR&#45;&gt;CRK -->
<g id="edge16" class="edge">
<title>EGFR&#45;&gt;CRK</title>
<path fill="none" stroke="black" d="M274.38,-293.44C288.18,-281.51 309.75,-262.87 324.81,-249.85"/>
<polygon fill="black" stroke="black" points="324.85,-243.21 331.39,-250.78 329.87,-252.09 323.33,-244.52 324.85,-243.21"/>
<polyline fill="none" stroke="black" points="328.87,-246.34 325.09,-249.61 "/>
</g>
<!-- PTPN1 -->
<g id="node21" class="node">
<title>PTPN1</title>
<ellipse fill="none" stroke="#104e8b" stroke-width="2" cx="409" cy="-234" rx="18" ry="18"/>
<text text-anchor="middle" x="409" y="-230.3" font-family="Times,serif" font-size="14.00">PTPN1</text>
</g>
<!-- EGFR&#45;&gt;PTPN1 -->
<g id="edge18" class="edge">
<title>EGFR&#45;&gt;PTPN1</title>
<path fill="none" stroke="black" d="M277.12,-297.38C302.81,-285.23 353.24,-261.37 383.75,-246.94"/>
<polygon fill="black" stroke="black" points="385.36,-250.05 392.9,-242.62 382.36,-243.73 385.36,-250.05"/>
</g>
<!-- CREBBP -->
<g id="node8" class="node">
<title>CREBBP</title>
<ellipse fill="none" stroke="#8b1a1a" stroke-width="2" cx="32" cy="-162" rx="18" ry="18"/>
<text text-anchor="middle" x="32" y="-158.3" font-family="Times,serif" font-size="14.00">CREBBP</text>
</g>
<!-- STAT1&#45;&gt;CREBBP -->
<g id="edge5" class="edge">
<title>STAT1&#45;&gt;CREBBP</title>
<path fill="none" stroke="black" d="M58.45,-217.46C53.52,-207.31 47.04,-193.96 41.72,-183.02"/>
<polygon fill="black" stroke="black" points="35.46,-181.58 44.46,-177.21 45.33,-179.01 36.34,-183.37 35.46,-181.58"/>
<polyline fill="none" stroke="black" points="39.52,-178.49 41.71,-182.99 "/>
</g>
<!-- MAPK8 -->
<g id="node3" class="node">
<title>MAPK8</title>
<ellipse fill="none" stroke="#8b1a1a" stroke-width="2" cx="342" cy="-162" rx="18" ry="18"/>
<text text-anchor="middle" x="342" y="-158.3" font-family="Times,serif" font-size="14.00">MAPK8</text>
</g>
<!-- SIRT1 -->
<g id="node4" class="node">
<title>SIRT1</title>
<ellipse fill="none" stroke="#8b1a1a" stroke-width="2" cx="342" cy="-90" rx="18" ry="18"/>
<text text-anchor="middle" x="342" y="-86.3" font-family="Times,serif" font-size="14.00">SIRT1</text>
</g>
<!-- MAPK8&#45;&gt;SIRT1 -->
<g id="edge2" class="edge">
<title>MAPK8&#45;&gt;SIRT1</title>
<path fill="none" stroke="black" d="M342,-143.7C342,-135.98 342,-126.71 342,-118.11"/>
<polygon fill="black" stroke="black" points="345.5,-118.1 342,-108.1 338.5,-118.1 345.5,-118.1"/>
</g>
<!-- NFATC4 -->
<g id="node26" class="node">
<title>NFATC4</title>
<ellipse fill="none" stroke="#104e8b" stroke-width="2" cx="396" cy="-90" rx="18" ry="18"/>
<text text-anchor="middle" x="396" y="-86.3" font-family="Times,serif" font-size="14.00">NFATC4</text>
</g>
<!-- MAPK8&#45;&gt;NFATC4 -->
<g id="edge23" class="edge">
<title>MAPK8&#45;&gt;NFATC4</title>
<path fill="none" stroke="black" d="M352.67,-147.17C361.1,-136.24 372.94,-120.9 382.11,-109.01"/>
<polygon fill="black" stroke="black" points="380.78,-102.54 388.7,-108.65 387.48,-110.23 379.56,-104.12 380.78,-102.54"/>
<polyline fill="none" stroke="black" points="385.35,-104.8 382.3,-108.76 "/>
</g>
<!-- CDK1 -->
<g id="node24" class="node">
<title>CDK1</title>
<ellipse fill="none" stroke="#8b1a1a" stroke-width="2" cx="99" cy="-162" rx="18" ry="18"/>
<text text-anchor="middle" x="99" y="-158.3" font-family="Times,serif" font-size="14.00">CDK1</text>
</g>
<!-- ERBB2&#45;&gt;CDK1 -->
<g id="edge21" class="edge">
<title>ERBB2&#45;&gt;CDK1</title>
<path fill="none" stroke="black" d="M131.3,-218.15C125.16,-207.67 116.88,-193.52 110.23,-182.18"/>
<polygon fill="black" stroke="black" points="103.87,-181.21 112.5,-176.16 113.51,-177.89 104.88,-182.94 103.87,-181.21"/>
<polyline fill="none" stroke="black" points="107.68,-177.82 110.21,-182.14 "/>
</g>
<!-- MAPK1 -->
<g id="node7" class="node">
<title>MAPK1</title>
<ellipse fill="none" stroke="#104e8b" stroke-width="2" cx="180" cy="-162" rx="18" ry="18"/>
<text text-anchor="middle" x="180" y="-158.3" font-family="Times,serif" font-size="14.00">MAPK1</text>
</g>
<!-- MAP2K1&#45;&gt;MAPK1 -->
<g id="edge4" class="edge">
<title>MAP2K1&#45;&gt;MAPK1</title>
<path fill="none" stroke="black" d="M223.33,-219.17C215.79,-209.39 205.52,-196.08 196.87,-184.87"/>
<polygon fill="black" stroke="black" points="199.53,-182.58 190.65,-176.8 193.98,-186.86 199.53,-182.58"/>
</g>
<!-- MAPK3 -->
<g id="node16" class="node">
<title>MAPK3</title>
<ellipse fill="none" stroke="#104e8b" stroke-width="2" cx="234" cy="-162" rx="18" ry="18"/>
<text text-anchor="middle" x="234" y="-158.3" font-family="Times,serif" font-size="14.00">MAPK3</text>
</g>
<!-- MAP2K1&#45;&gt;MAPK3 -->
<g id="edge15" class="edge">
<title>MAP2K1&#45;&gt;MAPK3</title>
<path fill="none" stroke="black" d="M234,-215.7C234,-207.98 234,-198.71 234,-190.11"/>
<polygon fill="black" stroke="black" points="237.5,-190.1 234,-180.1 230.5,-190.1 237.5,-190.1"/>
</g>
<!-- ELK1 -->
<g id="node13" class="node">
<title>ELK1</title>
<ellipse fill="none" stroke="#104e8b" stroke-width="2" cx="126" cy="-90" rx="18" ry="18"/>
<text text-anchor="middle" x="126" y="-86.3" font-family="Times,serif" font-size="14.00">ELK1</text>
</g>
<!-- MAPK1&#45;&gt;ELK1 -->
<g id="edge8" class="edge">
<title>MAPK1&#45;&gt;ELK1</title>
<path fill="none" stroke="black" d="M169.33,-147.17C161.79,-137.39 151.52,-124.08 142.87,-112.87"/>
<polygon fill="black" stroke="black" points="145.53,-110.58 136.65,-104.8 139.98,-114.86 145.53,-110.58"/>
</g>
<!-- AEBP1 -->
<g id="node20" class="node">
<title>AEBP1</title>
<ellipse fill="none" stroke="#104e8b" stroke-width="2" cx="180" cy="-90" rx="18" ry="18"/>
<text text-anchor="middle" x="180" y="-86.3" font-family="Times,serif" font-size="14.00">AEBP1</text>
</g>
<!-- MAPK1&#45;&gt;AEBP1 -->
<g id="edge17" class="edge">
<title>MAPK1&#45;&gt;AEBP1</title>
<path fill="none" stroke="black" d="M180,-143.7C180,-135.98 180,-126.71 180,-118.11"/>
<polygon fill="black" stroke="black" points="183.5,-118.1 180,-108.1 176.5,-118.1 183.5,-118.1"/>
</g>
<!-- TP53 -->
<g id="node22" class="node">
<title>TP53</title>
<ellipse fill="none" stroke="#8b1a1a" stroke-width="2" cx="18" cy="-90" rx="18" ry="18"/>
<text text-anchor="middle" x="18" y="-86.3" font-family="Times,serif" font-size="14.00">TP53</text>
</g>
<!-- CREBBP&#45;&gt;TP53 -->
<g id="edge19" class="edge">
<title>CREBBP&#45;&gt;TP53</title>
<path fill="none" stroke="black" d="M28.61,-144.05C27.03,-136.14 25.11,-126.54 23.34,-117.69"/>
<polygon fill="black" stroke="black" points="26.75,-116.91 21.36,-107.79 19.89,-118.28 26.75,-116.91"/>
</g>
<!-- CSNK2A1 -->
<g id="node9" class="node">
<title>CSNK2A1</title>
<ellipse fill="none" stroke="#8b1a1a" stroke-width="2" cx="72" cy="-90" rx="18" ry="18"/>
<text text-anchor="middle" x="72" y="-86.3" font-family="Times,serif" font-size="14.00">CSNK2A1</text>
</g>
<!-- HOXB7 -->
<g id="node10" class="node">
<title>HOXB7</title>
<ellipse fill="none" stroke="#104e8b" stroke-width="2" cx="72" cy="-18" rx="18" ry="18"/>
<text text-anchor="middle" x="72" y="-14.3" font-family="Times,serif" font-size="14.00">HOXB7</text>
</g>
<!-- CSNK2A1&#45;&gt;HOXB7 -->
<g id="edge6" class="edge">
<title>CSNK2A1&#45;&gt;HOXB7</title>
<path fill="none" stroke="black" d="M72,-71.7C72,-62.46 72,-50.98 72,-41.11"/>
<polygon fill="black" stroke="black" points="67,-37.1 77,-37.1 77,-39.1 67,-39.1 67,-37.1"/>
<polyline fill="none" stroke="black" points="72,-36.1 72,-41.1 "/>
</g>
<!-- ABL1 -->
<g id="node11" class="node">
<title>ABL1</title>
<ellipse fill="none" stroke="#8b1a1a" stroke-width="2" cx="436" cy="-162" rx="18" ry="18"/>
<text text-anchor="middle" x="436" y="-158.3" font-family="Times,serif" font-size="14.00">ABL1</text>
</g>
<!-- HIPK2 -->
<g id="node12" class="node">
<title>HIPK2</title>
<ellipse fill="none" stroke="#8b1a1a" stroke-width="2" cx="450" cy="-90" rx="18" ry="18"/>
<text text-anchor="middle" x="450" y="-86.3" font-family="Times,serif" font-size="14.00">HIPK2</text>
</g>
<!-- ABL1&#45;&gt;HIPK2 -->
<g id="edge7" class="edge">
<title>ABL1&#45;&gt;HIPK2</title>
<path fill="none" stroke="black" d="M439.39,-144.05C440.97,-136.14 442.89,-126.54 444.66,-117.69"/>
<polygon fill="black" stroke="black" points="448.11,-118.28 446.64,-107.79 441.25,-116.91 448.11,-118.28"/>
</g>
<!-- ZBTB4 -->
<g id="node18" class="node">
<title>ZBTB4</title>
<ellipse fill="none" stroke="#104e8b" stroke-width="2" cx="450" cy="-18" rx="18" ry="18"/>
<text text-anchor="middle" x="450" y="-14.3" font-family="Times,serif" font-size="14.00">ZBTB4</text>
</g>
<!-- HIPK2&#45;&gt;ZBTB4 -->
<g id="edge11" class="edge">
<title>HIPK2&#45;&gt;ZBTB4</title>
<path fill="none" stroke="black" d="M450,-71.7C450,-62.46 450,-50.98 450,-41.11"/>
<polygon fill="black" stroke="black" points="445,-37.1 455,-37.1 455,-39.1 445,-39.1 445,-37.1"/>
<polyline fill="none" stroke="black" points="450,-36.1 450,-41.1 "/>
</g>
<!-- RAC1 -->
<g id="node15" class="node">
<title>RAC1</title>
<ellipse fill="none" stroke="#104e8b" stroke-width="2" cx="288" cy="-162" rx="18" ry="18"/>
<text text-anchor="middle" x="288" y="-158.3" font-family="Times,serif" font-size="14.00">RAC1</text>
</g>
<!-- PIK3R1&#45;&gt;RAC1 -->
<g id="edge9" class="edge">
<title>PIK3R1&#45;&gt;RAC1</title>
<path fill="none" stroke="black" d="M288,-215.7C288,-207.98 288,-198.71 288,-190.11"/>
<polygon fill="black" stroke="black" points="291.5,-190.1 288,-180.1 284.5,-190.1 291.5,-190.1"/>
</g>
<!-- MAP3K10 -->
<g id="node25" class="node">
<title>MAP3K10</title>
<ellipse fill="none" stroke="#104e8b" stroke-width="2" cx="288" cy="-90" rx="18" ry="18"/>
<text text-anchor="middle" x="288" y="-86.3" font-family="Times,serif" font-size="14.00">MAP3K10</text>
</g>
<!-- RAC1&#45;&gt;MAP3K10 -->
<g id="edge22" class="edge">
<title>RAC1&#45;&gt;MAP3K10</title>
<path fill="none" stroke="black" d="M288,-143.7C288,-135.98 288,-126.71 288,-118.11"/>
<polygon fill="black" stroke="black" points="291.5,-118.1 288,-108.1 284.5,-118.1 291.5,-118.1"/>
</g>
<!-- RUNX2 -->
<g id="node17" class="node">
<title>RUNX2</title>
<ellipse fill="none" stroke="#104e8b" stroke-width="2" cx="234" cy="-90" rx="18" ry="18"/>
<text text-anchor="middle" x="234" y="-86.3" font-family="Times,serif" font-size="14.00">RUNX2</text>
</g>
<!-- MAPK3&#45;&gt;RUNX2 -->
<g id="edge10" class="edge">
<title>MAPK3&#45;&gt;RUNX2</title>
<path fill="none" stroke="black" d="M234,-143.7C234,-135.98 234,-126.71 234,-118.11"/>
<polygon fill="black" stroke="black" points="237.5,-118.1 234,-108.1 230.5,-118.1 237.5,-118.1"/>
</g>
<!-- CRK&#45;&gt;MAPK8 -->
<g id="edge12" class="edge">
<title>CRK&#45;&gt;MAPK8</title>
<path fill="none" stroke="black" d="M342,-215.7C342,-207.98 342,-198.71 342,-190.11"/>
<polygon fill="black" stroke="black" points="345.5,-190.1 342,-180.1 338.5,-190.1 345.5,-190.1"/>
</g>
<!-- PTPN1&#45;&gt;ABL1 -->
<g id="edge25" class="edge">
<title>PTPN1&#45;&gt;ABL1</title>
<path fill="none" stroke="black" d="M415.26,-216.76C419.04,-206.96 423.9,-194.36 427.97,-183.83"/>
<polygon fill="black" stroke="black" points="424.75,-178.28 434.08,-181.88 433.36,-183.75 424.03,-180.15 424.75,-178.28"/>
<polyline fill="none" stroke="black" points="429.77,-179.15 427.97,-183.81 "/>
</g>
<!-- NFYB -->
<g id="node23" class="node">
<title>NFYB</title>
<ellipse fill="none" stroke="#104e8b" stroke-width="2" cx="18" cy="-18" rx="18" ry="18"/>
<text text-anchor="middle" x="18" y="-14.3" font-family="Times,serif" font-size="14.00">NFYB</text>
</g>
<!-- TP53&#45;&gt;NFYB -->
<g id="edge20" class="edge">
<title>TP53&#45;&gt;NFYB</title>
<path fill="none" stroke="black" d="M18,-71.7C18,-62.46 18,-50.98 18,-41.11"/>
<polygon fill="black" stroke="black" points="13,-37.1 23,-37.1 23,-39.1 13,-39.1 13,-37.1"/>
<polyline fill="none" stroke="black" points="18,-36.1 18,-41.1 "/>
</g>
<!-- CDK1&#45;&gt;CSNK2A1 -->
<g id="edge26" class="edge">
<title>CDK1&#45;&gt;CSNK2A1</title>
<path fill="none" stroke="black" d="M92.74,-144.76C89.5,-136.37 85.47,-125.93 81.83,-116.5"/>
<polygon fill="black" stroke="black" points="85.09,-115.22 78.23,-107.15 78.56,-117.74 85.09,-115.22"/>
</g>
<!-- NEUROD1 -->
<g id="node27" class="node">
<title>NEUROD1</title>
<ellipse fill="none" stroke="#104e8b" stroke-width="2" cx="288" cy="-18" rx="18" ry="18"/>
<text text-anchor="middle" x="288" y="-14.3" font-family="Times,serif" font-size="14.00">NEUROD1</text>
</g>
<!-- MAP3K10&#45;&gt;NEUROD1 -->
<g id="edge24" class="edge">
<title>MAP3K10&#45;&gt;NEUROD1</title>
<path fill="none" stroke="black" d="M288,-71.7C288,-63.98 288,-54.71 288,-46.11"/>
<polygon fill="black" stroke="black" points="291.5,-46.1 288,-36.1 284.5,-46.1 291.5,-46.1"/>
</g>
</g>
</svg>