<?xml version="1.0" encoding="UTF-8" standalone="no"?>
<!DOCTYPE svg PUBLIC "-//W3C//DTD SVG 1.1//EN"
 "http://www.w3.org/Graphics/SVG/1.1/DTD/svg11.dtd">
<!-- Generated by graphviz version 2.43.0 (0)
 -->
<!-- Title: %3 Pages: 1 -->
<svg width="44pt" height="555pt"
 viewBox="0.00 0.00 44.00 555.20" xmlns="http://www.w3.org/2000/svg" xmlns:xlink="http://www.w3.org/1999/xlink">
<g id="graph0" class="graph" transform="scale(1 1) rotate(0) translate(4 551.2)">
<title>%3</title>
<polygon fill="white" stroke="transparent" points="-4,4 -4,-551.2 40,-551.2 40,4 -4,4"/>
<!-- 793 -->
<g id="node1" class="node">
<title>793</title>
<ellipse fill="none" stroke="black" cx="18" cy="-273.6" rx="18" ry="18"/>
<text text-anchor="middle" x="18" y="-269.9" font-family="Times,serif" font-size="14.00">793</text>
</g>
<!-- 1485 -->
<g id="node2" class="node">
<title>1485</title>
<ellipse fill="none" stroke="black" cx="18" cy="-201.6" rx="18" ry="18"/>
<text text-anchor="middle" x="18" y="-197.9" font-family="Times,serif" font-size="14.00">1485</text>
</g>
<!-- 793&#45;&gt;1485 -->
<g id="edge1" class="edge">
<title>793&#45;&gt;1485</title>
<path fill="none" stroke="black" d="M18,-255.3C18,-247.58 18,-238.31 18,-229.71"/>
<polygon fill="black" stroke="black" points="21.5,-229.7 18,-219.7 14.5,-229.7 21.5,-229.7"/>
</g>
<!-- 1764 -->
<g id="node5" class="node">
<title>1764</title>
<ellipse fill="none" stroke="black" cx="18" cy="-129.6" rx="18" ry="18"/>
<text text-anchor="middle" x="18" y="-125.9" font-family="Times,serif" font-size="14.00">1764</text>
</g>
<!-- 1485&#45;&gt;1764 -->
<g id="edge5" class="edge">
<title>1485&#45;&gt;1764</title>
<path fill="none" stroke="black" d="M18,-183.3C18,-175.58 18,-166.31 18,-157.71"/>
<polygon fill="black" stroke="black" points="21.5,-157.7 18,-147.7 14.5,-157.7 21.5,-157.7"/>
</g>
<!-- 16 -->
<g id="node3" class="node">
<title>16</title>
<ellipse fill="none" stroke="black" cx="18" cy="-417.6" rx="18" ry="18"/>
<text text-anchor="middle" x="18" y="-413.9" font-family="Times,serif" font-size="14.00">16</text>
</g>
<!-- 7 -->
<g id="node4" class="node">
<title>7</title>
<ellipse fill="none" stroke="black" cx="18" cy="-345.6" rx="18" ry="18"/>
<text text-anchor="middle" x="18" y="-341.9" font-family="Times,serif" font-size="14.00">7</text>
</g>
<!-- 16&#45;&gt;7 -->
<g id="edge2" class="edge">
<title>16&#45;&gt;7</title>
<path fill="none" stroke="black" d="M18,-399.3C18,-391.58 18,-382.31 18,-373.71"/>
<polygon fill="black" stroke="black" points="21.5,-373.7 18,-363.7 14.5,-373.7 21.5,-373.7"/>
</g>
<!-- 7&#45;&gt;793 -->
<g id="edge4" class="edge">
<title>7&#45;&gt;793</title>
<path fill="none" stroke="black" d="M18,-327.3C18,-319.58 18,-310.31 18,-301.71"/>
<polygon fill="black" stroke="black" points="21.5,-301.7 18,-291.7 14.5,-301.7 21.5,-301.7"/>
</g>
<!-- 4611 -->
<g id="node6" class="node">
<title>4611</title>
<ellipse fill="none" stroke="black" cx="18" cy="-57.6" rx="18" ry="18"/>
<text text-anchor="middle" x="18" y="-53.9" font-family="Times,serif" font-size="14.00">4611</text>
</g>
<!-- 1764&#45;&gt;4611 -->
<g id="edge3" class="edge">
<title>1764&#45;&gt;4611</title>
<path fill="none" stroke="black" d="M18,-111.3C18,-103.58 18,-94.31 18,-85.71"/>
<polygon fill="black" stroke="black" points="21.5,-85.7 18,-75.7 14.5,-85.7 21.5,-85.7"/>
</g>
<!-- e_7_target -->
<g id="node9" class="node">
<title>e_7_target</title>
<ellipse fill="black" stroke="black" cx="18" cy="-1.8" rx="1.8" ry="1.8"/>
</g>
<!-- 4611&#45;&gt;e_7_target -->
<g id="edge8" class="edge">
<title>4611&#45;&gt;e_7_target</title>
<path fill="none" stroke="black" d="M18,-39.58C18,-31.17 18,-21.28 18,-13.87"/>
<polygon fill="black" stroke="black" points="21.5,-13.73 18,-3.73 14.5,-13.73 21.5,-13.73"/>
</g>
<!-- 2217 -->
<g id="node7" class="node">
<title>2217</title>
<ellipse fill="none" stroke="black" cx="18" cy="-489.6" rx="18" ry="18"/>
<text text-anchor="middle" x="18" y="-485.9" font-family="Times,serif" font-size="14.00">2217</text>
</g>
<!-- 2217&#45;&gt;16 -->
<g id="edge6" class="edge">
<title>2217&#45;&gt;16</title>
<path fill="none" stroke="black" d="M18,-471.3C18,-463.58 18,-454.31 18,-445.71"/>
<polygon fill="black" stroke="black" points="21.5,-445.7 18,-435.7 14.5,-445.7 21.5,-445.7"/>
</g>
<!-- e_6_source -->
<g id="node8" class="node">
<title>e_6_source</title>
<ellipse fill="black" stroke="black" cx="18" cy="-545.4" rx="1.8" ry="1.8"/>
</g>
<!-- e_6_source&#45;&gt;2217 -->
<g id="edge7" class="edge">
<title>e_6_source&#45;&gt;2217</title>
<path fill="none" stroke="black" d="M18,-543.47C18,-540.24 18,-529.15 18,-517.95"/>
<polygon fill="black" stroke="black" points="21.5,-517.86 18,-507.86 14.5,-517.86 21.5,-517.86"/>
</g>
</g>
</svg>