<?xml version="1.0" encoding="UTF-8" standalone="no"?>
<!DOCTYPE svg PUBLIC "-//W3C//DTD SVG 1.1//EN"
 "http://www.w3.org/Graphics/SVG/1.1/DTD/svg11.dtd">
<!-- Generated by graphviz version 12.2.1 (0)
 -->
<!-- Pages: 1 -->
<svg width="840pt" height="804pt"
 viewBox="0.00 0.00 840.00 803.60" xmlns="http://www.w3.org/2000/svg" xmlns:xlink="http://www.w3.org/1999/xlink">
<g id="graph0" class="graph" transform="scale(1 1) rotate(0) translate(4 799.6)">
<polygon fill="white" stroke="none" points="-4,4 -4,-799.6 836,-799.6 836,4 -4,4"/>
<!-- AKT1 -->
<g id="node1" class="node">
<title>AKT1</title>
<ellipse fill="none" stroke="#8b1a1a" stroke-width="2" cx="288" cy="-306" rx="18" ry="18"/>
<text text-anchor="middle" x="288" y="-300.95" font-family="Times,serif" font-size="14.00">AKT1</text>
</g>
<!-- PRKAA1 -->
<g id="node2" class="node">
<title>PRKAA1</title>
<ellipse fill="none" stroke="#104e8b" stroke-width="2" cx="180" cy="-234" rx="18" ry="18"/>
<text text-anchor="middle" x="180" y="-228.95" font-family="Times,serif" font-size="14.00">PRKAA1</text>
</g>
<!-- AKT1&#45;&gt;PRKAA1 -->
<g id="edge1" class="edge">
<title>AKT1&#45;&gt;PRKAA1</title>
<path fill="none" stroke="#104e8b" stroke-width="5" d="M272.98,-295.27C254.23,-283.11 222.04,-262.25 200.89,-248.54"/>
<polygon fill="#104e8b" stroke="#104e8b" stroke-width="5" points="194.62,-250.43 200.05,-242.04 201.73,-243.13 196.29,-251.52 194.62,-250.43"/>
<polyline fill="none" stroke="#104e8b" stroke-width="5" points="196.5,-245.69 200.69,-248.41"/>
</g>
<!-- EP300 -->
<g id="node3" class="node">
<title>EP300</title>
<ellipse fill="none" stroke="#8b1a1a" stroke-width="2" cx="234" cy="-234" rx="18" ry="18"/>
<text text-anchor="middle" x="234" y="-228.95" font-family="Times,serif" font-size="14.00">EP300</text>
</g>
<!-- AKT1&#45;&gt;EP300 -->
<g id="edge2" class="edge">
<title>AKT1&#45;&gt;EP300</title>
<path fill="none" stroke="#8b1a1a" stroke-width="5" d="M277.07,-290.83C270.63,-282.48 262.27,-271.65 254.63,-261.75"/>
<polygon fill="#8b1a1a" stroke="#8b1a1a" stroke-width="5" points="258.29,-259.33 248.72,-254.08 251.37,-264.67 258.29,-259.33"/>
</g>
<!-- NUAK1 -->
<g id="node9" class="node">
<title>NUAK1</title>
<ellipse fill="none" stroke="#8b1a1a" stroke-width="2" cx="288" cy="-234" rx="18" ry="18"/>
<text text-anchor="middle" x="288" y="-228.95" font-family="Times,serif" font-size="14.00">NUAK1</text>
</g>
<!-- AKT1&#45;&gt;NUAK1 -->
<g id="edge6" class="edge">
<title>AKT1&#45;&gt;NUAK1</title>
<path fill="none" stroke="#8b1a1a" stroke-width="5" d="M288,-287.34C288,-281.74 288,-275.36 288,-269.02"/>
<polygon fill="#8b1a1a" stroke="#8b1a1a" stroke-width="5" points="292.38,-269.14 288,-259.14 283.63,-269.14 292.38,-269.14"/>
</g>
<!-- MAP3K5 -->
<g id="node12" class="node">
<title>MAP3K5</title>
<ellipse fill="none" stroke="#104e8b" stroke-width="2" cx="342" cy="-234" rx="18" ry="18"/>
<text text-anchor="middle" x="342" y="-228.95" font-family="Times,serif" font-size="14.00">MAP3K5</text>
</g>
<!-- AKT1&#45;&gt;MAP3K5 -->
<g id="edge8" class="edge">
<title>AKT1&#45;&gt;MAP3K5</title>
<path fill="none" stroke="#104e8b" stroke-width="5" d="M298.93,-290.83C306.98,-280.4 318.03,-266.07 326.92,-254.55"/>
<polygon fill="#104e8b" stroke="#104e8b" stroke-width="5" points="325.6,-248.07 333.52,-254.18 332.3,-255.76 324.38,-249.65 325.6,-248.07"/>
<polyline fill="none" stroke="#104e8b" stroke-width="5" points="330.17,-250.33 327.12,-254.29"/>
</g>
<!-- GATA1 -->
<g id="node14" class="node">
<title>GATA1</title>
<ellipse fill="none" stroke="#8b1a1a" stroke-width="2" cx="396" cy="-234" rx="18" ry="18"/>
<text text-anchor="middle" x="396" y="-228.95" font-family="Times,serif" font-size="14.00">GATA1</text>
</g>
<!-- AKT1&#45;&gt;GATA1 -->
<g id="edge44" class="edge">
<title>AKT1&#45;&gt;GATA1</title>
<path fill="none" stroke="#8b1a1a" stroke-width="5" d="M303.02,-295.27C319.61,-284.51 346.71,-266.95 367.39,-253.55"/>
<polygon fill="#8b1a1a" stroke="#8b1a1a" stroke-width="5" points="369.52,-257.38 375.53,-248.27 364.76,-250.04 369.52,-257.38"/>
</g>
<!-- AKT1S1_DEPTOR_MLST8_MTOR_RPTOR -->
<g id="node46" class="node">
<title>AKT1S1_DEPTOR_MLST8_MTOR_RPTOR</title>
<ellipse fill="none" stroke="#8b1a1a" stroke-width="2" cx="450" cy="-234" rx="18" ry="18"/>
<text text-anchor="middle" x="450" y="-228.95" font-family="Times,serif" font-size="14.00">AKT1S1_DEPTOR_MLST8_MTOR_RPTOR</text>
</g>
<!-- AKT1&#45;&gt;AKT1S1_DEPTOR_MLST8_MTOR_RPTOR -->
<g id="edge35" class="edge">
<title>AKT1&#45;&gt;AKT1S1_DEPTOR_MLST8_MTOR_RPTOR</title>
<path fill="none" stroke="#8b1a1a" stroke-width="5" d="M303.06,-294.63C306.86,-292.27 310.99,-289.89 315,-288 356.63,-268.31 374.06,-272.56 420.34,-252.17"/>
<polygon fill="#8b1a1a" stroke="#8b1a1a" stroke-width="5" points="422.07,-256.19 429.29,-248 418.38,-248.26 422.07,-256.19"/>
</g>
<!-- CTBP1 -->
<g id="node43" class="node">
<title>CTBP1</title>
<ellipse fill="none" stroke="#8b1a1a" stroke-width="2" cx="180" cy="-162" rx="18" ry="18"/>
<text text-anchor="middle" x="180" y="-156.95" font-family="Times,serif" font-size="14.00">CTBP1</text>
</g>
<!-- PRKAA1&#45;&gt;CTBP1 -->
<g id="edge37" class="edge">
<title>PRKAA1&#45;&gt;CTBP1</title>
<path fill="none" stroke="#8b1a1a" stroke-width="5" d="M180,-215.34C180,-206.94 180,-196.77 180,-187.64"/>
<polygon fill="#8b1a1a" stroke="#8b1a1a" stroke-width="5" points="175,-183.4 185,-183.4 185,-185.4 175,-185.4 175,-183.4"/>
<polyline fill="none" stroke="#8b1a1a" stroke-width="5" points="180,-182.4 180,-187.4"/>
</g>
<!-- SMAD7 -->
<g id="node18" class="node">
<title>SMAD7</title>
<ellipse fill="none" stroke="#8b1a1a" stroke-width="2" cx="234" cy="-162" rx="18" ry="18"/>
<text text-anchor="middle" x="234" y="-156.95" font-family="Times,serif" font-size="14.00">SMAD7</text>
</g>
<!-- EP300&#45;&gt;SMAD7 -->
<g id="edge14" class="edge">
<title>EP300&#45;&gt;SMAD7</title>
<path fill="none" stroke="#8b1a1a" stroke-width="5" d="M234,-215.34C234,-209.74 234,-203.36 234,-197.02"/>
<polygon fill="#8b1a1a" stroke="#8b1a1a" stroke-width="5" points="238.38,-197.14 234,-187.14 229.63,-197.14 238.38,-197.14"/>
</g>
<!-- SMURF2 -->
<g id="node4" class="node">
<title>SMURF2</title>
<ellipse fill="none" stroke="#8b1a1a" stroke-width="2" cx="234" cy="-90" rx="18" ry="18"/>
<text text-anchor="middle" x="234" y="-84.95" font-family="Times,serif" font-size="14.00">SMURF2</text>
</g>
<!-- SMAD5 -->
<g id="node5" class="node">
<title>SMAD5</title>
<ellipse fill="none" stroke="#104e8b" stroke-width="2" cx="180" cy="-18" rx="18" ry="18"/>
<text text-anchor="middle" x="180" y="-12.95" font-family="Times,serif" font-size="14.00">SMAD5</text>
</g>
<!-- SMURF2&#45;&gt;SMAD5 -->
<g id="edge3" class="edge">
<title>SMURF2&#45;&gt;SMAD5</title>
<path fill="none" stroke="#104e8b" stroke-width="5" d="M223.07,-74.83C215.02,-64.4 203.97,-50.07 195.08,-38.55"/>
<polygon fill="#104e8b" stroke="#104e8b" stroke-width="5" points="188.48,-38.18 196.4,-32.07 197.62,-33.65 189.7,-39.76 188.48,-38.18"/>
<polyline fill="none" stroke="#104e8b" stroke-width="5" points="191.83,-34.33 194.88,-38.29"/>
</g>
<!-- SMAD9 -->
<g id="node48" class="node">
<title>SMAD9</title>
<ellipse fill="none" stroke="#104e8b" stroke-width="2" cx="234" cy="-18" rx="18" ry="18"/>
<text text-anchor="middle" x="234" y="-12.95" font-family="Times,serif" font-size="14.00">SMAD9</text>
</g>
<!-- SMURF2&#45;&gt;SMAD9 -->
<g id="edge39" class="edge">
<title>SMURF2&#45;&gt;SMAD9</title>
<path fill="none" stroke="#104e8b" stroke-width="5" d="M234,-71.34C234,-62.94 234,-52.77 234,-43.64"/>
<polygon fill="#104e8b" stroke="#104e8b" stroke-width="5" points="229,-39.4 239,-39.4 239,-41.4 229,-41.4 229,-39.4"/>
<polyline fill="none" stroke="#104e8b" stroke-width="5" points="234,-38.4 234,-43.4"/>
</g>
<!-- BMPR2 -->
<g id="node57" class="node">
<title>BMPR2</title>
<ellipse fill="none" stroke="#104e8b" stroke-width="2" cx="288" cy="-18" rx="18" ry="18"/>
<text text-anchor="middle" x="288" y="-12.95" font-family="Times,serif" font-size="14.00">BMPR2</text>
</g>
<!-- SMURF2&#45;&gt;BMPR2 -->
<g id="edge55" class="edge">
<title>SMURF2&#45;&gt;BMPR2</title>
<path fill="none" stroke="#104e8b" stroke-width="5" d="M244.93,-74.83C252.98,-64.4 264.03,-50.07 272.92,-38.55"/>
<polygon fill="#104e8b" stroke="#104e8b" stroke-width="5" points="271.6,-32.07 279.52,-38.18 278.3,-39.76 270.38,-33.65 271.6,-32.07"/>
<polyline fill="none" stroke="#104e8b" stroke-width="5" points="276.17,-34.33 273.12,-38.29"/>
</g>
<!-- SRC -->
<g id="node6" class="node">
<title>SRC</title>
<ellipse fill="none" stroke="#8b1a1a" stroke-width="2" cx="409" cy="-450" rx="18" ry="18"/>
<text text-anchor="middle" x="409" y="-444.95" font-family="Times,serif" font-size="14.00">SRC</text>
</g>
<!-- KIT -->
<g id="node7" class="node">
<title>KIT</title>
<ellipse fill="none" stroke="#8b1a1a" stroke-width="2" cx="288" cy="-378" rx="18" ry="18"/>
<text text-anchor="middle" x="288" y="-372.95" font-family="Times,serif" font-size="14.00">KIT</text>
</g>
<!-- SRC&#45;&gt;KIT -->
<g id="edge4" class="edge">
<title>SRC&#45;&gt;KIT</title>
<path fill="none" stroke="#8b1a1a" stroke-width="5" d="M392.9,-440.23C376.35,-431.16 349.6,-416.32 317.09,-397.05"/>
<polygon fill="#8b1a1a" stroke="#8b1a1a" stroke-width="5" points="319.52,-393.41 308.7,-392.04 315.04,-400.92 319.52,-393.41"/>
</g>
<!-- PDPK1 -->
<g id="node8" class="node">
<title>PDPK1</title>
<ellipse fill="none" stroke="#8b1a1a" stroke-width="2" cx="342" cy="-378" rx="18" ry="18"/>
<text text-anchor="middle" x="342" y="-372.95" font-family="Times,serif" font-size="14.00">PDPK1</text>
</g>
<!-- SRC&#45;&gt;PDPK1 -->
<g id="edge40" class="edge">
<title>SRC&#45;&gt;PDPK1</title>
<path fill="none" stroke="#8b1a1a" stroke-width="5" d="M396.4,-435.83C387.69,-426.74 375.86,-414.37 365.45,-403.5"/>
<polygon fill="#8b1a1a" stroke="#8b1a1a" stroke-width="5" points="368.93,-400.81 358.86,-396.61 362.61,-406.86 368.93,-400.81"/>
</g>
<!-- BDKRB2 -->
<g id="node27" class="node">
<title>BDKRB2</title>
<ellipse fill="none" stroke="#8b1a1a" stroke-width="2" cx="396" cy="-378" rx="18" ry="18"/>
<text text-anchor="middle" x="396" y="-372.95" font-family="Times,serif" font-size="14.00">BDKRB2</text>
</g>
<!-- SRC&#45;&gt;BDKRB2 -->
<g id="edge20" class="edge">
<title>SRC&#45;&gt;BDKRB2</title>
<path fill="none" stroke="#8b1a1a" stroke-width="5" d="M405.72,-431.34C404.63,-425.49 403.39,-418.78 402.16,-412.15"/>
<polygon fill="#8b1a1a" stroke="#8b1a1a" stroke-width="5" points="406.5,-411.58 400.37,-402.55 397.9,-413.18 406.5,-411.58"/>
</g>
<!-- FERMT2 -->
<g id="node38" class="node">
<title>FERMT2</title>
<ellipse fill="none" stroke="#8b1a1a" stroke-width="2" cx="450" cy="-378" rx="18" ry="18"/>
<text text-anchor="middle" x="450" y="-372.95" font-family="Times,serif" font-size="14.00">FERMT2</text>
</g>
<!-- SRC&#45;&gt;FERMT2 -->
<g id="edge29" class="edge">
<title>SRC&#45;&gt;FERMT2</title>
<path fill="none" stroke="#8b1a1a" stroke-width="5" d="M418.1,-433.46C422.45,-426.03 427.81,-416.89 432.88,-408.22"/>
<polygon fill="#8b1a1a" stroke="#8b1a1a" stroke-width="5" points="436.49,-410.71 437.77,-399.87 428.94,-406.29 436.49,-410.71"/>
</g>
<!-- SH3PXD2A -->
<g id="node58" class="node">
<title>SH3PXD2A</title>
<ellipse fill="none" stroke="#8b1a1a" stroke-width="2" cx="504" cy="-378" rx="18" ry="18"/>
<text text-anchor="middle" x="504" y="-372.95" font-family="Times,serif" font-size="14.00">SH3PXD2A</text>
</g>
<!-- SRC&#45;&gt;SH3PXD2A -->
<g id="edge56" class="edge">
<title>SRC&#45;&gt;SH3PXD2A</title>
<path fill="none" stroke="#8b1a1a" stroke-width="5" d="M423.43,-438.37C437.45,-428.04 459.1,-412.09 476.43,-399.32"/>
<polygon fill="#8b1a1a" stroke="#8b1a1a" stroke-width="5" points="478.96,-402.89 484.41,-393.43 473.77,-395.84 478.96,-402.89"/>
</g>
<!-- PDPK1&#45;&gt;AKT1 -->
<g id="edge5" class="edge">
<title>PDPK1&#45;&gt;AKT1</title>
<path fill="none" stroke="#8b1a1a" stroke-width="5" d="M331.07,-362.83C324.63,-354.48 316.27,-343.65 308.63,-333.75"/>
<polygon fill="#8b1a1a" stroke="#8b1a1a" stroke-width="5" points="312.29,-331.33 302.72,-326.08 305.37,-336.67 312.29,-331.33"/>
</g>
<!-- OXTR -->
<g id="node47" class="node">
<title>OXTR</title>
<ellipse fill="none" stroke="#8b1a1a" stroke-width="2" cx="342" cy="-306" rx="18" ry="18"/>
<text text-anchor="middle" x="342" y="-300.95" font-family="Times,serif" font-size="14.00">OXTR</text>
</g>
<!-- PDPK1&#45;&gt;OXTR -->
<g id="edge38" class="edge">
<title>PDPK1&#45;&gt;OXTR</title>
<path fill="none" stroke="#8b1a1a" stroke-width="5" d="M342,-359.34C342,-353.74 342,-347.36 342,-341.02"/>
<polygon fill="#8b1a1a" stroke="#8b1a1a" stroke-width="5" points="346.38,-341.14 342,-331.14 337.63,-341.14 346.38,-341.14"/>
</g>
<!-- ABL1 -->
<g id="node10" class="node">
<title>ABL1</title>
<ellipse fill="none" stroke="#8b1a1a" stroke-width="2" cx="463" cy="-594" rx="18" ry="18"/>
<text text-anchor="middle" x="463" y="-588.95" font-family="Times,serif" font-size="14.00">ABL1</text>
</g>
<!-- RACK1 -->
<g id="node11" class="node">
<title>RACK1</title>
<ellipse fill="none" stroke="#8b1a1a" stroke-width="2" cx="288" cy="-522" rx="18" ry="18"/>
<text text-anchor="middle" x="288" y="-516.95" font-family="Times,serif" font-size="14.00">RACK1</text>
</g>
<!-- ABL1&#45;&gt;RACK1 -->
<g id="edge7" class="edge">
<title>ABL1&#45;&gt;RACK1</title>
<path fill="none" stroke="#8b1a1a" stroke-width="5" d="M445.9,-586.16C416.82,-574.53 357.3,-550.72 320.21,-535.88"/>
<polygon fill="#8b1a1a" stroke="#8b1a1a" stroke-width="5" points="321.87,-531.84 310.96,-532.18 318.62,-539.96 321.87,-531.84"/>
</g>
<!-- CDK5 -->
<g id="node13" class="node">
<title>CDK5</title>
<ellipse fill="none" stroke="#8b1a1a" stroke-width="2" cx="463" cy="-522" rx="18" ry="18"/>
<text text-anchor="middle" x="463" y="-516.95" font-family="Times,serif" font-size="14.00">CDK5</text>
</g>
<!-- ABL1&#45;&gt;CDK5 -->
<g id="edge9" class="edge">
<title>ABL1&#45;&gt;CDK5</title>
<path fill="none" stroke="#8b1a1a" stroke-width="5" d="M463,-575.34C463,-569.74 463,-563.36 463,-557.02"/>
<polygon fill="#8b1a1a" stroke="#8b1a1a" stroke-width="5" points="467.38,-557.14 463,-547.14 458.63,-557.14 467.38,-557.14"/>
</g>
<!-- PPP2CA -->
<g id="node41" class="node">
<title>PPP2CA</title>
<ellipse fill="none" stroke="#8b1a1a" stroke-width="2" cx="207" cy="-450" rx="18" ry="18"/>
<text text-anchor="middle" x="207" y="-444.95" font-family="Times,serif" font-size="14.00">PPP2CA</text>
</g>
<!-- RACK1&#45;&gt;PPP2CA -->
<g id="edge51" class="edge">
<title>RACK1&#45;&gt;PPP2CA</title>
<path fill="none" stroke="#8b1a1a" stroke-width="5" d="M274.26,-509.13C262.97,-499.37 246.66,-485.28 232.93,-473.41"/>
<polygon fill="#8b1a1a" stroke="#8b1a1a" stroke-width="5" points="235.95,-470.24 225.53,-467.01 230.23,-476.86 235.95,-470.24"/>
</g>
<!-- CDK5&#45;&gt;SRC -->
<g id="edge52" class="edge">
<title>CDK5&#45;&gt;SRC</title>
<path fill="none" stroke="#8b1a1a" stroke-width="5" d="M452.07,-506.83C445.63,-498.48 437.27,-487.65 429.63,-477.75"/>
<polygon fill="#8b1a1a" stroke="#8b1a1a" stroke-width="5" points="433.29,-475.33 423.72,-470.08 426.37,-480.67 433.29,-475.33"/>
</g>
<!-- TLN1 -->
<g id="node33" class="node">
<title>TLN1</title>
<ellipse fill="none" stroke="#8b1a1a" stroke-width="2" cx="517" cy="-450" rx="18" ry="18"/>
<text text-anchor="middle" x="517" y="-444.95" font-family="Times,serif" font-size="14.00">TLN1</text>
</g>
<!-- CDK5&#45;&gt;TLN1 -->
<g id="edge25" class="edge">
<title>CDK5&#45;&gt;TLN1</title>
<path fill="none" stroke="#8b1a1a" stroke-width="5" d="M473.93,-506.83C480.37,-498.48 488.73,-487.65 496.37,-477.75"/>
<polygon fill="#8b1a1a" stroke="#8b1a1a" stroke-width="5" points="499.63,-480.67 502.28,-470.08 492.71,-475.33 499.63,-480.67"/>
</g>
<!-- SPI1 -->
<g id="node15" class="node">
<title>SPI1</title>
<ellipse fill="none" stroke="#104e8b" stroke-width="2" cx="396" cy="-162" rx="18" ry="18"/>
<text text-anchor="middle" x="396" y="-156.95" font-family="Times,serif" font-size="14.00">SPI1</text>
</g>
<!-- GATA1&#45;&gt;SPI1 -->
<g id="edge10" class="edge">
<title>GATA1&#45;&gt;SPI1</title>
<path fill="none" stroke="#104e8b" stroke-width="5" d="M396,-215.34C396,-206.94 396,-196.77 396,-187.64"/>
<polygon fill="#104e8b" stroke="#104e8b" stroke-width="5" points="391,-183.4 401,-183.4 401,-185.4 391,-185.4 391,-183.4"/>
<polyline fill="none" stroke="#104e8b" stroke-width="5" points="396,-182.4 396,-187.4"/>
</g>
<!-- SMAD2 -->
<g id="node16" class="node">
<title>SMAD2</title>
<ellipse fill="none" stroke="#8b1a1a" stroke-width="2" cx="706" cy="-522" rx="18" ry="18"/>
<text text-anchor="middle" x="706" y="-516.95" font-family="Times,serif" font-size="14.00">SMAD2</text>
</g>
<!-- MEF2A -->
<g id="node17" class="node">
<title>MEF2A</title>
<ellipse fill="none" stroke="#8b1a1a" stroke-width="2" cx="706" cy="-450" rx="18" ry="18"/>
<text text-anchor="middle" x="706" y="-444.95" font-family="Times,serif" font-size="14.00">MEF2A</text>
</g>
<!-- SMAD2&#45;&gt;MEF2A -->
<g id="edge11" class="edge">
<title>SMAD2&#45;&gt;MEF2A</title>
<path fill="none" stroke="#8b1a1a" stroke-width="5" d="M706,-503.34C706,-497.74 706,-491.36 706,-485.02"/>
<polygon fill="#8b1a1a" stroke="#8b1a1a" stroke-width="5" points="710.38,-485.14 706,-475.14 701.63,-485.14 710.38,-485.14"/>
</g>
<!-- SMAD7&#45;&gt;SMURF2 -->
<g id="edge12" class="edge">
<title>SMAD7&#45;&gt;SMURF2</title>
<path fill="none" stroke="#8b1a1a" stroke-width="5" d="M234,-143.34C234,-137.74 234,-131.36 234,-125.02"/>
<polygon fill="#8b1a1a" stroke="#8b1a1a" stroke-width="5" points="238.38,-125.14 234,-115.14 229.63,-125.14 238.38,-125.14"/>
</g>
<!-- SMAD3 -->
<g id="node19" class="node">
<title>SMAD3</title>
<ellipse fill="none" stroke="#8b1a1a" stroke-width="2" cx="760" cy="-522" rx="18" ry="18"/>
<text text-anchor="middle" x="760" y="-516.95" font-family="Times,serif" font-size="14.00">SMAD3</text>
</g>
<!-- SMAD4 -->
<g id="node20" class="node">
<title>SMAD4</title>
<ellipse fill="none" stroke="#8b1a1a" stroke-width="2" cx="760" cy="-450" rx="18" ry="18"/>
<text text-anchor="middle" x="760" y="-444.95" font-family="Times,serif" font-size="14.00">SMAD4</text>
</g>
<!-- SMAD3&#45;&gt;SMAD4 -->
<g id="edge13" class="edge">
<title>SMAD3&#45;&gt;SMAD4</title>
<path fill="none" stroke="#8b1a1a" stroke-width="5" d="M760,-503.34C760,-497.74 760,-491.36 760,-485.02"/>
<polygon fill="#8b1a1a" stroke="#8b1a1a" stroke-width="5" points="764.38,-485.14 760,-475.14 755.63,-485.14 764.38,-485.14"/>
</g>
<!-- TGFBR2 -->
<g id="node21" class="node">
<title>TGFBR2</title>
<ellipse fill="none" stroke="#8b1a1a" stroke-width="2" cx="733" cy="-666" rx="18" ry="18"/>
<text text-anchor="middle" x="733" y="-660.95" font-family="Times,serif" font-size="14.00">TGFBR2</text>
</g>
<!-- ZFYVE9 -->
<g id="node22" class="node">
<title>ZFYVE9</title>
<ellipse fill="none" stroke="#8b1a1a" stroke-width="2" cx="733" cy="-594" rx="18" ry="18"/>
<text text-anchor="middle" x="733" y="-588.95" font-family="Times,serif" font-size="14.00">ZFYVE9</text>
</g>
<!-- TGFBR2&#45;&gt;ZFYVE9 -->
<g id="edge15" class="edge">
<title>TGFBR2&#45;&gt;ZFYVE9</title>
<path fill="none" stroke="#8b1a1a" stroke-width="5" d="M733,-647.34C733,-641.74 733,-635.36 733,-629.02"/>
<polygon fill="#8b1a1a" stroke="#8b1a1a" stroke-width="5" points="737.38,-629.14 733,-619.14 728.63,-629.14 737.38,-629.14"/>
</g>
<!-- ZFYVE9&#45;&gt;SMAD2 -->
<g id="edge19" class="edge">
<title>ZFYVE9&#45;&gt;SMAD2</title>
<path fill="none" stroke="#8b1a1a" stroke-width="5" d="M726.6,-576.41C724.08,-569.87 721.1,-562.14 718.19,-554.61"/>
<polygon fill="#8b1a1a" stroke="#8b1a1a" stroke-width="5" points="722.28,-553.04 714.6,-545.29 714.11,-556.19 722.28,-553.04"/>
</g>
<!-- ZFYVE9&#45;&gt;SMAD3 -->
<g id="edge27" class="edge">
<title>ZFYVE9&#45;&gt;SMAD3</title>
<path fill="none" stroke="#8b1a1a" stroke-width="5" d="M739.4,-576.41C741.92,-569.87 744.9,-562.14 747.81,-554.61"/>
<polygon fill="#8b1a1a" stroke="#8b1a1a" stroke-width="5" points="751.89,-556.19 751.4,-545.29 743.72,-553.04 751.89,-556.19"/>
</g>
<!-- GSK3B -->
<g id="node23" class="node">
<title>GSK3B</title>
<ellipse fill="none" stroke="#104e8b" stroke-width="2" cx="598" cy="-522" rx="18" ry="18"/>
<text text-anchor="middle" x="598" y="-516.95" font-family="Times,serif" font-size="14.00">GSK3B</text>
</g>
<!-- MYOCD -->
<g id="node24" class="node">
<title>MYOCD</title>
<ellipse fill="none" stroke="#8b1a1a" stroke-width="2" cx="598" cy="-450" rx="18" ry="18"/>
<text text-anchor="middle" x="598" y="-444.95" font-family="Times,serif" font-size="14.00">MYOCD</text>
</g>
<!-- GSK3B&#45;&gt;MYOCD -->
<g id="edge16" class="edge">
<title>GSK3B&#45;&gt;MYOCD</title>
<path fill="none" stroke="#8b1a1a" stroke-width="5" d="M598,-503.34C598,-494.94 598,-484.77 598,-475.64"/>
<polygon fill="#8b1a1a" stroke="#8b1a1a" stroke-width="5" points="593,-471.4 603,-471.4 603,-473.4 593,-473.4 593,-471.4"/>
<polyline fill="none" stroke="#8b1a1a" stroke-width="5" points="598,-470.4 598,-475.4"/>
</g>
<!-- CIITA -->
<g id="node49" class="node">
<title>CIITA</title>
<ellipse fill="none" stroke="#104e8b" stroke-width="2" cx="652" cy="-450" rx="18" ry="18"/>
<text text-anchor="middle" x="652" y="-444.95" font-family="Times,serif" font-size="14.00">CIITA</text>
</g>
<!-- GSK3B&#45;&gt;CIITA -->
<g id="edge41" class="edge">
<title>GSK3B&#45;&gt;CIITA</title>
<path fill="none" stroke="#104e8b" stroke-width="5" d="M608.93,-506.83C615.37,-498.48 623.73,-487.65 631.37,-477.75"/>
<polygon fill="#104e8b" stroke="#104e8b" stroke-width="5" points="634.63,-480.67 637.28,-470.08 627.71,-475.33 634.63,-480.67"/>
</g>
<!-- SRF -->
<g id="node35" class="node">
<title>SRF</title>
<ellipse fill="none" stroke="#8b1a1a" stroke-width="2" cx="612" cy="-378" rx="18" ry="18"/>
<text text-anchor="middle" x="612" y="-372.95" font-family="Times,serif" font-size="14.00">SRF</text>
</g>
<!-- MYOCD&#45;&gt;SRF -->
<g id="edge26" class="edge">
<title>MYOCD&#45;&gt;SRF</title>
<path fill="none" stroke="#8b1a1a" stroke-width="5" d="M601.53,-431.34C602.7,-425.49 604.04,-418.78 605.37,-412.15"/>
<polygon fill="#8b1a1a" stroke="#8b1a1a" stroke-width="5" points="609.62,-413.2 607.29,-402.53 601.04,-411.48 609.62,-413.2"/>
</g>
<!-- TGFB1 -->
<g id="node25" class="node">
<title>TGFB1</title>
<ellipse fill="none" stroke="#8b1a1a" stroke-width="2" cx="760" cy="-738" rx="18" ry="18"/>
<text text-anchor="middle" x="760" y="-732.95" font-family="Times,serif" font-size="14.00">TGFB1</text>
</g>
<!-- TGFB1&#45;&gt;TGFBR2 -->
<g id="edge17" class="edge">
<title>TGFB1&#45;&gt;TGFBR2</title>
<path fill="none" stroke="#8b1a1a" stroke-width="5" d="M753.6,-720.41C751.08,-713.87 748.1,-706.14 745.19,-698.61"/>
<polygon fill="#8b1a1a" stroke="#8b1a1a" stroke-width="5" points="749.28,-697.04 741.6,-689.29 741.11,-700.19 749.28,-697.04"/>
</g>
<!-- TGFBR1 -->
<g id="node26" class="node">
<title>TGFBR1</title>
<ellipse fill="none" stroke="#8b1a1a" stroke-width="2" cx="787" cy="-666" rx="18" ry="18"/>
<text text-anchor="middle" x="787" y="-660.95" font-family="Times,serif" font-size="14.00">TGFBR1</text>
</g>
<!-- TGFB1&#45;&gt;TGFBR1 -->
<g id="edge18" class="edge">
<title>TGFB1&#45;&gt;TGFBR1</title>
<path fill="none" stroke="#8b1a1a" stroke-width="5" d="M766.4,-720.41C768.92,-713.87 771.9,-706.14 774.81,-698.61"/>
<polygon fill="#8b1a1a" stroke="#8b1a1a" stroke-width="5" points="778.89,-700.19 778.4,-689.29 770.72,-697.04 778.89,-700.19"/>
</g>
<!-- GNAI1 -->
<g id="node45" class="node">
<title>GNAI1</title>
<ellipse fill="none" stroke="#8b1a1a" stroke-width="2" cx="396" cy="-306" rx="18" ry="18"/>
<text text-anchor="middle" x="396" y="-300.95" font-family="Times,serif" font-size="14.00">GNAI1</text>
</g>
<!-- BDKRB2&#45;&gt;GNAI1 -->
<g id="edge34" class="edge">
<title>BDKRB2&#45;&gt;GNAI1</title>
<path fill="none" stroke="#8b1a1a" stroke-width="5" d="M396,-359.34C396,-353.74 396,-347.36 396,-341.02"/>
<polygon fill="#8b1a1a" stroke="#8b1a1a" stroke-width="5" points="400.38,-341.14 396,-331.14 391.63,-341.14 400.38,-341.14"/>
</g>
<!-- PRKCD -->
<g id="node28" class="node">
<title>PRKCD</title>
<ellipse fill="none" stroke="#104e8b" stroke-width="2" cx="99" cy="-378" rx="18" ry="18"/>
<text text-anchor="middle" x="99" y="-372.95" font-family="Times,serif" font-size="14.00">PRKCD</text>
</g>
<!-- NFE2L2 -->
<g id="node29" class="node">
<title>NFE2L2</title>
<ellipse fill="none" stroke="#104e8b" stroke-width="2" cx="18" cy="-306" rx="18" ry="18"/>
<text text-anchor="middle" x="18" y="-300.95" font-family="Times,serif" font-size="14.00">NFE2L2</text>
</g>
<!-- PRKCD&#45;&gt;NFE2L2 -->
<g id="edge21" class="edge">
<title>PRKCD&#45;&gt;NFE2L2</title>
<path fill="none" stroke="#104e8b" stroke-width="5" d="M85.26,-365.13C73.97,-355.37 57.66,-341.28 43.93,-329.41"/>
<polygon fill="#104e8b" stroke="#104e8b" stroke-width="5" points="46.95,-326.24 36.53,-323.01 41.23,-332.86 46.95,-326.24"/>
</g>
<!-- STAT1 -->
<g id="node30" class="node">
<title>STAT1</title>
<ellipse fill="none" stroke="#104e8b" stroke-width="2" cx="72" cy="-306" rx="18" ry="18"/>
<text text-anchor="middle" x="72" y="-300.95" font-family="Times,serif" font-size="14.00">STAT1</text>
</g>
<!-- PRKCD&#45;&gt;STAT1 -->
<g id="edge22" class="edge">
<title>PRKCD&#45;&gt;STAT1</title>
<path fill="none" stroke="#104e8b" stroke-width="5" d="M92.6,-360.41C90.08,-353.87 87.1,-346.14 84.19,-338.61"/>
<polygon fill="#104e8b" stroke="#104e8b" stroke-width="5" points="88.28,-337.04 80.6,-329.29 80.11,-340.19 88.28,-337.04"/>
</g>
<!-- HMGA1 -->
<g id="node31" class="node">
<title>HMGA1</title>
<ellipse fill="none" stroke="#8b1a1a" stroke-width="2" cx="126" cy="-306" rx="18" ry="18"/>
<text text-anchor="middle" x="126" y="-300.95" font-family="Times,serif" font-size="14.00">HMGA1</text>
</g>
<!-- PRKCD&#45;&gt;HMGA1 -->
<g id="edge36" class="edge">
<title>PRKCD&#45;&gt;HMGA1</title>
<path fill="none" stroke="#8b1a1a" stroke-width="5" d="M105.4,-360.41C108.93,-351.26 113.37,-339.76 117.22,-329.77"/>
<polygon fill="#8b1a1a" stroke="#8b1a1a" stroke-width="5" points="114.08,-324 123.41,-327.6 122.69,-329.47 113.36,-325.87 114.08,-324"/>
<polyline fill="none" stroke="#8b1a1a" stroke-width="5" points="119.11,-324.87 117.31,-329.53"/>
</g>
<!-- IRF2 -->
<g id="node42" class="node">
<title>IRF2</title>
<ellipse fill="none" stroke="#104e8b" stroke-width="2" cx="72" cy="-234" rx="18" ry="18"/>
<text text-anchor="middle" x="72" y="-228.95" font-family="Times,serif" font-size="14.00">IRF2</text>
</g>
<!-- STAT1&#45;&gt;IRF2 -->
<g id="edge32" class="edge">
<title>STAT1&#45;&gt;IRF2</title>
<path fill="none" stroke="#104e8b" stroke-width="5" d="M72,-287.34C72,-281.74 72,-275.36 72,-269.02"/>
<polygon fill="#104e8b" stroke="#104e8b" stroke-width="5" points="76.38,-269.14 72,-259.14 67.63,-269.14 76.38,-269.14"/>
</g>
<!-- POU3F1 -->
<g id="node32" class="node">
<title>POU3F1</title>
<ellipse fill="none" stroke="#8b1a1a" stroke-width="2" cx="126" cy="-234" rx="18" ry="18"/>
<text text-anchor="middle" x="126" y="-228.95" font-family="Times,serif" font-size="14.00">POU3F1</text>
</g>
<!-- HMGA1&#45;&gt;POU3F1 -->
<g id="edge23" class="edge">
<title>HMGA1&#45;&gt;POU3F1</title>
<path fill="none" stroke="#8b1a1a" stroke-width="5" d="M126,-287.34C126,-281.74 126,-275.36 126,-269.02"/>
<polygon fill="#8b1a1a" stroke="#8b1a1a" stroke-width="5" points="130.38,-269.14 126,-259.14 121.63,-269.14 130.38,-269.14"/>
</g>
<!-- ITGA2B_ITGB3 -->
<g id="node34" class="node">
<title>ITGA2B_ITGB3</title>
<ellipse fill="none" stroke="#8b1a1a" stroke-width="2" cx="558" cy="-378" rx="18" ry="18"/>
<text text-anchor="middle" x="558" y="-372.95" font-family="Times,serif" font-size="14.00">ITGA2B_ITGB3</text>
</g>
<!-- TLN1&#45;&gt;ITGA2B_ITGB3 -->
<g id="edge24" class="edge">
<title>TLN1&#45;&gt;ITGA2B_ITGB3</title>
<path fill="none" stroke="#8b1a1a" stroke-width="5" d="M526.1,-433.46C530.45,-426.03 535.81,-416.89 540.88,-408.22"/>
<polygon fill="#8b1a1a" stroke="#8b1a1a" stroke-width="5" points="544.49,-410.71 545.77,-399.87 536.94,-406.29 544.49,-410.71"/>
</g>
<!-- FGG -->
<g id="node53" class="node">
<title>FGG</title>
<ellipse fill="none" stroke="#8b1a1a" stroke-width="2" cx="558" cy="-306" rx="18" ry="18"/>
<text text-anchor="middle" x="558" y="-300.95" font-family="Times,serif" font-size="14.00">FGG</text>
</g>
<!-- ITGA2B_ITGB3&#45;&gt;FGG -->
<g id="edge47" class="edge">
<title>ITGA2B_ITGB3&#45;&gt;FGG</title>
<path fill="none" stroke="#8b1a1a" stroke-width="5" d="M558,-359.34C558,-353.74 558,-347.36 558,-341.02"/>
<polygon fill="#8b1a1a" stroke="#8b1a1a" stroke-width="5" points="562.38,-341.14 558,-331.14 553.63,-341.14 562.38,-341.14"/>
</g>
<!-- CDH2 -->
<g id="node36" class="node">
<title>CDH2</title>
<ellipse fill="none" stroke="#8b1a1a" stroke-width="2" cx="571" cy="-738" rx="18" ry="18"/>
<text text-anchor="middle" x="571" y="-732.95" font-family="Times,serif" font-size="14.00">CDH2</text>
</g>
<!-- CDON -->
<g id="node37" class="node">
<title>CDON</title>
<ellipse fill="none" stroke="#8b1a1a" stroke-width="2" cx="571" cy="-666" rx="18" ry="18"/>
<text text-anchor="middle" x="571" y="-660.95" font-family="Times,serif" font-size="14.00">CDON</text>
</g>
<!-- CDH2&#45;&gt;CDON -->
<g id="edge28" class="edge">
<title>CDH2&#45;&gt;CDON</title>
<path fill="none" stroke="#8b1a1a" stroke-width="5" d="M571,-719.34C571,-713.74 571,-707.36 571,-701.02"/>
<polygon fill="#8b1a1a" stroke="#8b1a1a" stroke-width="5" points="575.38,-701.14 571,-691.14 566.63,-701.14 575.38,-701.14"/>
</g>
<!-- CDON&#45;&gt;ABL1 -->
<g id="edge50" class="edge">
<title>CDON&#45;&gt;ABL1</title>
<path fill="none" stroke="#8b1a1a" stroke-width="5" d="M555.98,-655.27C539.39,-644.51 512.29,-626.95 491.61,-613.55"/>
<polygon fill="#8b1a1a" stroke="#8b1a1a" stroke-width="5" points="494.24,-610.04 483.47,-608.27 489.48,-617.38 494.24,-610.04"/>
</g>
<!-- MAPK14 -->
<g id="node39" class="node">
<title>MAPK14</title>
<ellipse fill="none" stroke="#8b1a1a" stroke-width="2" cx="598" cy="-594" rx="18" ry="18"/>
<text text-anchor="middle" x="598" y="-588.95" font-family="Times,serif" font-size="14.00">MAPK14</text>
</g>
<!-- CDON&#45;&gt;MAPK14 -->
<g id="edge53" class="edge">
<title>CDON&#45;&gt;MAPK14</title>
<path fill="none" stroke="#8b1a1a" stroke-width="5" d="M577.4,-648.41C579.92,-641.87 582.9,-634.14 585.81,-626.61"/>
<polygon fill="#8b1a1a" stroke="#8b1a1a" stroke-width="5" points="589.89,-628.19 589.4,-617.29 581.72,-625.04 589.89,-628.19"/>
</g>
<!-- MAPK14&#45;&gt;GSK3B -->
<g id="edge49" class="edge">
<title>MAPK14&#45;&gt;GSK3B</title>
<path fill="none" stroke="#104e8b" stroke-width="5" d="M598,-575.34C598,-566.94 598,-556.77 598,-547.64"/>
<polygon fill="#104e8b" stroke="#104e8b" stroke-width="5" points="593,-543.4 603,-543.4 603,-545.4 593,-545.4 593,-543.4"/>
<polyline fill="none" stroke="#104e8b" stroke-width="5" points="598,-542.4 598,-547.4"/>
</g>
<!-- JUNB -->
<g id="node40" class="node">
<title>JUNB</title>
<ellipse fill="none" stroke="#8b1a1a" stroke-width="2" cx="652" cy="-522" rx="18" ry="18"/>
<text text-anchor="middle" x="652" y="-516.95" font-family="Times,serif" font-size="14.00">JUNB</text>
</g>
<!-- MAPK14&#45;&gt;JUNB -->
<g id="edge30" class="edge">
<title>MAPK14&#45;&gt;JUNB</title>
<path fill="none" stroke="#8b1a1a" stroke-width="5" d="M608.93,-578.83C615.37,-570.48 623.73,-559.65 631.37,-549.75"/>
<polygon fill="#8b1a1a" stroke="#8b1a1a" stroke-width="5" points="634.63,-552.67 637.28,-542.08 627.71,-547.33 634.63,-552.67"/>
</g>
<!-- PPP2CA&#45;&gt;PRKCD -->
<g id="edge31" class="edge">
<title>PPP2CA&#45;&gt;PRKCD</title>
<path fill="none" stroke="#104e8b" stroke-width="5" d="M191.98,-439.27C173.23,-427.11 141.04,-406.25 119.89,-392.54"/>
<polygon fill="#104e8b" stroke="#104e8b" stroke-width="5" points="113.62,-394.43 119.05,-386.04 120.73,-387.13 115.29,-395.52 113.62,-394.43"/>
<polyline fill="none" stroke="#104e8b" stroke-width="5" points="115.5,-389.69 119.69,-392.41"/>
</g>
<!-- MAPK1 -->
<g id="node51" class="node">
<title>MAPK1</title>
<ellipse fill="none" stroke="#104e8b" stroke-width="2" cx="180" cy="-378" rx="18" ry="18"/>
<text text-anchor="middle" x="180" y="-372.95" font-family="Times,serif" font-size="14.00">MAPK1</text>
</g>
<!-- PPP2CA&#45;&gt;MAPK1 -->
<g id="edge43" class="edge">
<title>PPP2CA&#45;&gt;MAPK1</title>
<path fill="none" stroke="#104e8b" stroke-width="5" d="M200.6,-432.41C197.07,-423.26 192.63,-411.76 188.78,-401.77"/>
<polygon fill="#104e8b" stroke="#104e8b" stroke-width="5" points="182.59,-399.6 191.92,-396 192.64,-397.87 183.31,-401.47 182.59,-399.6"/>
<polyline fill="none" stroke="#104e8b" stroke-width="5" points="186.89,-396.87 188.69,-401.53"/>
</g>
<!-- IRF3 -->
<g id="node55" class="node">
<title>IRF3</title>
<ellipse fill="none" stroke="#104e8b" stroke-width="2" cx="234" cy="-378" rx="18" ry="18"/>
<text text-anchor="middle" x="234" y="-372.95" font-family="Times,serif" font-size="14.00">IRF3</text>
</g>
<!-- PPP2CA&#45;&gt;IRF3 -->
<g id="edge48" class="edge">
<title>PPP2CA&#45;&gt;IRF3</title>
<path fill="none" stroke="#104e8b" stroke-width="5" d="M213.4,-432.41C216.93,-423.26 221.37,-411.76 225.22,-401.77"/>
<polygon fill="#104e8b" stroke="#104e8b" stroke-width="5" points="222.08,-396 231.41,-399.6 230.69,-401.47 221.36,-397.87 222.08,-396"/>
<polyline fill="none" stroke="#104e8b" stroke-width="5" points="227.11,-396.87 225.31,-401.53"/>
</g>
<!-- ZEB2 -->
<g id="node44" class="node">
<title>ZEB2</title>
<ellipse fill="none" stroke="#8b1a1a" stroke-width="2" cx="180" cy="-90" rx="18" ry="18"/>
<text text-anchor="middle" x="180" y="-84.95" font-family="Times,serif" font-size="14.00">ZEB2</text>
</g>
<!-- CTBP1&#45;&gt;ZEB2 -->
<g id="edge33" class="edge">
<title>CTBP1&#45;&gt;ZEB2</title>
<path fill="none" stroke="#8b1a1a" stroke-width="5" d="M180,-143.34C180,-137.74 180,-131.36 180,-125.02"/>
<polygon fill="#8b1a1a" stroke="#8b1a1a" stroke-width="5" points="184.38,-125.14 180,-115.14 175.63,-125.14 184.38,-125.14"/>
</g>
<!-- ULK1 -->
<g id="node50" class="node">
<title>ULK1</title>
<ellipse fill="none" stroke="#104e8b" stroke-width="2" cx="450" cy="-162" rx="18" ry="18"/>
<text text-anchor="middle" x="450" y="-156.95" font-family="Times,serif" font-size="14.00">ULK1</text>
</g>
<!-- AKT1S1_DEPTOR_MLST8_MTOR_RPTOR&#45;&gt;ULK1 -->
<g id="edge42" class="edge">
<title>AKT1S1_DEPTOR_MLST8_MTOR_RPTOR&#45;&gt;ULK1</title>
<path fill="none" stroke="#104e8b" stroke-width="5" d="M450,-215.34C450,-206.94 450,-196.77 450,-187.64"/>
<polygon fill="#104e8b" stroke="#104e8b" stroke-width="5" points="445,-183.4 455,-183.4 455,-185.4 445,-185.4 445,-183.4"/>
<polyline fill="none" stroke="#104e8b" stroke-width="5" points="450,-182.4 450,-187.4"/>
</g>
<!-- NRBF2 -->
<g id="node52" class="node">
<title>NRBF2</title>
<ellipse fill="none" stroke="#8b1a1a" stroke-width="2" cx="504" cy="-162" rx="18" ry="18"/>
<text text-anchor="middle" x="504" y="-156.95" font-family="Times,serif" font-size="14.00">NRBF2</text>
</g>
<!-- AKT1S1_DEPTOR_MLST8_MTOR_RPTOR&#45;&gt;NRBF2 -->
<g id="edge45" class="edge">
<title>AKT1S1_DEPTOR_MLST8_MTOR_RPTOR&#45;&gt;NRBF2</title>
<path fill="none" stroke="#8b1a1a" stroke-width="5" d="M460.93,-218.83C467.37,-210.48 475.73,-199.65 483.37,-189.75"/>
<polygon fill="#8b1a1a" stroke="#8b1a1a" stroke-width="5" points="486.63,-192.67 489.28,-182.08 479.71,-187.33 486.63,-192.67"/>
</g>
<!-- RORA -->
<g id="node56" class="node">
<title>RORA</title>
<ellipse fill="none" stroke="#8b1a1a" stroke-width="2" cx="180" cy="-306" rx="18" ry="18"/>
<text text-anchor="middle" x="180" y="-300.95" font-family="Times,serif" font-size="14.00">RORA</text>
</g>
<!-- MAPK1&#45;&gt;RORA -->
<g id="edge54" class="edge">
<title>MAPK1&#45;&gt;RORA</title>
<path fill="none" stroke="#8b1a1a" stroke-width="5" d="M180,-359.34C180,-350.94 180,-340.77 180,-331.64"/>
<polygon fill="#8b1a1a" stroke="#8b1a1a" stroke-width="5" points="175,-327.4 185,-327.4 185,-329.4 175,-329.4 175,-327.4"/>
<polyline fill="none" stroke="#8b1a1a" stroke-width="5" points="180,-326.4 180,-331.4"/>
</g>
<!-- FN1 -->
<g id="node54" class="node">
<title>FN1</title>
<ellipse fill="none" stroke="#104e8b" stroke-width="2" cx="558" cy="-234" rx="18" ry="18"/>
<text text-anchor="middle" x="558" y="-228.95" font-family="Times,serif" font-size="14.00">FN1</text>
</g>
<!-- FGG&#45;&gt;FN1 -->
<g id="edge46" class="edge">
<title>FGG&#45;&gt;FN1</title>
<path fill="none" stroke="#104e8b" stroke-width="5" d="M558,-287.34C558,-278.94 558,-268.77 558,-259.64"/>
<polygon fill="#104e8b" stroke="#104e8b" stroke-width="5" points="553,-255.4 563,-255.4 563,-257.4 553,-257.4 553,-255.4"/>
<polyline fill="none" stroke="#104e8b" stroke-width="5" points="558,-254.4 558,-259.4"/>
</g>
<!-- e_3273_source -->
<g id="node59" class="node">
<title>e_3273_source</title>
<ellipse fill="black" stroke="black" cx="814" cy="-793.8" rx="1.8" ry="1.8"/>
</g>
<!-- IGF1 -->
<g id="node60" class="node">
<title>IGF1</title>
<ellipse fill="none" stroke="#8b1a1a" stroke-width="2" cx="814" cy="-738" rx="18" ry="18"/>
<text text-anchor="middle" x="814" y="-732.95" font-family="Times,serif" font-size="14.00">IGF1</text>
</g>
<!-- e_3273_source&#45;&gt;IGF1 -->
<g id="edge57" class="edge">
<title>e_3273_source&#45;&gt;IGF1</title>
<path fill="none" stroke="#8b1a1a" stroke-width="5" d="M814,-791.87C814,-789.27 814,-781.56 814,-772.81"/>
<polygon fill="#8b1a1a" stroke="#8b1a1a" stroke-width="5" points="818.38,-773.04 814,-763.04 809.63,-773.04 818.38,-773.04"/>
</g>
<!-- e_3277_source -->
<g id="node61" class="node">
<title>e_3277_source</title>
<ellipse fill="black" stroke="black" cx="760" cy="-793.8" rx="1.8" ry="1.8"/>
</g>
<!-- e_3277_source&#45;&gt;TGFB1 -->
<g id="edge58" class="edge">
<title>e_3277_source&#45;&gt;TGFB1</title>
<path fill="none" stroke="#8b1a1a" stroke-width="5" d="M760,-791.87C760,-789.27 760,-781.56 760,-772.81"/>
<polygon fill="#8b1a1a" stroke="#8b1a1a" stroke-width="5" points="764.38,-773.04 760,-763.04 755.63,-773.04 764.38,-773.04"/>
</g>
<!-- e_3278_source -->
<g id="node62" class="node">
<title>e_3278_source</title>
<ellipse fill="black" stroke="black" cx="571" cy="-793.8" rx="1.8" ry="1.8"/>
</g>
<!-- e_3278_source&#45;&gt;CDH2 -->
<g id="edge59" class="edge">
<title>e_3278_source&#45;&gt;CDH2</title>
<path fill="none" stroke="#8b1a1a" stroke-width="5" d="M571,-791.87C571,-789.27 571,-781.56 571,-772.81"/>
<polygon fill="#8b1a1a" stroke="#8b1a1a" stroke-width="5" points="575.38,-773.04 571,-763.04 566.63,-773.04 575.38,-773.04"/>
</g>
</g>
</svg>