<?xml version="1.0" encoding="UTF-8" standalone="no"?>
<!DOCTYPE svg PUBLIC "-//W3C//DTD SVG 1.1//EN"
 "http://www.w3.org/Graphics/SVG/1.1/DTD/svg11.dtd">
<!-- Generated by graphviz version 2.43.0 (0)
 -->
<!-- Title: %3 Pages: 1 -->
<svg width="44pt" height="411pt"
 viewBox="0.00 0.00 44.00 411.20" xmlns="http://www.w3.org/2000/svg" xmlns:xlink="http://www.w3.org/1999/xlink">
<g id="graph0" class="graph" transform="scale(1 1) rotate(0) translate(4 407.2)">
<title>%3</title>
<polygon fill="white" stroke="transparent" points="-4,4 -4,-407.2 40,-407.2 40,4 -4,4"/>
<!-- 73 -->
<g id="node1" class="node">
<title>73</title>
<ellipse fill="none" stroke="black" cx="18" cy="-129.6" rx="18" ry="18"/>
<text text-anchor="middle" x="18" y="-125.9" font-family="Times,serif" font-size="14.00">73</text>
</g>
<!-- 4851 -->
<g id="node2" class="node">
<title>4851</title>
<ellipse fill="none" stroke="black" cx="18" cy="-57.6" rx="18" ry="18"/>
<text text-anchor="middle" x="18" y="-53.9" font-family="Times,serif" font-size="14.00">4851</text>
</g>
<!-- 73&#45;&gt;4851 -->
<g id="edge1" class="edge">
<title>73&#45;&gt;4851</title>
<path fill="none" stroke="black" d="M18,-111.3C18,-103.58 18,-94.31 18,-85.71"/>
<polygon fill="black" stroke="black" points="21.5,-85.7 18,-75.7 14.5,-85.7 21.5,-85.7"/>
</g>
<!-- e_5_target -->
<g id="node7" class="node">
<title>e_5_target</title>
<ellipse fill="black" stroke="black" cx="18" cy="-1.8" rx="1.8" ry="1.8"/>
</g>
<!-- 4851&#45;&gt;e_5_target -->
<g id="edge6" class="edge">
<title>4851&#45;&gt;e_5_target</title>
<path fill="none" stroke="black" d="M18,-39.58C18,-31.17 18,-21.28 18,-13.87"/>
<polygon fill="black" stroke="black" points="21.5,-13.73 18,-3.73 14.5,-13.73 21.5,-13.73"/>
</g>
<!-- 18 -->
<g id="node3" class="node">
<title>18</title>
<ellipse fill="none" stroke="black" cx="18" cy="-273.6" rx="18" ry="18"/>
<text text-anchor="middle" x="18" y="-269.9" font-family="Times,serif" font-size="14.00">18</text>
</g>
<!-- 8 -->
<g id="node4" class="node">
<title>8</title>
<ellipse fill="none" stroke="black" cx="18" cy="-201.6" rx="18" ry="18"/>
<text text-anchor="middle" x="18" y="-197.9" font-family="Times,serif" font-size="14.00">8</text>
</g>
<!-- 18&#45;&gt;8 -->
<g id="edge2" class="edge">
<title>18&#45;&gt;8</title>
<path fill="none" stroke="black" d="M18,-255.3C18,-247.58 18,-238.31 18,-229.71"/>
<polygon fill="black" stroke="black" points="21.5,-229.7 18,-219.7 14.5,-229.7 21.5,-229.7"/>
</g>
<!-- 8&#45;&gt;73 -->
<g id="edge3" class="edge">
<title>8&#45;&gt;73</title>
<path fill="none" stroke="black" d="M18,-183.3C18,-175.58 18,-166.31 18,-157.71"/>
<polygon fill="black" stroke="black" points="21.5,-157.7 18,-147.7 14.5,-157.7 21.5,-157.7"/>
</g>
<!-- 2007 -->
<g id="node5" class="node">
<title>2007</title>
<ellipse fill="none" stroke="black" cx="18" cy="-345.6" rx="18" ry="18"/>
<text text-anchor="middle" x="18" y="-341.9" font-family="Times,serif" font-size="14.00">2007</text>
</g>
<!-- 2007&#45;&gt;18 -->
<g id="edge4" class="edge">
<title>2007&#45;&gt;18</title>
<path fill="none" stroke="black" d="M18,-327.3C18,-319.58 18,-310.31 18,-301.71"/>
<polygon fill="black" stroke="black" points="21.5,-301.7 18,-291.7 14.5,-301.7 21.5,-301.7"/>
</g>
<!-- e_4_source -->
<g id="node6" class="node">
<title>e_4_source</title>
<ellipse fill="black" stroke="black" cx="18" cy="-401.4" rx="1.8" ry="1.8"/>
</g>
<!-- e_4_source&#45;&gt;2007 -->
<g id="edge5" class="edge">
<title>e_4_source&#45;&gt;2007</title>
<path fill="none" stroke="black" d="M18,-399.47C18,-396.24 18,-385.15 18,-373.95"/>
<polygon fill="black" stroke="black" points="21.5,-373.86 18,-363.86 14.5,-373.86 21.5,-373.86"/>
</g>
</g>
</svg>