<?xml version="1.0" encoding="UTF-8" standalone="no"?>
<!DOCTYPE svg PUBLIC "-//W3C//DTD SVG 1.1//EN"
 "http://www.w3.org/Graphics/SVG/1.1/DTD/svg11.dtd">
<!-- Generated by graphviz version 2.43.0 (0)
 -->
<!-- Title: %3 Pages: 1 -->
<svg width="44pt" height="267pt"
 viewBox="0.00 0.00 44.00 267.20" xmlns="http://www.w3.org/2000/svg" xmlns:xlink="http://www.w3.org/1999/xlink">
<g id="graph0" class="graph" transform="scale(1 1) rotate(0) translate(4 263.2)">
<title>%3</title>
<polygon fill="white" stroke="transparent" points="-4,4 -4,-263.2 40,-263.2 40,4 -4,4"/>
<!-- 71 -->
<g id="node1" class="node">
<title>71</title>
<ellipse fill="none" stroke="black" cx="18" cy="-129.6" rx="18" ry="18"/>
<text text-anchor="middle" x="18" y="-125.9" font-family="Times,serif" font-size="14.00">71</text>
</g>
<!-- 2247 -->
<g id="node2" class="node">
<title>2247</title>
<ellipse fill="none" stroke="black" cx="18" cy="-57.6" rx="18" ry="18"/>
<text text-anchor="middle" x="18" y="-53.9" font-family="Times,serif" font-size="14.00">2247</text>
</g>
<!-- 71&#45;&gt;2247 -->
<g id="edge1" class="edge">
<title>71&#45;&gt;2247</title>
<path fill="none" stroke="black" d="M18,-111.3C18,-103.58 18,-94.31 18,-85.71"/>
<polygon fill="black" stroke="black" points="21.5,-85.7 18,-75.7 14.5,-85.7 21.5,-85.7"/>
</g>
<!-- e_1_target -->
<g id="node3" class="node">
<title>e_1_target</title>
<ellipse fill="black" stroke="black" cx="18" cy="-1.8" rx="1.8" ry="1.8"/>
</g>
<!-- 2247&#45;&gt;e_1_target -->
<g id="edge2" class="edge">
<title>2247&#45;&gt;e_1_target</title>
<path fill="none" stroke="black" d="M18,-39.58C18,-31.17 18,-21.28 18,-13.87"/>
<polygon fill="black" stroke="black" points="21.5,-13.73 18,-3.73 14.5,-13.73 21.5,-13.73"/>
</g>
<!-- 4899 -->
<g id="node4" class="node">
<title>4899</title>
<ellipse fill="none" stroke="black" cx="18" cy="-201.6" rx="18" ry="18"/>
<text text-anchor="middle" x="18" y="-197.9" font-family="Times,serif" font-size="14.00">4899</text>
</g>
<!-- 4899&#45;&gt;71 -->
<g id="edge3" class="edge">
<title>4899&#45;&gt;71</title>
<path fill="none" stroke="black" d="M18,-183.3C18,-175.58 18,-166.31 18,-157.71"/>
<polygon fill="black" stroke="black" points="21.5,-157.7 18,-147.7 14.5,-157.7 21.5,-157.7"/>
</g>
<!-- e_3_source -->
<g id="node5" class="node">
<title>e_3_source</title>
<ellipse fill="black" stroke="black" cx="18" cy="-257.4" rx="1.8" ry="1.8"/>
</g>
<!-- e_3_source&#45;&gt;4899 -->
<g id="edge4" class="edge">
<title>e_3_source&#45;&gt;4899</title>
<path fill="none" stroke="black" d="M18,-255.47C18,-252.24 18,-241.15 18,-229.95"/>
<polygon fill="black" stroke="black" points="21.5,-229.86 18,-219.86 14.5,-229.86 21.5,-229.86"/>
</g>
</g>
</svg>