<?xml version="1.0" encoding="UTF-8" standalone="no"?>
<!DOCTYPE svg PUBLIC "-//W3C//DTD SVG 1.1//EN"
 "http://www.w3.org/Graphics/SVG/1.1/DTD/svg11.dtd">
<!-- Generated by graphviz version 2.43.0 (0)
 -->
<!-- Title: %3 Pages: 1 -->
<svg width="44pt" height="483pt"
 viewBox="0.00 0.00 44.00 483.20" xmlns="http://www.w3.org/2000/svg" xmlns:xlink="http://www.w3.org/1999/xlink">
<g id="graph0" class="graph" transform="scale(1 1) rotate(0) translate(4 479.2)">
<title>%3</title>
<polygon fill="white" stroke="transparent" points="-4,4 -4,-479.2 40,-479.2 40,4 -4,4"/>
<!-- 676 -->
<g id="node1" class="node">
<title>676</title>
<ellipse fill="none" stroke="black" cx="18" cy="-345.6" rx="18" ry="18"/>
<text text-anchor="middle" x="18" y="-341.9" font-family="Times,serif" font-size="14.00">676</text>
</g>
<!-- 158 -->
<g id="node2" class="node">
<title>158</title>
<ellipse fill="none" stroke="black" cx="18" cy="-273.6" rx="18" ry="18"/>
<text text-anchor="middle" x="18" y="-269.9" font-family="Times,serif" font-size="14.00">158</text>
</g>
<!-- 676&#45;&gt;158 -->
<g id="edge1" class="edge">
<title>676&#45;&gt;158</title>
<path fill="none" stroke="black" d="M18,-327.3C18,-319.58 18,-310.31 18,-301.71"/>
<polygon fill="black" stroke="black" points="21.5,-301.7 18,-291.7 14.5,-301.7 21.5,-301.7"/>
</g>
<!-- 55 -->
<g id="node3" class="node">
<title>55</title>
<ellipse fill="none" stroke="black" cx="18" cy="-201.6" rx="18" ry="18"/>
<text text-anchor="middle" x="18" y="-197.9" font-family="Times,serif" font-size="14.00">55</text>
</g>
<!-- 158&#45;&gt;55 -->
<g id="edge2" class="edge">
<title>158&#45;&gt;55</title>
<path fill="none" stroke="black" d="M18,-255.3C18,-247.58 18,-238.31 18,-229.71"/>
<polygon fill="black" stroke="black" points="21.5,-229.7 18,-219.7 14.5,-229.7 21.5,-229.7"/>
</g>
<!-- 392 -->
<g id="node4" class="node">
<title>392</title>
<ellipse fill="none" stroke="black" cx="18" cy="-129.6" rx="18" ry="18"/>
<text text-anchor="middle" x="18" y="-125.9" font-family="Times,serif" font-size="14.00">392</text>
</g>
<!-- 55&#45;&gt;392 -->
<g id="edge4" class="edge">
<title>55&#45;&gt;392</title>
<path fill="none" stroke="black" d="M18,-183.3C18,-175.58 18,-166.31 18,-157.71"/>
<polygon fill="black" stroke="black" points="21.5,-157.7 18,-147.7 14.5,-157.7 21.5,-157.7"/>
</g>
<!-- 4584 -->
<g id="node5" class="node">
<title>4584</title>
<ellipse fill="none" stroke="black" cx="18" cy="-57.6" rx="18" ry="18"/>
<text text-anchor="middle" x="18" y="-53.9" font-family="Times,serif" font-size="14.00">4584</text>
</g>
<!-- 392&#45;&gt;4584 -->
<g id="edge3" class="edge">
<title>392&#45;&gt;4584</title>
<path fill="none" stroke="black" d="M18,-111.3C18,-103.58 18,-94.31 18,-85.71"/>
<polygon fill="black" stroke="black" points="21.5,-85.7 18,-75.7 14.5,-85.7 21.5,-85.7"/>
</g>
<!-- e_6_target -->
<g id="node8" class="node">
<title>e_6_target</title>
<ellipse fill="black" stroke="black" cx="18" cy="-1.8" rx="1.8" ry="1.8"/>
</g>
<!-- 4584&#45;&gt;e_6_target -->
<g id="edge7" class="edge">
<title>4584&#45;&gt;e_6_target</title>
<path fill="none" stroke="black" d="M18,-39.58C18,-31.17 18,-21.28 18,-13.87"/>
<polygon fill="black" stroke="black" points="21.5,-13.73 18,-3.73 14.5,-13.73 21.5,-13.73"/>
</g>
<!-- 1095 -->
<g id="node6" class="node">
<title>1095</title>
<ellipse fill="none" stroke="black" cx="18" cy="-417.6" rx="18" ry="18"/>
<text text-anchor="middle" x="18" y="-413.9" font-family="Times,serif" font-size="14.00">1095</text>
</g>
<!-- 1095&#45;&gt;676 -->
<g id="edge5" class="edge">
<title>1095&#45;&gt;676</title>
<path fill="none" stroke="black" d="M18,-399.3C18,-391.58 18,-382.31 18,-373.71"/>
<polygon fill="black" stroke="black" points="21.5,-373.7 18,-363.7 14.5,-373.7 21.5,-373.7"/>
</g>
<!-- e_5_source -->
<g id="node7" class="node">
<title>e_5_source</title>
<ellipse fill="black" stroke="black" cx="18" cy="-473.4" rx="1.8" ry="1.8"/>
</g>
<!-- e_5_source&#45;&gt;1095 -->
<g id="edge6" class="edge">
<title>e_5_source&#45;&gt;1095</title>
<path fill="none" stroke="black" d="M18,-471.47C18,-468.24 18,-457.15 18,-445.95"/>
<polygon fill="black" stroke="black" points="21.5,-445.86 18,-435.86 14.5,-445.86 21.5,-445.86"/>
</g>
</g>
</svg>