<?xml version="1.0" encoding="UTF-8" standalone="no"?>
<!DOCTYPE svg PUBLIC "-//W3C//DTD SVG 1.1//EN"
 "http://www.w3.org/Graphics/SVG/1.1/DTD/svg11.dtd">
<!-- Generated by graphviz version 2.43.0 (0)
 -->
<!-- Title: %3 Pages: 1 -->
<svg width="44pt" height="627pt"
 viewBox="0.00 0.00 44.00 627.20" xmlns="http://www.w3.org/2000/svg" xmlns:xlink="http://www.w3.org/1999/xlink">
<g id="graph0" class="graph" transform="scale(1 1) rotate(0) translate(4 623.2)">
<title>%3</title>
<polygon fill="white" stroke="transparent" points="-4,4 -4,-623.2 40,-623.2 40,4 -4,4"/>
<!-- 415 -->
<g id="node1" class="node">
<title>415</title>
<ellipse fill="none" stroke="black" cx="18" cy="-417.6" rx="18" ry="18"/>
<text text-anchor="middle" x="18" y="-413.9" font-family="Times,serif" font-size="14.00">415</text>
</g>
<!-- 33 -->
<g id="node2" class="node">
<title>33</title>
<ellipse fill="none" stroke="black" cx="18" cy="-345.6" rx="18" ry="18"/>
<text text-anchor="middle" x="18" y="-341.9" font-family="Times,serif" font-size="14.00">33</text>
</g>
<!-- 415&#45;&gt;33 -->
<g id="edge1" class="edge">
<title>415&#45;&gt;33</title>
<path fill="none" stroke="black" d="M18,-399.3C18,-391.58 18,-382.31 18,-373.71"/>
<polygon fill="black" stroke="black" points="21.5,-373.7 18,-363.7 14.5,-373.7 21.5,-373.7"/>
</g>
<!-- 2024 -->
<g id="node7" class="node">
<title>2024</title>
<ellipse fill="none" stroke="black" cx="18" cy="-273.6" rx="18" ry="18"/>
<text text-anchor="middle" x="18" y="-269.9" font-family="Times,serif" font-size="14.00">2024</text>
</g>
<!-- 33&#45;&gt;2024 -->
<g id="edge8" class="edge">
<title>33&#45;&gt;2024</title>
<path fill="none" stroke="black" d="M18,-327.3C18,-319.58 18,-310.31 18,-301.71"/>
<polygon fill="black" stroke="black" points="21.5,-301.7 18,-291.7 14.5,-301.7 21.5,-301.7"/>
</g>
<!-- e_1_target -->
<g id="node3" class="node">
<title>e_1_target</title>
<ellipse fill="black" stroke="black" cx="18" cy="-1.8" rx="1.8" ry="1.8"/>
</g>
<!-- 4062 -->
<g id="node4" class="node">
<title>4062</title>
<ellipse fill="none" stroke="black" cx="18" cy="-57.6" rx="18" ry="18"/>
<text text-anchor="middle" x="18" y="-53.9" font-family="Times,serif" font-size="14.00">4062</text>
</g>
<!-- 4062&#45;&gt;e_1_target -->
<g id="edge2" class="edge">
<title>4062&#45;&gt;e_1_target</title>
<path fill="none" stroke="black" d="M18,-39.58C18,-31.17 18,-21.28 18,-13.87"/>
<polygon fill="black" stroke="black" points="21.5,-13.73 18,-3.73 14.5,-13.73 21.5,-13.73"/>
</g>
<!-- 51 -->
<g id="node5" class="node">
<title>51</title>
<ellipse fill="none" stroke="black" cx="18" cy="-129.6" rx="18" ry="18"/>
<text text-anchor="middle" x="18" y="-125.9" font-family="Times,serif" font-size="14.00">51</text>
</g>
<!-- 51&#45;&gt;4062 -->
<g id="edge3" class="edge">
<title>51&#45;&gt;4062</title>
<path fill="none" stroke="black" d="M18,-111.3C18,-103.58 18,-94.31 18,-85.71"/>
<polygon fill="black" stroke="black" points="21.5,-85.7 18,-75.7 14.5,-85.7 21.5,-85.7"/>
</g>
<!-- 102 -->
<g id="node6" class="node">
<title>102</title>
<ellipse fill="none" stroke="black" cx="18" cy="-201.6" rx="18" ry="18"/>
<text text-anchor="middle" x="18" y="-197.9" font-family="Times,serif" font-size="14.00">102</text>
</g>
<!-- 102&#45;&gt;51 -->
<g id="edge4" class="edge">
<title>102&#45;&gt;51</title>
<path fill="none" stroke="black" d="M18,-183.3C18,-175.58 18,-166.31 18,-157.71"/>
<polygon fill="black" stroke="black" points="21.5,-157.7 18,-147.7 14.5,-157.7 21.5,-157.7"/>
</g>
<!-- 2024&#45;&gt;102 -->
<g id="edge5" class="edge">
<title>2024&#45;&gt;102</title>
<path fill="none" stroke="black" d="M18,-255.3C18,-247.58 18,-238.31 18,-229.71"/>
<polygon fill="black" stroke="black" points="21.5,-229.7 18,-219.7 14.5,-229.7 21.5,-229.7"/>
</g>
<!-- 4816 -->
<g id="node8" class="node">
<title>4816</title>
<ellipse fill="none" stroke="black" cx="18" cy="-561.6" rx="18" ry="18"/>
<text text-anchor="middle" x="18" y="-557.9" font-family="Times,serif" font-size="14.00">4816</text>
</g>
<!-- 3919 -->
<g id="node9" class="node">
<title>3919</title>
<ellipse fill="none" stroke="black" cx="18" cy="-489.6" rx="18" ry="18"/>
<text text-anchor="middle" x="18" y="-485.9" font-family="Times,serif" font-size="14.00">3919</text>
</g>
<!-- 4816&#45;&gt;3919 -->
<g id="edge6" class="edge">
<title>4816&#45;&gt;3919</title>
<path fill="none" stroke="black" d="M18,-543.3C18,-535.58 18,-526.31 18,-517.71"/>
<polygon fill="black" stroke="black" points="21.5,-517.7 18,-507.7 14.5,-517.7 21.5,-517.7"/>
</g>
<!-- 3919&#45;&gt;415 -->
<g id="edge7" class="edge">
<title>3919&#45;&gt;415</title>
<path fill="none" stroke="black" d="M18,-471.3C18,-463.58 18,-454.31 18,-445.71"/>
<polygon fill="black" stroke="black" points="21.5,-445.7 18,-435.7 14.5,-445.7 21.5,-445.7"/>
</g>
<!-- e_8_source -->
<g id="node10" class="node">
<title>e_8_source</title>
<ellipse fill="black" stroke="black" cx="18" cy="-617.4" rx="1.8" ry="1.8"/>
</g>
<!-- e_8_source&#45;&gt;4816 -->
<g id="edge9" class="edge">
<title>e_8_source&#45;&gt;4816</title>
<path fill="none" stroke="black" d="M18,-615.47C18,-612.24 18,-601.15 18,-589.95"/>
<polygon fill="black" stroke="black" points="21.5,-589.86 18,-579.86 14.5,-589.86 21.5,-589.86"/>
</g>
</g>
</svg>