<?xml version="1.0" encoding="UTF-8" standalone="no"?>
<!DOCTYPE svg PUBLIC "-//W3C//DTD SVG 1.1//EN"
 "http://www.w3.org/Graphics/SVG/1.1/DTD/svg11.dtd">
<!-- Generated by graphviz version 2.43.0 (0)
 -->
<!-- Title: %3 Pages: 1 -->
<svg width="90pt" height="332pt"
 viewBox="0.00 0.00 90.00 332.00" xmlns="http://www.w3.org/2000/svg" xmlns:xlink="http://www.w3.org/1999/xlink">
<g id="graph0" class="graph" transform="scale(1 1) rotate(0) translate(4 328)">
<title>%3</title>
<polygon fill="white" stroke="transparent" points="-4,4 -4,-328 86,-328 86,4 -4,4"/>
<!-- A -->
<g id="node1" class="node">
<title>A</title>
<ellipse fill="none" stroke="black" cx="41" cy="-306" rx="18" ry="18"/>
<text text-anchor="middle" x="41" y="-302.3" font-family="Times,serif" font-size="14.00">A</text>
</g>
<!-- B -->
<g id="node2" class="node">
<title>B</title>
<ellipse fill="none" stroke="black" cx="64" cy="-234" rx="18" ry="18"/>
<text text-anchor="middle" x="64" y="-230.3" font-family="Times,serif" font-size="14.00">B</text>
</g>
<!-- A&#45;&gt;B -->
<g id="edge1" class="edge">
<title>A&#45;&gt;B</title>
<path fill="none" stroke="black" d="M46.33,-288.76C49.02,-280.58 52.35,-270.45 55.39,-261.2"/>
<polygon fill="black" stroke="black" points="58.74,-262.23 58.53,-251.63 52.09,-260.04 58.74,-262.23"/>
</g>
<!-- D -->
<g id="node3" class="node">
<title>D</title>
<ellipse fill="none" stroke="black" cx="18" cy="-162" rx="18" ry="18"/>
<text text-anchor="middle" x="18" y="-158.3" font-family="Times,serif" font-size="14.00">D</text>
</g>
<!-- A&#45;&gt;D -->
<g id="edge2" class="edge">
<title>A&#45;&gt;D</title>
<path fill="none" stroke="black" d="M38.27,-288.15C34.35,-263.92 27.06,-218.96 22.38,-190.05"/>
<polygon fill="black" stroke="black" points="25.78,-189.14 20.73,-179.82 18.87,-190.26 25.78,-189.14"/>
</g>
<!-- B&#45;&gt;D -->
<g id="edge4" class="edge">
<title>B&#45;&gt;D</title>
<path fill="none" stroke="black" d="M54.47,-218.5C48.3,-209.11 40.14,-196.69 33.1,-185.98"/>
<polygon fill="black" stroke="black" points="35.94,-183.92 27.52,-177.49 30.09,-187.76 35.94,-183.92"/>
</g>
<!-- C -->
<g id="node4" class="node">
<title>C</title>
<ellipse fill="none" stroke="black" cx="64" cy="-90" rx="18" ry="18"/>
<text text-anchor="middle" x="64" y="-86.3" font-family="Times,serif" font-size="14.00">C</text>
</g>
<!-- B&#45;&gt;C -->
<g id="edge3" class="edge">
<title>B&#45;&gt;C</title>
<path fill="none" stroke="black" d="M64,-215.87C64,-191.67 64,-147.21 64,-118.39"/>
<polygon fill="black" stroke="black" points="67.5,-118.19 64,-108.19 60.5,-118.19 67.5,-118.19"/>
</g>
<!-- D&#45;&gt;C -->
<g id="edge6" class="edge">
<title>D&#45;&gt;C</title>
<path fill="none" stroke="black" d="M27.53,-146.5C33.7,-137.11 41.86,-124.69 48.9,-113.98"/>
<polygon fill="black" stroke="black" points="51.91,-115.76 54.48,-105.49 46.06,-111.92 51.91,-115.76"/>
</g>
<!-- E -->
<g id="node5" class="node">
<title>E</title>
<ellipse fill="none" stroke="black" cx="41" cy="-18" rx="18" ry="18"/>
<text text-anchor="middle" x="41" y="-14.3" font-family="Times,serif" font-size="14.00">E</text>
</g>
<!-- D&#45;&gt;E -->
<g id="edge7" class="edge">
<title>D&#45;&gt;E</title>
<path fill="none" stroke="black" d="M20.73,-144.15C24.65,-119.92 31.94,-74.96 36.62,-46.05"/>
<polygon fill="black" stroke="black" points="40.13,-46.26 38.27,-35.82 33.22,-45.14 40.13,-46.26"/>
</g>
<!-- C&#45;&gt;E -->
<g id="edge5" class="edge">
<title>C&#45;&gt;E</title>
<path fill="none" stroke="black" d="M58.67,-72.76C55.98,-64.58 52.65,-54.45 49.61,-45.2"/>
<polygon fill="black" stroke="black" points="52.91,-44.04 46.47,-35.63 46.26,-46.23 52.91,-44.04"/>
</g>
</g>
</svg>