<?xml version="1.0" encoding="UTF-8" standalone="no"?>
<!DOCTYPE svg PUBLIC "-//W3C//DTD SVG 1.1//EN"
 "http://www.w3.org/Graphics/SVG/1.1/DTD/svg11.dtd">
<!-- Generated by graphviz version 12.2.1 (0)
 -->
<!-- Pages: 1 -->
<svg width="503pt" height="732pt"
 viewBox="0.00 0.00 503.00 731.60" xmlns="http://www.w3.org/2000/svg" xmlns:xlink="http://www.w3.org/1999/xlink">
<g id="graph0" class="graph" transform="scale(1 1) rotate(0) translate(4 727.6)">
<polygon fill="white" stroke="none" points="-4,4 -4,-727.6 499,-727.6 499,4 -4,4"/>
<!-- ATM -->
<g id="node1" class="node">
<title>ATM</title>
<ellipse fill="none" stroke="#8b1a1a" stroke-width="2" cx="315" cy="-378" rx="18" ry="18"/>
<text text-anchor="middle" x="315" y="-372.95" font-family="Times,serif" font-size="14.00">ATM</text>
</g>
<!-- PRKDC -->
<g id="node2" class="node">
<title>PRKDC</title>
<ellipse fill="none" stroke="#8b1a1a" stroke-width="2" cx="261" cy="-306" rx="18" ry="18"/>
<text text-anchor="middle" x="261" y="-300.95" font-family="Times,serif" font-size="14.00">PRKDC</text>
</g>
<!-- ATM&#45;&gt;PRKDC -->
<g id="edge1" class="edge">
<title>ATM&#45;&gt;PRKDC</title>
<path fill="none" stroke="#8b1a1a" stroke-width="5" d="M304.07,-362.83C297.63,-354.48 289.27,-343.65 281.63,-333.75"/>
<polygon fill="#8b1a1a" stroke="#8b1a1a" stroke-width="5" points="285.29,-331.33 275.72,-326.08 278.37,-336.67 285.29,-331.33"/>
</g>
<!-- EP300 -->
<g id="node9" class="node">
<title>EP300</title>
<ellipse fill="none" stroke="#8b1a1a" stroke-width="2" cx="315" cy="-306" rx="18" ry="18"/>
<text text-anchor="middle" x="315" y="-300.95" font-family="Times,serif" font-size="14.00">EP300</text>
</g>
<!-- ATM&#45;&gt;EP300 -->
<g id="edge5" class="edge">
<title>ATM&#45;&gt;EP300</title>
<path fill="none" stroke="#8b1a1a" stroke-width="5" d="M315,-359.34C315,-353.74 315,-347.36 315,-341.02"/>
<polygon fill="#8b1a1a" stroke="#8b1a1a" stroke-width="5" points="319.38,-341.14 315,-331.14 310.63,-341.14 319.38,-341.14"/>
</g>
<!-- SRF -->
<g id="node26" class="node">
<title>SRF</title>
<ellipse fill="none" stroke="#8b1a1a" stroke-width="2" cx="261" cy="-234" rx="18" ry="18"/>
<text text-anchor="middle" x="261" y="-228.95" font-family="Times,serif" font-size="14.00">SRF</text>
</g>
<!-- PRKDC&#45;&gt;SRF -->
<g id="edge20" class="edge">
<title>PRKDC&#45;&gt;SRF</title>
<path fill="none" stroke="#8b1a1a" stroke-width="5" d="M261,-287.34C261,-281.74 261,-275.36 261,-269.02"/>
<polygon fill="#8b1a1a" stroke="#8b1a1a" stroke-width="5" points="265.38,-269.14 261,-259.14 256.63,-269.14 265.38,-269.14"/>
</g>
<!-- STAT6 -->
<g id="node3" class="node">
<title>STAT6</title>
<ellipse fill="none" stroke="#8b1a1a" stroke-width="2" cx="369" cy="-378" rx="18" ry="18"/>
<text text-anchor="middle" x="369" y="-372.95" font-family="Times,serif" font-size="14.00">STAT6</text>
</g>
<!-- STAT1 -->
<g id="node4" class="node">
<title>STAT1</title>
<ellipse fill="none" stroke="#104e8b" stroke-width="2" cx="369" cy="-306" rx="18" ry="18"/>
<text text-anchor="middle" x="369" y="-300.95" font-family="Times,serif" font-size="14.00">STAT1</text>
</g>
<!-- STAT6&#45;&gt;STAT1 -->
<g id="edge2" class="edge">
<title>STAT6&#45;&gt;STAT1</title>
<path fill="none" stroke="#104e8b" stroke-width="5" d="M369,-359.34C369,-350.94 369,-340.77 369,-331.64"/>
<polygon fill="#104e8b" stroke="#104e8b" stroke-width="5" points="364,-327.4 374,-327.4 374,-329.4 364,-329.4 364,-327.4"/>
<polyline fill="none" stroke="#104e8b" stroke-width="5" points="369,-326.4 369,-331.4"/>
</g>
<!-- TAB2 -->
<g id="node5" class="node">
<title>TAB2</title>
<ellipse fill="none" stroke="#8b1a1a" stroke-width="2" cx="288" cy="-162" rx="18" ry="18"/>
<text text-anchor="middle" x="288" y="-156.95" font-family="Times,serif" font-size="14.00">TAB2</text>
</g>
<!-- MAP3K7 -->
<g id="node6" class="node">
<title>MAP3K7</title>
<ellipse fill="none" stroke="#8b1a1a" stroke-width="2" cx="288" cy="-90" rx="18" ry="18"/>
<text text-anchor="middle" x="288" y="-84.95" font-family="Times,serif" font-size="14.00">MAP3K7</text>
</g>
<!-- TAB2&#45;&gt;MAP3K7 -->
<g id="edge3" class="edge">
<title>TAB2&#45;&gt;MAP3K7</title>
<path fill="none" stroke="#8b1a1a" stroke-width="5" d="M288,-143.34C288,-137.74 288,-131.36 288,-125.02"/>
<polygon fill="#8b1a1a" stroke="#8b1a1a" stroke-width="5" points="292.38,-125.14 288,-115.14 283.63,-125.14 292.38,-125.14"/>
</g>
<!-- NFKBIB -->
<g id="node29" class="node">
<title>NFKBIB</title>
<ellipse fill="none" stroke="#104e8b" stroke-width="2" cx="288" cy="-18" rx="18" ry="18"/>
<text text-anchor="middle" x="288" y="-12.95" font-family="Times,serif" font-size="14.00">NFKBIB</text>
</g>
<!-- MAP3K7&#45;&gt;NFKBIB -->
<g id="edge23" class="edge">
<title>MAP3K7&#45;&gt;NFKBIB</title>
<path fill="none" stroke="#104e8b" stroke-width="5" d="M288,-71.34C288,-62.94 288,-52.77 288,-43.64"/>
<polygon fill="#104e8b" stroke="#104e8b" stroke-width="5" points="283,-39.4 293,-39.4 293,-41.4 283,-41.4 283,-39.4"/>
<polyline fill="none" stroke="#104e8b" stroke-width="5" points="288,-38.4 288,-43.4"/>
</g>
<!-- SMURF2 -->
<g id="node7" class="node">
<title>SMURF2</title>
<ellipse fill="none" stroke="#8b1a1a" stroke-width="2" cx="342" cy="-162" rx="18" ry="18"/>
<text text-anchor="middle" x="342" y="-156.95" font-family="Times,serif" font-size="14.00">SMURF2</text>
</g>
<!-- SMAD5 -->
<g id="node8" class="node">
<title>SMAD5</title>
<ellipse fill="none" stroke="#104e8b" stroke-width="2" cx="342" cy="-90" rx="18" ry="18"/>
<text text-anchor="middle" x="342" y="-84.95" font-family="Times,serif" font-size="14.00">SMAD5</text>
</g>
<!-- SMURF2&#45;&gt;SMAD5 -->
<g id="edge4" class="edge">
<title>SMURF2&#45;&gt;SMAD5</title>
<path fill="none" stroke="#104e8b" stroke-width="5" d="M342,-143.34C342,-134.94 342,-124.77 342,-115.64"/>
<polygon fill="#104e8b" stroke="#104e8b" stroke-width="5" points="337,-111.4 347,-111.4 347,-113.4 337,-113.4 337,-111.4"/>
<polyline fill="none" stroke="#104e8b" stroke-width="5" points="342,-110.4 342,-115.4"/>
</g>
<!-- SMAD7 -->
<g id="node19" class="node">
<title>SMAD7</title>
<ellipse fill="none" stroke="#8b1a1a" stroke-width="2" cx="315" cy="-234" rx="18" ry="18"/>
<text text-anchor="middle" x="315" y="-228.95" font-family="Times,serif" font-size="14.00">SMAD7</text>
</g>
<!-- EP300&#45;&gt;SMAD7 -->
<g id="edge13" class="edge">
<title>EP300&#45;&gt;SMAD7</title>
<path fill="none" stroke="#8b1a1a" stroke-width="5" d="M315,-287.34C315,-281.74 315,-275.36 315,-269.02"/>
<polygon fill="#8b1a1a" stroke="#8b1a1a" stroke-width="5" points="319.38,-269.14 315,-259.14 310.63,-269.14 319.38,-269.14"/>
</g>
<!-- ATR -->
<g id="node10" class="node">
<title>ATR</title>
<ellipse fill="none" stroke="#8b1a1a" stroke-width="2" cx="315" cy="-450" rx="18" ry="18"/>
<text text-anchor="middle" x="315" y="-444.95" font-family="Times,serif" font-size="14.00">ATR</text>
</g>
<!-- ATR&#45;&gt;ATM -->
<g id="edge6" class="edge">
<title>ATR&#45;&gt;ATM</title>
<path fill="none" stroke="#8b1a1a" stroke-width="5" d="M315,-431.34C315,-425.74 315,-419.36 315,-413.02"/>
<polygon fill="#8b1a1a" stroke="#8b1a1a" stroke-width="5" points="319.38,-413.14 315,-403.14 310.63,-413.14 319.38,-413.14"/>
</g>
<!-- MAPK14 -->
<g id="node11" class="node">
<title>MAPK14</title>
<ellipse fill="none" stroke="#8b1a1a" stroke-width="2" cx="126" cy="-522" rx="18" ry="18"/>
<text text-anchor="middle" x="126" y="-516.95" font-family="Times,serif" font-size="14.00">MAPK14</text>
</g>
<!-- SMAD3 -->
<g id="node12" class="node">
<title>SMAD3</title>
<ellipse fill="none" stroke="#8b1a1a" stroke-width="2" cx="18" cy="-450" rx="18" ry="18"/>
<text text-anchor="middle" x="18" y="-444.95" font-family="Times,serif" font-size="14.00">SMAD3</text>
</g>
<!-- MAPK14&#45;&gt;SMAD3 -->
<g id="edge7" class="edge">
<title>MAPK14&#45;&gt;SMAD3</title>
<path fill="none" stroke="#8b1a1a" stroke-width="5" d="M110.98,-511.27C94.39,-500.51 67.29,-482.95 46.61,-469.55"/>
<polygon fill="#8b1a1a" stroke="#8b1a1a" stroke-width="5" points="49.24,-466.04 38.47,-464.27 44.48,-473.38 49.24,-466.04"/>
</g>
<!-- JUNB -->
<g id="node25" class="node">
<title>JUNB</title>
<ellipse fill="none" stroke="#8b1a1a" stroke-width="2" cx="72" cy="-450" rx="18" ry="18"/>
<text text-anchor="middle" x="72" y="-444.95" font-family="Times,serif" font-size="14.00">JUNB</text>
</g>
<!-- MAPK14&#45;&gt;JUNB -->
<g id="edge19" class="edge">
<title>MAPK14&#45;&gt;JUNB</title>
<path fill="none" stroke="#8b1a1a" stroke-width="5" d="M115.07,-506.83C108.63,-498.48 100.27,-487.65 92.63,-477.75"/>
<polygon fill="#8b1a1a" stroke="#8b1a1a" stroke-width="5" points="96.29,-475.33 86.72,-470.08 89.37,-480.67 96.29,-475.33"/>
</g>
<!-- GATA2 -->
<g id="node27" class="node">
<title>GATA2</title>
<ellipse fill="none" stroke="#8b1a1a" stroke-width="2" cx="126" cy="-450" rx="18" ry="18"/>
<text text-anchor="middle" x="126" y="-444.95" font-family="Times,serif" font-size="14.00">GATA2</text>
</g>
<!-- MAPK14&#45;&gt;GATA2 -->
<g id="edge21" class="edge">
<title>MAPK14&#45;&gt;GATA2</title>
<path fill="none" stroke="#8b1a1a" stroke-width="5" d="M126,-503.34C126,-497.74 126,-491.36 126,-485.02"/>
<polygon fill="#8b1a1a" stroke="#8b1a1a" stroke-width="5" points="130.38,-485.14 126,-475.14 121.63,-485.14 130.38,-485.14"/>
</g>
<!-- NR3C1 -->
<g id="node31" class="node">
<title>NR3C1</title>
<ellipse fill="none" stroke="#8b1a1a" stroke-width="2" cx="180" cy="-450" rx="18" ry="18"/>
<text text-anchor="middle" x="180" y="-444.95" font-family="Times,serif" font-size="14.00">NR3C1</text>
</g>
<!-- MAPK14&#45;&gt;NR3C1 -->
<g id="edge34" class="edge">
<title>MAPK14&#45;&gt;NR3C1</title>
<path fill="none" stroke="#8b1a1a" stroke-width="5" d="M136.93,-506.83C143.37,-498.48 151.73,-487.65 159.37,-477.75"/>
<polygon fill="#8b1a1a" stroke="#8b1a1a" stroke-width="5" points="162.63,-480.67 165.28,-470.08 155.71,-475.33 162.63,-480.67"/>
</g>
<!-- KAT2B -->
<g id="node13" class="node">
<title>KAT2B</title>
<ellipse fill="none" stroke="#8b1a1a" stroke-width="2" cx="153" cy="-378" rx="18" ry="18"/>
<text text-anchor="middle" x="153" y="-372.95" font-family="Times,serif" font-size="14.00">KAT2B</text>
</g>
<!-- SMAD2 -->
<g id="node14" class="node">
<title>SMAD2</title>
<ellipse fill="none" stroke="#8b1a1a" stroke-width="2" cx="153" cy="-306" rx="18" ry="18"/>
<text text-anchor="middle" x="153" y="-300.95" font-family="Times,serif" font-size="14.00">SMAD2</text>
</g>
<!-- KAT2B&#45;&gt;SMAD2 -->
<g id="edge8" class="edge">
<title>KAT2B&#45;&gt;SMAD2</title>
<path fill="none" stroke="#8b1a1a" stroke-width="5" d="M153,-359.34C153,-353.74 153,-347.36 153,-341.02"/>
<polygon fill="#8b1a1a" stroke="#8b1a1a" stroke-width="5" points="157.38,-341.14 153,-331.14 148.63,-341.14 157.38,-341.14"/>
</g>
<!-- MEF2A -->
<g id="node18" class="node">
<title>MEF2A</title>
<ellipse fill="none" stroke="#8b1a1a" stroke-width="2" cx="99" cy="-234" rx="18" ry="18"/>
<text text-anchor="middle" x="99" y="-228.95" font-family="Times,serif" font-size="14.00">MEF2A</text>
</g>
<!-- SMAD2&#45;&gt;MEF2A -->
<g id="edge11" class="edge">
<title>SMAD2&#45;&gt;MEF2A</title>
<path fill="none" stroke="#8b1a1a" stroke-width="5" d="M142.07,-290.83C135.63,-282.48 127.27,-271.65 119.63,-261.75"/>
<polygon fill="#8b1a1a" stroke="#8b1a1a" stroke-width="5" points="123.29,-259.33 113.72,-254.08 116.37,-264.67 123.29,-259.33"/>
</g>
<!-- SMAD4 -->
<g id="node20" class="node">
<title>SMAD4</title>
<ellipse fill="none" stroke="#8b1a1a" stroke-width="2" cx="153" cy="-234" rx="18" ry="18"/>
<text text-anchor="middle" x="153" y="-228.95" font-family="Times,serif" font-size="14.00">SMAD4</text>
</g>
<!-- SMAD2&#45;&gt;SMAD4 -->
<g id="edge14" class="edge">
<title>SMAD2&#45;&gt;SMAD4</title>
<path fill="none" stroke="#8b1a1a" stroke-width="5" d="M153,-287.34C153,-281.74 153,-275.36 153,-269.02"/>
<polygon fill="#8b1a1a" stroke="#8b1a1a" stroke-width="5" points="157.38,-269.14 153,-259.14 148.63,-269.14 157.38,-269.14"/>
</g>
<!-- ABL1 -->
<g id="node15" class="node">
<title>ABL1</title>
<ellipse fill="none" stroke="#8b1a1a" stroke-width="2" cx="369" cy="-522" rx="18" ry="18"/>
<text text-anchor="middle" x="369" y="-516.95" font-family="Times,serif" font-size="14.00">ABL1</text>
</g>
<!-- ABL1&#45;&gt;ATR -->
<g id="edge32" class="edge">
<title>ABL1&#45;&gt;ATR</title>
<path fill="none" stroke="#8b1a1a" stroke-width="5" d="M358.07,-506.83C351.63,-498.48 343.27,-487.65 335.63,-477.75"/>
<polygon fill="#8b1a1a" stroke="#8b1a1a" stroke-width="5" points="339.29,-475.33 329.72,-470.08 332.37,-480.67 339.29,-475.33"/>
</g>
<!-- JAK2 -->
<g id="node16" class="node">
<title>JAK2</title>
<ellipse fill="none" stroke="#8b1a1a" stroke-width="2" cx="369" cy="-450" rx="18" ry="18"/>
<text text-anchor="middle" x="369" y="-444.95" font-family="Times,serif" font-size="14.00">JAK2</text>
</g>
<!-- ABL1&#45;&gt;JAK2 -->
<g id="edge9" class="edge">
<title>ABL1&#45;&gt;JAK2</title>
<path fill="none" stroke="#8b1a1a" stroke-width="5" d="M369,-503.34C369,-497.74 369,-491.36 369,-485.02"/>
<polygon fill="#8b1a1a" stroke="#8b1a1a" stroke-width="5" points="373.38,-485.14 369,-475.14 364.63,-485.14 373.38,-485.14"/>
</g>
<!-- RACK1 -->
<g id="node17" class="node">
<title>RACK1</title>
<ellipse fill="none" stroke="#8b1a1a" stroke-width="2" cx="423" cy="-450" rx="18" ry="18"/>
<text text-anchor="middle" x="423" y="-444.95" font-family="Times,serif" font-size="14.00">RACK1</text>
</g>
<!-- ABL1&#45;&gt;RACK1 -->
<g id="edge10" class="edge">
<title>ABL1&#45;&gt;RACK1</title>
<path fill="none" stroke="#8b1a1a" stroke-width="5" d="M379.93,-506.83C386.37,-498.48 394.73,-487.65 402.37,-477.75"/>
<polygon fill="#8b1a1a" stroke="#8b1a1a" stroke-width="5" points="405.63,-480.67 408.28,-470.08 398.71,-475.33 405.63,-480.67"/>
</g>
<!-- HDAC2 -->
<g id="node34" class="node">
<title>HDAC2</title>
<ellipse fill="none" stroke="#8b1a1a" stroke-width="2" cx="477" cy="-450" rx="18" ry="18"/>
<text text-anchor="middle" x="477" y="-444.95" font-family="Times,serif" font-size="14.00">HDAC2</text>
</g>
<!-- ABL1&#45;&gt;HDAC2 -->
<g id="edge27" class="edge">
<title>ABL1&#45;&gt;HDAC2</title>
<path fill="none" stroke="#8b1a1a" stroke-width="5" d="M384.02,-511.27C400.61,-500.51 427.71,-482.95 448.39,-469.55"/>
<polygon fill="#8b1a1a" stroke="#8b1a1a" stroke-width="5" points="450.52,-473.38 456.53,-464.27 445.76,-466.04 450.52,-473.38"/>
</g>
<!-- JAK2&#45;&gt;STAT6 -->
<g id="edge15" class="edge">
<title>JAK2&#45;&gt;STAT6</title>
<path fill="none" stroke="#8b1a1a" stroke-width="5" d="M369,-431.34C369,-425.74 369,-419.36 369,-413.02"/>
<polygon fill="#8b1a1a" stroke="#8b1a1a" stroke-width="5" points="373.38,-413.14 369,-403.14 364.63,-413.14 373.38,-413.14"/>
</g>
<!-- PPP2CA -->
<g id="node32" class="node">
<title>PPP2CA</title>
<ellipse fill="none" stroke="#8b1a1a" stroke-width="2" cx="423" cy="-378" rx="18" ry="18"/>
<text text-anchor="middle" x="423" y="-372.95" font-family="Times,serif" font-size="14.00">PPP2CA</text>
</g>
<!-- RACK1&#45;&gt;PPP2CA -->
<g id="edge31" class="edge">
<title>RACK1&#45;&gt;PPP2CA</title>
<path fill="none" stroke="#8b1a1a" stroke-width="5" d="M423,-431.34C423,-425.74 423,-419.36 423,-413.02"/>
<polygon fill="#8b1a1a" stroke="#8b1a1a" stroke-width="5" points="427.38,-413.14 423,-403.14 418.63,-413.14 427.38,-413.14"/>
</g>
<!-- SMAD7&#45;&gt;TAB2 -->
<g id="edge16" class="edge">
<title>SMAD7&#45;&gt;TAB2</title>
<path fill="none" stroke="#8b1a1a" stroke-width="5" d="M308.6,-216.41C306.08,-209.87 303.1,-202.14 300.19,-194.61"/>
<polygon fill="#8b1a1a" stroke="#8b1a1a" stroke-width="5" points="304.28,-193.04 296.6,-185.29 296.11,-196.19 304.28,-193.04"/>
</g>
<!-- SMAD7&#45;&gt;SMURF2 -->
<g id="edge12" class="edge">
<title>SMAD7&#45;&gt;SMURF2</title>
<path fill="none" stroke="#8b1a1a" stroke-width="5" d="M321.4,-216.41C323.92,-209.87 326.9,-202.14 329.81,-194.61"/>
<polygon fill="#8b1a1a" stroke="#8b1a1a" stroke-width="5" points="333.89,-196.19 333.4,-185.29 325.72,-193.04 333.89,-196.19"/>
</g>
<!-- HMGA1 -->
<g id="node21" class="node">
<title>HMGA1</title>
<ellipse fill="none" stroke="#8b1a1a" stroke-width="2" cx="207" cy="-306" rx="18" ry="18"/>
<text text-anchor="middle" x="207" y="-300.95" font-family="Times,serif" font-size="14.00">HMGA1</text>
</g>
<!-- POU3F1 -->
<g id="node22" class="node">
<title>POU3F1</title>
<ellipse fill="none" stroke="#8b1a1a" stroke-width="2" cx="207" cy="-234" rx="18" ry="18"/>
<text text-anchor="middle" x="207" y="-228.95" font-family="Times,serif" font-size="14.00">POU3F1</text>
</g>
<!-- HMGA1&#45;&gt;POU3F1 -->
<g id="edge17" class="edge">
<title>HMGA1&#45;&gt;POU3F1</title>
<path fill="none" stroke="#8b1a1a" stroke-width="5" d="M207,-287.34C207,-281.74 207,-275.36 207,-269.02"/>
<polygon fill="#8b1a1a" stroke="#8b1a1a" stroke-width="5" points="211.38,-269.14 207,-259.14 202.63,-269.14 211.38,-269.14"/>
</g>
<!-- CDH2 -->
<g id="node23" class="node">
<title>CDH2</title>
<ellipse fill="none" stroke="#8b1a1a" stroke-width="2" cx="234" cy="-666" rx="18" ry="18"/>
<text text-anchor="middle" x="234" y="-660.95" font-family="Times,serif" font-size="14.00">CDH2</text>
</g>
<!-- CDON -->
<g id="node24" class="node">
<title>CDON</title>
<ellipse fill="none" stroke="#8b1a1a" stroke-width="2" cx="234" cy="-594" rx="18" ry="18"/>
<text text-anchor="middle" x="234" y="-588.95" font-family="Times,serif" font-size="14.00">CDON</text>
</g>
<!-- CDH2&#45;&gt;CDON -->
<g id="edge18" class="edge">
<title>CDH2&#45;&gt;CDON</title>
<path fill="none" stroke="#8b1a1a" stroke-width="5" d="M234,-647.34C234,-641.74 234,-635.36 234,-629.02"/>
<polygon fill="#8b1a1a" stroke="#8b1a1a" stroke-width="5" points="238.38,-629.14 234,-619.14 229.63,-629.14 238.38,-629.14"/>
</g>
<!-- CDON&#45;&gt;MAPK14 -->
<g id="edge33" class="edge">
<title>CDON&#45;&gt;MAPK14</title>
<path fill="none" stroke="#8b1a1a" stroke-width="5" d="M218.98,-583.27C202.39,-572.51 175.29,-554.95 154.61,-541.55"/>
<polygon fill="#8b1a1a" stroke="#8b1a1a" stroke-width="5" points="157.24,-538.04 146.47,-536.27 152.48,-545.38 157.24,-538.04"/>
</g>
<!-- CDON&#45;&gt;ABL1 -->
<g id="edge28" class="edge">
<title>CDON&#45;&gt;ABL1</title>
<path fill="none" stroke="#8b1a1a" stroke-width="5" d="M250.28,-584.56C272.08,-573.26 311.15,-553 338.49,-538.82"/>
<polygon fill="#8b1a1a" stroke="#8b1a1a" stroke-width="5" points="340.26,-542.83 347.12,-534.34 336.23,-535.06 340.26,-542.83"/>
</g>
<!-- SPI1 -->
<g id="node30" class="node">
<title>SPI1</title>
<ellipse fill="none" stroke="#104e8b" stroke-width="2" cx="99" cy="-378" rx="18" ry="18"/>
<text text-anchor="middle" x="99" y="-372.95" font-family="Times,serif" font-size="14.00">SPI1</text>
</g>
<!-- GATA2&#45;&gt;SPI1 -->
<g id="edge24" class="edge">
<title>GATA2&#45;&gt;SPI1</title>
<path fill="none" stroke="#104e8b" stroke-width="5" d="M119.6,-432.41C116.07,-423.26 111.63,-411.76 107.78,-401.77"/>
<polygon fill="#104e8b" stroke="#104e8b" stroke-width="5" points="101.59,-399.6 110.92,-396 111.64,-397.87 102.31,-401.47 101.59,-399.6"/>
<polyline fill="none" stroke="#104e8b" stroke-width="5" points="105.89,-396.87 107.69,-401.53"/>
</g>
<!-- CAV1 -->
<g id="node28" class="node">
<title>CAV1</title>
<ellipse fill="none" stroke="#8b1a1a" stroke-width="2" cx="207" cy="-378" rx="18" ry="18"/>
<text text-anchor="middle" x="207" y="-372.95" font-family="Times,serif" font-size="14.00">CAV1</text>
</g>
<!-- CAV1&#45;&gt;HMGA1 -->
<g id="edge22" class="edge">
<title>CAV1&#45;&gt;HMGA1</title>
<path fill="none" stroke="#8b1a1a" stroke-width="5" d="M207,-359.34C207,-353.74 207,-347.36 207,-341.02"/>
<polygon fill="#8b1a1a" stroke="#8b1a1a" stroke-width="5" points="211.38,-341.14 207,-331.14 202.63,-341.14 211.38,-341.14"/>
</g>
<!-- NR3C1&#45;&gt;KAT2B -->
<g id="edge25" class="edge">
<title>NR3C1&#45;&gt;KAT2B</title>
<path fill="none" stroke="#8b1a1a" stroke-width="5" d="M173.6,-432.41C171.08,-425.87 168.1,-418.14 165.19,-410.61"/>
<polygon fill="#8b1a1a" stroke="#8b1a1a" stroke-width="5" points="169.28,-409.04 161.6,-401.29 161.11,-412.19 169.28,-409.04"/>
</g>
<!-- NR3C1&#45;&gt;CAV1 -->
<g id="edge30" class="edge">
<title>NR3C1&#45;&gt;CAV1</title>
<path fill="none" stroke="#8b1a1a" stroke-width="5" d="M186.4,-432.41C188.92,-425.87 191.9,-418.14 194.81,-410.61"/>
<polygon fill="#8b1a1a" stroke="#8b1a1a" stroke-width="5" points="198.89,-412.19 198.4,-401.29 190.72,-409.04 198.89,-412.19"/>
</g>
<!-- IRF3 -->
<g id="node33" class="node">
<title>IRF3</title>
<ellipse fill="none" stroke="#104e8b" stroke-width="2" cx="423" cy="-306" rx="18" ry="18"/>
<text text-anchor="middle" x="423" y="-300.95" font-family="Times,serif" font-size="14.00">IRF3</text>
</g>
<!-- PPP2CA&#45;&gt;IRF3 -->
<g id="edge26" class="edge">
<title>PPP2CA&#45;&gt;IRF3</title>
<path fill="none" stroke="#104e8b" stroke-width="5" d="M423,-359.34C423,-350.94 423,-340.77 423,-331.64"/>
<polygon fill="#104e8b" stroke="#104e8b" stroke-width="5" points="418,-327.4 428,-327.4 428,-329.4 418,-329.4 418,-327.4"/>
<polyline fill="none" stroke="#104e8b" stroke-width="5" points="423,-326.4 423,-331.4"/>
</g>
<!-- CIITA -->
<g id="node35" class="node">
<title>CIITA</title>
<ellipse fill="none" stroke="#104e8b" stroke-width="2" cx="477" cy="-378" rx="18" ry="18"/>
<text text-anchor="middle" x="477" y="-372.95" font-family="Times,serif" font-size="14.00">CIITA</text>
</g>
<!-- HDAC2&#45;&gt;CIITA -->
<g id="edge29" class="edge">
<title>HDAC2&#45;&gt;CIITA</title>
<path fill="none" stroke="#104e8b" stroke-width="5" d="M477,-431.34C477,-422.94 477,-412.77 477,-403.64"/>
<polygon fill="#104e8b" stroke="#104e8b" stroke-width="5" points="472,-399.4 482,-399.4 482,-401.4 472,-401.4 472,-399.4"/>
<polyline fill="none" stroke="#104e8b" stroke-width="5" points="477,-398.4 477,-403.4"/>
</g>
<!-- e_3278_source -->
<g id="node36" class="node">
<title>e_3278_source</title>
<ellipse fill="black" stroke="black" cx="234" cy="-721.8" rx="1.8" ry="1.8"/>
</g>
<!-- e_3278_source&#45;&gt;CDH2 -->
<g id="edge35" class="edge">
<title>e_3278_source&#45;&gt;CDH2</title>
<path fill="none" stroke="#8b1a1a" stroke-width="5" d="M234,-719.87C234,-717.27 234,-709.56 234,-700.81"/>
<polygon fill="#8b1a1a" stroke="#8b1a1a" stroke-width="5" points="238.38,-701.04 234,-691.04 229.63,-701.04 238.38,-701.04"/>
</g>
</g>
</svg>