<?xml version="1.0" encoding="UTF-8" standalone="no"?>
<!DOCTYPE svg PUBLIC "-//W3C//DTD SVG 1.1//EN"
 "http://www.w3.org/Graphics/SVG/1.1/DTD/svg11.dtd">
<!-- Generated by graphviz version 2.43.0 (0)
 -->
<!-- Title: %3 Pages: 1 -->
<svg width="146pt" height="404pt"
 viewBox="0.00 0.00 146.31 404.00" xmlns="http://www.w3.org/2000/svg" xmlns:xlink="http://www.w3.org/1999/xlink">
<g id="graph0" class="graph" transform="scale(1 1) rotate(0) translate(4 400)">
<title>%3</title>
<polygon fill="white" stroke="transparent" points="-4,4 -4,-400 142.31,-400 142.31,4 -4,4"/>
<!-- v1 -->
<g id="node1" class="node">
<title>v1</title>
<ellipse fill="none" stroke="black" cx="76.46" cy="-306" rx="18" ry="18"/>
<text text-anchor="middle" x="76.46" y="-302.3" font-family="Times,serif" font-size="14.00">v1</text>
</g>
<!-- v2 -->
<g id="node2" class="node">
<title>v2</title>
<ellipse fill="none" stroke="black" cx="53.46" cy="-234" rx="18" ry="18"/>
<text text-anchor="middle" x="53.46" y="-230.3" font-family="Times,serif" font-size="14.00">v2</text>
</g>
<!-- v1&#45;&gt;v2 -->
<g id="edge1" class="edge">
<title>v1&#45;&gt;v2</title>
<path fill="none" stroke="black" d="M71.12,-288.76C68.43,-280.58 65.1,-270.45 62.06,-261.2"/>
<polygon fill="black" stroke="black" points="65.37,-260.04 58.92,-251.63 58.72,-262.23 65.37,-260.04"/>
</g>
<!-- v7 -->
<g id="node3" class="node">
<title>v7</title>
<ellipse fill="none" stroke="black" cx="22.46" cy="-18" rx="18" ry="18"/>
<text text-anchor="middle" x="22.46" y="-14.3" font-family="Times,serif" font-size="14.00">v7</text>
</g>
<!-- v1&#45;&gt;v7 -->
<g id="edge2" class="edge">
<title>v1&#45;&gt;v7</title>
<path fill="none" stroke="black" d="M62.35,-293.92C50.89,-284.13 35.23,-268.82 26.46,-252 -10.71,-180.76 -0.18,-151.78 9.46,-72 10.52,-63.17 12.56,-53.7 14.7,-45.23"/>
<polygon fill="black" stroke="black" points="18.1,-46.09 17.32,-35.52 11.34,-44.26 18.1,-46.09"/>
</g>
<!-- v4 -->
<g id="node5" class="node">
<title>v4</title>
<ellipse fill="none" stroke="black" cx="49.46" cy="-162" rx="18" ry="18"/>
<text text-anchor="middle" x="49.46" y="-158.3" font-family="Times,serif" font-size="14.00">v4</text>
</g>
<!-- v2&#45;&gt;v4 -->
<g id="edge4" class="edge">
<title>v2&#45;&gt;v4</title>
<path fill="none" stroke="black" d="M52.47,-215.7C52.03,-207.98 51.5,-198.71 51.01,-190.11"/>
<polygon fill="black" stroke="black" points="54.5,-189.89 50.43,-180.1 47.51,-190.29 54.5,-189.89"/>
</g>
<!-- v5 -->
<g id="node7" class="node">
<title>v5</title>
<ellipse fill="none" stroke="black" cx="103.46" cy="-162" rx="18" ry="18"/>
<text text-anchor="middle" x="103.46" y="-158.3" font-family="Times,serif" font-size="14.00">v5</text>
</g>
<!-- v2&#45;&gt;v5 -->
<g id="edge10" class="edge">
<title>v2&#45;&gt;v5</title>
<path fill="none" stroke="black" d="M63.58,-218.83C70.42,-209.25 79.61,-196.39 87.44,-185.43"/>
<polygon fill="black" stroke="black" points="90.39,-187.32 93.35,-177.14 84.69,-183.25 90.39,-187.32"/>
</g>
<!-- v7&#45;&gt;v2 -->
<g id="edge9" class="edge">
<title>v7&#45;&gt;v2</title>
<path fill="none" stroke="black" d="M19.62,-35.83C15.23,-65.56 8.64,-129.01 22.46,-180 25.38,-190.8 31.13,-201.66 36.88,-210.71"/>
<polygon fill="black" stroke="black" points="34.04,-212.76 42.53,-219.09 39.84,-208.84 34.04,-212.76"/>
</g>
<!-- v3 -->
<g id="node4" class="node">
<title>v3</title>
<ellipse fill="none" stroke="black" cx="99.46" cy="-378" rx="18" ry="18"/>
<text text-anchor="middle" x="99.46" y="-374.3" font-family="Times,serif" font-size="14.00">v3</text>
</g>
<!-- v3&#45;&gt;v1 -->
<g id="edge3" class="edge">
<title>v3&#45;&gt;v1</title>
<path fill="none" stroke="black" d="M94.12,-360.76C91.43,-352.58 88.1,-342.45 85.06,-333.2"/>
<polygon fill="black" stroke="black" points="88.37,-332.04 81.92,-323.63 81.72,-334.23 88.37,-332.04"/>
</g>
<!-- v6 -->
<g id="node6" class="node">
<title>v6</title>
<ellipse fill="none" stroke="black" cx="97.46" cy="-90" rx="18" ry="18"/>
<text text-anchor="middle" x="97.46" y="-86.3" font-family="Times,serif" font-size="14.00">v6</text>
</g>
<!-- v3&#45;&gt;v6 -->
<g id="edge11" class="edge">
<title>v3&#45;&gt;v6</title>
<path fill="none" stroke="black" d="M105.93,-361.14C120.55,-323 153.17,-223.45 130.46,-144 127.25,-132.79 120.91,-121.63 114.64,-112.47"/>
<polygon fill="black" stroke="black" points="117.45,-110.4 108.74,-104.37 111.79,-114.51 117.45,-110.4"/>
</g>
<!-- v4&#45;&gt;v7 -->
<g id="edge6" class="edge">
<title>v4&#45;&gt;v7</title>
<path fill="none" stroke="black" d="M46.25,-144.15C41.63,-119.81 33.02,-74.57 27.53,-45.67"/>
<polygon fill="black" stroke="black" points="30.96,-45 25.66,-35.82 24.09,-46.3 30.96,-45"/>
</g>
<!-- v4&#45;&gt;v6 -->
<g id="edge5" class="edge">
<title>v4&#45;&gt;v6</title>
<path fill="none" stroke="black" d="M59.17,-146.83C65.59,-137.47 74.16,-124.98 81.56,-114.19"/>
<polygon fill="black" stroke="black" points="84.66,-115.85 87.43,-105.63 78.89,-111.89 84.66,-115.85"/>
</g>
<!-- v6&#45;&gt;v7 -->
<g id="edge8" class="edge">
<title>v6&#45;&gt;v7</title>
<path fill="none" stroke="black" d="M84.73,-77.13C73.21,-66.37 56.02,-50.33 42.62,-37.82"/>
<polygon fill="black" stroke="black" points="44.94,-35.2 35.24,-30.93 40.16,-40.31 44.94,-35.2"/>
</g>
<!-- v5&#45;&gt;v1 -->
<g id="edge12" class="edge">
<title>v5&#45;&gt;v1</title>
<path fill="none" stroke="black" d="M100.26,-179.82C95.63,-204.15 87.03,-249.4 81.53,-278.31"/>
<polygon fill="black" stroke="black" points="78.09,-277.68 79.66,-288.15 84.97,-278.98 78.09,-277.68"/>
</g>
<!-- v5&#45;&gt;v6 -->
<g id="edge7" class="edge">
<title>v5&#45;&gt;v6</title>
<path fill="none" stroke="black" d="M102,-144.05C101.34,-136.35 100.55,-127.03 99.8,-118.36"/>
<polygon fill="black" stroke="black" points="103.28,-117.94 98.94,-108.28 96.31,-118.54 103.28,-117.94"/>
</g>
</g>
</svg>