<?xml version="1.0" encoding="UTF-8" standalone="no"?>
<!DOCTYPE svg PUBLIC "-//W3C//DTD SVG 1.1//EN"
 "http://www.w3.org/Graphics/SVG/1.1/DTD/svg11.dtd">
<!-- Generated by graphviz version 2.43.0 (0)
 -->
<!-- Title: %3 Pages: 1 -->
<svg width="476pt" height="260pt"
 viewBox="0.00 0.00 476.00 260.00" xmlns="http://www.w3.org/2000/svg" xmlns:xlink="http://www.w3.org/1999/xlink">
<g id="graph0" class="graph" transform="scale(1 1) rotate(0) translate(4 256)">
<title>%3</title>
<polygon fill="white" stroke="transparent" points="-4,4 -4,-256 472,-256 472,4 -4,4"/>
<!-- 2 -->
<g id="node1" class="node">
<title>2</title>
<ellipse fill="none" stroke="black" cx="72" cy="-162" rx="18" ry="18"/>
<text text-anchor="middle" x="72" y="-158.3" font-family="Times,serif" font-size="14.00">2</text>
</g>
<!-- 30 -->
<g id="node2" class="node">
<title>30</title>
<ellipse fill="none" stroke="black" cx="72" cy="-90" rx="18" ry="18"/>
<text text-anchor="middle" x="72" y="-86.3" font-family="Times,serif" font-size="14.00">30</text>
</g>
<!-- 2&#45;&gt;30 -->
<g id="edge1" class="edge">
<title>2&#45;&gt;30</title>
<path fill="none" stroke="black" d="M72,-143.7C72,-132.85 72,-118.92 72,-108.1"/>
</g>
<!-- 46 -->
<g id="node3" class="node">
<title>46</title>
<ellipse fill="none" stroke="black" cx="288" cy="-162" rx="18" ry="18"/>
<text text-anchor="middle" x="288" y="-158.3" font-family="Times,serif" font-size="14.00">46</text>
</g>
<!-- 47 -->
<g id="node4" class="node">
<title>47</title>
<ellipse fill="none" stroke="black" cx="288" cy="-90" rx="18" ry="18"/>
<text text-anchor="middle" x="288" y="-86.3" font-family="Times,serif" font-size="14.00">47</text>
</g>
<!-- 46&#45;&gt;47 -->
<g id="edge2" class="edge">
<title>46&#45;&gt;47</title>
<path fill="none" stroke="black" d="M288,-143.7C288,-132.85 288,-118.92 288,-108.1"/>
</g>
<!-- 6 -->
<g id="node5" class="node">
<title>6</title>
<ellipse fill="none" stroke="black" cx="423" cy="-162" rx="18" ry="18"/>
<text text-anchor="middle" x="423" y="-158.3" font-family="Times,serif" font-size="14.00">6</text>
</g>
<!-- 13 -->
<g id="node6" class="node">
<title>13</title>
<ellipse fill="none" stroke="black" cx="396" cy="-90" rx="18" ry="18"/>
<text text-anchor="middle" x="396" y="-86.3" font-family="Times,serif" font-size="14.00">13</text>
</g>
<!-- 6&#45;&gt;13 -->
<g id="edge3" class="edge">
<title>6&#45;&gt;13</title>
<path fill="none" stroke="black" d="M416.74,-144.76C412.38,-133.46 406.58,-118.44 402.23,-107.15"/>
</g>
<!-- 17 -->
<g id="node7" class="node">
<title>17</title>
<ellipse fill="none" stroke="black" cx="450" cy="-90" rx="18" ry="18"/>
<text text-anchor="middle" x="450" y="-86.3" font-family="Times,serif" font-size="14.00">17</text>
</g>
<!-- 6&#45;&gt;17 -->
<g id="edge4" class="edge">
<title>6&#45;&gt;17</title>
<path fill="none" stroke="black" d="M429.26,-144.76C433.62,-133.46 439.42,-118.44 443.77,-107.15"/>
</g>
<!-- 20 -->
<g id="node13" class="node">
<title>20</title>
<ellipse fill="none" stroke="black" cx="450" cy="-18" rx="18" ry="18"/>
<text text-anchor="middle" x="450" y="-14.3" font-family="Times,serif" font-size="14.00">20</text>
</g>
<!-- 17&#45;&gt;20 -->
<g id="edge10" class="edge">
<title>17&#45;&gt;20</title>
<path fill="none" stroke="black" d="M450,-71.7C450,-60.85 450,-46.92 450,-36.1"/>
</g>
<!-- 8 -->
<g id="node8" class="node">
<title>8</title>
<ellipse fill="none" stroke="black" cx="342" cy="-162" rx="18" ry="18"/>
<text text-anchor="middle" x="342" y="-158.3" font-family="Times,serif" font-size="14.00">8</text>
</g>
<!-- 8&#45;&gt;47 -->
<g id="edge7" class="edge">
<title>8&#45;&gt;47</title>
<path fill="none" stroke="black" d="M331.33,-147.17C321.86,-134.9 308.11,-117.06 298.65,-104.8"/>
</g>
<!-- 8&#45;&gt;13 -->
<g id="edge5" class="edge">
<title>8&#45;&gt;13</title>
<path fill="none" stroke="black" d="M352.67,-147.17C362.14,-134.9 375.89,-117.06 385.35,-104.8"/>
</g>
<!-- 14 -->
<g id="node9" class="node">
<title>14</title>
<ellipse fill="none" stroke="black" cx="342" cy="-90" rx="18" ry="18"/>
<text text-anchor="middle" x="342" y="-86.3" font-family="Times,serif" font-size="14.00">14</text>
</g>
<!-- 8&#45;&gt;14 -->
<g id="edge6" class="edge">
<title>8&#45;&gt;14</title>
<path fill="none" stroke="black" d="M342,-143.7C342,-132.85 342,-118.92 342,-108.1"/>
</g>
<!-- 9 -->
<g id="node10" class="node">
<title>9</title>
<ellipse fill="none" stroke="black" cx="180" cy="-234" rx="18" ry="18"/>
<text text-anchor="middle" x="180" y="-230.3" font-family="Times,serif" font-size="14.00">9</text>
</g>
<!-- 23 -->
<g id="node11" class="node">
<title>23</title>
<ellipse fill="none" stroke="black" cx="126" cy="-162" rx="18" ry="18"/>
<text text-anchor="middle" x="126" y="-158.3" font-family="Times,serif" font-size="14.00">23</text>
</g>
<!-- 9&#45;&gt;23 -->
<g id="edge8" class="edge">
<title>9&#45;&gt;23</title>
<path fill="none" stroke="black" d="M169.33,-219.17C159.86,-206.9 146.11,-189.06 136.65,-176.8"/>
</g>
<!-- 34 -->
<g id="node12" class="node">
<title>34</title>
<ellipse fill="none" stroke="black" cx="234" cy="-162" rx="18" ry="18"/>
<text text-anchor="middle" x="234" y="-158.3" font-family="Times,serif" font-size="14.00">34</text>
</g>
<!-- 9&#45;&gt;34 -->
<g id="edge9" class="edge">
<title>9&#45;&gt;34</title>
<path fill="none" stroke="black" d="M190.67,-219.17C200.14,-206.9 213.89,-189.06 223.35,-176.8"/>
</g>
<!-- 23&#45;&gt;30 -->
<g id="edge13" class="edge">
<title>23&#45;&gt;30</title>
<path fill="none" stroke="black" d="M115.33,-147.17C105.86,-134.9 92.11,-117.06 82.65,-104.8"/>
</g>
<!-- 33 -->
<g id="node16" class="node">
<title>33</title>
<ellipse fill="none" stroke="black" cx="153" cy="-90" rx="18" ry="18"/>
<text text-anchor="middle" x="153" y="-86.3" font-family="Times,serif" font-size="14.00">33</text>
</g>
<!-- 23&#45;&gt;33 -->
<g id="edge14" class="edge">
<title>23&#45;&gt;33</title>
<path fill="none" stroke="black" d="M132.26,-144.76C136.62,-133.46 142.42,-118.44 146.77,-107.15"/>
</g>
<!-- 34&#45;&gt;47 -->
<g id="edge17" class="edge">
<title>34&#45;&gt;47</title>
<path fill="none" stroke="black" d="M244.67,-147.17C254.14,-134.9 267.89,-117.06 277.35,-104.8"/>
</g>
<!-- 41 -->
<g id="node18" class="node">
<title>41</title>
<ellipse fill="none" stroke="black" cx="234" cy="-90" rx="18" ry="18"/>
<text text-anchor="middle" x="234" y="-86.3" font-family="Times,serif" font-size="14.00">41</text>
</g>
<!-- 34&#45;&gt;41 -->
<g id="edge16" class="edge">
<title>34&#45;&gt;41</title>
<path fill="none" stroke="black" d="M234,-143.7C234,-132.85 234,-118.92 234,-108.1"/>
</g>
<!-- 18 -->
<g id="node14" class="node">
<title>18</title>
<ellipse fill="none" stroke="black" cx="18" cy="-162" rx="18" ry="18"/>
<text text-anchor="middle" x="18" y="-158.3" font-family="Times,serif" font-size="14.00">18</text>
</g>
<!-- 18&#45;&gt;30 -->
<g id="edge11" class="edge">
<title>18&#45;&gt;30</title>
<path fill="none" stroke="black" d="M28.67,-147.17C38.14,-134.9 51.89,-117.06 61.35,-104.8"/>
</g>
<!-- 48 -->
<g id="node15" class="node">
<title>48</title>
<ellipse fill="none" stroke="black" cx="18" cy="-90" rx="18" ry="18"/>
<text text-anchor="middle" x="18" y="-86.3" font-family="Times,serif" font-size="14.00">48</text>
</g>
<!-- 18&#45;&gt;48 -->
<g id="edge12" class="edge">
<title>18&#45;&gt;48</title>
<path fill="none" stroke="black" d="M18,-143.7C18,-132.85 18,-118.92 18,-108.1"/>
</g>
<!-- 25 -->
<g id="node17" class="node">
<title>25</title>
<ellipse fill="none" stroke="black" cx="180" cy="-162" rx="18" ry="18"/>
<text text-anchor="middle" x="180" y="-158.3" font-family="Times,serif" font-size="14.00">25</text>
</g>
<!-- 25&#45;&gt;33 -->
<g id="edge15" class="edge">
<title>25&#45;&gt;33</title>
<path fill="none" stroke="black" d="M173.74,-144.76C169.38,-133.46 163.58,-118.44 159.23,-107.15"/>
</g>
</g>
</svg>