<?xml version="1.0" encoding="UTF-8" standalone="no"?>
<!DOCTYPE svg PUBLIC "-//W3C//DTD SVG 1.1//EN"
 "http://www.w3.org/Graphics/SVG/1.1/DTD/svg11.dtd">
<!-- Generated by graphviz version 2.43.0 (0)
 -->
<!-- Title: %3 Pages: 1 -->
<svg width="44pt" height="627pt"
 viewBox="0.00 0.00 44.00 627.20" xmlns="http://www.w3.org/2000/svg" xmlns:xlink="http://www.w3.org/1999/xlink">
<g id="graph0" class="graph" transform="scale(1 1) rotate(0) translate(4 623.2)">
<title>%3</title>
<polygon fill="white" stroke="transparent" points="-4,4 -4,-623.2 40,-623.2 40,4 -4,4"/>
<!-- 428 -->
<g id="node1" class="node">
<title>428</title>
<ellipse fill="none" stroke="black" cx="18" cy="-345.6" rx="18" ry="18"/>
<text text-anchor="middle" x="18" y="-341.9" font-family="Times,serif" font-size="14.00">428</text>
</g>
<!-- 4327 -->
<g id="node2" class="node">
<title>4327</title>
<ellipse fill="none" stroke="black" cx="18" cy="-273.6" rx="18" ry="18"/>
<text text-anchor="middle" x="18" y="-269.9" font-family="Times,serif" font-size="14.00">4327</text>
</g>
<!-- 428&#45;&gt;4327 -->
<g id="edge1" class="edge">
<title>428&#45;&gt;4327</title>
<path fill="none" stroke="black" d="M18,-327.3C18,-319.58 18,-310.31 18,-301.71"/>
<polygon fill="black" stroke="black" points="21.5,-301.7 18,-291.7 14.5,-301.7 21.5,-301.7"/>
</g>
<!-- 335 -->
<g id="node8" class="node">
<title>335</title>
<ellipse fill="none" stroke="black" cx="18" cy="-201.6" rx="18" ry="18"/>
<text text-anchor="middle" x="18" y="-197.9" font-family="Times,serif" font-size="14.00">335</text>
</g>
<!-- 4327&#45;&gt;335 -->
<g id="edge7" class="edge">
<title>4327&#45;&gt;335</title>
<path fill="none" stroke="black" d="M18,-255.3C18,-247.58 18,-238.31 18,-229.71"/>
<polygon fill="black" stroke="black" points="21.5,-229.7 18,-219.7 14.5,-229.7 21.5,-229.7"/>
</g>
<!-- 43 -->
<g id="node3" class="node">
<title>43</title>
<ellipse fill="none" stroke="black" cx="18" cy="-129.6" rx="18" ry="18"/>
<text text-anchor="middle" x="18" y="-125.9" font-family="Times,serif" font-size="14.00">43</text>
</g>
<!-- 1099 -->
<g id="node4" class="node">
<title>1099</title>
<ellipse fill="none" stroke="black" cx="18" cy="-57.6" rx="18" ry="18"/>
<text text-anchor="middle" x="18" y="-53.9" font-family="Times,serif" font-size="14.00">1099</text>
</g>
<!-- 43&#45;&gt;1099 -->
<g id="edge2" class="edge">
<title>43&#45;&gt;1099</title>
<path fill="none" stroke="black" d="M18,-111.3C18,-103.58 18,-94.31 18,-85.71"/>
<polygon fill="black" stroke="black" points="21.5,-85.7 18,-75.7 14.5,-85.7 21.5,-85.7"/>
</g>
<!-- e_8_target -->
<g id="node10" class="node">
<title>e_8_target</title>
<ellipse fill="black" stroke="black" cx="18" cy="-1.8" rx="1.8" ry="1.8"/>
</g>
<!-- 1099&#45;&gt;e_8_target -->
<g id="edge9" class="edge">
<title>1099&#45;&gt;e_8_target</title>
<path fill="none" stroke="black" d="M18,-39.58C18,-31.17 18,-21.28 18,-13.87"/>
<polygon fill="black" stroke="black" points="21.5,-13.73 18,-3.73 14.5,-13.73 21.5,-13.73"/>
</g>
<!-- 3249 -->
<g id="node5" class="node">
<title>3249</title>
<ellipse fill="none" stroke="black" cx="18" cy="-489.6" rx="18" ry="18"/>
<text text-anchor="middle" x="18" y="-485.9" font-family="Times,serif" font-size="14.00">3249</text>
</g>
<!-- 1655 -->
<g id="node6" class="node">
<title>1655</title>
<ellipse fill="none" stroke="black" cx="18" cy="-417.6" rx="18" ry="18"/>
<text text-anchor="middle" x="18" y="-413.9" font-family="Times,serif" font-size="14.00">1655</text>
</g>
<!-- 3249&#45;&gt;1655 -->
<g id="edge3" class="edge">
<title>3249&#45;&gt;1655</title>
<path fill="none" stroke="black" d="M18,-471.3C18,-463.58 18,-454.31 18,-445.71"/>
<polygon fill="black" stroke="black" points="21.5,-445.7 18,-435.7 14.5,-445.7 21.5,-445.7"/>
</g>
<!-- 1655&#45;&gt;428 -->
<g id="edge5" class="edge">
<title>1655&#45;&gt;428</title>
<path fill="none" stroke="black" d="M18,-399.3C18,-391.58 18,-382.31 18,-373.71"/>
<polygon fill="black" stroke="black" points="21.5,-373.7 18,-363.7 14.5,-373.7 21.5,-373.7"/>
</g>
<!-- 4090 -->
<g id="node7" class="node">
<title>4090</title>
<ellipse fill="none" stroke="black" cx="18" cy="-561.6" rx="18" ry="18"/>
<text text-anchor="middle" x="18" y="-557.9" font-family="Times,serif" font-size="14.00">4090</text>
</g>
<!-- 4090&#45;&gt;3249 -->
<g id="edge4" class="edge">
<title>4090&#45;&gt;3249</title>
<path fill="none" stroke="black" d="M18,-543.3C18,-535.58 18,-526.31 18,-517.71"/>
<polygon fill="black" stroke="black" points="21.5,-517.7 18,-507.7 14.5,-517.7 21.5,-517.7"/>
</g>
<!-- 335&#45;&gt;43 -->
<g id="edge6" class="edge">
<title>335&#45;&gt;43</title>
<path fill="none" stroke="black" d="M18,-183.3C18,-175.58 18,-166.31 18,-157.71"/>
<polygon fill="black" stroke="black" points="21.5,-157.7 18,-147.7 14.5,-157.7 21.5,-157.7"/>
</g>
<!-- e_7_source -->
<g id="node9" class="node">
<title>e_7_source</title>
<ellipse fill="black" stroke="black" cx="18" cy="-617.4" rx="1.8" ry="1.8"/>
</g>
<!-- e_7_source&#45;&gt;4090 -->
<g id="edge8" class="edge">
<title>e_7_source&#45;&gt;4090</title>
<path fill="none" stroke="black" d="M18,-615.47C18,-612.24 18,-601.15 18,-589.95"/>
<polygon fill="black" stroke="black" points="21.5,-589.86 18,-579.86 14.5,-589.86 21.5,-589.86"/>
</g>
</g>
</svg>