<?xml version="1.0" encoding="UTF-8" standalone="no"?>
<!DOCTYPE svg PUBLIC "-//W3C//DTD SVG 1.1//EN"
 "http://www.w3.org/Graphics/SVG/1.1/DTD/svg11.dtd">
<!-- Generated by graphviz version 2.43.0 (0)
 -->
<!-- Title: %3 Pages: 1 -->
<svg width="67pt" height="260pt"
 viewBox="0.00 0.00 67.00 260.00" xmlns="http://www.w3.org/2000/svg" xmlns:xlink="http://www.w3.org/1999/xlink">
<g id="graph0" class="graph" transform="scale(1 1) rotate(0) translate(4 256)">
<title>%3</title>
<polygon fill="white" stroke="transparent" points="-4,4 -4,-256 63,-256 63,4 -4,4"/>
<!-- 1 -->
<g id="node1" class="node">
<title>1</title>
<ellipse fill="none" stroke="black" cx="41" cy="-234" rx="18" ry="18"/>
<text text-anchor="middle" x="41" y="-230.3" font-family="Times,serif" font-size="14.00">1</text>
</g>
<!-- 2 -->
<g id="node2" class="node">
<title>2</title>
<ellipse fill="none" stroke="black" cx="18" cy="-162" rx="18" ry="18"/>
<text text-anchor="middle" x="18" y="-158.3" font-family="Times,serif" font-size="14.00">2</text>
</g>
<!-- 1&#45;&gt;2 -->
<g id="edge1" class="edge">
<title>1&#45;&gt;2</title>
<path fill="none" stroke="black" d="M35.67,-216.76C32.98,-208.58 29.65,-198.45 26.61,-189.2"/>
<polygon fill="black" stroke="black" points="29.91,-188.04 23.47,-179.63 23.26,-190.23 29.91,-188.04"/>
</g>
<!-- 3 -->
<g id="node3" class="node">
<title>3</title>
<ellipse fill="none" stroke="black" cx="41" cy="-90" rx="18" ry="18"/>
<text text-anchor="middle" x="41" y="-86.3" font-family="Times,serif" font-size="14.00">3</text>
</g>
<!-- 1&#45;&gt;3 -->
<g id="edge3" class="edge">
<title>1&#45;&gt;3</title>
<path fill="none" stroke="black" d="M42.62,-215.83C43.52,-205.47 44.55,-191.99 45,-180 45.6,-164.01 45.6,-159.99 45,-144 44.69,-135.67 44.09,-126.61 43.46,-118.38"/>
<polygon fill="black" stroke="black" points="46.93,-117.85 42.62,-108.17 39.95,-118.42 46.93,-117.85"/>
</g>
<!-- 2&#45;&gt;3 -->
<g id="edge2" class="edge">
<title>2&#45;&gt;3</title>
<path fill="none" stroke="black" d="M23.33,-144.76C26.02,-136.58 29.35,-126.45 32.39,-117.2"/>
<polygon fill="black" stroke="black" points="35.74,-118.23 35.53,-107.63 29.09,-116.04 35.74,-118.23"/>
</g>
<!-- 4 -->
<g id="node4" class="node">
<title>4</title>
<ellipse fill="none" stroke="black" cx="41" cy="-18" rx="18" ry="18"/>
<text text-anchor="middle" x="41" y="-14.3" font-family="Times,serif" font-size="14.00">4</text>
</g>
<!-- 3&#45;&gt;4 -->
<g id="edge4" class="edge">
<title>3&#45;&gt;4</title>
<path fill="none" stroke="black" d="M30.08,-75.5C26.63,-63.11 26.64,-44.84 30.1,-32.46"/>
</g>
<!-- 3&#45;&gt;4 -->
<g id="edge5" class="edge">
<title>3&#45;&gt;4</title>
<path fill="none" stroke="black" d="M41,-71.7C41,-60.85 41,-46.92 41,-36.1"/>
</g>
<!-- 3&#45;&gt;4 -->
<g id="edge6" class="edge">
<title>3&#45;&gt;4</title>
<path fill="none" stroke="black" d="M51.92,-75.5C54.53,-66.11 55.16,-53.34 53.81,-42.32"/>
<polygon fill="black" stroke="black" points="57.24,-41.61 51.9,-32.46 50.36,-42.94 57.24,-41.61"/>
</g>
</g>
</svg>