<?xml version="1.0" encoding="UTF-8" standalone="no"?>
<!DOCTYPE svg PUBLIC "-//W3C//DTD SVG 1.1//EN"
 "http://www.w3.org/Graphics/SVG/1.1/DTD/svg11.dtd">
<!-- Generated by graphviz version 2.43.0 (0)
 -->
<!-- Title: %3 Pages: 1 -->
<svg width="152pt" height="314pt"
 viewBox="0.00 0.00 152.00 313.60" xmlns="http://www.w3.org/2000/svg" xmlns:xlink="http://www.w3.org/1999/xlink">
<g id="graph0" class="graph" transform="scale(1 1) rotate(0) translate(4 309.6)">
<title>%3</title>
<polygon fill="white" stroke="transparent" points="-4,4 -4,-309.6 148,-309.6 148,4 -4,4"/>
<!-- B -->
<g id="node1" class="node">
<title>B</title>
<ellipse fill="none" stroke="black" cx="72" cy="-248" rx="18" ry="18"/>
<text text-anchor="middle" x="72" y="-244.3" font-family="Times,serif" font-size="14.00">B</text>
</g>
<!-- e_0_center -->
<g id="node5" class="node">
<title>e_0_center</title>
<polygon fill="none" stroke="black" points="48.5,-194 41.5,-194 41.5,-187 48.5,-187 48.5,-194"/>
</g>
<!-- B&#45;&gt;e_0_center -->
<g id="edge1" class="edge">
<title>B&#45;&gt;e_0_center</title>
<path fill="none" stroke="black" d="M64.48,-231.54C58.11,-218.45 49.52,-200.8 46.3,-194.17"/>
</g>
<!-- A -->
<g id="node2" class="node">
<title>A</title>
<ellipse fill="none" stroke="black" cx="18" cy="-248" rx="18" ry="18"/>
<text text-anchor="middle" x="18" y="-244.3" font-family="Times,serif" font-size="14.00">A</text>
</g>
<!-- A&#45;&gt;e_0_center -->
<g id="edge2" class="edge">
<title>A&#45;&gt;e_0_center</title>
<path fill="none" stroke="black" d="M25.52,-231.54C31.89,-218.45 40.48,-200.8 43.7,-194.17"/>
</g>
<!-- C -->
<g id="node3" class="node">
<title>C</title>
<ellipse fill="none" stroke="black" cx="18" cy="-133" rx="18" ry="18"/>
<text text-anchor="middle" x="18" y="-129.3" font-family="Times,serif" font-size="14.00">C</text>
</g>
<!-- e_4_target -->
<g id="node12" class="node">
<title>e_4_target</title>
<ellipse fill="black" stroke="black" cx="18" cy="-75.5" rx="1.8" ry="1.8"/>
</g>
<!-- C&#45;&gt;e_4_target -->
<g id="edge11" class="edge">
<title>C&#45;&gt;e_4_target</title>
<path fill="none" stroke="black" d="M18,-114.74C18,-105.95 18,-95.5 18,-87.75"/>
<polygon fill="black" stroke="black" points="21.5,-87.48 18,-77.48 14.5,-87.48 21.5,-87.48"/>
</g>
<!-- D -->
<g id="node4" class="node">
<title>D</title>
<ellipse fill="none" stroke="black" cx="72" cy="-133" rx="18" ry="18"/>
<text text-anchor="middle" x="72" y="-129.3" font-family="Times,serif" font-size="14.00">D</text>
</g>
<!-- e_1_center -->
<g id="node9" class="node">
<title>e_1_center</title>
<polygon fill="none" stroke="black" points="75.5,-79 68.5,-79 68.5,-72 75.5,-72 75.5,-79"/>
</g>
<!-- D&#45;&gt;e_1_center -->
<g id="edge5" class="edge">
<title>D&#45;&gt;e_1_center</title>
<path fill="none" stroke="black" d="M72,-114.74C72,-102.02 72,-85.83 72,-79.36"/>
</g>
<!-- e_0_center&#45;&gt;C -->
<g id="edge3" class="edge">
<title>e_0_center&#45;&gt;C</title>
<path fill="none" stroke="black" d="M43.7,-186.82C41.18,-181.65 35.41,-169.79 29.98,-158.62"/>
<polygon fill="black" stroke="black" points="33.09,-157.02 25.57,-149.55 26.79,-160.08 33.09,-157.02"/>
</g>
<!-- e_0_center&#45;&gt;D -->
<g id="edge4" class="edge">
<title>e_0_center&#45;&gt;D</title>
<path fill="none" stroke="black" d="M46.3,-186.82C48.82,-181.65 54.59,-169.79 60.02,-158.62"/>
<polygon fill="black" stroke="black" points="63.21,-160.08 64.43,-149.55 56.91,-157.02 63.21,-160.08"/>
</g>
<!-- 5 -->
<g id="node6" class="node">
<title>5</title>
<ellipse fill="none" stroke="black" cx="18" cy="-18" rx="18" ry="18"/>
<text text-anchor="middle" x="18" y="-14.3" font-family="Times,serif" font-size="14.00">5</text>
</g>
<!-- 6 -->
<g id="node7" class="node">
<title>6</title>
<ellipse fill="none" stroke="black" cx="72" cy="-18" rx="18" ry="18"/>
<text text-anchor="middle" x="72" y="-14.3" font-family="Times,serif" font-size="14.00">6</text>
</g>
<!-- 7 -->
<g id="node8" class="node">
<title>7</title>
<ellipse fill="none" stroke="black" cx="126" cy="-18" rx="18" ry="18"/>
<text text-anchor="middle" x="126" y="-14.3" font-family="Times,serif" font-size="14.00">7</text>
</g>
<!-- e_1_center&#45;&gt;5 -->
<g id="edge6" class="edge">
<title>e_1_center&#45;&gt;5</title>
<path fill="none" stroke="black" d="M69.4,-71.82C63.67,-65.94 49.56,-51.43 37.56,-39.11"/>
<polygon fill="black" stroke="black" points="39.95,-36.54 30.46,-31.81 34.93,-41.42 39.95,-36.54"/>
</g>
<!-- e_1_center&#45;&gt;6 -->
<g id="edge7" class="edge">
<title>e_1_center&#45;&gt;6</title>
<path fill="none" stroke="black" d="M72,-71.82C72,-67.05 72,-56.59 72,-46.23"/>
<polygon fill="black" stroke="black" points="75.5,-46.11 72,-36.11 68.5,-46.11 75.5,-46.11"/>
</g>
<!-- e_1_center&#45;&gt;7 -->
<g id="edge8" class="edge">
<title>e_1_center&#45;&gt;7</title>
<path fill="none" stroke="black" d="M74.6,-71.82C80.33,-65.94 94.44,-51.43 106.44,-39.11"/>
<polygon fill="black" stroke="black" points="109.07,-41.42 113.54,-31.81 104.05,-36.54 109.07,-41.42"/>
</g>
<!-- e_2_source -->
<g id="node10" class="node">
<title>e_2_source</title>
<ellipse fill="black" stroke="black" cx="18" cy="-303.8" rx="1.8" ry="1.8"/>
</g>
<!-- e_2_source&#45;&gt;A -->
<g id="edge9" class="edge">
<title>e_2_source&#45;&gt;A</title>
<path fill="none" stroke="black" d="M18,-301.87C18,-298.64 18,-287.55 18,-276.35"/>
<polygon fill="black" stroke="black" points="21.5,-276.26 18,-266.26 14.5,-276.26 21.5,-276.26"/>
</g>
<!-- e_3_source -->
<g id="node11" class="node">
<title>e_3_source</title>
<ellipse fill="black" stroke="black" cx="72" cy="-303.8" rx="1.8" ry="1.8"/>
</g>
<!-- e_3_source&#45;&gt;B -->
<g id="edge10" class="edge">
<title>e_3_source&#45;&gt;B</title>
<path fill="none" stroke="black" d="M72,-301.87C72,-298.64 72,-287.55 72,-276.35"/>
<polygon fill="black" stroke="black" points="75.5,-276.26 72,-266.26 68.5,-276.26 75.5,-276.26"/>
</g>
</g>
</svg>