<?xml version="1.0" encoding="UTF-8" standalone="no"?>
<!DOCTYPE svg PUBLIC "-//W3C//DTD SVG 1.1//EN"
 "http://www.w3.org/Graphics/SVG/1.1/DTD/svg11.dtd">
<!-- Generated by graphviz version 2.43.0 (0)
 -->
<!-- Title: %3 Pages: 1 -->
<svg width="44pt" height="699pt"
 viewBox="0.00 0.00 44.00 699.20" xmlns="http://www.w3.org/2000/svg" xmlns:xlink="http://www.w3.org/1999/xlink">
<g id="graph0" class="graph" transform="scale(1 1) rotate(0) translate(4 695.2)">
<title>%3</title>
<polygon fill="white" stroke="transparent" points="-4,4 -4,-695.2 40,-695.2 40,4 -4,4"/>
<!-- 576 -->
<g id="node1" class="node">
<title>576</title>
<ellipse fill="none" stroke="black" cx="18" cy="-273.6" rx="18" ry="18"/>
<text text-anchor="middle" x="18" y="-269.9" font-family="Times,serif" font-size="14.00">576</text>
</g>
<!-- 212 -->
<g id="node2" class="node">
<title>212</title>
<ellipse fill="none" stroke="black" cx="18" cy="-201.6" rx="18" ry="18"/>
<text text-anchor="middle" x="18" y="-197.9" font-family="Times,serif" font-size="14.00">212</text>
</g>
<!-- 576&#45;&gt;212 -->
<g id="edge1" class="edge">
<title>576&#45;&gt;212</title>
<path fill="none" stroke="black" d="M18,-255.3C18,-247.58 18,-238.31 18,-229.71"/>
<polygon fill="black" stroke="black" points="21.5,-229.7 18,-219.7 14.5,-229.7 21.5,-229.7"/>
</g>
<!-- 2482 -->
<g id="node5" class="node">
<title>2482</title>
<ellipse fill="none" stroke="black" cx="18" cy="-129.6" rx="18" ry="18"/>
<text text-anchor="middle" x="18" y="-125.9" font-family="Times,serif" font-size="14.00">2482</text>
</g>
<!-- 212&#45;&gt;2482 -->
<g id="edge3" class="edge">
<title>212&#45;&gt;2482</title>
<path fill="none" stroke="black" d="M18,-183.3C18,-175.58 18,-166.31 18,-157.71"/>
<polygon fill="black" stroke="black" points="21.5,-157.7 18,-147.7 14.5,-157.7 21.5,-157.7"/>
</g>
<!-- 366 -->
<g id="node3" class="node">
<title>366</title>
<ellipse fill="none" stroke="black" cx="18" cy="-417.6" rx="18" ry="18"/>
<text text-anchor="middle" x="18" y="-413.9" font-family="Times,serif" font-size="14.00">366</text>
</g>
<!-- 2 -->
<g id="node4" class="node">
<title>2</title>
<ellipse fill="none" stroke="black" cx="18" cy="-345.6" rx="18" ry="18"/>
<text text-anchor="middle" x="18" y="-341.9" font-family="Times,serif" font-size="14.00">2</text>
</g>
<!-- 366&#45;&gt;2 -->
<g id="edge2" class="edge">
<title>366&#45;&gt;2</title>
<path fill="none" stroke="black" d="M18,-399.3C18,-391.58 18,-382.31 18,-373.71"/>
<polygon fill="black" stroke="black" points="21.5,-373.7 18,-363.7 14.5,-373.7 21.5,-373.7"/>
</g>
<!-- 2&#45;&gt;576 -->
<g id="edge4" class="edge">
<title>2&#45;&gt;576</title>
<path fill="none" stroke="black" d="M18,-327.3C18,-319.58 18,-310.31 18,-301.71"/>
<polygon fill="black" stroke="black" points="21.5,-301.7 18,-291.7 14.5,-301.7 21.5,-301.7"/>
</g>
<!-- 4852 -->
<g id="node6" class="node">
<title>4852</title>
<ellipse fill="none" stroke="black" cx="18" cy="-57.6" rx="18" ry="18"/>
<text text-anchor="middle" x="18" y="-53.9" font-family="Times,serif" font-size="14.00">4852</text>
</g>
<!-- 2482&#45;&gt;4852 -->
<g id="edge5" class="edge">
<title>2482&#45;&gt;4852</title>
<path fill="none" stroke="black" d="M18,-111.3C18,-103.58 18,-94.31 18,-85.71"/>
<polygon fill="black" stroke="black" points="21.5,-85.7 18,-75.7 14.5,-85.7 21.5,-85.7"/>
</g>
<!-- e_9_target -->
<g id="node11" class="node">
<title>e_9_target</title>
<ellipse fill="black" stroke="black" cx="18" cy="-1.8" rx="1.8" ry="1.8"/>
</g>
<!-- 4852&#45;&gt;e_9_target -->
<g id="edge10" class="edge">
<title>4852&#45;&gt;e_9_target</title>
<path fill="none" stroke="black" d="M18,-39.58C18,-31.17 18,-21.28 18,-13.87"/>
<polygon fill="black" stroke="black" points="21.5,-13.73 18,-3.73 14.5,-13.73 21.5,-13.73"/>
</g>
<!-- 309 -->
<g id="node7" class="node">
<title>309</title>
<ellipse fill="none" stroke="black" cx="18" cy="-489.6" rx="18" ry="18"/>
<text text-anchor="middle" x="18" y="-485.9" font-family="Times,serif" font-size="14.00">309</text>
</g>
<!-- 309&#45;&gt;366 -->
<g id="edge6" class="edge">
<title>309&#45;&gt;366</title>
<path fill="none" stroke="black" d="M18,-471.3C18,-463.58 18,-454.31 18,-445.71"/>
<polygon fill="black" stroke="black" points="21.5,-445.7 18,-435.7 14.5,-445.7 21.5,-445.7"/>
</g>
<!-- 1625 -->
<g id="node8" class="node">
<title>1625</title>
<ellipse fill="none" stroke="black" cx="18" cy="-561.6" rx="18" ry="18"/>
<text text-anchor="middle" x="18" y="-557.9" font-family="Times,serif" font-size="14.00">1625</text>
</g>
<!-- 1625&#45;&gt;309 -->
<g id="edge7" class="edge">
<title>1625&#45;&gt;309</title>
<path fill="none" stroke="black" d="M18,-543.3C18,-535.58 18,-526.31 18,-517.71"/>
<polygon fill="black" stroke="black" points="21.5,-517.7 18,-507.7 14.5,-517.7 21.5,-517.7"/>
</g>
<!-- 4766 -->
<g id="node9" class="node">
<title>4766</title>
<ellipse fill="none" stroke="black" cx="18" cy="-633.6" rx="18" ry="18"/>
<text text-anchor="middle" x="18" y="-629.9" font-family="Times,serif" font-size="14.00">4766</text>
</g>
<!-- 4766&#45;&gt;1625 -->
<g id="edge8" class="edge">
<title>4766&#45;&gt;1625</title>
<path fill="none" stroke="black" d="M18,-615.3C18,-607.58 18,-598.31 18,-589.71"/>
<polygon fill="black" stroke="black" points="21.5,-589.7 18,-579.7 14.5,-589.7 21.5,-589.7"/>
</g>
<!-- e_8_source -->
<g id="node10" class="node">
<title>e_8_source</title>
<ellipse fill="black" stroke="black" cx="18" cy="-689.4" rx="1.8" ry="1.8"/>
</g>
<!-- e_8_source&#45;&gt;4766 -->
<g id="edge9" class="edge">
<title>e_8_source&#45;&gt;4766</title>
<path fill="none" stroke="black" d="M18,-687.47C18,-684.24 18,-673.15 18,-661.95"/>
<polygon fill="black" stroke="black" points="21.5,-661.86 18,-651.86 14.5,-661.86 21.5,-661.86"/>
</g>
</g>
</svg>