<?xml version="1.0" encoding="UTF-8" standalone="no"?>
<!DOCTYPE svg PUBLIC "-//W3C//DTD SVG 1.1//EN"
 "http://www.w3.org/Graphics/SVG/1.1/DTD/svg11.dtd">
<!-- Generated by graphviz version 2.43.0 (0)
 -->
<!-- Title: %3 Pages: 1 -->
<svg width="125pt" height="314pt"
 viewBox="0.00 0.00 125.00 313.60" xmlns="http://www.w3.org/2000/svg" xmlns:xlink="http://www.w3.org/1999/xlink">
<g id="graph0" class="graph" transform="scale(1 1) rotate(0) translate(4 309.6)">
<title>%3</title>
<polygon fill="white" stroke="transparent" points="-4,4 -4,-309.6 121,-309.6 121,4 -4,4"/>
<!-- A -->
<g id="node1" class="node">
<title>A</title>
<ellipse fill="none" stroke="black" cx="99" cy="-248" rx="18" ry="18"/>
<text text-anchor="middle" x="99" y="-244.3" font-family="Times,serif" font-size="14.00">A</text>
</g>
<!-- e_0_center -->
<g id="node5" class="node">
<title>e_0_center</title>
<polygon fill="none" stroke="black" points="75.5,-194 68.5,-194 68.5,-187 75.5,-187 75.5,-194"/>
</g>
<!-- A&#45;&gt;e_0_center -->
<g id="edge1" class="edge">
<title>A&#45;&gt;e_0_center</title>
<path fill="none" stroke="black" d="M91.48,-231.54C85.11,-218.45 76.52,-200.8 73.3,-194.17"/>
</g>
<!-- B -->
<g id="node2" class="node">
<title>B</title>
<ellipse fill="none" stroke="black" cx="45" cy="-248" rx="18" ry="18"/>
<text text-anchor="middle" x="45" y="-244.3" font-family="Times,serif" font-size="14.00">B</text>
</g>
<!-- B&#45;&gt;e_0_center -->
<g id="edge2" class="edge">
<title>B&#45;&gt;e_0_center</title>
<path fill="none" stroke="black" d="M52.52,-231.54C58.89,-218.45 67.48,-200.8 70.7,-194.17"/>
</g>
<!-- D -->
<g id="node3" class="node">
<title>D</title>
<ellipse fill="none" stroke="black" cx="45" cy="-133" rx="18" ry="18"/>
<text text-anchor="middle" x="45" y="-129.3" font-family="Times,serif" font-size="14.00">D</text>
</g>
<!-- e_1_center -->
<g id="node8" class="node">
<title>e_1_center</title>
<polygon fill="none" stroke="black" points="48.5,-79 41.5,-79 41.5,-72 48.5,-72 48.5,-79"/>
</g>
<!-- D&#45;&gt;e_1_center -->
<g id="edge5" class="edge">
<title>D&#45;&gt;e_1_center</title>
<path fill="none" stroke="black" d="M45,-114.74C45,-102.02 45,-85.83 45,-79.36"/>
</g>
<!-- C -->
<g id="node4" class="node">
<title>C</title>
<ellipse fill="none" stroke="black" cx="99" cy="-133" rx="18" ry="18"/>
<text text-anchor="middle" x="99" y="-129.3" font-family="Times,serif" font-size="14.00">C</text>
</g>
<!-- e_4_target -->
<g id="node11" class="node">
<title>e_4_target</title>
<ellipse fill="black" stroke="black" cx="99" cy="-75.5" rx="1.8" ry="1.8"/>
</g>
<!-- C&#45;&gt;e_4_target -->
<g id="edge10" class="edge">
<title>C&#45;&gt;e_4_target</title>
<path fill="none" stroke="black" d="M99,-114.74C99,-105.95 99,-95.5 99,-87.75"/>
<polygon fill="black" stroke="black" points="102.5,-87.48 99,-77.48 95.5,-87.48 102.5,-87.48"/>
</g>
<!-- e_0_center&#45;&gt;D -->
<g id="edge3" class="edge">
<title>e_0_center&#45;&gt;D</title>
<path fill="none" stroke="black" d="M70.7,-186.82C68.18,-181.65 62.41,-169.79 56.98,-158.62"/>
<polygon fill="black" stroke="black" points="60.09,-157.02 52.57,-149.55 53.79,-160.08 60.09,-157.02"/>
</g>
<!-- e_0_center&#45;&gt;C -->
<g id="edge4" class="edge">
<title>e_0_center&#45;&gt;C</title>
<path fill="none" stroke="black" d="M73.3,-186.82C75.82,-181.65 81.59,-169.79 87.02,-158.62"/>
<polygon fill="black" stroke="black" points="90.21,-160.08 91.43,-149.55 83.91,-157.02 90.21,-160.08"/>
</g>
<!-- F -->
<g id="node6" class="node">
<title>F</title>
<ellipse fill="none" stroke="black" cx="18" cy="-18" rx="18" ry="18"/>
<text text-anchor="middle" x="18" y="-14.3" font-family="Times,serif" font-size="14.00">F</text>
</g>
<!-- E -->
<g id="node7" class="node">
<title>E</title>
<ellipse fill="none" stroke="black" cx="72" cy="-18" rx="18" ry="18"/>
<text text-anchor="middle" x="72" y="-14.3" font-family="Times,serif" font-size="14.00">E</text>
</g>
<!-- e_1_center&#45;&gt;F -->
<g id="edge6" class="edge">
<title>e_1_center&#45;&gt;F</title>
<path fill="none" stroke="black" d="M43.7,-71.82C41.18,-66.65 35.41,-54.79 29.98,-43.62"/>
<polygon fill="black" stroke="black" points="33.09,-42.02 25.57,-34.55 26.79,-45.08 33.09,-42.02"/>
</g>
<!-- e_1_center&#45;&gt;E -->
<g id="edge7" class="edge">
<title>e_1_center&#45;&gt;E</title>
<path fill="none" stroke="black" d="M46.3,-71.82C48.82,-66.65 54.59,-54.79 60.02,-43.62"/>
<polygon fill="black" stroke="black" points="63.21,-45.08 64.43,-34.55 56.91,-42.02 63.21,-45.08"/>
</g>
<!-- e_2_source -->
<g id="node9" class="node">
<title>e_2_source</title>
<ellipse fill="black" stroke="black" cx="99" cy="-303.8" rx="1.8" ry="1.8"/>
</g>
<!-- e_2_source&#45;&gt;A -->
<g id="edge8" class="edge">
<title>e_2_source&#45;&gt;A</title>
<path fill="none" stroke="black" d="M99,-301.87C99,-298.64 99,-287.55 99,-276.35"/>
<polygon fill="black" stroke="black" points="102.5,-276.26 99,-266.26 95.5,-276.26 102.5,-276.26"/>
</g>
<!-- e_3_source -->
<g id="node10" class="node">
<title>e_3_source</title>
<ellipse fill="black" stroke="black" cx="45" cy="-303.8" rx="1.8" ry="1.8"/>
</g>
<!-- e_3_source&#45;&gt;B -->
<g id="edge9" class="edge">
<title>e_3_source&#45;&gt;B</title>
<path fill="none" stroke="black" d="M45,-301.87C45,-298.64 45,-287.55 45,-276.35"/>
<polygon fill="black" stroke="black" points="48.5,-276.26 45,-266.26 41.5,-276.26 48.5,-276.26"/>
</g>
</g>
</svg>