<?xml version="1.0" encoding="UTF-8" standalone="no"?>
<!DOCTYPE svg PUBLIC "-//W3C//DTD SVG 1.1//EN"
 "http://www.w3.org/Graphics/SVG/1.1/DTD/svg11.dtd">
<!-- Generated by graphviz version 13.0.1 (0)
 -->
<!-- Pages: 1 -->
<svg width="287pt" height="876pt"
 viewBox="0.00 0.00 287.00 876.00" xmlns="http://www.w3.org/2000/svg" xmlns:xlink="http://www.w3.org/1999/xlink">
<g id="graph0" class="graph" transform="scale(1 1) rotate(0) translate(4 871.6)">
<polygon fill="white" stroke="none" points="-4,4 -4,-871.6 283,-871.6 283,4 -4,4"/>
<!-- MAPK14 -->
<g id="node1" class="node">
<title>MAPK14</title>
<ellipse fill="none" stroke="#8b1a1a" stroke-width="2" cx="153" cy="-522" rx="18" ry="18"/>
<text xml:space="preserve" text-anchor="middle" x="153" y="-516.95" font-family="Times,serif" font-size="14.00">MAPK14</text>
</g>
<!-- MAPKAPK2 -->
<g id="node2" class="node">
<title>MAPKAPK2</title>
<ellipse fill="none" stroke="#8b1a1a" stroke-width="2" cx="45" cy="-450" rx="18" ry="18"/>
<text xml:space="preserve" text-anchor="middle" x="45" y="-444.95" font-family="Times,serif" font-size="14.00">MAPKAPK2</text>
</g>
<!-- MAPK14&#45;&gt;MAPKAPK2 -->
<g id="edge1" class="edge">
<title>MAPK14&#45;&gt;MAPKAPK2</title>
<path fill="none" stroke="#8b1a1a" stroke-width="5" d="M137.98,-511.27C121.39,-500.51 94.29,-482.95 73.61,-469.55"/>
<polygon fill="#8b1a1a" stroke="#8b1a1a" stroke-width="5" points="76.24,-466.04 65.47,-464.27 71.48,-473.38 76.24,-466.04"/>
</g>
<!-- JUNB -->
<g id="node19" class="node">
<title>JUNB</title>
<ellipse fill="none" stroke="#8b1a1a" stroke-width="2" cx="99" cy="-450" rx="18" ry="18"/>
<text xml:space="preserve" text-anchor="middle" x="99" y="-444.95" font-family="Times,serif" font-size="14.00">JUNB</text>
</g>
<!-- MAPK14&#45;&gt;JUNB -->
<g id="edge15" class="edge">
<title>MAPK14&#45;&gt;JUNB</title>
<path fill="none" stroke="#8b1a1a" stroke-width="5" d="M142.07,-506.83C135.63,-498.48 127.27,-487.65 119.63,-477.75"/>
<polygon fill="#8b1a1a" stroke="#8b1a1a" stroke-width="5" points="123.29,-475.33 113.72,-470.08 116.37,-480.67 123.29,-475.33"/>
</g>
<!-- GATA2 -->
<g id="node22" class="node">
<title>GATA2</title>
<ellipse fill="none" stroke="#8b1a1a" stroke-width="2" cx="153" cy="-450" rx="18" ry="18"/>
<text xml:space="preserve" text-anchor="middle" x="153" y="-444.95" font-family="Times,serif" font-size="14.00">GATA2</text>
</g>
<!-- MAPK14&#45;&gt;GATA2 -->
<g id="edge18" class="edge">
<title>MAPK14&#45;&gt;GATA2</title>
<path fill="none" stroke="#8b1a1a" stroke-width="5" d="M153,-503.34C153,-497.74 153,-491.36 153,-485.02"/>
<polygon fill="#8b1a1a" stroke="#8b1a1a" stroke-width="5" points="157.38,-485.14 153,-475.14 148.63,-485.14 157.38,-485.14"/>
</g>
<!-- NR3C1 -->
<g id="node27" class="node">
<title>NR3C1</title>
<ellipse fill="none" stroke="#8b1a1a" stroke-width="2" cx="207" cy="-450" rx="18" ry="18"/>
<text xml:space="preserve" text-anchor="middle" x="207" y="-444.95" font-family="Times,serif" font-size="14.00">NR3C1</text>
</g>
<!-- MAPK14&#45;&gt;NR3C1 -->
<g id="edge27" class="edge">
<title>MAPK14&#45;&gt;NR3C1</title>
<path fill="none" stroke="#8b1a1a" stroke-width="5" d="M163.93,-506.83C170.37,-498.48 178.73,-487.65 186.37,-477.75"/>
<polygon fill="#8b1a1a" stroke="#8b1a1a" stroke-width="5" points="189.63,-480.67 192.28,-470.08 182.71,-475.33 189.63,-480.67"/>
</g>
<!-- MEF2A -->
<g id="node28" class="node">
<title>MEF2A</title>
<ellipse fill="none" stroke="#8b1a1a" stroke-width="2" cx="261" cy="-450" rx="18" ry="18"/>
<text xml:space="preserve" text-anchor="middle" x="261" y="-444.95" font-family="Times,serif" font-size="14.00">MEF2A</text>
</g>
<!-- MAPK14&#45;&gt;MEF2A -->
<g id="edge26" class="edge">
<title>MAPK14&#45;&gt;MEF2A</title>
<path fill="none" stroke="#8b1a1a" stroke-width="5" d="M168.02,-511.27C184.61,-500.51 211.71,-482.95 232.39,-469.55"/>
<polygon fill="#8b1a1a" stroke="#8b1a1a" stroke-width="5" points="234.52,-473.38 240.53,-464.27 229.76,-466.04 234.52,-473.38"/>
</g>
<!-- SRF -->
<g id="node3" class="node">
<title>SRF</title>
<ellipse fill="none" stroke="#8b1a1a" stroke-width="2" cx="18" cy="-378" rx="18" ry="18"/>
<text xml:space="preserve" text-anchor="middle" x="18" y="-372.95" font-family="Times,serif" font-size="14.00">SRF</text>
</g>
<!-- MAPKAPK2&#45;&gt;SRF -->
<g id="edge5" class="edge">
<title>MAPKAPK2&#45;&gt;SRF</title>
<path fill="none" stroke="#8b1a1a" stroke-width="5" d="M38.6,-432.41C36.08,-425.87 33.1,-418.14 30.19,-410.61"/>
<polygon fill="#8b1a1a" stroke="#8b1a1a" stroke-width="5" points="34.28,-409.04 26.6,-401.29 26.11,-412.19 34.28,-409.04"/>
</g>
<!-- PLK1 -->
<g id="node20" class="node">
<title>PLK1</title>
<ellipse fill="none" stroke="#8b1a1a" stroke-width="2" cx="72" cy="-378" rx="18" ry="18"/>
<text xml:space="preserve" text-anchor="middle" x="72" y="-372.95" font-family="Times,serif" font-size="14.00">PLK1</text>
</g>
<!-- MAPKAPK2&#45;&gt;PLK1 -->
<g id="edge17" class="edge">
<title>MAPKAPK2&#45;&gt;PLK1</title>
<path fill="none" stroke="#8b1a1a" stroke-width="5" d="M51.4,-432.41C53.92,-425.87 56.9,-418.14 59.81,-410.61"/>
<polygon fill="#8b1a1a" stroke="#8b1a1a" stroke-width="5" points="63.89,-412.19 63.4,-401.29 55.72,-409.04 63.89,-412.19"/>
</g>
<!-- IL6 -->
<g id="node4" class="node">
<title>IL6</title>
<ellipse fill="none" stroke="#8b1a1a" stroke-width="2" cx="18" cy="-306" rx="18" ry="18"/>
<text xml:space="preserve" text-anchor="middle" x="18" y="-300.95" font-family="Times,serif" font-size="14.00">IL6</text>
</g>
<!-- SRF&#45;&gt;IL6 -->
<g id="edge2" class="edge">
<title>SRF&#45;&gt;IL6</title>
<path fill="none" stroke="#8b1a1a" stroke-width="5" d="M18,-359.34C18,-353.74 18,-347.36 18,-341.02"/>
<polygon fill="#8b1a1a" stroke="#8b1a1a" stroke-width="5" points="22.38,-341.14 18,-331.14 13.63,-341.14 22.38,-341.14"/>
</g>
<!-- IL6R -->
<g id="node11" class="node">
<title>IL6R</title>
<ellipse fill="none" stroke="#8b1a1a" stroke-width="2" cx="18" cy="-234" rx="18" ry="18"/>
<text xml:space="preserve" text-anchor="middle" x="18" y="-228.95" font-family="Times,serif" font-size="14.00">IL6R</text>
</g>
<!-- IL6&#45;&gt;IL6R -->
<g id="edge7" class="edge">
<title>IL6&#45;&gt;IL6R</title>
<path fill="none" stroke="#8b1a1a" stroke-width="5" d="M18,-287.34C18,-281.74 18,-275.36 18,-269.02"/>
<polygon fill="#8b1a1a" stroke="#8b1a1a" stroke-width="5" points="22.38,-269.14 18,-259.14 13.63,-269.14 22.38,-269.14"/>
</g>
<!-- STAT6 -->
<g id="node5" class="node">
<title>STAT6</title>
<ellipse fill="none" stroke="#8b1a1a" stroke-width="2" cx="18" cy="-90" rx="18" ry="18"/>
<text xml:space="preserve" text-anchor="middle" x="18" y="-84.95" font-family="Times,serif" font-size="14.00">STAT6</text>
</g>
<!-- STAT1 -->
<g id="node6" class="node">
<title>STAT1</title>
<ellipse fill="none" stroke="#104e8b" stroke-width="2" cx="18" cy="-18" rx="18" ry="18"/>
<text xml:space="preserve" text-anchor="middle" x="18" y="-12.95" font-family="Times,serif" font-size="14.00">STAT1</text>
</g>
<!-- STAT6&#45;&gt;STAT1 -->
<g id="edge3" class="edge">
<title>STAT6&#45;&gt;STAT1</title>
<path fill="none" stroke="#104e8b" stroke-width="5" d="M18,-71.34C18,-62.94 18,-52.77 18,-43.64"/>
<polygon fill="#104e8b" stroke="#104e8b" stroke-width="5" points="13,-39.4 23,-39.4 23,-41.4 13,-41.4 13,-39.4"/>
<polyline fill="none" stroke="#104e8b" stroke-width="5" points="18,-38.4 18,-43.4"/>
</g>
<!-- TRAF6 -->
<g id="node7" class="node">
<title>TRAF6</title>
<ellipse fill="none" stroke="#8b1a1a" stroke-width="2" cx="180" cy="-738" rx="18" ry="18"/>
<text xml:space="preserve" text-anchor="middle" x="180" y="-732.95" font-family="Times,serif" font-size="14.00">TRAF6</text>
</g>
<!-- MAP3K7 -->
<g id="node8" class="node">
<title>MAP3K7</title>
<ellipse fill="none" stroke="#8b1a1a" stroke-width="2" cx="180" cy="-666" rx="18" ry="18"/>
<text xml:space="preserve" text-anchor="middle" x="180" y="-660.95" font-family="Times,serif" font-size="14.00">MAP3K7</text>
</g>
<!-- TRAF6&#45;&gt;MAP3K7 -->
<g id="edge4" class="edge">
<title>TRAF6&#45;&gt;MAP3K7</title>
<path fill="none" stroke="#8b1a1a" stroke-width="5" d="M180,-719.34C180,-713.74 180,-707.36 180,-701.02"/>
<polygon fill="#8b1a1a" stroke="#8b1a1a" stroke-width="5" points="184.38,-701.14 180,-691.14 175.63,-701.14 184.38,-701.14"/>
</g>
<!-- MAP2K6 -->
<g id="node14" class="node">
<title>MAP2K6</title>
<ellipse fill="none" stroke="#8b1a1a" stroke-width="2" cx="153" cy="-594" rx="18" ry="18"/>
<text xml:space="preserve" text-anchor="middle" x="153" y="-588.95" font-family="Times,serif" font-size="14.00">MAP2K6</text>
</g>
<!-- MAP3K7&#45;&gt;MAP2K6 -->
<g id="edge10" class="edge">
<title>MAP3K7&#45;&gt;MAP2K6</title>
<path fill="none" stroke="#8b1a1a" stroke-width="5" d="M173.6,-648.41C171.08,-641.87 168.1,-634.14 165.19,-626.61"/>
<polygon fill="#8b1a1a" stroke="#8b1a1a" stroke-width="5" points="169.28,-625.04 161.6,-617.29 161.11,-628.19 169.28,-625.04"/>
</g>
<!-- NFKBIB -->
<g id="node24" class="node">
<title>NFKBIB</title>
<ellipse fill="none" stroke="#104e8b" stroke-width="2" cx="207" cy="-594" rx="18" ry="18"/>
<text xml:space="preserve" text-anchor="middle" x="207" y="-588.95" font-family="Times,serif" font-size="14.00">NFKBIB</text>
</g>
<!-- MAP3K7&#45;&gt;NFKBIB -->
<g id="edge20" class="edge">
<title>MAP3K7&#45;&gt;NFKBIB</title>
<path fill="none" stroke="#104e8b" stroke-width="5" d="M186.4,-648.41C189.93,-639.26 194.37,-627.76 198.22,-617.77"/>
<polygon fill="#104e8b" stroke="#104e8b" stroke-width="5" points="195.08,-612 204.41,-615.6 203.69,-617.47 194.36,-613.87 195.08,-612"/>
<polyline fill="none" stroke="#104e8b" stroke-width="5" points="200.11,-612.87 198.31,-617.53"/>
</g>
<!-- KAT2B -->
<g id="node9" class="node">
<title>KAT2B</title>
<ellipse fill="none" stroke="#8b1a1a" stroke-width="2" cx="207" cy="-378" rx="18" ry="18"/>
<text xml:space="preserve" text-anchor="middle" x="207" y="-372.95" font-family="Times,serif" font-size="14.00">KAT2B</text>
</g>
<!-- SMAD2 -->
<g id="node10" class="node">
<title>SMAD2</title>
<ellipse fill="none" stroke="#8b1a1a" stroke-width="2" cx="153" cy="-306" rx="18" ry="18"/>
<text xml:space="preserve" text-anchor="middle" x="153" y="-300.95" font-family="Times,serif" font-size="14.00">SMAD2</text>
</g>
<!-- KAT2B&#45;&gt;SMAD2 -->
<g id="edge6" class="edge">
<title>KAT2B&#45;&gt;SMAD2</title>
<path fill="none" stroke="#8b1a1a" stroke-width="5" d="M196.07,-362.83C189.63,-354.48 181.27,-343.65 173.63,-333.75"/>
<polygon fill="#8b1a1a" stroke="#8b1a1a" stroke-width="5" points="177.29,-331.33 167.72,-326.08 170.37,-336.67 177.29,-331.33"/>
</g>
<!-- SMAD3 -->
<g id="node13" class="node">
<title>SMAD3</title>
<ellipse fill="none" stroke="#8b1a1a" stroke-width="2" cx="207" cy="-306" rx="18" ry="18"/>
<text xml:space="preserve" text-anchor="middle" x="207" y="-300.95" font-family="Times,serif" font-size="14.00">SMAD3</text>
</g>
<!-- KAT2B&#45;&gt;SMAD3 -->
<g id="edge9" class="edge">
<title>KAT2B&#45;&gt;SMAD3</title>
<path fill="none" stroke="#8b1a1a" stroke-width="5" d="M207,-359.34C207,-353.74 207,-347.36 207,-341.02"/>
<polygon fill="#8b1a1a" stroke="#8b1a1a" stroke-width="5" points="211.38,-341.14 207,-331.14 202.63,-341.14 211.38,-341.14"/>
</g>
<!-- SMAD4 -->
<g id="node12" class="node">
<title>SMAD4</title>
<ellipse fill="none" stroke="#8b1a1a" stroke-width="2" cx="153" cy="-234" rx="18" ry="18"/>
<text xml:space="preserve" text-anchor="middle" x="153" y="-228.95" font-family="Times,serif" font-size="14.00">SMAD4</text>
</g>
<!-- SMAD2&#45;&gt;SMAD4 -->
<g id="edge8" class="edge">
<title>SMAD2&#45;&gt;SMAD4</title>
<path fill="none" stroke="#8b1a1a" stroke-width="5" d="M153,-287.34C153,-281.74 153,-275.36 153,-269.02"/>
<polygon fill="#8b1a1a" stroke="#8b1a1a" stroke-width="5" points="157.38,-269.14 153,-259.14 148.63,-269.14 157.38,-269.14"/>
</g>
<!-- JAK2 -->
<g id="node15" class="node">
<title>JAK2</title>
<ellipse fill="none" stroke="#8b1a1a" stroke-width="2" cx="18" cy="-162" rx="18" ry="18"/>
<text xml:space="preserve" text-anchor="middle" x="18" y="-156.95" font-family="Times,serif" font-size="14.00">JAK2</text>
</g>
<!-- IL6R&#45;&gt;JAK2 -->
<g id="edge24" class="edge">
<title>IL6R&#45;&gt;JAK2</title>
<path fill="none" stroke="#8b1a1a" stroke-width="5" d="M18,-215.34C18,-209.74 18,-203.36 18,-197.02"/>
<polygon fill="#8b1a1a" stroke="#8b1a1a" stroke-width="5" points="22.38,-197.14 18,-187.14 13.63,-197.14 22.38,-197.14"/>
</g>
<!-- MAP2K6&#45;&gt;MAPK14 -->
<g id="edge11" class="edge">
<title>MAP2K6&#45;&gt;MAPK14</title>
<path fill="none" stroke="#8b1a1a" stroke-width="5" d="M153,-575.34C153,-569.74 153,-563.36 153,-557.02"/>
<polygon fill="#8b1a1a" stroke="#8b1a1a" stroke-width="5" points="157.38,-557.14 153,-547.14 148.63,-557.14 157.38,-557.14"/>
</g>
<!-- JAK2&#45;&gt;STAT6 -->
<g id="edge12" class="edge">
<title>JAK2&#45;&gt;STAT6</title>
<path fill="none" stroke="#8b1a1a" stroke-width="5" d="M18,-143.34C18,-137.74 18,-131.36 18,-125.02"/>
<polygon fill="#8b1a1a" stroke="#8b1a1a" stroke-width="5" points="22.38,-125.14 18,-115.14 13.63,-125.14 22.38,-125.14"/>
</g>
<!-- TGFBR1 -->
<g id="node16" class="node">
<title>TGFBR1</title>
<ellipse fill="none" stroke="#8b1a1a" stroke-width="2" cx="180" cy="-810" rx="18" ry="18"/>
<text xml:space="preserve" text-anchor="middle" x="180" y="-804.95" font-family="Times,serif" font-size="14.00">TGFBR1</text>
</g>
<!-- TGFBR1&#45;&gt;TRAF6 -->
<g id="edge13" class="edge">
<title>TGFBR1&#45;&gt;TRAF6</title>
<path fill="none" stroke="#8b1a1a" stroke-width="5" d="M180,-791.34C180,-785.74 180,-779.36 180,-773.02"/>
<polygon fill="#8b1a1a" stroke="#8b1a1a" stroke-width="5" points="184.38,-773.14 180,-763.14 175.63,-773.14 184.38,-773.14"/>
</g>
<!-- HMGA1 -->
<g id="node17" class="node">
<title>HMGA1</title>
<ellipse fill="none" stroke="#8b1a1a" stroke-width="2" cx="261" cy="-306" rx="18" ry="18"/>
<text xml:space="preserve" text-anchor="middle" x="261" y="-300.95" font-family="Times,serif" font-size="14.00">HMGA1</text>
</g>
<!-- POU3F1 -->
<g id="node18" class="node">
<title>POU3F1</title>
<ellipse fill="none" stroke="#8b1a1a" stroke-width="2" cx="261" cy="-234" rx="18" ry="18"/>
<text xml:space="preserve" text-anchor="middle" x="261" y="-228.95" font-family="Times,serif" font-size="14.00">POU3F1</text>
</g>
<!-- HMGA1&#45;&gt;POU3F1 -->
<g id="edge14" class="edge">
<title>HMGA1&#45;&gt;POU3F1</title>
<path fill="none" stroke="#8b1a1a" stroke-width="5" d="M261,-287.34C261,-281.74 261,-275.36 261,-269.02"/>
<polygon fill="#8b1a1a" stroke="#8b1a1a" stroke-width="5" points="265.38,-269.14 261,-259.14 256.63,-269.14 265.38,-269.14"/>
</g>
<!-- PIN1 -->
<g id="node21" class="node">
<title>PIN1</title>
<ellipse fill="none" stroke="#8b1a1a" stroke-width="2" cx="72" cy="-306" rx="18" ry="18"/>
<text xml:space="preserve" text-anchor="middle" x="72" y="-300.95" font-family="Times,serif" font-size="14.00">PIN1</text>
</g>
<!-- PLK1&#45;&gt;PIN1 -->
<g id="edge16" class="edge">
<title>PLK1&#45;&gt;PIN1</title>
<path fill="none" stroke="#8b1a1a" stroke-width="5" d="M72,-359.34C72,-353.74 72,-347.36 72,-341.02"/>
<polygon fill="#8b1a1a" stroke="#8b1a1a" stroke-width="5" points="76.38,-341.14 72,-331.14 67.63,-341.14 76.38,-341.14"/>
</g>
<!-- IRF3 -->
<g id="node25" class="node">
<title>IRF3</title>
<ellipse fill="none" stroke="#104e8b" stroke-width="2" cx="72" cy="-234" rx="18" ry="18"/>
<text xml:space="preserve" text-anchor="middle" x="72" y="-228.95" font-family="Times,serif" font-size="14.00">IRF3</text>
</g>
<!-- PIN1&#45;&gt;IRF3 -->
<g id="edge21" class="edge">
<title>PIN1&#45;&gt;IRF3</title>
<path fill="none" stroke="#104e8b" stroke-width="5" d="M72,-287.34C72,-278.94 72,-268.77 72,-259.64"/>
<polygon fill="#104e8b" stroke="#104e8b" stroke-width="5" points="67,-255.4 77,-255.4 77,-257.4 67,-257.4 67,-255.4"/>
<polyline fill="none" stroke="#104e8b" stroke-width="5" points="72,-254.4 72,-259.4"/>
</g>
<!-- SPI1 -->
<g id="node26" class="node">
<title>SPI1</title>
<ellipse fill="none" stroke="#104e8b" stroke-width="2" cx="153" cy="-378" rx="18" ry="18"/>
<text xml:space="preserve" text-anchor="middle" x="153" y="-372.95" font-family="Times,serif" font-size="14.00">SPI1</text>
</g>
<!-- GATA2&#45;&gt;SPI1 -->
<g id="edge22" class="edge">
<title>GATA2&#45;&gt;SPI1</title>
<path fill="none" stroke="#104e8b" stroke-width="5" d="M153,-431.34C153,-422.94 153,-412.77 153,-403.64"/>
<polygon fill="#104e8b" stroke="#104e8b" stroke-width="5" points="148,-399.4 158,-399.4 158,-401.4 148,-401.4 148,-399.4"/>
<polyline fill="none" stroke="#104e8b" stroke-width="5" points="153,-398.4 153,-403.4"/>
</g>
<!-- CAV1 -->
<g id="node23" class="node">
<title>CAV1</title>
<ellipse fill="none" stroke="#8b1a1a" stroke-width="2" cx="261" cy="-378" rx="18" ry="18"/>
<text xml:space="preserve" text-anchor="middle" x="261" y="-372.95" font-family="Times,serif" font-size="14.00">CAV1</text>
</g>
<!-- CAV1&#45;&gt;HMGA1 -->
<g id="edge19" class="edge">
<title>CAV1&#45;&gt;HMGA1</title>
<path fill="none" stroke="#8b1a1a" stroke-width="5" d="M261,-359.34C261,-353.74 261,-347.36 261,-341.02"/>
<polygon fill="#8b1a1a" stroke="#8b1a1a" stroke-width="5" points="265.38,-341.14 261,-331.14 256.63,-341.14 265.38,-341.14"/>
</g>
<!-- NR3C1&#45;&gt;KAT2B -->
<g id="edge23" class="edge">
<title>NR3C1&#45;&gt;KAT2B</title>
<path fill="none" stroke="#8b1a1a" stroke-width="5" d="M207,-431.34C207,-425.74 207,-419.36 207,-413.02"/>
<polygon fill="#8b1a1a" stroke="#8b1a1a" stroke-width="5" points="211.38,-413.14 207,-403.14 202.63,-413.14 211.38,-413.14"/>
</g>
<!-- NR3C1&#45;&gt;CAV1 -->
<g id="edge25" class="edge">
<title>NR3C1&#45;&gt;CAV1</title>
<path fill="none" stroke="#8b1a1a" stroke-width="5" d="M217.93,-434.83C224.37,-426.48 232.73,-415.65 240.37,-405.75"/>
<polygon fill="#8b1a1a" stroke="#8b1a1a" stroke-width="5" points="243.63,-408.67 246.28,-398.08 236.71,-403.33 243.63,-408.67"/>
</g>
<!-- e_3250_source -->
<g id="node29" class="node">
<title>e_3250_source</title>
<ellipse fill="black" stroke="black" cx="180" cy="-865.8" rx="1.8" ry="1.8"/>
</g>
<!-- e_3250_source&#45;&gt;TGFBR1 -->
<g id="edge28" class="edge">
<title>e_3250_source&#45;&gt;TGFBR1</title>
<path fill="none" stroke="#8b1a1a" stroke-width="5" d="M180,-863.87C180,-861.27 180,-853.56 180,-844.81"/>
<polygon fill="#8b1a1a" stroke="#8b1a1a" stroke-width="5" points="184.38,-845.04 180,-835.04 175.63,-845.04 184.38,-845.04"/>
</g>
</g>
</svg>