<?xml version="1.0" encoding="UTF-8" standalone="no"?>
<!DOCTYPE svg PUBLIC "-//W3C//DTD SVG 1.1//EN"
 "http://www.w3.org/Graphics/SVG/1.1/DTD/svg11.dtd">
<!-- Generated by graphviz version 2.43.0 (0)
 -->
<!-- Title: %3 Pages: 1 -->
<svg width="44pt" height="771pt"
 viewBox="0.00 0.00 44.00 771.20" xmlns="http://www.w3.org/2000/svg" xmlns:xlink="http://www.w3.org/1999/xlink">
<g id="graph0" class="graph" transform="scale(1 1) rotate(0) translate(4 767.2)">
<title>%3</title>
<polygon fill="white" stroke="transparent" points="-4,4 -4,-767.2 40,-767.2 40,4 -4,4"/>
<!-- 180 -->
<g id="node1" class="node">
<title>180</title>
<ellipse fill="none" stroke="black" cx="18" cy="-417.6" rx="18" ry="18"/>
<text text-anchor="middle" x="18" y="-413.9" font-family="Times,serif" font-size="14.00">180</text>
</g>
<!-- 2331 -->
<g id="node2" class="node">
<title>2331</title>
<ellipse fill="none" stroke="black" cx="18" cy="-345.6" rx="18" ry="18"/>
<text text-anchor="middle" x="18" y="-341.9" font-family="Times,serif" font-size="14.00">2331</text>
</g>
<!-- 180&#45;&gt;2331 -->
<g id="edge1" class="edge">
<title>180&#45;&gt;2331</title>
<path fill="none" stroke="black" d="M18,-399.3C18,-391.58 18,-382.31 18,-373.71"/>
<polygon fill="black" stroke="black" points="21.5,-373.7 18,-363.7 14.5,-373.7 21.5,-373.7"/>
</g>
<!-- 1474 -->
<g id="node9" class="node">
<title>1474</title>
<ellipse fill="none" stroke="black" cx="18" cy="-273.6" rx="18" ry="18"/>
<text text-anchor="middle" x="18" y="-269.9" font-family="Times,serif" font-size="14.00">1474</text>
</g>
<!-- 2331&#45;&gt;1474 -->
<g id="edge9" class="edge">
<title>2331&#45;&gt;1474</title>
<path fill="none" stroke="black" d="M18,-327.3C18,-319.58 18,-310.31 18,-301.71"/>
<polygon fill="black" stroke="black" points="21.5,-301.7 18,-291.7 14.5,-301.7 21.5,-301.7"/>
</g>
<!-- 1763 -->
<g id="node3" class="node">
<title>1763</title>
<ellipse fill="none" stroke="black" cx="18" cy="-129.6" rx="18" ry="18"/>
<text text-anchor="middle" x="18" y="-125.9" font-family="Times,serif" font-size="14.00">1763</text>
</g>
<!-- 4088 -->
<g id="node4" class="node">
<title>4088</title>
<ellipse fill="none" stroke="black" cx="18" cy="-57.6" rx="18" ry="18"/>
<text text-anchor="middle" x="18" y="-53.9" font-family="Times,serif" font-size="14.00">4088</text>
</g>
<!-- 1763&#45;&gt;4088 -->
<g id="edge2" class="edge">
<title>1763&#45;&gt;4088</title>
<path fill="none" stroke="black" d="M18,-111.3C18,-103.58 18,-94.31 18,-85.71"/>
<polygon fill="black" stroke="black" points="21.5,-85.7 18,-75.7 14.5,-85.7 21.5,-85.7"/>
</g>
<!-- e_3_target -->
<g id="node7" class="node">
<title>e_3_target</title>
<ellipse fill="black" stroke="black" cx="18" cy="-1.8" rx="1.8" ry="1.8"/>
</g>
<!-- 4088&#45;&gt;e_3_target -->
<g id="edge4" class="edge">
<title>4088&#45;&gt;e_3_target</title>
<path fill="none" stroke="black" d="M18,-39.58C18,-31.17 18,-21.28 18,-13.87"/>
<polygon fill="black" stroke="black" points="21.5,-13.73 18,-3.73 14.5,-13.73 21.5,-13.73"/>
</g>
<!-- 518 -->
<g id="node5" class="node">
<title>518</title>
<ellipse fill="none" stroke="black" cx="18" cy="-561.6" rx="18" ry="18"/>
<text text-anchor="middle" x="18" y="-557.9" font-family="Times,serif" font-size="14.00">518</text>
</g>
<!-- 3130 -->
<g id="node6" class="node">
<title>3130</title>
<ellipse fill="none" stroke="black" cx="18" cy="-489.6" rx="18" ry="18"/>
<text text-anchor="middle" x="18" y="-485.9" font-family="Times,serif" font-size="14.00">3130</text>
</g>
<!-- 518&#45;&gt;3130 -->
<g id="edge3" class="edge">
<title>518&#45;&gt;3130</title>
<path fill="none" stroke="black" d="M18,-543.3C18,-535.58 18,-526.31 18,-517.71"/>
<polygon fill="black" stroke="black" points="21.5,-517.7 18,-507.7 14.5,-517.7 21.5,-517.7"/>
</g>
<!-- 3130&#45;&gt;180 -->
<g id="edge10" class="edge">
<title>3130&#45;&gt;180</title>
<path fill="none" stroke="black" d="M18,-471.3C18,-463.58 18,-454.31 18,-445.71"/>
<polygon fill="black" stroke="black" points="21.5,-445.7 18,-435.7 14.5,-445.7 21.5,-445.7"/>
</g>
<!-- 4940 -->
<g id="node8" class="node">
<title>4940</title>
<ellipse fill="none" stroke="black" cx="18" cy="-633.6" rx="18" ry="18"/>
<text text-anchor="middle" x="18" y="-629.9" font-family="Times,serif" font-size="14.00">4940</text>
</g>
<!-- 4940&#45;&gt;518 -->
<g id="edge5" class="edge">
<title>4940&#45;&gt;518</title>
<path fill="none" stroke="black" d="M18,-615.3C18,-607.58 18,-598.31 18,-589.71"/>
<polygon fill="black" stroke="black" points="21.5,-589.7 18,-579.7 14.5,-589.7 21.5,-589.7"/>
</g>
<!-- 228 -->
<g id="node10" class="node">
<title>228</title>
<ellipse fill="none" stroke="black" cx="18" cy="-201.6" rx="18" ry="18"/>
<text text-anchor="middle" x="18" y="-197.9" font-family="Times,serif" font-size="14.00">228</text>
</g>
<!-- 1474&#45;&gt;228 -->
<g id="edge6" class="edge">
<title>1474&#45;&gt;228</title>
<path fill="none" stroke="black" d="M18,-255.3C18,-247.58 18,-238.31 18,-229.71"/>
<polygon fill="black" stroke="black" points="21.5,-229.7 18,-219.7 14.5,-229.7 21.5,-229.7"/>
</g>
<!-- 228&#45;&gt;1763 -->
<g id="edge8" class="edge">
<title>228&#45;&gt;1763</title>
<path fill="none" stroke="black" d="M18,-183.3C18,-175.58 18,-166.31 18,-157.71"/>
<polygon fill="black" stroke="black" points="21.5,-157.7 18,-147.7 14.5,-157.7 21.5,-157.7"/>
</g>
<!-- 4415 -->
<g id="node11" class="node">
<title>4415</title>
<ellipse fill="none" stroke="black" cx="18" cy="-705.6" rx="18" ry="18"/>
<text text-anchor="middle" x="18" y="-701.9" font-family="Times,serif" font-size="14.00">4415</text>
</g>
<!-- 4415&#45;&gt;4940 -->
<g id="edge7" class="edge">
<title>4415&#45;&gt;4940</title>
<path fill="none" stroke="black" d="M18,-687.3C18,-679.58 18,-670.31 18,-661.71"/>
<polygon fill="black" stroke="black" points="21.5,-661.7 18,-651.7 14.5,-661.7 21.5,-661.7"/>
</g>
<!-- e_10_source -->
<g id="node12" class="node">
<title>e_10_source</title>
<ellipse fill="black" stroke="black" cx="18" cy="-761.4" rx="1.8" ry="1.8"/>
</g>
<!-- e_10_source&#45;&gt;4415 -->
<g id="edge11" class="edge">
<title>e_10_source&#45;&gt;4415</title>
<path fill="none" stroke="black" d="M18,-759.47C18,-756.24 18,-745.15 18,-733.95"/>
<polygon fill="black" stroke="black" points="21.5,-733.86 18,-723.86 14.5,-733.86 21.5,-733.86"/>
</g>
</g>
</svg>