<?xml version="1.0" encoding="UTF-8" standalone="no"?>
<!DOCTYPE svg PUBLIC "-//W3C//DTD SVG 1.1//EN"
 "http://www.w3.org/Graphics/SVG/1.1/DTD/svg11.dtd">
<!-- Generated by graphviz version 2.43.0 (0)
 -->
<!-- Title: %3 Pages: 1 -->
<svg width="339pt" height="216pt"
 viewBox="0.00 0.00 339.20 216.00" xmlns="http://www.w3.org/2000/svg" xmlns:xlink="http://www.w3.org/1999/xlink">
<g id="graph0" class="graph" transform="scale(1 1) rotate(0) translate(4 212)">
<title>%3</title>
<polygon fill="white" stroke="transparent" points="-4,4 -4,-212 335.2,-212 335.2,4 -4,4"/>
<!-- M2 -->
<g id="node1" class="node">
<title>M2</title>
<ellipse fill="none" stroke="black" cx="57.6" cy="-56" rx="18" ry="18"/>
<text text-anchor="middle" x="57.6" y="-52.3" font-family="Times,serif" font-size="14.00">M2</text>
</g>
<!-- e_0_center -->
<g id="node5" class="node">
<title>e_0_center</title>
<polygon fill="none" stroke="black" points="133.1,-66.5 126.1,-66.5 126.1,-59.5 133.1,-59.5 133.1,-66.5"/>
</g>
<!-- M2&#45;&gt;e_0_center -->
<g id="edge1" class="edge">
<title>M2&#45;&gt;e_0_center</title>
<path fill="none" stroke="black" stroke-width="0.25" d="M75.55,-57.69C92.7,-59.41 117.83,-61.92 125.96,-62.74"/>
</g>
<!-- M1 -->
<g id="node2" class="node">
<title>M1</title>
<ellipse fill="none" stroke="black" cx="57.6" cy="-110" rx="18" ry="18"/>
<text text-anchor="middle" x="57.6" y="-106.3" font-family="Times,serif" font-size="14.00">M1</text>
</g>
<!-- M1&#45;&gt;e_0_center -->
<g id="edge2" class="edge">
<title>M1&#45;&gt;e_0_center</title>
<path fill="none" stroke="black" stroke-width="0.25" d="M73.1,-100.26C90.08,-88.86 117,-70.79 125.75,-64.91"/>
</g>
<!-- M4 -->
<g id="node6" class="node">
<title>M4</title>
<ellipse fill="none" stroke="black" cx="129.6" cy="-110" rx="18" ry="18"/>
<text text-anchor="middle" x="129.6" y="-106.3" font-family="Times,serif" font-size="14.00">M4</text>
</g>
<!-- M1&#45;&gt;M4 -->
<g id="edge5" class="edge">
<title>M1&#45;&gt;M4</title>
<path fill="none" stroke="#8b1a1a" stroke-width="5" d="M75.9,-110C83.62,-110 92.89,-110 101.49,-110"/>
<polygon fill="#8b1a1a" stroke="#8b1a1a" stroke-width="5" points="101.5,-114.38 111.5,-110 101.5,-105.63 101.5,-114.38"/>
</g>
<!-- M6 -->
<g id="node3" class="node">
<title>M6</title>
<ellipse fill="none" stroke="black" cx="201.6" cy="-72" rx="18" ry="18"/>
<text text-anchor="middle" x="201.6" y="-68.3" font-family="Times,serif" font-size="14.00">M6</text>
</g>
<!-- M9 -->
<g id="node11" class="node">
<title>M9</title>
<ellipse fill="none" stroke="black" cx="273.6" cy="-72" rx="18" ry="18"/>
<text text-anchor="middle" x="273.6" y="-68.3" font-family="Times,serif" font-size="14.00">M9</text>
</g>
<!-- M6&#45;&gt;M9 -->
<g id="edge10" class="edge">
<title>M6&#45;&gt;M9</title>
<path fill="none" stroke="black" stroke-width="0.25" d="M219.9,-72C227.62,-72 236.89,-72 245.49,-72"/>
<polygon fill="black" stroke="black" stroke-width="0.25" points="245.5,-75.5 255.5,-72 245.5,-68.5 245.5,-75.5"/>
</g>
<!-- M5 -->
<g id="node4" class="node">
<title>M5</title>
<ellipse fill="none" stroke="black" cx="201.6" cy="-18" rx="18" ry="18"/>
<text text-anchor="middle" x="201.6" y="-14.3" font-family="Times,serif" font-size="14.00">M5</text>
</g>
<!-- e_7_target -->
<g id="node15" class="node">
<title>e_7_target</title>
<ellipse fill="black" stroke="black" cx="273.6" cy="-18" rx="1.8" ry="1.8"/>
</g>
<!-- M5&#45;&gt;e_7_target -->
<g id="edge14" class="edge">
<title>M5&#45;&gt;e_7_target</title>
<path fill="none" stroke="black" stroke-width="0.25" d="M219.9,-18C232.97,-18 250.49,-18 261.67,-18"/>
<polygon fill="black" stroke="black" stroke-width="0.25" points="261.79,-21.5 271.79,-18 261.79,-14.5 261.79,-21.5"/>
</g>
<!-- e_0_center&#45;&gt;M6 -->
<g id="edge3" class="edge">
<title>e_0_center&#45;&gt;M6</title>
<path fill="none" stroke="black" stroke-width="0.25" d="M133.26,-63.34C139.87,-64.19 157.67,-66.48 173.3,-68.49"/>
<polygon fill="black" stroke="black" stroke-width="0.25" points="173.25,-72.01 183.62,-69.82 174.15,-65.07 173.25,-72.01"/>
</g>
<!-- e_0_center&#45;&gt;M5 -->
<g id="edge4" class="edge">
<title>e_0_center&#45;&gt;M5</title>
<path fill="none" stroke="black" stroke-width="0.25" d="M133.26,-61.29C140.46,-56.66 160.94,-43.5 177.44,-32.89"/>
<polygon fill="black" stroke="black" stroke-width="0.25" points="179.56,-35.68 186.08,-27.33 175.78,-29.8 179.56,-35.68"/>
</g>
<!-- e_2_center -->
<g id="node10" class="node">
<title>e_2_center</title>
<polygon fill="none" stroke="black" points="205.1,-159.5 198.1,-159.5 198.1,-152.5 205.1,-152.5 205.1,-159.5"/>
</g>
<!-- M4&#45;&gt;e_2_center -->
<g id="edge7" class="edge">
<title>M4&#45;&gt;e_2_center</title>
<path fill="none" stroke="#8b1a1a" stroke-width="5" d="M145.1,-119.53C162.08,-130.69 189,-148.38 197.75,-154.13"/>
</g>
<!-- M3 -->
<g id="node7" class="node">
<title>M3</title>
<ellipse fill="none" stroke="black" cx="129.6" cy="-164" rx="18" ry="18"/>
<text text-anchor="middle" x="129.6" y="-160.3" font-family="Times,serif" font-size="14.00">M3</text>
</g>
<!-- M3&#45;&gt;e_2_center -->
<g id="edge6" class="edge">
<title>M3&#45;&gt;e_2_center</title>
<path fill="none" stroke="#8b1a1a" stroke-width="5" d="M147.55,-162.06C164.7,-160.1 189.83,-157.23 197.96,-156.3"/>
</g>
<!-- M7 -->
<g id="node8" class="node">
<title>M7</title>
<ellipse fill="none" stroke="black" cx="273.6" cy="-190" rx="18" ry="18"/>
<text text-anchor="middle" x="273.6" y="-186.3" font-family="Times,serif" font-size="14.00">M7</text>
</g>
<!-- e_8_target -->
<g id="node16" class="node">
<title>e_8_target</title>
<ellipse fill="black" stroke="black" cx="329.4" cy="-190" rx="1.8" ry="1.8"/>
</g>
<!-- M7&#45;&gt;e_8_target -->
<g id="edge15" class="edge">
<title>M7&#45;&gt;e_8_target</title>
<path fill="none" stroke="#8b1a1a" stroke-width="5" d="M291.62,-190C300.03,-190 309.92,-190 317.33,-190"/>
<polygon fill="#8b1a1a" stroke="#8b1a1a" stroke-width="5" points="317.47,-194.38 327.47,-190 317.47,-185.63 317.47,-194.38"/>
</g>
<!-- M8 -->
<g id="node9" class="node">
<title>M8</title>
<ellipse fill="none" stroke="black" cx="273.6" cy="-136" rx="18" ry="18"/>
<text text-anchor="middle" x="273.6" y="-132.3" font-family="Times,serif" font-size="14.00">M8</text>
</g>
<!-- e_9_target -->
<g id="node17" class="node">
<title>e_9_target</title>
<ellipse fill="black" stroke="black" cx="329.4" cy="-136" rx="1.8" ry="1.8"/>
</g>
<!-- M8&#45;&gt;e_9_target -->
<g id="edge16" class="edge">
<title>M8&#45;&gt;e_9_target</title>
<path fill="none" stroke="#8b1a1a" stroke-width="5" d="M291.62,-136C300.03,-136 309.92,-136 317.33,-136"/>
<polygon fill="#8b1a1a" stroke="#8b1a1a" stroke-width="5" points="317.47,-140.38 327.47,-136 317.47,-131.63 317.47,-140.38"/>
</g>
<!-- e_2_center&#45;&gt;M7 -->
<g id="edge8" class="edge">
<title>e_2_center&#45;&gt;M7</title>
<path fill="none" stroke="#8b1a1a" stroke-width="5" d="M205.26,-157.29C212.27,-160.7 231.86,-170.21 248.11,-178.1"/>
<polygon fill="#8b1a1a" stroke="#8b1a1a" stroke-width="5" points="246.27,-182.07 257.17,-182.51 250.09,-174.2 246.27,-182.07"/>
</g>
<!-- e_2_center&#45;&gt;M8 -->
<g id="edge9" class="edge">
<title>e_2_center&#45;&gt;M8</title>
<path fill="none" stroke="#8b1a1a" stroke-width="5" d="M205.26,-155.24C211.98,-153.32 230.23,-148.11 246.04,-143.59"/>
<polygon fill="#8b1a1a" stroke="#8b1a1a" stroke-width="5" points="247.52,-147.72 255.93,-140.76 245.12,-139.3 247.52,-147.72"/>
</g>
<!-- e_10_target -->
<g id="node18" class="node">
<title>e_10_target</title>
<ellipse fill="black" stroke="black" cx="329.4" cy="-72" rx="1.8" ry="1.8"/>
</g>
<!-- M9&#45;&gt;e_10_target -->
<g id="edge17" class="edge">
<title>M9&#45;&gt;e_10_target</title>
<path fill="none" stroke="black" stroke-width="0.25" d="M291.62,-72C300.03,-72 309.92,-72 317.33,-72"/>
<polygon fill="black" stroke="black" stroke-width="0.25" points="317.47,-75.5 327.47,-72 317.47,-68.5 317.47,-75.5"/>
</g>
<!-- e_4_source -->
<g id="node12" class="node">
<title>e_4_source</title>
<ellipse fill="black" stroke="black" cx="1.8" cy="-110" rx="1.8" ry="1.8"/>
</g>
<!-- e_4_source&#45;&gt;M1 -->
<g id="edge11" class="edge">
<title>e_4_source&#45;&gt;M1</title>
<path fill="none" stroke="#8b1a1a" stroke-width="5" d="M3.73,-110C6.96,-110 18.05,-110 29.25,-110"/>
<polygon fill="#8b1a1a" stroke="#8b1a1a" stroke-width="5" points="29.34,-114.38 39.34,-110 29.34,-105.63 29.34,-114.38"/>
</g>
<!-- e_5_source -->
<g id="node13" class="node">
<title>e_5_source</title>
<ellipse fill="black" stroke="black" cx="1.8" cy="-56" rx="1.8" ry="1.8"/>
</g>
<!-- e_5_source&#45;&gt;M2 -->
<g id="edge12" class="edge">
<title>e_5_source&#45;&gt;M2</title>
<path fill="none" stroke="black" stroke-width="0.25" d="M3.73,-56C6.96,-56 18.05,-56 29.25,-56"/>
<polygon fill="black" stroke="black" stroke-width="0.25" points="29.34,-59.5 39.34,-56 29.34,-52.5 29.34,-59.5"/>
</g>
<!-- e_6_source -->
<g id="node14" class="node">
<title>e_6_source</title>
<ellipse fill="black" stroke="black" cx="57.6" cy="-164" rx="1.8" ry="1.8"/>
</g>
<!-- e_6_source&#45;&gt;M3 -->
<g id="edge13" class="edge">
<title>e_6_source&#45;&gt;M3</title>
<path fill="none" stroke="#8b1a1a" stroke-width="5" d="M59.59,-164C64.19,-164 83.96,-164 101.16,-164"/>
<polygon fill="#8b1a1a" stroke="#8b1a1a" stroke-width="5" points="101.39,-168.38 111.39,-164 101.39,-159.63 101.39,-168.38"/>
</g>
</g>
</svg>