<?xml version="1.0" encoding="UTF-8" standalone="no"?>
<!DOCTYPE svg PUBLIC "-//W3C//DTD SVG 1.1//EN"
 "http://www.w3.org/Graphics/SVG/1.1/DTD/svg11.dtd">
<!-- Generated by graphviz version 12.2.1 (0)
 -->
<!-- Pages: 1 -->
<svg width="678pt" height="452pt"
 viewBox="0.00 0.00 678.21 452.01" xmlns="http://www.w3.org/2000/svg" xmlns:xlink="http://www.w3.org/1999/xlink">
<g id="graph0" class="graph" transform="scale(1 1) rotate(0) translate(4 448.01)">
<polygon fill="white" stroke="none" points="-4,4 -4,-448.01 674.21,-448.01 674.21,4 -4,4"/>
<!-- e_0_target -->
<g id="node1" class="node">
<title>e_0_target</title>
<ellipse fill="black" stroke="black" cx="439.11" cy="-337.78" rx="1.8" ry="1.8"/>
</g>
<!-- 41 -->
<g id="node2" class="node">
<title>41</title>
<ellipse fill="none" stroke="black" cx="400.55" cy="-264.16" rx="18" ry="18"/>
<text text-anchor="middle" x="400.55" y="-259.11" font-family="Times,serif" font-size="14.00">41</text>
</g>
<!-- 41&#45;&gt;e_0_target -->
<g id="edge1" class="edge">
<title>41&#45;&gt;e_0_target</title>
<path fill="none" stroke="black" d="M409.11,-280.5C416.28,-294.19 426.34,-313.41 432.8,-325.73"/>
<polygon fill="black" stroke="black" points="429.63,-327.23 437.37,-334.46 435.83,-323.98 429.63,-327.23"/>
</g>
<!-- 85 -->
<g id="node14" class="node">
<title>85</title>
<ellipse fill="none" stroke="black" cx="464.26" cy="-215.58" rx="18" ry="18"/>
<text text-anchor="middle" x="464.26" y="-210.53" font-family="Times,serif" font-size="14.00">85</text>
</g>
<!-- 41&#45;&gt;85 -->
<g id="edge10" class="edge">
<title>41&#45;&gt;85</title>
<path fill="none" stroke="black" d="M415.01,-253.14C425.43,-245.18 439.45,-234.5 449.86,-226.56"/>
</g>
<!-- 64 -->
<g id="node15" class="node">
<title>64</title>
<ellipse fill="none" stroke="black" cx="318.63" cy="-258.14" rx="18" ry="18"/>
<text text-anchor="middle" x="318.63" y="-253.09" font-family="Times,serif" font-size="14.00">64</text>
</g>
<!-- 41&#45;&gt;64 -->
<g id="edge11" class="edge">
<title>41&#45;&gt;64</title>
<path fill="none" stroke="black" d="M382.37,-262.82C368.89,-261.83 350.58,-260.49 337.04,-259.5"/>
</g>
<!-- e_1_target -->
<g id="node3" class="node">
<title>e_1_target</title>
<ellipse fill="black" stroke="black" cx="1.8" cy="-205.97" rx="1.8" ry="1.8"/>
</g>
<!-- 14 -->
<g id="node4" class="node">
<title>14</title>
<ellipse fill="none" stroke="black" cx="81.03" cy="-216.31" rx="18" ry="18"/>
<text text-anchor="middle" x="81.03" y="-211.26" font-family="Times,serif" font-size="14.00">14</text>
</g>
<!-- 14&#45;&gt;e_1_target -->
<g id="edge2" class="edge">
<title>14&#45;&gt;e_1_target</title>
<path fill="none" stroke="black" d="M63.05,-213.96C48.45,-212.05 28.21,-209.41 15.05,-207.7"/>
<polygon fill="black" stroke="black" points="15.77,-204.26 5.4,-206.44 14.86,-211.2 15.77,-204.26"/>
</g>
<!-- e_2_target -->
<g id="node5" class="node">
<title>e_2_target</title>
<ellipse fill="black" stroke="black" cx="234.93" cy="-442.21" rx="1.8" ry="1.8"/>
</g>
<!-- 58 -->
<g id="node6" class="node">
<title>58</title>
<ellipse fill="none" stroke="black" cx="237.12" cy="-361.81" rx="18" ry="18"/>
<text text-anchor="middle" x="237.12" y="-356.76" font-family="Times,serif" font-size="14.00">58</text>
</g>
<!-- 58&#45;&gt;e_2_target -->
<g id="edge3" class="edge">
<title>58&#45;&gt;e_2_target</title>
<path fill="none" stroke="black" d="M236.62,-380.06C236.22,-394.87 235.66,-415.41 235.3,-428.76"/>
<polygon fill="black" stroke="black" points="231.8,-428.47 235.03,-438.56 238.8,-428.66 231.8,-428.47"/>
</g>
<!-- 92 -->
<g id="node11" class="node">
<title>92</title>
<ellipse fill="none" stroke="black" cx="236.83" cy="-276.09" rx="18" ry="18"/>
<text text-anchor="middle" x="236.83" y="-271.04" font-family="Times,serif" font-size="14.00">92</text>
</g>
<!-- 58&#45;&gt;92 -->
<g id="edge6" class="edge">
<title>58&#45;&gt;92</title>
<path fill="none" stroke="black" d="M237.06,-343.63C237.01,-329.18 236.94,-309.06 236.9,-294.54"/>
</g>
<!-- e_3_target -->
<g id="node7" class="node">
<title>e_3_target</title>
<ellipse fill="black" stroke="black" cx="668.41" cy="-127.45" rx="1.8" ry="1.8"/>
</g>
<!-- 62 -->
<g id="node8" class="node">
<title>62</title>
<ellipse fill="none" stroke="black" cx="605.38" cy="-164.8" rx="18" ry="18"/>
<text text-anchor="middle" x="605.38" y="-159.75" font-family="Times,serif" font-size="14.00">62</text>
</g>
<!-- 62&#45;&gt;e_3_target -->
<g id="edge4" class="edge">
<title>62&#45;&gt;e_3_target</title>
<path fill="none" stroke="black" d="M621.29,-155.38C632.36,-148.81 646.88,-140.21 656.86,-134.29"/>
<polygon fill="black" stroke="black" points="658.35,-137.48 665.17,-129.37 654.79,-131.46 658.35,-137.48"/>
</g>
<!-- e_4_target -->
<g id="node9" class="node">
<title>e_4_target</title>
<ellipse fill="black" stroke="black" cx="102.86" cy="-1.8" rx="1.8" ry="1.8"/>
</g>
<!-- 95 -->
<g id="node10" class="node">
<title>95</title>
<ellipse fill="none" stroke="black" cx="134.27" cy="-71.8" rx="18" ry="18"/>
<text text-anchor="middle" x="134.27" y="-66.75" font-family="Times,serif" font-size="14.00">95</text>
</g>
<!-- 95&#45;&gt;e_4_target -->
<g id="edge5" class="edge">
<title>95&#45;&gt;e_4_target</title>
<path fill="none" stroke="black" d="M126.83,-55.21C121.15,-42.56 113.47,-25.43 108.35,-14.02"/>
<polygon fill="black" stroke="black" points="111.59,-12.69 104.3,-5 105.2,-15.55 111.59,-12.69"/>
</g>
<!-- 73 -->
<g id="node12" class="node">
<title>73</title>
<ellipse fill="none" stroke="black" cx="157.12" cy="-149.23" rx="18" ry="18"/>
<text text-anchor="middle" x="157.12" y="-144.18" font-family="Times,serif" font-size="14.00">73</text>
</g>
<!-- 73&#45;&gt;95 -->
<g id="edge7" class="edge">
<title>73&#45;&gt;95</title>
<path fill="none" stroke="black" d="M151.94,-131.66C148.2,-118.99 143.17,-101.96 139.44,-89.3"/>
</g>
<!-- 61 -->
<g id="node13" class="node">
<title>61</title>
<ellipse fill="none" stroke="black" cx="535.52" cy="-189.47" rx="18" ry="18"/>
<text text-anchor="middle" x="535.52" y="-184.42" font-family="Times,serif" font-size="14.00">61</text>
</g>
<!-- 61&#45;&gt;62 -->
<g id="edge8" class="edge">
<title>61&#45;&gt;62</title>
<path fill="none" stroke="black" d="M552.79,-183.37C563.62,-179.55 577.52,-174.64 588.31,-170.83"/>
</g>
<!-- 61&#45;&gt;85 -->
<g id="edge9" class="edge">
<title>61&#45;&gt;85</title>
<path fill="none" stroke="black" d="M518.27,-195.79C507.07,-199.89 492.52,-205.22 481.35,-209.31"/>
</g>
<!-- 64&#45;&gt;92 -->
<g id="edge13" class="edge">
<title>64&#45;&gt;92</title>
<path fill="none" stroke="black" d="M300.88,-262.04C287.26,-265.03 268.52,-269.14 254.83,-272.14"/>
</g>
<!-- 8 -->
<g id="node16" class="node">
<title>8</title>
<ellipse fill="none" stroke="black" cx="158.91" cy="-235.17" rx="18" ry="18"/>
<text text-anchor="middle" x="158.91" y="-230.12" font-family="Times,serif" font-size="14.00">8</text>
</g>
<!-- 8&#45;&gt;14 -->
<g id="edge12" class="edge">
<title>8&#45;&gt;14</title>
<path fill="none" stroke="black" d="M141.24,-230.89C128.58,-227.82 111.6,-223.71 98.9,-220.63"/>
</g>
<!-- 8&#45;&gt;92 -->
<g id="edge16" class="edge">
<title>8&#45;&gt;92</title>
<path fill="none" stroke="black" d="M175.06,-243.65C188.43,-250.67 207.34,-260.6 220.71,-267.62"/>
</g>
<!-- 8&#45;&gt;73 -->
<g id="edge15" class="edge">
<title>8&#45;&gt;73</title>
<path fill="none" stroke="black" d="M158.53,-216.94C158.23,-202.46 157.81,-182.28 157.51,-167.73"/>
</g>
<!-- 68 -->
<g id="node17" class="node">
<title>68</title>
<ellipse fill="none" stroke="black" cx="105.69" cy="-302.05" rx="18" ry="18"/>
<text text-anchor="middle" x="105.69" y="-297" font-family="Times,serif" font-size="14.00">68</text>
</g>
<!-- 8&#45;&gt;68 -->
<g id="edge14" class="edge">
<title>8&#45;&gt;68</title>
<path fill="none" stroke="black" d="M147.63,-249.35C138.59,-260.7 125.99,-276.54 116.96,-287.89"/>
</g>
<!-- e_16_source -->
<g id="node18" class="node">
<title>e_16_source</title>
<ellipse fill="black" stroke="black" cx="45.62" cy="-356.74" rx="1.8" ry="1.8"/>
</g>
<!-- e_16_source&#45;&gt;68 -->
<g id="edge17" class="edge">
<title>e_16_source&#45;&gt;68</title>
<path fill="none" stroke="black" d="M47.1,-355.39C52.16,-350.79 69.2,-335.27 83.61,-322.16"/>
<polygon fill="black" stroke="black" points="85.95,-324.76 90.99,-315.44 81.24,-319.58 85.95,-324.76"/>
</g>
</g>
</svg>