<?xml version="1.0" encoding="UTF-8" standalone="no"?>
<!DOCTYPE svg PUBLIC "-//W3C//DTD SVG 1.1//EN"
 "http://www.w3.org/Graphics/SVG/1.1/DTD/svg11.dtd">
<!-- Generated by graphviz version 13.0.1 (0)
 -->
<!-- Pages: 1 -->
<svg width="692pt" height="732pt"
 viewBox="0.00 0.00 692.00 732.00" xmlns="http://www.w3.org/2000/svg" xmlns:xlink="http://www.w3.org/1999/xlink">
<g id="graph0" class="graph" transform="scale(1 1) rotate(0) translate(4 727.6)">
<polygon fill="white" stroke="none" points="-4,4 -4,-727.6 688,-727.6 688,4 -4,4"/>
<!-- CDKN1A -->
<g id="node1" class="node">
<title>CDKN1A</title>
<ellipse fill="none" stroke="#8b1a1a" stroke-width="2" cx="126" cy="-306" rx="18" ry="18"/>
<text xml:space="preserve" text-anchor="middle" x="126" y="-300.95" font-family="Times,serif" font-size="14.00">CDKN1A</text>
</g>
<!-- CDK1 -->
<g id="node2" class="node">
<title>CDK1</title>
<ellipse fill="none" stroke="#104e8b" stroke-width="2" cx="126" cy="-234" rx="18" ry="18"/>
<text xml:space="preserve" text-anchor="middle" x="126" y="-228.95" font-family="Times,serif" font-size="14.00">CDK1</text>
</g>
<!-- CDKN1A&#45;&gt;CDK1 -->
<g id="edge1" class="edge">
<title>CDKN1A&#45;&gt;CDK1</title>
<path fill="none" stroke="#104e8b" stroke-width="5" d="M126,-287.34C126,-278.94 126,-268.77 126,-259.64"/>
<polygon fill="#104e8b" stroke="#104e8b" stroke-width="5" points="121,-255.4 131,-255.4 131,-257.4 121,-257.4 121,-255.4"/>
<polyline fill="none" stroke="#104e8b" stroke-width="5" points="126,-254.4 126,-259.4"/>
</g>
<!-- PML -->
<g id="node16" class="node">
<title>PML</title>
<ellipse fill="none" stroke="#8b1a1a" stroke-width="2" cx="72" cy="-162" rx="18" ry="18"/>
<text xml:space="preserve" text-anchor="middle" x="72" y="-156.95" font-family="Times,serif" font-size="14.00">PML</text>
</g>
<!-- CDK1&#45;&gt;PML -->
<g id="edge9" class="edge">
<title>CDK1&#45;&gt;PML</title>
<path fill="none" stroke="#8b1a1a" stroke-width="5" d="M115.07,-218.83C107.02,-208.4 95.97,-194.07 87.08,-182.55"/>
<polygon fill="#8b1a1a" stroke="#8b1a1a" stroke-width="5" points="80.48,-182.18 88.4,-176.07 89.62,-177.65 81.7,-183.76 80.48,-182.18"/>
<polyline fill="none" stroke="#8b1a1a" stroke-width="5" points="83.83,-178.33 86.88,-182.29"/>
</g>
<!-- HMGA1 -->
<g id="node33" class="node">
<title>HMGA1</title>
<ellipse fill="none" stroke="#8b1a1a" stroke-width="2" cx="126" cy="-162" rx="18" ry="18"/>
<text xml:space="preserve" text-anchor="middle" x="126" y="-156.95" font-family="Times,serif" font-size="14.00">HMGA1</text>
</g>
<!-- CDK1&#45;&gt;HMGA1 -->
<g id="edge48" class="edge">
<title>CDK1&#45;&gt;HMGA1</title>
<path fill="none" stroke="#8b1a1a" stroke-width="5" d="M126,-215.34C126,-206.94 126,-196.77 126,-187.64"/>
<polygon fill="#8b1a1a" stroke="#8b1a1a" stroke-width="5" points="121,-183.4 131,-183.4 131,-185.4 121,-185.4 121,-183.4"/>
<polyline fill="none" stroke="#8b1a1a" stroke-width="5" points="126,-182.4 126,-187.4"/>
</g>
<!-- HMGA2 -->
<g id="node40" class="node">
<title>HMGA2</title>
<ellipse fill="none" stroke="#8b1a1a" stroke-width="2" cx="180" cy="-162" rx="18" ry="18"/>
<text xml:space="preserve" text-anchor="middle" x="180" y="-156.95" font-family="Times,serif" font-size="14.00">HMGA2</text>
</g>
<!-- CDK1&#45;&gt;HMGA2 -->
<g id="edge32" class="edge">
<title>CDK1&#45;&gt;HMGA2</title>
<path fill="none" stroke="#8b1a1a" stroke-width="5" d="M136.93,-218.83C144.98,-208.4 156.03,-194.07 164.92,-182.55"/>
<polygon fill="#8b1a1a" stroke="#8b1a1a" stroke-width="5" points="163.6,-176.07 171.52,-182.18 170.3,-183.76 162.38,-177.65 163.6,-176.07"/>
<polyline fill="none" stroke="#8b1a1a" stroke-width="5" points="168.17,-178.33 165.12,-182.29"/>
</g>
<!-- IGF1 -->
<g id="node3" class="node">
<title>IGF1</title>
<ellipse fill="none" stroke="#104e8b" stroke-width="2" cx="315" cy="-666" rx="18" ry="18"/>
<text xml:space="preserve" text-anchor="middle" x="315" y="-660.95" font-family="Times,serif" font-size="14.00">IGF1</text>
</g>
<!-- IGF1R -->
<g id="node4" class="node">
<title>IGF1R</title>
<ellipse fill="none" stroke="#104e8b" stroke-width="2" cx="315" cy="-594" rx="18" ry="18"/>
<text xml:space="preserve" text-anchor="middle" x="315" y="-588.95" font-family="Times,serif" font-size="14.00">IGF1R</text>
</g>
<!-- IGF1&#45;&gt;IGF1R -->
<g id="edge2" class="edge">
<title>IGF1&#45;&gt;IGF1R</title>
<path fill="none" stroke="#104e8b" stroke-width="5" d="M315,-647.34C315,-641.74 315,-635.36 315,-629.02"/>
<polygon fill="#104e8b" stroke="#104e8b" stroke-width="5" points="319.38,-629.14 315,-619.14 310.63,-629.14 319.38,-629.14"/>
</g>
<!-- PDPK1 -->
<g id="node9" class="node">
<title>PDPK1</title>
<ellipse fill="none" stroke="#104e8b" stroke-width="2" cx="315" cy="-522" rx="18" ry="18"/>
<text xml:space="preserve" text-anchor="middle" x="315" y="-516.95" font-family="Times,serif" font-size="14.00">PDPK1</text>
</g>
<!-- IGF1R&#45;&gt;PDPK1 -->
<g id="edge42" class="edge">
<title>IGF1R&#45;&gt;PDPK1</title>
<path fill="none" stroke="#104e8b" stroke-width="5" d="M315,-575.34C315,-569.74 315,-563.36 315,-557.02"/>
<polygon fill="#104e8b" stroke="#104e8b" stroke-width="5" points="319.38,-557.14 315,-547.14 310.63,-557.14 319.38,-557.14"/>
</g>
<!-- TICAM1 -->
<g id="node5" class="node">
<title>TICAM1</title>
<ellipse fill="none" stroke="#104e8b" stroke-width="2" cx="342" cy="-162" rx="18" ry="18"/>
<text xml:space="preserve" text-anchor="middle" x="342" y="-156.95" font-family="Times,serif" font-size="14.00">TICAM1</text>
</g>
<!-- TBK1 -->
<g id="node6" class="node">
<title>TBK1</title>
<ellipse fill="none" stroke="#104e8b" stroke-width="2" cx="342" cy="-90" rx="18" ry="18"/>
<text xml:space="preserve" text-anchor="middle" x="342" y="-84.95" font-family="Times,serif" font-size="14.00">TBK1</text>
</g>
<!-- TICAM1&#45;&gt;TBK1 -->
<g id="edge3" class="edge">
<title>TICAM1&#45;&gt;TBK1</title>
<path fill="none" stroke="#104e8b" stroke-width="5" d="M342,-143.34C342,-137.74 342,-131.36 342,-125.02"/>
<polygon fill="#104e8b" stroke="#104e8b" stroke-width="5" points="346.38,-125.14 342,-115.14 337.63,-125.14 346.38,-125.14"/>
</g>
<!-- REL -->
<g id="node25" class="node">
<title>REL</title>
<ellipse fill="none" stroke="#104e8b" stroke-width="2" cx="342" cy="-18" rx="18" ry="18"/>
<text xml:space="preserve" text-anchor="middle" x="342" y="-12.95" font-family="Times,serif" font-size="14.00">REL</text>
</g>
<!-- TBK1&#45;&gt;REL -->
<g id="edge17" class="edge">
<title>TBK1&#45;&gt;REL</title>
<path fill="none" stroke="#104e8b" stroke-width="5" d="M342,-71.34C342,-65.74 342,-59.36 342,-53.02"/>
<polygon fill="#104e8b" stroke="#104e8b" stroke-width="5" points="346.38,-53.14 342,-43.14 337.63,-53.14 346.38,-53.14"/>
</g>
<!-- MAP2K1 -->
<g id="node7" class="node">
<title>MAP2K1</title>
<ellipse fill="none" stroke="#104e8b" stroke-width="2" cx="180" cy="-450" rx="18" ry="18"/>
<text xml:space="preserve" text-anchor="middle" x="180" y="-444.95" font-family="Times,serif" font-size="14.00">MAP2K1</text>
</g>
<!-- MAPK1 -->
<g id="node8" class="node">
<title>MAPK1</title>
<ellipse fill="none" stroke="#104e8b" stroke-width="2" cx="72" cy="-378" rx="18" ry="18"/>
<text xml:space="preserve" text-anchor="middle" x="72" y="-372.95" font-family="Times,serif" font-size="14.00">MAPK1</text>
</g>
<!-- MAP2K1&#45;&gt;MAPK1 -->
<g id="edge4" class="edge">
<title>MAP2K1&#45;&gt;MAPK1</title>
<path fill="none" stroke="#104e8b" stroke-width="5" d="M164.98,-439.27C148.39,-428.51 121.29,-410.95 100.61,-397.55"/>
<polygon fill="#104e8b" stroke="#104e8b" stroke-width="5" points="103.24,-394.04 92.47,-392.27 98.48,-401.38 103.24,-394.04"/>
</g>
<!-- GSK3B -->
<g id="node23" class="node">
<title>GSK3B</title>
<ellipse fill="none" stroke="#104e8b" stroke-width="2" cx="180" cy="-378" rx="18" ry="18"/>
<text xml:space="preserve" text-anchor="middle" x="180" y="-372.95" font-family="Times,serif" font-size="14.00">GSK3B</text>
</g>
<!-- MAP2K1&#45;&gt;GSK3B -->
<g id="edge45" class="edge">
<title>MAP2K1&#45;&gt;GSK3B</title>
<path fill="none" stroke="#104e8b" stroke-width="5" d="M180,-431.34C180,-425.74 180,-419.36 180,-413.02"/>
<polygon fill="#104e8b" stroke="#104e8b" stroke-width="5" points="184.38,-413.14 180,-403.14 175.63,-413.14 184.38,-413.14"/>
</g>
<!-- MYC -->
<g id="node48" class="node">
<title>MYC</title>
<ellipse fill="none" stroke="#104e8b" stroke-width="2" cx="18" cy="-306" rx="18" ry="18"/>
<text xml:space="preserve" text-anchor="middle" x="18" y="-300.95" font-family="Times,serif" font-size="14.00">MYC</text>
</g>
<!-- MAPK1&#45;&gt;MYC -->
<g id="edge44" class="edge">
<title>MAPK1&#45;&gt;MYC</title>
<path fill="none" stroke="#104e8b" stroke-width="5" d="M61.07,-362.83C54.63,-354.48 46.27,-343.65 38.63,-333.75"/>
<polygon fill="#104e8b" stroke="#104e8b" stroke-width="5" points="42.29,-331.33 32.72,-326.08 35.37,-336.67 42.29,-331.33"/>
</g>
<!-- RORA -->
<g id="node53" class="node">
<title>RORA</title>
<ellipse fill="none" stroke="#8b1a1a" stroke-width="2" cx="72" cy="-306" rx="18" ry="18"/>
<text xml:space="preserve" text-anchor="middle" x="72" y="-300.95" font-family="Times,serif" font-size="14.00">RORA</text>
</g>
<!-- MAPK1&#45;&gt;RORA -->
<g id="edge52" class="edge">
<title>MAPK1&#45;&gt;RORA</title>
<path fill="none" stroke="#8b1a1a" stroke-width="5" d="M72,-359.34C72,-350.94 72,-340.77 72,-331.64"/>
<polygon fill="#8b1a1a" stroke="#8b1a1a" stroke-width="5" points="67,-327.4 77,-327.4 77,-329.4 67,-329.4 67,-327.4"/>
<polyline fill="none" stroke="#8b1a1a" stroke-width="5" points="72,-326.4 72,-331.4"/>
</g>
<!-- PDPK1&#45;&gt;MAP2K1 -->
<g id="edge14" class="edge">
<title>PDPK1&#45;&gt;MAP2K1</title>
<path fill="none" stroke="#104e8b" stroke-width="5" d="M298.72,-512.56C276.92,-501.26 237.85,-481 210.51,-466.82"/>
<polygon fill="#104e8b" stroke="#104e8b" stroke-width="5" points="212.77,-463.06 201.88,-462.34 208.74,-470.83 212.77,-463.06"/>
</g>
<!-- PRKCA -->
<g id="node10" class="node">
<title>PRKCA</title>
<ellipse fill="none" stroke="#104e8b" stroke-width="2" cx="288" cy="-450" rx="18" ry="18"/>
<text xml:space="preserve" text-anchor="middle" x="288" y="-444.95" font-family="Times,serif" font-size="14.00">PRKCA</text>
</g>
<!-- PDPK1&#45;&gt;PRKCA -->
<g id="edge5" class="edge">
<title>PDPK1&#45;&gt;PRKCA</title>
<path fill="none" stroke="#104e8b" stroke-width="5" d="M308.6,-504.41C306.08,-497.87 303.1,-490.14 300.19,-482.61"/>
<polygon fill="#104e8b" stroke="#104e8b" stroke-width="5" points="304.28,-481.04 296.6,-473.29 296.11,-484.19 304.28,-481.04"/>
</g>
<!-- AKT1 -->
<g id="node13" class="node">
<title>AKT1</title>
<ellipse fill="none" stroke="#104e8b" stroke-width="2" cx="342" cy="-450" rx="18" ry="18"/>
<text xml:space="preserve" text-anchor="middle" x="342" y="-444.95" font-family="Times,serif" font-size="14.00">AKT1</text>
</g>
<!-- PDPK1&#45;&gt;AKT1 -->
<g id="edge7" class="edge">
<title>PDPK1&#45;&gt;AKT1</title>
<path fill="none" stroke="#104e8b" stroke-width="5" d="M321.4,-504.41C323.92,-497.87 326.9,-490.14 329.81,-482.61"/>
<polygon fill="#104e8b" stroke="#104e8b" stroke-width="5" points="333.89,-484.19 333.4,-473.29 325.72,-481.04 333.89,-484.19"/>
</g>
<!-- PRKCD -->
<g id="node26" class="node">
<title>PRKCD</title>
<ellipse fill="none" stroke="#104e8b" stroke-width="2" cx="564" cy="-450" rx="18" ry="18"/>
<text xml:space="preserve" text-anchor="middle" x="564" y="-444.95" font-family="Times,serif" font-size="14.00">PRKCD</text>
</g>
<!-- PDPK1&#45;&gt;PRKCD -->
<g id="edge28" class="edge">
<title>PDPK1&#45;&gt;PRKCD</title>
<path fill="none" stroke="#104e8b" stroke-width="5" d="M332.91,-515.97C374.36,-504.31 477.46,-475.33 530.82,-460.33"/>
<polygon fill="#104e8b" stroke="#104e8b" stroke-width="5" points="531.81,-464.59 540.25,-457.68 529.44,-456.17 531.81,-464.59"/>
</g>
<!-- NFE2L2 -->
<g id="node29" class="node">
<title>NFE2L2</title>
<ellipse fill="none" stroke="#104e8b" stroke-width="2" cx="234" cy="-378" rx="18" ry="18"/>
<text xml:space="preserve" text-anchor="middle" x="234" y="-372.95" font-family="Times,serif" font-size="14.00">NFE2L2</text>
</g>
<!-- PRKCA&#45;&gt;NFE2L2 -->
<g id="edge21" class="edge">
<title>PRKCA&#45;&gt;NFE2L2</title>
<path fill="none" stroke="#104e8b" stroke-width="5" d="M277.07,-434.83C270.63,-426.48 262.27,-415.65 254.63,-405.75"/>
<polygon fill="#104e8b" stroke="#104e8b" stroke-width="5" points="258.29,-403.33 248.72,-398.08 251.37,-408.67 258.29,-403.33"/>
</g>
<!-- NR1H4 -->
<g id="node47" class="node">
<title>NR1H4</title>
<ellipse fill="none" stroke="#104e8b" stroke-width="2" cx="288" cy="-378" rx="18" ry="18"/>
<text xml:space="preserve" text-anchor="middle" x="288" y="-372.95" font-family="Times,serif" font-size="14.00">NR1H4</text>
</g>
<!-- PRKCA&#45;&gt;NR1H4 -->
<g id="edge43" class="edge">
<title>PRKCA&#45;&gt;NR1H4</title>
<path fill="none" stroke="#104e8b" stroke-width="5" d="M288,-431.34C288,-425.74 288,-419.36 288,-413.02"/>
<polygon fill="#104e8b" stroke="#104e8b" stroke-width="5" points="292.38,-413.14 288,-403.14 283.63,-413.14 292.38,-413.14"/>
</g>
<!-- CYLD -->
<g id="node11" class="node">
<title>CYLD</title>
<ellipse fill="none" stroke="#8b1a1a" stroke-width="2" cx="342" cy="-306" rx="18" ry="18"/>
<text xml:space="preserve" text-anchor="middle" x="342" y="-300.95" font-family="Times,serif" font-size="14.00">CYLD</text>
</g>
<!-- TRAF2 -->
<g id="node12" class="node">
<title>TRAF2</title>
<ellipse fill="none" stroke="#104e8b" stroke-width="2" cx="342" cy="-234" rx="18" ry="18"/>
<text xml:space="preserve" text-anchor="middle" x="342" y="-228.95" font-family="Times,serif" font-size="14.00">TRAF2</text>
</g>
<!-- CYLD&#45;&gt;TRAF2 -->
<g id="edge6" class="edge">
<title>CYLD&#45;&gt;TRAF2</title>
<path fill="none" stroke="#104e8b" stroke-width="5" d="M342,-287.34C342,-278.94 342,-268.77 342,-259.64"/>
<polygon fill="#104e8b" stroke="#104e8b" stroke-width="5" points="337,-255.4 347,-255.4 347,-257.4 337,-257.4 337,-255.4"/>
<polyline fill="none" stroke="#104e8b" stroke-width="5" points="342,-254.4 342,-259.4"/>
</g>
<!-- MAP3K7 -->
<g id="node35" class="node">
<title>MAP3K7</title>
<ellipse fill="none" stroke="#8b1a1a" stroke-width="2" cx="396" cy="-234" rx="18" ry="18"/>
<text xml:space="preserve" text-anchor="middle" x="396" y="-228.95" font-family="Times,serif" font-size="14.00">MAP3K7</text>
</g>
<!-- CYLD&#45;&gt;MAP3K7 -->
<g id="edge25" class="edge">
<title>CYLD&#45;&gt;MAP3K7</title>
<path fill="none" stroke="#8b1a1a" stroke-width="5" d="M352.93,-290.83C359.37,-282.48 367.73,-271.65 375.37,-261.75"/>
<polygon fill="#8b1a1a" stroke="#8b1a1a" stroke-width="5" points="378.63,-264.67 381.28,-254.08 371.71,-259.33 378.63,-264.67"/>
</g>
<!-- TRAF2&#45;&gt;TICAM1 -->
<g id="edge34" class="edge">
<title>TRAF2&#45;&gt;TICAM1</title>
<path fill="none" stroke="#104e8b" stroke-width="5" d="M342,-215.34C342,-209.74 342,-203.36 342,-197.02"/>
<polygon fill="#104e8b" stroke="#104e8b" stroke-width="5" points="346.38,-197.14 342,-187.14 337.63,-197.14 346.38,-197.14"/>
</g>
<!-- CHUK_IKBKB_IKBKG -->
<g id="node42" class="node">
<title>CHUK_IKBKB_IKBKG</title>
<ellipse fill="none" stroke="#104e8b" stroke-width="2" cx="342" cy="-378" rx="18" ry="18"/>
<text xml:space="preserve" text-anchor="middle" x="342" y="-372.95" font-family="Times,serif" font-size="14.00">CHUK_IKBKB_IKBKG</text>
</g>
<!-- AKT1&#45;&gt;CHUK_IKBKB_IKBKG -->
<g id="edge35" class="edge">
<title>AKT1&#45;&gt;CHUK_IKBKB_IKBKG</title>
<path fill="none" stroke="#104e8b" stroke-width="5" d="M342,-431.34C342,-425.74 342,-419.36 342,-413.02"/>
<polygon fill="#104e8b" stroke="#104e8b" stroke-width="5" points="346.38,-413.14 342,-403.14 337.63,-413.14 346.38,-413.14"/>
</g>
<!-- SKI -->
<g id="node45" class="node">
<title>SKI</title>
<ellipse fill="none" stroke="#8b1a1a" stroke-width="2" cx="396" cy="-378" rx="18" ry="18"/>
<text xml:space="preserve" text-anchor="middle" x="396" y="-372.95" font-family="Times,serif" font-size="14.00">SKI</text>
</g>
<!-- AKT1&#45;&gt;SKI -->
<g id="edge39" class="edge">
<title>AKT1&#45;&gt;SKI</title>
<path fill="none" stroke="#8b1a1a" stroke-width="5" d="M352.93,-434.83C360.98,-424.4 372.03,-410.07 380.92,-398.55"/>
<polygon fill="#8b1a1a" stroke="#8b1a1a" stroke-width="5" points="379.6,-392.07 387.52,-398.18 386.3,-399.76 378.38,-393.65 379.6,-392.07"/>
<polyline fill="none" stroke="#8b1a1a" stroke-width="5" points="384.17,-394.33 381.12,-398.29"/>
</g>
<!-- MAPK8 -->
<g id="node14" class="node">
<title>MAPK8</title>
<ellipse fill="none" stroke="#104e8b" stroke-width="2" cx="531" cy="-378" rx="18" ry="18"/>
<text xml:space="preserve" text-anchor="middle" x="531" y="-372.95" font-family="Times,serif" font-size="14.00">MAPK8</text>
</g>
<!-- CTBP1 -->
<g id="node15" class="node">
<title>CTBP1</title>
<ellipse fill="none" stroke="#8b1a1a" stroke-width="2" cx="450" cy="-306" rx="18" ry="18"/>
<text xml:space="preserve" text-anchor="middle" x="450" y="-300.95" font-family="Times,serif" font-size="14.00">CTBP1</text>
</g>
<!-- MAPK8&#45;&gt;CTBP1 -->
<g id="edge8" class="edge">
<title>MAPK8&#45;&gt;CTBP1</title>
<path fill="none" stroke="#8b1a1a" stroke-width="5" d="M517.26,-365.13C503.99,-353.66 483.79,-336.21 468.99,-323.41"/>
<polygon fill="#8b1a1a" stroke="#8b1a1a" stroke-width="5" points="462.43,-324.35 468.97,-316.78 470.48,-318.09 463.94,-325.66 462.43,-324.35"/>
<polyline fill="none" stroke="#8b1a1a" stroke-width="5" points="464.94,-319.91 468.73,-323.18"/>
</g>
<!-- IRF3 -->
<g id="node44" class="node">
<title>IRF3</title>
<ellipse fill="none" stroke="#104e8b" stroke-width="2" cx="504" cy="-306" rx="18" ry="18"/>
<text xml:space="preserve" text-anchor="middle" x="504" y="-300.95" font-family="Times,serif" font-size="14.00">IRF3</text>
</g>
<!-- MAPK8&#45;&gt;IRF3 -->
<g id="edge38" class="edge">
<title>MAPK8&#45;&gt;IRF3</title>
<path fill="none" stroke="#104e8b" stroke-width="5" d="M524.6,-360.41C522.08,-353.87 519.1,-346.14 516.19,-338.61"/>
<polygon fill="#104e8b" stroke="#104e8b" stroke-width="5" points="520.28,-337.04 512.6,-329.29 512.11,-340.19 520.28,-337.04"/>
</g>
<!-- MAPK9 -->
<g id="node49" class="node">
<title>MAPK9</title>
<ellipse fill="none" stroke="#104e8b" stroke-width="2" cx="558" cy="-306" rx="18" ry="18"/>
<text xml:space="preserve" text-anchor="middle" x="558" y="-300.95" font-family="Times,serif" font-size="14.00">MAPK9</text>
</g>
<!-- MAPK8&#45;&gt;MAPK9 -->
<g id="edge49" class="edge">
<title>MAPK8&#45;&gt;MAPK9</title>
<path fill="none" stroke="#104e8b" stroke-width="5" d="M537.4,-360.41C539.92,-353.87 542.9,-346.14 545.81,-338.61"/>
<polygon fill="#104e8b" stroke="#104e8b" stroke-width="5" points="549.89,-340.19 549.4,-329.29 541.72,-337.04 549.89,-340.19"/>
</g>
<!-- ZEB2 -->
<g id="node39" class="node">
<title>ZEB2</title>
<ellipse fill="none" stroke="#8b1a1a" stroke-width="2" cx="450" cy="-234" rx="18" ry="18"/>
<text xml:space="preserve" text-anchor="middle" x="450" y="-228.95" font-family="Times,serif" font-size="14.00">ZEB2</text>
</g>
<!-- CTBP1&#45;&gt;ZEB2 -->
<g id="edge31" class="edge">
<title>CTBP1&#45;&gt;ZEB2</title>
<path fill="none" stroke="#8b1a1a" stroke-width="5" d="M450,-287.34C450,-281.74 450,-275.36 450,-269.02"/>
<polygon fill="#8b1a1a" stroke="#8b1a1a" stroke-width="5" points="454.38,-269.14 450,-259.14 445.63,-269.14 454.38,-269.14"/>
</g>
<!-- SMAD2 -->
<g id="node19" class="node">
<title>SMAD2</title>
<ellipse fill="none" stroke="#8b1a1a" stroke-width="2" cx="18" cy="-90" rx="18" ry="18"/>
<text xml:space="preserve" text-anchor="middle" x="18" y="-84.95" font-family="Times,serif" font-size="14.00">SMAD2</text>
</g>
<!-- PML&#45;&gt;SMAD2 -->
<g id="edge16" class="edge">
<title>PML&#45;&gt;SMAD2</title>
<path fill="none" stroke="#8b1a1a" stroke-width="5" d="M61.07,-146.83C54.63,-138.48 46.27,-127.65 38.63,-117.75"/>
<polygon fill="#8b1a1a" stroke="#8b1a1a" stroke-width="5" points="42.29,-115.33 32.72,-110.08 35.37,-120.67 42.29,-115.33"/>
</g>
<!-- SMAD3 -->
<g id="node21" class="node">
<title>SMAD3</title>
<ellipse fill="none" stroke="#8b1a1a" stroke-width="2" cx="72" cy="-90" rx="18" ry="18"/>
<text xml:space="preserve" text-anchor="middle" x="72" y="-84.95" font-family="Times,serif" font-size="14.00">SMAD3</text>
</g>
<!-- PML&#45;&gt;SMAD3 -->
<g id="edge15" class="edge">
<title>PML&#45;&gt;SMAD3</title>
<path fill="none" stroke="#8b1a1a" stroke-width="5" d="M72,-143.34C72,-137.74 72,-131.36 72,-125.02"/>
<polygon fill="#8b1a1a" stroke="#8b1a1a" stroke-width="5" points="76.38,-125.14 72,-115.14 67.63,-125.14 76.38,-125.14"/>
</g>
<!-- NFKB2 -->
<g id="node17" class="node">
<title>NFKB2</title>
<ellipse fill="none" stroke="#104e8b" stroke-width="2" cx="666" cy="-306" rx="18" ry="18"/>
<text xml:space="preserve" text-anchor="middle" x="666" y="-300.95" font-family="Times,serif" font-size="14.00">NFKB2</text>
</g>
<!-- RELB -->
<g id="node18" class="node">
<title>RELB</title>
<ellipse fill="none" stroke="#104e8b" stroke-width="2" cx="666" cy="-234" rx="18" ry="18"/>
<text xml:space="preserve" text-anchor="middle" x="666" y="-228.95" font-family="Times,serif" font-size="14.00">RELB</text>
</g>
<!-- NFKB2&#45;&gt;RELB -->
<g id="edge10" class="edge">
<title>NFKB2&#45;&gt;RELB</title>
<path fill="none" stroke="#104e8b" stroke-width="5" d="M666,-287.34C666,-281.74 666,-275.36 666,-269.02"/>
<polygon fill="#104e8b" stroke="#104e8b" stroke-width="5" points="670.38,-269.14 666,-259.14 661.63,-269.14 670.38,-269.14"/>
</g>
<!-- MEF2A -->
<g id="node20" class="node">
<title>MEF2A</title>
<ellipse fill="none" stroke="#8b1a1a" stroke-width="2" cx="18" cy="-18" rx="18" ry="18"/>
<text xml:space="preserve" text-anchor="middle" x="18" y="-12.95" font-family="Times,serif" font-size="14.00">MEF2A</text>
</g>
<!-- SMAD2&#45;&gt;MEF2A -->
<g id="edge11" class="edge">
<title>SMAD2&#45;&gt;MEF2A</title>
<path fill="none" stroke="#8b1a1a" stroke-width="5" d="M18,-71.34C18,-65.74 18,-59.36 18,-53.02"/>
<polygon fill="#8b1a1a" stroke="#8b1a1a" stroke-width="5" points="22.38,-53.14 18,-43.14 13.63,-53.14 22.38,-53.14"/>
</g>
<!-- SMAD4 -->
<g id="node22" class="node">
<title>SMAD4</title>
<ellipse fill="none" stroke="#8b1a1a" stroke-width="2" cx="72" cy="-18" rx="18" ry="18"/>
<text xml:space="preserve" text-anchor="middle" x="72" y="-12.95" font-family="Times,serif" font-size="14.00">SMAD4</text>
</g>
<!-- SMAD3&#45;&gt;SMAD4 -->
<g id="edge12" class="edge">
<title>SMAD3&#45;&gt;SMAD4</title>
<path fill="none" stroke="#8b1a1a" stroke-width="5" d="M72,-71.34C72,-65.74 72,-59.36 72,-53.02"/>
<polygon fill="#8b1a1a" stroke="#8b1a1a" stroke-width="5" points="76.38,-53.14 72,-43.14 67.63,-53.14 76.38,-53.14"/>
</g>
<!-- GSK3B&#45;&gt;CDKN1A -->
<g id="edge19" class="edge">
<title>GSK3B&#45;&gt;CDKN1A</title>
<path fill="none" stroke="#8b1a1a" stroke-width="5" d="M169.07,-362.83C161.02,-352.4 149.97,-338.07 141.08,-326.55"/>
<polygon fill="#8b1a1a" stroke="#8b1a1a" stroke-width="5" points="134.48,-326.18 142.4,-320.07 143.62,-321.65 135.7,-327.76 134.48,-326.18"/>
<polyline fill="none" stroke="#8b1a1a" stroke-width="5" points="137.83,-322.33 140.88,-326.29"/>
</g>
<!-- MYOCD -->
<g id="node24" class="node">
<title>MYOCD</title>
<ellipse fill="none" stroke="#8b1a1a" stroke-width="2" cx="180" cy="-306" rx="18" ry="18"/>
<text xml:space="preserve" text-anchor="middle" x="180" y="-300.95" font-family="Times,serif" font-size="14.00">MYOCD</text>
</g>
<!-- GSK3B&#45;&gt;MYOCD -->
<g id="edge13" class="edge">
<title>GSK3B&#45;&gt;MYOCD</title>
<path fill="none" stroke="#8b1a1a" stroke-width="5" d="M180,-359.34C180,-350.94 180,-340.77 180,-331.64"/>
<polygon fill="#8b1a1a" stroke="#8b1a1a" stroke-width="5" points="175,-327.4 185,-327.4 185,-329.4 175,-329.4 175,-327.4"/>
<polyline fill="none" stroke="#8b1a1a" stroke-width="5" points="180,-326.4 180,-331.4"/>
</g>
<!-- RELA -->
<g id="node31" class="node">
<title>RELA</title>
<ellipse fill="none" stroke="#104e8b" stroke-width="2" cx="234" cy="-306" rx="18" ry="18"/>
<text xml:space="preserve" text-anchor="middle" x="234" y="-300.95" font-family="Times,serif" font-size="14.00">RELA</text>
</g>
<!-- GSK3B&#45;&gt;RELA -->
<g id="edge41" class="edge">
<title>GSK3B&#45;&gt;RELA</title>
<path fill="none" stroke="#104e8b" stroke-width="5" d="M190.93,-362.83C197.37,-354.48 205.73,-343.65 213.37,-333.75"/>
<polygon fill="#104e8b" stroke="#104e8b" stroke-width="5" points="216.63,-336.67 219.28,-326.08 209.71,-331.33 216.63,-336.67"/>
</g>
<!-- CIITA -->
<g id="node43" class="node">
<title>CIITA</title>
<ellipse fill="none" stroke="#104e8b" stroke-width="2" cx="288" cy="-306" rx="18" ry="18"/>
<text xml:space="preserve" text-anchor="middle" x="288" y="-300.95" font-family="Times,serif" font-size="14.00">CIITA</text>
</g>
<!-- GSK3B&#45;&gt;CIITA -->
<g id="edge37" class="edge">
<title>GSK3B&#45;&gt;CIITA</title>
<path fill="none" stroke="#104e8b" stroke-width="5" d="M195.02,-367.27C211.61,-356.51 238.71,-338.95 259.39,-325.55"/>
<polygon fill="#104e8b" stroke="#104e8b" stroke-width="5" points="261.52,-329.38 267.53,-320.27 256.76,-322.04 261.52,-329.38"/>
</g>
<!-- SRF -->
<g id="node36" class="node">
<title>SRF</title>
<ellipse fill="none" stroke="#8b1a1a" stroke-width="2" cx="180" cy="-234" rx="18" ry="18"/>
<text xml:space="preserve" text-anchor="middle" x="180" y="-228.95" font-family="Times,serif" font-size="14.00">SRF</text>
</g>
<!-- MYOCD&#45;&gt;SRF -->
<g id="edge26" class="edge">
<title>MYOCD&#45;&gt;SRF</title>
<path fill="none" stroke="#8b1a1a" stroke-width="5" d="M180,-287.34C180,-281.74 180,-275.36 180,-269.02"/>
<polygon fill="#8b1a1a" stroke="#8b1a1a" stroke-width="5" points="184.38,-269.14 180,-259.14 175.63,-269.14 184.38,-269.14"/>
</g>
<!-- PRKCD&#45;&gt;MAPK8 -->
<g id="edge18" class="edge">
<title>PRKCD&#45;&gt;MAPK8</title>
<path fill="none" stroke="#104e8b" stroke-width="5" d="M556.35,-432.76C553.1,-425.87 549.2,-417.6 545.45,-409.64"/>
<polygon fill="#104e8b" stroke="#104e8b" stroke-width="5" points="549.49,-407.97 541.27,-400.79 541.58,-411.7 549.49,-407.97"/>
</g>
<!-- STAT1 -->
<g id="node30" class="node">
<title>STAT1</title>
<ellipse fill="none" stroke="#104e8b" stroke-width="2" cx="598" cy="-378" rx="18" ry="18"/>
<text xml:space="preserve" text-anchor="middle" x="598" y="-372.95" font-family="Times,serif" font-size="14.00">STAT1</text>
</g>
<!-- PRKCD&#45;&gt;STAT1 -->
<g id="edge22" class="edge">
<title>PRKCD&#45;&gt;STAT1</title>
<path fill="none" stroke="#104e8b" stroke-width="5" d="M571.89,-432.76C575.23,-425.87 579.25,-417.6 583.12,-409.64"/>
<polygon fill="#104e8b" stroke="#104e8b" stroke-width="5" points="587,-411.66 587.43,-400.76 579.13,-407.84 587,-411.66"/>
</g>
<!-- TP53 -->
<g id="node37" class="node">
<title>TP53</title>
<ellipse fill="none" stroke="#104e8b" stroke-width="2" cx="659" cy="-378" rx="18" ry="18"/>
<text xml:space="preserve" text-anchor="middle" x="659" y="-372.95" font-family="Times,serif" font-size="14.00">TP53</text>
</g>
<!-- PRKCD&#45;&gt;TP53 -->
<g id="edge27" class="edge">
<title>PRKCD&#45;&gt;TP53</title>
<path fill="none" stroke="#104e8b" stroke-width="5" d="M578.43,-438.37C592.45,-428.04 614.1,-412.09 631.43,-399.32"/>
<polygon fill="#104e8b" stroke="#104e8b" stroke-width="5" points="633.96,-402.89 639.41,-393.43 628.77,-395.84 633.96,-402.89"/>
</g>
<!-- EGR1 -->
<g id="node27" class="node">
<title>EGR1</title>
<ellipse fill="none" stroke="#104e8b" stroke-width="2" cx="234" cy="-234" rx="18" ry="18"/>
<text xml:space="preserve" text-anchor="middle" x="234" y="-228.95" font-family="Times,serif" font-size="14.00">EGR1</text>
</g>
<!-- PITX1 -->
<g id="node28" class="node">
<title>PITX1</title>
<ellipse fill="none" stroke="#104e8b" stroke-width="2" cx="234" cy="-162" rx="18" ry="18"/>
<text xml:space="preserve" text-anchor="middle" x="234" y="-156.95" font-family="Times,serif" font-size="14.00">PITX1</text>
</g>
<!-- EGR1&#45;&gt;PITX1 -->
<g id="edge20" class="edge">
<title>EGR1&#45;&gt;PITX1</title>
<path fill="none" stroke="#104e8b" stroke-width="5" d="M234,-215.34C234,-209.74 234,-203.36 234,-197.02"/>
<polygon fill="#104e8b" stroke="#104e8b" stroke-width="5" points="238.38,-197.14 234,-187.14 229.63,-197.14 238.38,-197.14"/>
</g>
<!-- IRF2 -->
<g id="node38" class="node">
<title>IRF2</title>
<ellipse fill="none" stroke="#104e8b" stroke-width="2" cx="612" cy="-306" rx="18" ry="18"/>
<text xml:space="preserve" text-anchor="middle" x="612" y="-300.95" font-family="Times,serif" font-size="14.00">IRF2</text>
</g>
<!-- STAT1&#45;&gt;IRF2 -->
<g id="edge30" class="edge">
<title>STAT1&#45;&gt;IRF2</title>
<path fill="none" stroke="#104e8b" stroke-width="5" d="M601.53,-359.34C602.7,-353.49 604.04,-346.78 605.37,-340.15"/>
<polygon fill="#104e8b" stroke="#104e8b" stroke-width="5" points="609.62,-341.2 607.29,-330.53 601.04,-339.48 609.62,-341.2"/>
</g>
<!-- RELA&#45;&gt;EGR1 -->
<g id="edge36" class="edge">
<title>RELA&#45;&gt;EGR1</title>
<path fill="none" stroke="#104e8b" stroke-width="5" d="M234,-287.34C234,-281.74 234,-275.36 234,-269.02"/>
<polygon fill="#104e8b" stroke="#104e8b" stroke-width="5" points="238.38,-269.14 234,-259.14 229.63,-269.14 238.38,-269.14"/>
</g>
<!-- JUN -->
<g id="node32" class="node">
<title>JUN</title>
<ellipse fill="none" stroke="#104e8b" stroke-width="2" cx="288" cy="-234" rx="18" ry="18"/>
<text xml:space="preserve" text-anchor="middle" x="288" y="-228.95" font-family="Times,serif" font-size="14.00">JUN</text>
</g>
<!-- RELA&#45;&gt;JUN -->
<g id="edge23" class="edge">
<title>RELA&#45;&gt;JUN</title>
<path fill="none" stroke="#104e8b" stroke-width="5" d="M244.93,-290.83C251.37,-282.48 259.73,-271.65 267.37,-261.75"/>
<polygon fill="#104e8b" stroke="#104e8b" stroke-width="5" points="270.63,-264.67 273.28,-254.08 263.71,-259.33 270.63,-264.67"/>
</g>
<!-- SPI1 -->
<g id="node41" class="node">
<title>SPI1</title>
<ellipse fill="none" stroke="#104e8b" stroke-width="2" cx="288" cy="-162" rx="18" ry="18"/>
<text xml:space="preserve" text-anchor="middle" x="288" y="-156.95" font-family="Times,serif" font-size="14.00">SPI1</text>
</g>
<!-- JUN&#45;&gt;SPI1 -->
<g id="edge33" class="edge">
<title>JUN&#45;&gt;SPI1</title>
<path fill="none" stroke="#104e8b" stroke-width="5" d="M288,-215.34C288,-209.74 288,-203.36 288,-197.02"/>
<polygon fill="#104e8b" stroke="#104e8b" stroke-width="5" points="292.38,-197.14 288,-187.14 283.63,-197.14 292.38,-197.14"/>
</g>
<!-- POU3F1 -->
<g id="node34" class="node">
<title>POU3F1</title>
<ellipse fill="none" stroke="#8b1a1a" stroke-width="2" cx="126" cy="-90" rx="18" ry="18"/>
<text xml:space="preserve" text-anchor="middle" x="126" y="-84.95" font-family="Times,serif" font-size="14.00">POU3F1</text>
</g>
<!-- HMGA1&#45;&gt;POU3F1 -->
<g id="edge24" class="edge">
<title>HMGA1&#45;&gt;POU3F1</title>
<path fill="none" stroke="#8b1a1a" stroke-width="5" d="M126,-143.34C126,-137.74 126,-131.36 126,-125.02"/>
<polygon fill="#8b1a1a" stroke="#8b1a1a" stroke-width="5" points="130.38,-125.14 126,-115.14 121.63,-125.14 130.38,-125.14"/>
</g>
<!-- NFKBIB -->
<g id="node46" class="node">
<title>NFKBIB</title>
<ellipse fill="none" stroke="#104e8b" stroke-width="2" cx="396" cy="-162" rx="18" ry="18"/>
<text xml:space="preserve" text-anchor="middle" x="396" y="-156.95" font-family="Times,serif" font-size="14.00">NFKBIB</text>
</g>
<!-- MAP3K7&#45;&gt;NFKBIB -->
<g id="edge40" class="edge">
<title>MAP3K7&#45;&gt;NFKBIB</title>
<path fill="none" stroke="#104e8b" stroke-width="5" d="M396,-215.34C396,-206.94 396,-196.77 396,-187.64"/>
<polygon fill="#104e8b" stroke="#104e8b" stroke-width="5" points="391,-183.4 401,-183.4 401,-185.4 391,-185.4 391,-183.4"/>
<polyline fill="none" stroke="#104e8b" stroke-width="5" points="396,-182.4 396,-187.4"/>
</g>
<!-- TP53&#45;&gt;NFKB2 -->
<g id="edge29" class="edge">
<title>TP53&#45;&gt;NFKB2</title>
<path fill="none" stroke="#104e8b" stroke-width="5" d="M660.77,-359.34C661.33,-353.74 661.96,-347.36 662.6,-341.02"/>
<polygon fill="#104e8b" stroke="#104e8b" stroke-width="5" points="666.95,-341.49 663.59,-331.11 658.24,-340.62 666.95,-341.49"/>
</g>
<!-- CHUK_IKBKB_IKBKG&#45;&gt;CYLD -->
<g id="edge46" class="edge">
<title>CHUK_IKBKB_IKBKG&#45;&gt;CYLD</title>
<path fill="none" stroke="#8b1a1a" stroke-width="5" d="M342,-359.34C342,-350.94 342,-340.77 342,-331.64"/>
<polygon fill="#8b1a1a" stroke="#8b1a1a" stroke-width="5" points="337,-327.4 347,-327.4 347,-329.4 337,-329.4 337,-327.4"/>
<polyline fill="none" stroke="#8b1a1a" stroke-width="5" points="342,-326.4 342,-331.4"/>
</g>
<!-- SMAD5 -->
<g id="node52" class="node">
<title>SMAD5</title>
<ellipse fill="none" stroke="#104e8b" stroke-width="2" cx="396" cy="-306" rx="18" ry="18"/>
<text xml:space="preserve" text-anchor="middle" x="396" y="-300.95" font-family="Times,serif" font-size="14.00">SMAD5</text>
</g>
<!-- SKI&#45;&gt;SMAD5 -->
<g id="edge51" class="edge">
<title>SKI&#45;&gt;SMAD5</title>
<path fill="none" stroke="#104e8b" stroke-width="5" d="M396,-359.34C396,-350.94 396,-340.77 396,-331.64"/>
<polygon fill="#104e8b" stroke="#104e8b" stroke-width="5" points="391,-327.4 401,-327.4 401,-329.4 391,-329.4 391,-327.4"/>
<polyline fill="none" stroke="#104e8b" stroke-width="5" points="396,-326.4 396,-331.4"/>
</g>
<!-- DNMT3A -->
<g id="node51" class="node">
<title>DNMT3A</title>
<ellipse fill="none" stroke="#104e8b" stroke-width="2" cx="18" cy="-234" rx="18" ry="18"/>
<text xml:space="preserve" text-anchor="middle" x="18" y="-228.95" font-family="Times,serif" font-size="14.00">DNMT3A</text>
</g>
<!-- MYC&#45;&gt;DNMT3A -->
<g id="edge50" class="edge">
<title>MYC&#45;&gt;DNMT3A</title>
<path fill="none" stroke="#104e8b" stroke-width="5" d="M18,-287.34C18,-281.74 18,-275.36 18,-269.02"/>
<polygon fill="#104e8b" stroke="#104e8b" stroke-width="5" points="22.38,-269.14 18,-259.14 13.63,-269.14 22.38,-269.14"/>
</g>
<!-- JUNB -->
<g id="node50" class="node">
<title>JUNB</title>
<ellipse fill="none" stroke="#8b1a1a" stroke-width="2" cx="558" cy="-234" rx="18" ry="18"/>
<text xml:space="preserve" text-anchor="middle" x="558" y="-228.95" font-family="Times,serif" font-size="14.00">JUNB</text>
</g>
<!-- MAPK9&#45;&gt;JUNB -->
<g id="edge47" class="edge">
<title>MAPK9&#45;&gt;JUNB</title>
<path fill="none" stroke="#8b1a1a" stroke-width="5" d="M558,-287.34C558,-278.94 558,-268.77 558,-259.64"/>
<polygon fill="#8b1a1a" stroke="#8b1a1a" stroke-width="5" points="553,-255.4 563,-255.4 563,-257.4 553,-257.4 553,-255.4"/>
<polyline fill="none" stroke="#8b1a1a" stroke-width="5" points="558,-254.4 558,-259.4"/>
</g>
<!-- e_3276_source -->
<g id="node54" class="node">
<title>e_3276_source</title>
<ellipse fill="black" stroke="black" cx="315" cy="-721.8" rx="1.8" ry="1.8"/>
</g>
<!-- e_3276_source&#45;&gt;IGF1 -->
<g id="edge53" class="edge">
<title>e_3276_source&#45;&gt;IGF1</title>
<path fill="none" stroke="#104e8b" stroke-width="5" d="M315,-719.87C315,-717.27 315,-709.56 315,-700.81"/>
<polygon fill="#104e8b" stroke="#104e8b" stroke-width="5" points="319.38,-701.04 315,-691.04 310.63,-701.04 319.38,-701.04"/>
</g>
</g>
</svg>