<?xml version="1.0" encoding="UTF-8" standalone="no"?>
<!DOCTYPE svg PUBLIC "-//W3C//DTD SVG 1.1//EN"
 "http://www.w3.org/Graphics/SVG/1.1/DTD/svg11.dtd">
<!-- Generated by graphviz version 2.43.0 (0)
 -->
<!-- Title: %3 Pages: 1 -->
<svg width="605pt" height="689pt"
 viewBox="0.00 0.00 605.06 689.02" xmlns="http://www.w3.org/2000/svg" xmlns:xlink="http://www.w3.org/1999/xlink">
<g id="graph0" class="graph" transform="scale(1 1) rotate(0) translate(4 685.02)">
<title>%3</title>
<polygon fill="white" stroke="transparent" points="-4,4 -4,-685.02 601.06,-685.02 601.06,4 -4,4"/>
<!-- 28 -->
<g id="node1" class="node">
<title>28</title>
<ellipse fill="none" stroke="black" cx="391.28" cy="-328.48" rx="18" ry="18"/>
<text text-anchor="middle" x="391.28" y="-324.78" font-family="Times,serif" font-size="14.00">28</text>
</g>
<!-- 39 -->
<g id="node2" class="node">
<title>39</title>
<ellipse fill="none" stroke="black" cx="457.81" cy="-371.44" rx="18" ry="18"/>
<text text-anchor="middle" x="457.81" y="-367.74" font-family="Times,serif" font-size="14.00">39</text>
</g>
<!-- 28&#45;&gt;39 -->
<g id="edge1" class="edge">
<title>28&#45;&gt;39</title>
<path fill="none" stroke="black" d="M406.71,-338.45C417.46,-345.39 431.73,-354.6 442.47,-361.53"/>
</g>
<!-- 85 -->
<g id="node5" class="node">
<title>85</title>
<ellipse fill="none" stroke="black" cx="321.33" cy="-281.1" rx="18" ry="18"/>
<text text-anchor="middle" x="321.33" y="-277.4" font-family="Times,serif" font-size="14.00">85</text>
</g>
<!-- 28&#45;&gt;85 -->
<g id="edge3" class="edge">
<title>28&#45;&gt;85</title>
<path fill="none" stroke="black" d="M376.1,-318.2C364.37,-310.25 348.21,-299.3 336.48,-291.36"/>
</g>
<!-- 12 -->
<g id="node3" class="node">
<title>12</title>
<ellipse fill="none" stroke="black" cx="457.97" cy="-102.93" rx="18" ry="18"/>
<text text-anchor="middle" x="457.97" y="-99.23" font-family="Times,serif" font-size="14.00">12</text>
</g>
<!-- 33 -->
<g id="node4" class="node">
<title>33</title>
<ellipse fill="none" stroke="black" cx="516.79" cy="-56.93" rx="18" ry="18"/>
<text text-anchor="middle" x="516.79" y="-53.23" font-family="Times,serif" font-size="14.00">33</text>
</g>
<!-- 12&#45;&gt;33 -->
<g id="edge2" class="edge">
<title>12&#45;&gt;33</title>
<path fill="none" stroke="black" d="M472.21,-91.8C481.32,-84.67 493.11,-75.45 502.28,-68.28"/>
</g>
<!-- 62 -->
<g id="node6" class="node">
<title>62</title>
<ellipse fill="none" stroke="black" cx="397.57" cy="-150.84" rx="18" ry="18"/>
<text text-anchor="middle" x="397.57" y="-147.14" font-family="Times,serif" font-size="14.00">62</text>
</g>
<!-- 12&#45;&gt;62 -->
<g id="edge4" class="edge">
<title>12&#45;&gt;62</title>
<path fill="none" stroke="black" d="M443.66,-114.28C434.03,-121.92 421.39,-131.95 411.78,-139.56"/>
</g>
<!-- 13 -->
<g id="node7" class="node">
<title>13</title>
<ellipse fill="none" stroke="black" cx="229.56" cy="-66.08" rx="18" ry="18"/>
<text text-anchor="middle" x="229.56" y="-62.38" font-family="Times,serif" font-size="14.00">13</text>
</g>
<!-- 43 -->
<g id="node8" class="node">
<title>43</title>
<ellipse fill="none" stroke="black" cx="272.52" cy="-131.9" rx="18" ry="18"/>
<text text-anchor="middle" x="272.52" y="-128.2" font-family="Times,serif" font-size="14.00">43</text>
</g>
<!-- 13&#45;&gt;43 -->
<g id="edge5" class="edge">
<title>13&#45;&gt;43</title>
<path fill="none" stroke="black" d="M239.52,-81.35C246.46,-91.98 255.68,-106.11 262.61,-116.72"/>
</g>
<!-- 61 -->
<g id="node11" class="node">
<title>61</title>
<ellipse fill="none" stroke="black" cx="328.05" cy="-194.52" rx="18" ry="18"/>
<text text-anchor="middle" x="328.05" y="-190.82" font-family="Times,serif" font-size="14.00">61</text>
</g>
<!-- 43&#45;&gt;61 -->
<g id="edge18" class="edge">
<title>43&#45;&gt;61</title>
<path fill="none" stroke="black" d="M284.57,-145.49C293.89,-155.99 306.72,-170.46 316.03,-180.96"/>
</g>
<!-- 58 -->
<g id="node9" class="node">
<title>58</title>
<ellipse fill="none" stroke="black" cx="64.8" cy="-383.58" rx="18" ry="18"/>
<text text-anchor="middle" x="64.8" y="-379.88" font-family="Times,serif" font-size="14.00">58</text>
</g>
<!-- 92 -->
<g id="node10" class="node">
<title>92</title>
<ellipse fill="none" stroke="black" cx="132.55" cy="-433.2" rx="18" ry="18"/>
<text text-anchor="middle" x="132.55" y="-429.5" font-family="Times,serif" font-size="14.00">92</text>
</g>
<!-- 58&#45;&gt;92 -->
<g id="edge6" class="edge">
<title>58&#45;&gt;92</title>
<path fill="none" stroke="black" d="M79.5,-394.35C90.87,-402.67 106.52,-414.14 117.88,-422.45"/>
</g>
<!-- 61&#45;&gt;85 -->
<g id="edge8" class="edge">
<title>61&#45;&gt;85</title>
<path fill="none" stroke="black" d="M326.63,-212.88C325.48,-227.67 323.87,-248.35 322.73,-263.06"/>
</g>
<!-- 61&#45;&gt;62 -->
<g id="edge7" class="edge">
<title>61&#45;&gt;62</title>
<path fill="none" stroke="black" d="M343.48,-184.82C355,-177.58 370.67,-167.73 382.18,-160.5"/>
</g>
<!-- 64 -->
<g id="node12" class="node">
<title>64</title>
<ellipse fill="none" stroke="black" cx="198.41" cy="-385.89" rx="18" ry="18"/>
<text text-anchor="middle" x="198.41" y="-382.19" font-family="Times,serif" font-size="14.00">64</text>
</g>
<!-- 64&#45;&gt;92 -->
<g id="edge9" class="edge">
<title>64&#45;&gt;92</title>
<path fill="none" stroke="black" d="M183.46,-396.62C172.68,-404.36 158.2,-414.77 147.43,-422.5"/>
</g>
<!-- 23 -->
<g id="node13" class="node">
<title>23</title>
<ellipse fill="none" stroke="black" cx="579.06" cy="-18" rx="18" ry="18"/>
<text text-anchor="middle" x="579.06" y="-14.3" font-family="Times,serif" font-size="14.00">23</text>
</g>
<!-- 23&#45;&gt;33 -->
<g id="edge10" class="edge">
<title>23&#45;&gt;33</title>
<path fill="none" stroke="black" d="M563.67,-27.62C554.16,-33.57 542,-41.17 532.44,-47.14"/>
</g>
<!-- 41 -->
<g id="node14" class="node">
<title>41</title>
<ellipse fill="none" stroke="black" cx="255.93" cy="-331.49" rx="18" ry="18"/>
<text text-anchor="middle" x="255.93" y="-327.79" font-family="Times,serif" font-size="14.00">41</text>
</g>
<!-- 41&#45;&gt;85 -->
<g id="edge14" class="edge">
<title>41&#45;&gt;85</title>
<path fill="none" stroke="black" d="M270.44,-320.31C281.28,-311.96 296.03,-300.59 306.86,-292.25"/>
</g>
<!-- 41&#45;&gt;64 -->
<g id="edge11" class="edge">
<title>41&#45;&gt;64</title>
<path fill="none" stroke="black" d="M242.59,-344.11C233.29,-352.9 220.95,-364.57 211.68,-373.34"/>
</g>
<!-- 73 -->
<g id="node15" class="node">
<title>73</title>
<ellipse fill="none" stroke="black" cx="143.34" cy="-585.84" rx="18" ry="18"/>
<text text-anchor="middle" x="143.34" y="-582.14" font-family="Times,serif" font-size="14.00">73</text>
</g>
<!-- 95 -->
<g id="node16" class="node">
<title>95</title>
<ellipse fill="none" stroke="black" cx="155.31" cy="-663.02" rx="18" ry="18"/>
<text text-anchor="middle" x="155.31" y="-659.32" font-family="Times,serif" font-size="14.00">95</text>
</g>
<!-- 73&#45;&gt;95 -->
<g id="edge12" class="edge">
<title>73&#45;&gt;95</title>
<path fill="none" stroke="black" d="M146.12,-603.74C148.05,-616.21 150.62,-632.77 152.55,-645.22"/>
</g>
<!-- 8 -->
<g id="node17" class="node">
<title>8</title>
<ellipse fill="none" stroke="black" cx="102.56" cy="-512.22" rx="18" ry="18"/>
<text text-anchor="middle" x="102.56" y="-508.52" font-family="Times,serif" font-size="14.00">8</text>
</g>
<!-- 8&#45;&gt;92 -->
<g id="edge17" class="edge">
<title>8&#45;&gt;92</title>
<path fill="none" stroke="black" d="M109.06,-495.07C114.13,-481.73 121.12,-463.31 126.16,-450.04"/>
</g>
<!-- 8&#45;&gt;73 -->
<g id="edge16" class="edge">
<title>8&#45;&gt;73</title>
<path fill="none" stroke="black" d="M111.41,-528.19C118.25,-540.54 127.67,-557.56 134.51,-569.9"/>
</g>
<!-- 14 -->
<g id="node18" class="node">
<title>14</title>
<ellipse fill="none" stroke="black" cx="47.02" cy="-566.88" rx="18" ry="18"/>
<text text-anchor="middle" x="47.02" y="-563.18" font-family="Times,serif" font-size="14.00">14</text>
</g>
<!-- 8&#45;&gt;14 -->
<g id="edge13" class="edge">
<title>8&#45;&gt;14</title>
<path fill="none" stroke="black" d="M89.68,-524.9C80.83,-533.6 69.13,-545.12 60.21,-553.89"/>
</g>
<!-- 68 -->
<g id="node19" class="node">
<title>68</title>
<ellipse fill="none" stroke="black" cx="18" cy="-499.03" rx="18" ry="18"/>
<text text-anchor="middle" x="18" y="-495.33" font-family="Times,serif" font-size="14.00">68</text>
</g>
<!-- 8&#45;&gt;68 -->
<g id="edge15" class="edge">
<title>8&#45;&gt;68</title>
<path fill="none" stroke="black" d="M84.62,-509.42C70.27,-507.19 50.25,-504.06 35.91,-501.83"/>
</g>
</g>
</svg>