<?xml version="1.0" encoding="UTF-8" standalone="no"?>
<!DOCTYPE svg PUBLIC "-//W3C//DTD SVG 1.1//EN"
 "http://www.w3.org/Graphics/SVG/1.1/DTD/svg11.dtd">
<!-- Generated by graphviz version 2.43.0 (0)
 -->
<!-- Title: %3 Pages: 1 -->
<svg width="98pt" height="300pt"
 viewBox="0.00 0.00 98.00 299.60" xmlns="http://www.w3.org/2000/svg" xmlns:xlink="http://www.w3.org/1999/xlink">
<g id="graph0" class="graph" transform="scale(1 1) rotate(0) translate(4 295.6)">
<title>%3</title>
<polygon fill="white" stroke="transparent" points="-4,4 -4,-295.6 94,-295.6 94,4 -4,4"/>
<!-- rec1 -->
<g id="node1" class="node">
<title>rec1</title>
<ellipse fill="none" stroke="black" cx="18" cy="-234" rx="18" ry="18"/>
<text text-anchor="middle" x="18" y="-230.3" font-family="Times,serif" font-size="14.00">rec1</text>
</g>
<!-- a -->
<g id="node2" class="node">
<title>a</title>
<ellipse fill="none" stroke="black" cx="18" cy="-162" rx="18" ry="18"/>
<text text-anchor="middle" x="18" y="-158.3" font-family="Times,serif" font-size="14.00">a</text>
</g>
<!-- rec1&#45;&gt;a -->
<g id="edge1" class="edge">
<title>rec1&#45;&gt;a</title>
<path fill="none" stroke="black" d="M18,-215.7C18,-207.98 18,-198.71 18,-190.11"/>
<polygon fill="black" stroke="black" points="21.5,-190.1 18,-180.1 14.5,-190.1 21.5,-190.1"/>
</g>
<!-- c -->
<g id="node5" class="node">
<title>c</title>
<ellipse fill="none" stroke="black" cx="18" cy="-90" rx="18" ry="18"/>
<text text-anchor="middle" x="18" y="-86.3" font-family="Times,serif" font-size="14.00">c</text>
</g>
<!-- a&#45;&gt;c -->
<g id="edge3" class="edge">
<title>a&#45;&gt;c</title>
<path fill="none" stroke="black" d="M18,-143.7C18,-135.98 18,-126.71 18,-118.11"/>
<polygon fill="black" stroke="black" points="21.5,-118.1 18,-108.1 14.5,-118.1 21.5,-118.1"/>
</g>
<!-- rec2 -->
<g id="node3" class="node">
<title>rec2</title>
<ellipse fill="none" stroke="black" cx="72" cy="-234" rx="18" ry="18"/>
<text text-anchor="middle" x="72" y="-230.3" font-family="Times,serif" font-size="14.00">rec2</text>
</g>
<!-- tf2 -->
<g id="node4" class="node">
<title>tf2</title>
<ellipse fill="none" stroke="black" cx="72" cy="-162" rx="18" ry="18"/>
<text text-anchor="middle" x="72" y="-158.3" font-family="Times,serif" font-size="14.00">tf2</text>
</g>
<!-- rec2&#45;&gt;tf2 -->
<g id="edge2" class="edge">
<title>rec2&#45;&gt;tf2</title>
<path fill="none" stroke="black" d="M72,-215.7C72,-207.98 72,-198.71 72,-190.11"/>
<polygon fill="black" stroke="black" points="75.5,-190.1 72,-180.1 68.5,-190.1 75.5,-190.1"/>
</g>
<!-- tf3 -->
<g id="node6" class="node">
<title>tf3</title>
<ellipse fill="none" stroke="black" cx="18" cy="-18" rx="18" ry="18"/>
<text text-anchor="middle" x="18" y="-14.3" font-family="Times,serif" font-size="14.00">tf3</text>
</g>
<!-- c&#45;&gt;tf3 -->
<g id="edge4" class="edge">
<title>c&#45;&gt;tf3</title>
<path fill="none" stroke="black" d="M18,-71.7C18,-63.98 18,-54.71 18,-46.11"/>
<polygon fill="black" stroke="black" points="21.5,-46.1 18,-36.1 14.5,-46.1 21.5,-46.1"/>
</g>
<!-- e_4_source -->
<g id="node7" class="node">
<title>e_4_source</title>
<ellipse fill="black" stroke="black" cx="72" cy="-289.8" rx="1.8" ry="1.8"/>
</g>
<!-- e_4_source&#45;&gt;rec2 -->
<g id="edge5" class="edge">
<title>e_4_source&#45;&gt;rec2</title>
<path fill="none" stroke="black" d="M72,-287.87C72,-284.64 72,-273.55 72,-262.35"/>
<polygon fill="black" stroke="black" points="75.5,-262.26 72,-252.26 68.5,-262.26 75.5,-262.26"/>
</g>
<!-- e_5_source -->
<g id="node8" class="node">
<title>e_5_source</title>
<ellipse fill="black" stroke="black" cx="18" cy="-289.8" rx="1.8" ry="1.8"/>
</g>
<!-- e_5_source&#45;&gt;rec1 -->
<g id="edge6" class="edge">
<title>e_5_source&#45;&gt;rec1</title>
<path fill="none" stroke="black" d="M18,-287.87C18,-284.64 18,-273.55 18,-262.35"/>
<polygon fill="black" stroke="black" points="21.5,-262.26 18,-252.26 14.5,-262.26 21.5,-262.26"/>
</g>
</g>
</svg>