<svg xmlns="http://www.w3.org/2000/svg" xmlns:xlink="http://www.w3.org/1999/xlink" width="67pt" height="188pt" viewBox="0.00 0.00 67.00 188.00">
<g id="graph0" class="graph" transform="scale(1 1) rotate(0) translate(4 184)">
<title>G</title>
<polygon fill="white" stroke="transparent" points="-4,4 -4,-184 63,-184 63,4 -4,4"/>
<!-- 1 -->
<g id="node1" class="node">
<title>1</title>
<ellipse fill="none" stroke="black" cx="41" cy="-162" rx="18" ry="18"/>
<text text-anchor="middle" x="41" y="-158.3" font-family="Times,serif" font-size="14.00">1</text>
</g>
<!-- 2 -->
<g id="node2" class="node">
<title>2</title>
<ellipse fill="none" stroke="black" cx="18" cy="-90" rx="18" ry="18"/>
<text text-anchor="middle" x="18" y="-86.3" font-family="Times,serif" font-size="14.00">2</text>
</g>
<!-- 1&#45;&gt;2 -->
<g id="edge1" class="edge">
<title>1-&gt;2</title>
<path fill="none" stroke="black" d="M35.67,-144.76C32.98,-136.58 29.65,-126.45 26.61,-117.2"/>
<polygon fill="black" stroke="black" points="29.91,-116.04 23.47,-107.63 23.26,-118.23 29.91,-116.04"/>
</g>
<!-- 3 -->
<g id="node3" class="node">
<title>3</title>
<ellipse fill="none" stroke="black" cx="41" cy="-18" rx="18" ry="18"/>
<text text-anchor="middle" x="41" y="-14.3" font-family="Times,serif" font-size="14.00">3</text>
</g>
<!-- 1&#45;&gt;3 -->
<g id="edge3" class="edge">
<title>1-&gt;3</title>
<path fill="none" stroke="black" d="M42.62,-143.83C43.52,-133.47 44.55,-119.99 45,-108 45.6,-92.01 45.6,-87.99 45,-72 44.69,-63.67 44.09,-54.61 43.46,-46.38"/>
<polygon fill="black" stroke="black" points="46.93,-45.85 42.62,-36.17 39.95,-46.42 46.93,-45.85"/>
</g>
<!-- 2&#45;&gt;3 -->
<g id="edge2" class="edge">
<title>2-&gt;3</title>
<path fill="none" stroke="black" d="M23.33,-72.76C26.02,-64.58 29.35,-54.45 32.39,-45.2"/>
<polygon fill="black" stroke="black" points="35.74,-46.23 35.53,-35.63 29.09,-44.04 35.74,-46.23"/>
</g>
</g>
</svg>