<?xml version="1.0" encoding="UTF-8" standalone="no"?>
<!DOCTYPE svg PUBLIC "-//W3C//DTD SVG 1.1//EN"
 "http://www.w3.org/Graphics/SVG/1.1/DTD/svg11.dtd">
<!-- Generated by graphviz version 2.43.0 (0)
 -->
<!-- Title: %3 Pages: 1 -->
<svg width="121pt" height="332pt"
 viewBox="0.00 0.00 121.00 332.00" xmlns="http://www.w3.org/2000/svg" xmlns:xlink="http://www.w3.org/1999/xlink">
<g id="graph0" class="graph" transform="scale(1 1) rotate(0) translate(4 328)">
<title>%3</title>
<polygon fill="white" stroke="transparent" points="-4,4 -4,-328 117,-328 117,4 -4,4"/>
<!-- v1 -->
<g id="node1" class="node">
<title>v1</title>
<ellipse fill="none" stroke="black" cx="95" cy="-306" rx="18" ry="18"/>
<text text-anchor="middle" x="95" y="-302.3" font-family="Times,serif" font-size="14.00">v1</text>
</g>
<!-- v2 -->
<g id="node2" class="node">
<title>v2</title>
<ellipse fill="none" stroke="black" cx="72" cy="-234" rx="18" ry="18"/>
<text text-anchor="middle" x="72" y="-230.3" font-family="Times,serif" font-size="14.00">v2</text>
</g>
<!-- v1&#45;&gt;v2 -->
<g id="edge1" class="edge">
<title>v1&#45;&gt;v2</title>
<path fill="none" stroke="black" d="M89.67,-288.76C86.98,-280.58 83.65,-270.45 80.61,-261.2"/>
<polygon fill="black" stroke="black" points="83.91,-260.04 77.47,-251.63 77.26,-262.23 83.91,-260.04"/>
</g>
<!-- v7 -->
<g id="node3" class="node">
<title>v7</title>
<ellipse fill="none" stroke="black" cx="70" cy="-18" rx="18" ry="18"/>
<text text-anchor="middle" x="70" y="-14.3" font-family="Times,serif" font-size="14.00">v7</text>
</g>
<!-- v1&#45;&gt;v7 -->
<g id="edge2" class="edge">
<title>v1&#45;&gt;v7</title>
<path fill="none" stroke="black" d="M98.06,-287.98C104.46,-249 117.02,-150.6 97,-72 94.39,-61.75 89.55,-51.22 84.67,-42.27"/>
<polygon fill="black" stroke="black" points="87.7,-40.52 79.68,-33.6 81.64,-44.01 87.7,-40.52"/>
</g>
<!-- v4 -->
<g id="node4" class="node">
<title>v4</title>
<ellipse fill="none" stroke="black" cx="18" cy="-162" rx="18" ry="18"/>
<text text-anchor="middle" x="18" y="-158.3" font-family="Times,serif" font-size="14.00">v4</text>
</g>
<!-- v2&#45;&gt;v4 -->
<g id="edge3" class="edge">
<title>v2&#45;&gt;v4</title>
<path fill="none" stroke="black" d="M61.33,-219.17C53.79,-209.39 43.52,-196.08 34.87,-184.87"/>
<polygon fill="black" stroke="black" points="37.53,-182.58 28.65,-176.8 31.98,-186.86 37.53,-182.58"/>
</g>
<!-- v5 -->
<g id="node6" class="node">
<title>v5</title>
<ellipse fill="none" stroke="black" cx="72" cy="-162" rx="18" ry="18"/>
<text text-anchor="middle" x="72" y="-158.3" font-family="Times,serif" font-size="14.00">v5</text>
</g>
<!-- v2&#45;&gt;v5 -->
<g id="edge8" class="edge">
<title>v2&#45;&gt;v5</title>
<path fill="none" stroke="black" d="M72,-215.7C72,-207.98 72,-198.71 72,-190.11"/>
<polygon fill="black" stroke="black" points="75.5,-190.1 72,-180.1 68.5,-190.1 75.5,-190.1"/>
</g>
<!-- v4&#45;&gt;v7 -->
<g id="edge5" class="edge">
<title>v4&#45;&gt;v7</title>
<path fill="none" stroke="black" d="M21.65,-144.28C25.85,-126.15 33.42,-96.52 43,-72 46.81,-62.25 51.83,-51.92 56.51,-42.99"/>
<polygon fill="black" stroke="black" points="59.73,-44.4 61.38,-33.94 53.56,-41.09 59.73,-44.4"/>
</g>
<!-- v6 -->
<g id="node5" class="node">
<title>v6</title>
<ellipse fill="none" stroke="black" cx="70" cy="-90" rx="18" ry="18"/>
<text text-anchor="middle" x="70" y="-86.3" font-family="Times,serif" font-size="14.00">v6</text>
</g>
<!-- v4&#45;&gt;v6 -->
<g id="edge4" class="edge">
<title>v4&#45;&gt;v6</title>
<path fill="none" stroke="black" d="M28.27,-147.17C35.54,-137.39 45.43,-124.08 53.75,-112.87"/>
<polygon fill="black" stroke="black" points="56.59,-114.92 59.75,-104.8 50.97,-110.74 56.59,-114.92"/>
</g>
<!-- v6&#45;&gt;v7 -->
<g id="edge7" class="edge">
<title>v6&#45;&gt;v7</title>
<path fill="none" stroke="black" d="M70,-71.7C70,-63.98 70,-54.71 70,-46.11"/>
<polygon fill="black" stroke="black" points="73.5,-46.1 70,-36.1 66.5,-46.1 73.5,-46.1"/>
</g>
<!-- v5&#45;&gt;v6 -->
<g id="edge6" class="edge">
<title>v5&#45;&gt;v6</title>
<path fill="none" stroke="black" d="M71.51,-143.7C71.29,-135.98 71.02,-126.71 70.77,-118.11"/>
<polygon fill="black" stroke="black" points="74.27,-118 70.49,-108.1 67.28,-118.2 74.27,-118"/>
</g>
</g>
</svg>