<?xml version="1.0" encoding="UTF-8" standalone="no"?>
<!DOCTYPE svg PUBLIC "-//W3C//DTD SVG 1.1//EN"
 "http://www.w3.org/Graphics/SVG/1.1/DTD/svg11.dtd">
<!-- Generated by graphviz version 2.43.0 (0)
 -->
<!-- Title: %3 Pages: 1 -->
<svg width="179pt" height="836pt"
 viewBox="0.00 0.00 179.00 836.00" xmlns="http://www.w3.org/2000/svg" xmlns:xlink="http://www.w3.org/1999/xlink">
<g id="graph0" class="graph" transform="scale(1 1) rotate(0) translate(4 832)">
<title>%3</title>
<polygon fill="white" stroke="transparent" points="-4,4 -4,-832 175,-832 175,4 -4,4"/>
<!-- 62 -->
<g id="node1" class="node">
<title>62</title>
<ellipse fill="none" stroke="black" cx="45" cy="-594" rx="18" ry="18"/>
<text text-anchor="middle" x="45" y="-590.3" font-family="Times,serif" font-size="14.00">62</text>
</g>
<!-- 61 -->
<g id="node2" class="node">
<title>61</title>
<ellipse fill="none" stroke="black" cx="45" cy="-522" rx="18" ry="18"/>
<text text-anchor="middle" x="45" y="-518.3" font-family="Times,serif" font-size="14.00">61</text>
</g>
<!-- 62&#45;&gt;61 -->
<g id="edge1" class="edge">
<title>62&#45;&gt;61</title>
<path fill="none" stroke="black" d="M45,-575.7C45,-567.98 45,-558.71 45,-550.11"/>
<polygon fill="black" stroke="black" points="48.5,-550.1 45,-540.1 41.5,-550.1 48.5,-550.1"/>
</g>
<!-- 43 -->
<g id="node11" class="node">
<title>43</title>
<ellipse fill="none" stroke="black" cx="18" cy="-450" rx="18" ry="18"/>
<text text-anchor="middle" x="18" y="-446.3" font-family="Times,serif" font-size="14.00">43</text>
</g>
<!-- 61&#45;&gt;43 -->
<g id="edge17" class="edge">
<title>61&#45;&gt;43</title>
<path fill="none" stroke="black" d="M38.74,-504.76C35.5,-496.37 31.47,-485.93 27.83,-476.5"/>
<polygon fill="black" stroke="black" points="31.09,-475.22 24.23,-467.15 24.56,-477.74 31.09,-475.22"/>
</g>
<!-- 85 -->
<g id="node17" class="node">
<title>85</title>
<ellipse fill="none" stroke="black" cx="72" cy="-450" rx="18" ry="18"/>
<text text-anchor="middle" x="72" y="-446.3" font-family="Times,serif" font-size="14.00">85</text>
</g>
<!-- 61&#45;&gt;85 -->
<g id="edge18" class="edge">
<title>61&#45;&gt;85</title>
<path fill="none" stroke="black" d="M51.26,-504.76C54.5,-496.37 58.53,-485.93 62.17,-476.5"/>
<polygon fill="black" stroke="black" points="65.44,-477.74 65.77,-467.15 58.91,-475.22 65.44,-477.74"/>
</g>
<!-- 12 -->
<g id="node3" class="node">
<title>12</title>
<ellipse fill="none" stroke="black" cx="45" cy="-666" rx="18" ry="18"/>
<text text-anchor="middle" x="45" y="-662.3" font-family="Times,serif" font-size="14.00">12</text>
</g>
<!-- 12&#45;&gt;62 -->
<g id="edge2" class="edge">
<title>12&#45;&gt;62</title>
<path fill="none" stroke="black" d="M45,-647.7C45,-639.98 45,-630.71 45,-622.11"/>
<polygon fill="black" stroke="black" points="48.5,-622.1 45,-612.1 41.5,-622.1 48.5,-622.1"/>
</g>
<!-- 64 -->
<g id="node4" class="node">
<title>64</title>
<ellipse fill="none" stroke="black" cx="126" cy="-306" rx="18" ry="18"/>
<text text-anchor="middle" x="126" y="-302.3" font-family="Times,serif" font-size="14.00">64</text>
</g>
<!-- 92 -->
<g id="node5" class="node">
<title>92</title>
<ellipse fill="none" stroke="black" cx="126" cy="-234" rx="18" ry="18"/>
<text text-anchor="middle" x="126" y="-230.3" font-family="Times,serif" font-size="14.00">92</text>
</g>
<!-- 64&#45;&gt;92 -->
<g id="edge3" class="edge">
<title>64&#45;&gt;92</title>
<path fill="none" stroke="black" d="M126,-287.7C126,-279.98 126,-270.71 126,-262.11"/>
<polygon fill="black" stroke="black" points="129.5,-262.1 126,-252.1 122.5,-262.1 129.5,-262.1"/>
</g>
<!-- 8 -->
<g id="node6" class="node">
<title>8</title>
<ellipse fill="none" stroke="black" cx="99" cy="-162" rx="18" ry="18"/>
<text text-anchor="middle" x="99" y="-158.3" font-family="Times,serif" font-size="14.00">8</text>
</g>
<!-- 92&#45;&gt;8 -->
<g id="edge4" class="edge">
<title>92&#45;&gt;8</title>
<path fill="none" stroke="black" d="M119.74,-216.76C116.5,-208.37 112.47,-197.93 108.83,-188.5"/>
<polygon fill="black" stroke="black" points="112.09,-187.22 105.23,-179.15 105.56,-189.74 112.09,-187.22"/>
</g>
<!-- 58 -->
<g id="node9" class="node">
<title>58</title>
<ellipse fill="none" stroke="black" cx="153" cy="-162" rx="18" ry="18"/>
<text text-anchor="middle" x="153" y="-158.3" font-family="Times,serif" font-size="14.00">58</text>
</g>
<!-- 92&#45;&gt;58 -->
<g id="edge6" class="edge">
<title>92&#45;&gt;58</title>
<path fill="none" stroke="black" d="M132.26,-216.76C135.5,-208.37 139.53,-197.93 143.17,-188.5"/>
<polygon fill="black" stroke="black" points="146.44,-189.74 146.77,-179.15 139.91,-187.22 146.44,-189.74"/>
</g>
<!-- 14 -->
<g id="node13" class="node">
<title>14</title>
<ellipse fill="none" stroke="black" cx="45" cy="-90" rx="18" ry="18"/>
<text text-anchor="middle" x="45" y="-86.3" font-family="Times,serif" font-size="14.00">14</text>
</g>
<!-- 8&#45;&gt;14 -->
<g id="edge9" class="edge">
<title>8&#45;&gt;14</title>
<path fill="none" stroke="black" d="M88.33,-147.17C80.79,-137.39 70.52,-124.08 61.87,-112.87"/>
<polygon fill="black" stroke="black" points="64.53,-110.58 55.65,-104.8 58.98,-114.86 64.53,-110.58"/>
</g>
<!-- 68 -->
<g id="node15" class="node">
<title>68</title>
<ellipse fill="none" stroke="black" cx="99" cy="-90" rx="18" ry="18"/>
<text text-anchor="middle" x="99" y="-86.3" font-family="Times,serif" font-size="14.00">68</text>
</g>
<!-- 8&#45;&gt;68 -->
<g id="edge11" class="edge">
<title>8&#45;&gt;68</title>
<path fill="none" stroke="black" d="M99,-143.7C99,-135.98 99,-126.71 99,-118.11"/>
<polygon fill="black" stroke="black" points="102.5,-118.1 99,-108.1 95.5,-118.1 102.5,-118.1"/>
</g>
<!-- 73 -->
<g id="node16" class="node">
<title>73</title>
<ellipse fill="none" stroke="black" cx="153" cy="-90" rx="18" ry="18"/>
<text text-anchor="middle" x="153" y="-86.3" font-family="Times,serif" font-size="14.00">73</text>
</g>
<!-- 8&#45;&gt;73 -->
<g id="edge12" class="edge">
<title>8&#45;&gt;73</title>
<path fill="none" stroke="black" d="M109.67,-147.17C117.21,-137.39 127.48,-124.08 136.13,-112.87"/>
<polygon fill="black" stroke="black" points="139.02,-114.86 142.35,-104.8 133.47,-110.58 139.02,-114.86"/>
</g>
<!-- 28 -->
<g id="node7" class="node">
<title>28</title>
<ellipse fill="none" stroke="black" cx="72" cy="-378" rx="18" ry="18"/>
<text text-anchor="middle" x="72" y="-374.3" font-family="Times,serif" font-size="14.00">28</text>
</g>
<!-- 39 -->
<g id="node8" class="node">
<title>39</title>
<ellipse fill="none" stroke="black" cx="72" cy="-306" rx="18" ry="18"/>
<text text-anchor="middle" x="72" y="-302.3" font-family="Times,serif" font-size="14.00">39</text>
</g>
<!-- 28&#45;&gt;39 -->
<g id="edge5" class="edge">
<title>28&#45;&gt;39</title>
<path fill="none" stroke="black" d="M72,-359.7C72,-351.98 72,-342.71 72,-334.11"/>
<polygon fill="black" stroke="black" points="75.5,-334.1 72,-324.1 68.5,-334.1 75.5,-334.1"/>
</g>
<!-- 41 -->
<g id="node10" class="node">
<title>41</title>
<ellipse fill="none" stroke="black" cx="126" cy="-378" rx="18" ry="18"/>
<text text-anchor="middle" x="126" y="-374.3" font-family="Times,serif" font-size="14.00">41</text>
</g>
<!-- 41&#45;&gt;64 -->
<g id="edge7" class="edge">
<title>41&#45;&gt;64</title>
<path fill="none" stroke="black" d="M126,-359.7C126,-351.98 126,-342.71 126,-334.11"/>
<polygon fill="black" stroke="black" points="129.5,-334.1 126,-324.1 122.5,-334.1 129.5,-334.1"/>
</g>
<!-- 13 -->
<g id="node12" class="node">
<title>13</title>
<ellipse fill="none" stroke="black" cx="18" cy="-378" rx="18" ry="18"/>
<text text-anchor="middle" x="18" y="-374.3" font-family="Times,serif" font-size="14.00">13</text>
</g>
<!-- 43&#45;&gt;13 -->
<g id="edge8" class="edge">
<title>43&#45;&gt;13</title>
<path fill="none" stroke="black" d="M18,-431.7C18,-423.98 18,-414.71 18,-406.11"/>
<polygon fill="black" stroke="black" points="21.5,-406.1 18,-396.1 14.5,-406.1 21.5,-406.1"/>
</g>
<!-- 33 -->
<g id="node14" class="node">
<title>33</title>
<ellipse fill="none" stroke="black" cx="45" cy="-738" rx="18" ry="18"/>
<text text-anchor="middle" x="45" y="-734.3" font-family="Times,serif" font-size="14.00">33</text>
</g>
<!-- 33&#45;&gt;12 -->
<g id="edge10" class="edge">
<title>33&#45;&gt;12</title>
<path fill="none" stroke="black" d="M45,-719.7C45,-711.98 45,-702.71 45,-694.11"/>
<polygon fill="black" stroke="black" points="48.5,-694.1 45,-684.1 41.5,-694.1 48.5,-694.1"/>
</g>
<!-- 95 -->
<g id="node19" class="node">
<title>95</title>
<ellipse fill="none" stroke="black" cx="153" cy="-18" rx="18" ry="18"/>
<text text-anchor="middle" x="153" y="-14.3" font-family="Times,serif" font-size="14.00">95</text>
</g>
<!-- 73&#45;&gt;95 -->
<g id="edge16" class="edge">
<title>73&#45;&gt;95</title>
<path fill="none" stroke="black" d="M153,-71.7C153,-63.98 153,-54.71 153,-46.11"/>
<polygon fill="black" stroke="black" points="156.5,-46.1 153,-36.1 149.5,-46.1 156.5,-46.1"/>
</g>
<!-- 85&#45;&gt;28 -->
<g id="edge13" class="edge">
<title>85&#45;&gt;28</title>
<path fill="none" stroke="black" d="M72,-431.7C72,-423.98 72,-414.71 72,-406.11"/>
<polygon fill="black" stroke="black" points="75.5,-406.1 72,-396.1 68.5,-406.1 75.5,-406.1"/>
</g>
<!-- 85&#45;&gt;41 -->
<g id="edge14" class="edge">
<title>85&#45;&gt;41</title>
<path fill="none" stroke="black" d="M82.67,-435.17C90.21,-425.39 100.48,-412.08 109.13,-400.87"/>
<polygon fill="black" stroke="black" points="112.02,-402.86 115.35,-392.8 106.47,-398.58 112.02,-402.86"/>
</g>
<!-- 23 -->
<g id="node18" class="node">
<title>23</title>
<ellipse fill="none" stroke="black" cx="45" cy="-810" rx="18" ry="18"/>
<text text-anchor="middle" x="45" y="-806.3" font-family="Times,serif" font-size="14.00">23</text>
</g>
<!-- 23&#45;&gt;33 -->
<g id="edge15" class="edge">
<title>23&#45;&gt;33</title>
<path fill="none" stroke="black" d="M45,-791.7C45,-783.98 45,-774.71 45,-766.11"/>
<polygon fill="black" stroke="black" points="48.5,-766.1 45,-756.1 41.5,-766.1 48.5,-766.1"/>
</g>
</g>
</svg>