<?xml version="1.0" encoding="UTF-8" standalone="no"?>
<!DOCTYPE svg PUBLIC "-//W3C//DTD SVG 1.1//EN"
 "http://www.w3.org/Graphics/SVG/1.1/DTD/svg11.dtd">
<!-- Generated by graphviz version 13.0.1 (0)
 -->
<!-- Pages: 1 -->
<svg width="611pt" height="804pt"
 viewBox="0.00 0.00 611.00 804.00" xmlns="http://www.w3.org/2000/svg" xmlns:xlink="http://www.w3.org/1999/xlink">
<g id="graph0" class="graph" transform="scale(1 1) rotate(0) translate(4 799.6)">
<polygon fill="white" stroke="none" points="-4,4 -4,-799.6 607,-799.6 607,4 -4,4"/>
<!-- AKT1 -->
<g id="node1" class="node">
<title>AKT1</title>
<ellipse fill="none" stroke="#8b1a1a" stroke-width="2" cx="288" cy="-306" rx="18" ry="18"/>
<text xml:space="preserve" text-anchor="middle" x="288" y="-300.95" font-family="Times,serif" font-size="14.00">AKT1</text>
</g>
<!-- PRKAA1 -->
<g id="node2" class="node">
<title>PRKAA1</title>
<ellipse fill="none" stroke="#104e8b" stroke-width="2" cx="180" cy="-234" rx="18" ry="18"/>
<text xml:space="preserve" text-anchor="middle" x="180" y="-228.95" font-family="Times,serif" font-size="14.00">PRKAA1</text>
</g>
<!-- AKT1&#45;&gt;PRKAA1 -->
<g id="edge1" class="edge">
<title>AKT1&#45;&gt;PRKAA1</title>
<path fill="none" stroke="#104e8b" stroke-width="5" d="M272.98,-295.27C254.23,-283.11 222.04,-262.25 200.89,-248.54"/>
<polygon fill="#104e8b" stroke="#104e8b" stroke-width="5" points="194.62,-250.43 200.05,-242.04 201.73,-243.13 196.29,-251.52 194.62,-250.43"/>
<polyline fill="none" stroke="#104e8b" stroke-width="5" points="196.5,-245.69 200.69,-248.41"/>
</g>
<!-- EP300 -->
<g id="node3" class="node">
<title>EP300</title>
<ellipse fill="none" stroke="#8b1a1a" stroke-width="2" cx="234" cy="-234" rx="18" ry="18"/>
<text xml:space="preserve" text-anchor="middle" x="234" y="-228.95" font-family="Times,serif" font-size="14.00">EP300</text>
</g>
<!-- AKT1&#45;&gt;EP300 -->
<g id="edge2" class="edge">
<title>AKT1&#45;&gt;EP300</title>
<path fill="none" stroke="#8b1a1a" stroke-width="5" d="M277.07,-290.83C270.63,-282.48 262.27,-271.65 254.63,-261.75"/>
<polygon fill="#8b1a1a" stroke="#8b1a1a" stroke-width="5" points="258.29,-259.33 248.72,-254.08 251.37,-264.67 258.29,-259.33"/>
</g>
<!-- NUAK1 -->
<g id="node13" class="node">
<title>NUAK1</title>
<ellipse fill="none" stroke="#8b1a1a" stroke-width="2" cx="288" cy="-234" rx="18" ry="18"/>
<text xml:space="preserve" text-anchor="middle" x="288" y="-228.95" font-family="Times,serif" font-size="14.00">NUAK1</text>
</g>
<!-- AKT1&#45;&gt;NUAK1 -->
<g id="edge8" class="edge">
<title>AKT1&#45;&gt;NUAK1</title>
<path fill="none" stroke="#8b1a1a" stroke-width="5" d="M288,-287.34C288,-281.74 288,-275.36 288,-269.02"/>
<polygon fill="#8b1a1a" stroke="#8b1a1a" stroke-width="5" points="292.38,-269.14 288,-259.14 283.63,-269.14 292.38,-269.14"/>
</g>
<!-- MAP3K5 -->
<g id="node16" class="node">
<title>MAP3K5</title>
<ellipse fill="none" stroke="#104e8b" stroke-width="2" cx="342" cy="-234" rx="18" ry="18"/>
<text xml:space="preserve" text-anchor="middle" x="342" y="-228.95" font-family="Times,serif" font-size="14.00">MAP3K5</text>
</g>
<!-- AKT1&#45;&gt;MAP3K5 -->
<g id="edge10" class="edge">
<title>AKT1&#45;&gt;MAP3K5</title>
<path fill="none" stroke="#104e8b" stroke-width="5" d="M298.93,-290.83C306.98,-280.4 318.03,-266.07 326.92,-254.55"/>
<polygon fill="#104e8b" stroke="#104e8b" stroke-width="5" points="325.6,-248.07 333.52,-254.18 332.3,-255.76 324.38,-249.65 325.6,-248.07"/>
<polyline fill="none" stroke="#104e8b" stroke-width="5" points="330.17,-250.33 327.12,-254.29"/>
</g>
<!-- GATA1 -->
<g id="node18" class="node">
<title>GATA1</title>
<ellipse fill="none" stroke="#8b1a1a" stroke-width="2" cx="396" cy="-234" rx="18" ry="18"/>
<text xml:space="preserve" text-anchor="middle" x="396" y="-228.95" font-family="Times,serif" font-size="14.00">GATA1</text>
</g>
<!-- AKT1&#45;&gt;GATA1 -->
<g id="edge44" class="edge">
<title>AKT1&#45;&gt;GATA1</title>
<path fill="none" stroke="#8b1a1a" stroke-width="5" d="M303.02,-295.27C319.61,-284.51 346.71,-266.95 367.39,-253.55"/>
<polygon fill="#8b1a1a" stroke="#8b1a1a" stroke-width="5" points="369.52,-257.38 375.53,-248.27 364.76,-250.04 369.52,-257.38"/>
</g>
<!-- AKT1S1_DEPTOR_MLST8_MTOR_RPTOR -->
<g id="node46" class="node">
<title>AKT1S1_DEPTOR_MLST8_MTOR_RPTOR</title>
<ellipse fill="none" stroke="#8b1a1a" stroke-width="2" cx="450" cy="-234" rx="18" ry="18"/>
<text xml:space="preserve" text-anchor="middle" x="450" y="-228.95" font-family="Times,serif" font-size="14.00">AKT1S1_DEPTOR_MLST8_MTOR_RPTOR</text>
</g>
<!-- AKT1&#45;&gt;AKT1S1_DEPTOR_MLST8_MTOR_RPTOR -->
<g id="edge35" class="edge">
<title>AKT1&#45;&gt;AKT1S1_DEPTOR_MLST8_MTOR_RPTOR</title>
<path fill="none" stroke="#8b1a1a" stroke-width="5" d="M303.06,-294.63C306.86,-292.27 310.99,-289.89 315,-288 356.63,-268.31 374.06,-272.56 420.34,-252.17"/>
<polygon fill="#8b1a1a" stroke="#8b1a1a" stroke-width="5" points="422.07,-256.19 429.29,-248 418.38,-248.26 422.07,-256.19"/>
</g>
<!-- CTBP1 -->
<g id="node43" class="node">
<title>CTBP1</title>
<ellipse fill="none" stroke="#8b1a1a" stroke-width="2" cx="180" cy="-162" rx="18" ry="18"/>
<text xml:space="preserve" text-anchor="middle" x="180" y="-156.95" font-family="Times,serif" font-size="14.00">CTBP1</text>
</g>
<!-- PRKAA1&#45;&gt;CTBP1 -->
<g id="edge37" class="edge">
<title>PRKAA1&#45;&gt;CTBP1</title>
<path fill="none" stroke="#8b1a1a" stroke-width="5" d="M180,-215.34C180,-206.94 180,-196.77 180,-187.64"/>
<polygon fill="#8b1a1a" stroke="#8b1a1a" stroke-width="5" points="175,-183.4 185,-183.4 185,-185.4 175,-185.4 175,-183.4"/>
<polyline fill="none" stroke="#8b1a1a" stroke-width="5" points="180,-182.4 180,-187.4"/>
</g>
<!-- SMAD7 -->
<g id="node22" class="node">
<title>SMAD7</title>
<ellipse fill="none" stroke="#8b1a1a" stroke-width="2" cx="234" cy="-162" rx="18" ry="18"/>
<text xml:space="preserve" text-anchor="middle" x="234" y="-156.95" font-family="Times,serif" font-size="14.00">SMAD7</text>
</g>
<!-- EP300&#45;&gt;SMAD7 -->
<g id="edge16" class="edge">
<title>EP300&#45;&gt;SMAD7</title>
<path fill="none" stroke="#8b1a1a" stroke-width="5" d="M234,-215.34C234,-209.74 234,-203.36 234,-197.02"/>
<polygon fill="#8b1a1a" stroke="#8b1a1a" stroke-width="5" points="238.38,-197.14 234,-187.14 229.63,-197.14 238.38,-197.14"/>
</g>
<!-- SMURF2 -->
<g id="node4" class="node">
<title>SMURF2</title>
<ellipse fill="none" stroke="#8b1a1a" stroke-width="2" cx="234" cy="-90" rx="18" ry="18"/>
<text xml:space="preserve" text-anchor="middle" x="234" y="-84.95" font-family="Times,serif" font-size="14.00">SMURF2</text>
</g>
<!-- SMAD5 -->
<g id="node5" class="node">
<title>SMAD5</title>
<ellipse fill="none" stroke="#104e8b" stroke-width="2" cx="180" cy="-18" rx="18" ry="18"/>
<text xml:space="preserve" text-anchor="middle" x="180" y="-12.95" font-family="Times,serif" font-size="14.00">SMAD5</text>
</g>
<!-- SMURF2&#45;&gt;SMAD5 -->
<g id="edge3" class="edge">
<title>SMURF2&#45;&gt;SMAD5</title>
<path fill="none" stroke="#104e8b" stroke-width="5" d="M223.07,-74.83C215.02,-64.4 203.97,-50.07 195.08,-38.55"/>
<polygon fill="#104e8b" stroke="#104e8b" stroke-width="5" points="188.48,-38.18 196.4,-32.07 197.62,-33.65 189.7,-39.76 188.48,-38.18"/>
<polyline fill="none" stroke="#104e8b" stroke-width="5" points="191.83,-34.33 194.88,-38.29"/>
</g>
<!-- SMAD9 -->
<g id="node48" class="node">
<title>SMAD9</title>
<ellipse fill="none" stroke="#104e8b" stroke-width="2" cx="234" cy="-18" rx="18" ry="18"/>
<text xml:space="preserve" text-anchor="middle" x="234" y="-12.95" font-family="Times,serif" font-size="14.00">SMAD9</text>
</g>
<!-- SMURF2&#45;&gt;SMAD9 -->
<g id="edge39" class="edge">
<title>SMURF2&#45;&gt;SMAD9</title>
<path fill="none" stroke="#104e8b" stroke-width="5" d="M234,-71.34C234,-62.94 234,-52.77 234,-43.64"/>
<polygon fill="#104e8b" stroke="#104e8b" stroke-width="5" points="229,-39.4 239,-39.4 239,-41.4 229,-41.4 229,-39.4"/>
<polyline fill="none" stroke="#104e8b" stroke-width="5" points="234,-38.4 234,-43.4"/>
</g>
<!-- BMPR2 -->
<g id="node57" class="node">
<title>BMPR2</title>
<ellipse fill="none" stroke="#104e8b" stroke-width="2" cx="288" cy="-18" rx="18" ry="18"/>
<text xml:space="preserve" text-anchor="middle" x="288" y="-12.95" font-family="Times,serif" font-size="14.00">BMPR2</text>
</g>
<!-- SMURF2&#45;&gt;BMPR2 -->
<g id="edge55" class="edge">
<title>SMURF2&#45;&gt;BMPR2</title>
<path fill="none" stroke="#104e8b" stroke-width="5" d="M244.93,-74.83C252.98,-64.4 264.03,-50.07 272.92,-38.55"/>
<polygon fill="#104e8b" stroke="#104e8b" stroke-width="5" points="271.6,-32.07 279.52,-38.18 278.3,-39.76 270.38,-33.65 271.6,-32.07"/>
<polyline fill="none" stroke="#104e8b" stroke-width="5" points="276.17,-34.33 273.12,-38.29"/>
</g>
<!-- SRC -->
<g id="node6" class="node">
<title>SRC</title>
<ellipse fill="none" stroke="#8b1a1a" stroke-width="2" cx="396" cy="-450" rx="18" ry="18"/>
<text xml:space="preserve" text-anchor="middle" x="396" y="-444.95" font-family="Times,serif" font-size="14.00">SRC</text>
</g>
<!-- KIT -->
<g id="node7" class="node">
<title>KIT</title>
<ellipse fill="none" stroke="#8b1a1a" stroke-width="2" cx="288" cy="-378" rx="18" ry="18"/>
<text xml:space="preserve" text-anchor="middle" x="288" y="-372.95" font-family="Times,serif" font-size="14.00">KIT</text>
</g>
<!-- SRC&#45;&gt;KIT -->
<g id="edge4" class="edge">
<title>SRC&#45;&gt;KIT</title>
<path fill="none" stroke="#8b1a1a" stroke-width="5" d="M380.98,-439.27C364.39,-428.51 337.29,-410.95 316.61,-397.55"/>
<polygon fill="#8b1a1a" stroke="#8b1a1a" stroke-width="5" points="319.24,-394.04 308.47,-392.27 314.48,-401.38 319.24,-394.04"/>
</g>
<!-- PDPK1 -->
<g id="node8" class="node">
<title>PDPK1</title>
<ellipse fill="none" stroke="#8b1a1a" stroke-width="2" cx="342" cy="-378" rx="18" ry="18"/>
<text xml:space="preserve" text-anchor="middle" x="342" y="-372.95" font-family="Times,serif" font-size="14.00">PDPK1</text>
</g>
<!-- SRC&#45;&gt;PDPK1 -->
<g id="edge40" class="edge">
<title>SRC&#45;&gt;PDPK1</title>
<path fill="none" stroke="#8b1a1a" stroke-width="5" d="M385.07,-434.83C378.63,-426.48 370.27,-415.65 362.63,-405.75"/>
<polygon fill="#8b1a1a" stroke="#8b1a1a" stroke-width="5" points="366.29,-403.33 356.72,-398.08 359.37,-408.67 366.29,-403.33"/>
</g>
<!-- BDKRB2 -->
<g id="node28" class="node">
<title>BDKRB2</title>
<ellipse fill="none" stroke="#8b1a1a" stroke-width="2" cx="396" cy="-378" rx="18" ry="18"/>
<text xml:space="preserve" text-anchor="middle" x="396" y="-372.95" font-family="Times,serif" font-size="14.00">BDKRB2</text>
</g>
<!-- SRC&#45;&gt;BDKRB2 -->
<g id="edge21" class="edge">
<title>SRC&#45;&gt;BDKRB2</title>
<path fill="none" stroke="#8b1a1a" stroke-width="5" d="M396,-431.34C396,-425.74 396,-419.36 396,-413.02"/>
<polygon fill="#8b1a1a" stroke="#8b1a1a" stroke-width="5" points="400.38,-413.14 396,-403.14 391.63,-413.14 400.38,-413.14"/>
</g>
<!-- FERMT2 -->
<g id="node39" class="node">
<title>FERMT2</title>
<ellipse fill="none" stroke="#8b1a1a" stroke-width="2" cx="450" cy="-378" rx="18" ry="18"/>
<text xml:space="preserve" text-anchor="middle" x="450" y="-372.95" font-family="Times,serif" font-size="14.00">FERMT2</text>
</g>
<!-- SRC&#45;&gt;FERMT2 -->
<g id="edge29" class="edge">
<title>SRC&#45;&gt;FERMT2</title>
<path fill="none" stroke="#8b1a1a" stroke-width="5" d="M406.93,-434.83C413.37,-426.48 421.73,-415.65 429.37,-405.75"/>
<polygon fill="#8b1a1a" stroke="#8b1a1a" stroke-width="5" points="432.63,-408.67 435.28,-398.08 425.71,-403.33 432.63,-408.67"/>
</g>
<!-- SH3PXD2A -->
<g id="node58" class="node">
<title>SH3PXD2A</title>
<ellipse fill="none" stroke="#8b1a1a" stroke-width="2" cx="504" cy="-378" rx="18" ry="18"/>
<text xml:space="preserve" text-anchor="middle" x="504" y="-372.95" font-family="Times,serif" font-size="14.00">SH3PXD2A</text>
</g>
<!-- SRC&#45;&gt;SH3PXD2A -->
<g id="edge56" class="edge">
<title>SRC&#45;&gt;SH3PXD2A</title>
<path fill="none" stroke="#8b1a1a" stroke-width="5" d="M411.02,-439.27C427.61,-428.51 454.71,-410.95 475.39,-397.55"/>
<polygon fill="#8b1a1a" stroke="#8b1a1a" stroke-width="5" points="477.52,-401.38 483.53,-392.27 472.76,-394.04 477.52,-401.38"/>
</g>
<!-- PDPK1&#45;&gt;AKT1 -->
<g id="edge5" class="edge">
<title>PDPK1&#45;&gt;AKT1</title>
<path fill="none" stroke="#8b1a1a" stroke-width="5" d="M331.07,-362.83C324.63,-354.48 316.27,-343.65 308.63,-333.75"/>
<polygon fill="#8b1a1a" stroke="#8b1a1a" stroke-width="5" points="312.29,-331.33 302.72,-326.08 305.37,-336.67 312.29,-331.33"/>
</g>
<!-- OXTR -->
<g id="node47" class="node">
<title>OXTR</title>
<ellipse fill="none" stroke="#8b1a1a" stroke-width="2" cx="342" cy="-306" rx="18" ry="18"/>
<text xml:space="preserve" text-anchor="middle" x="342" y="-300.95" font-family="Times,serif" font-size="14.00">OXTR</text>
</g>
<!-- PDPK1&#45;&gt;OXTR -->
<g id="edge38" class="edge">
<title>PDPK1&#45;&gt;OXTR</title>
<path fill="none" stroke="#8b1a1a" stroke-width="5" d="M342,-359.34C342,-353.74 342,-347.36 342,-341.02"/>
<polygon fill="#8b1a1a" stroke="#8b1a1a" stroke-width="5" points="346.38,-341.14 342,-331.14 337.63,-341.14 346.38,-341.14"/>
</g>
<!-- TGFBR2 -->
<g id="node9" class="node">
<title>TGFBR2</title>
<ellipse fill="none" stroke="#8b1a1a" stroke-width="2" cx="531" cy="-666" rx="18" ry="18"/>
<text xml:space="preserve" text-anchor="middle" x="531" y="-660.95" font-family="Times,serif" font-size="14.00">TGFBR2</text>
</g>
<!-- TGFBR1 -->
<g id="node10" class="node">
<title>TGFBR1</title>
<ellipse fill="none" stroke="#8b1a1a" stroke-width="2" cx="504" cy="-594" rx="18" ry="18"/>
<text xml:space="preserve" text-anchor="middle" x="504" y="-588.95" font-family="Times,serif" font-size="14.00">TGFBR1</text>
</g>
<!-- TGFBR2&#45;&gt;TGFBR1 -->
<g id="edge6" class="edge">
<title>TGFBR2&#45;&gt;TGFBR1</title>
<path fill="none" stroke="#8b1a1a" stroke-width="5" d="M524.6,-648.41C522.08,-641.87 519.1,-634.14 516.19,-626.61"/>
<polygon fill="#8b1a1a" stroke="#8b1a1a" stroke-width="5" points="520.28,-625.04 512.6,-617.29 512.11,-628.19 520.28,-625.04"/>
</g>
<!-- ZFYVE9 -->
<g id="node24" class="node">
<title>ZFYVE9</title>
<ellipse fill="none" stroke="#8b1a1a" stroke-width="2" cx="558" cy="-594" rx="18" ry="18"/>
<text xml:space="preserve" text-anchor="middle" x="558" y="-588.95" font-family="Times,serif" font-size="14.00">ZFYVE9</text>
</g>
<!-- TGFBR2&#45;&gt;ZFYVE9 -->
<g id="edge17" class="edge">
<title>TGFBR2&#45;&gt;ZFYVE9</title>
<path fill="none" stroke="#8b1a1a" stroke-width="5" d="M537.4,-648.41C539.92,-641.87 542.9,-634.14 545.81,-626.61"/>
<polygon fill="#8b1a1a" stroke="#8b1a1a" stroke-width="5" points="549.89,-628.19 549.4,-617.29 541.72,-625.04 549.89,-628.19"/>
</g>
<!-- MAPK14 -->
<g id="node11" class="node">
<title>MAPK14</title>
<ellipse fill="none" stroke="#8b1a1a" stroke-width="2" cx="99" cy="-594" rx="18" ry="18"/>
<text xml:space="preserve" text-anchor="middle" x="99" y="-588.95" font-family="Times,serif" font-size="14.00">MAPK14</text>
</g>
<!-- SMAD3 -->
<g id="node12" class="node">
<title>SMAD3</title>
<ellipse fill="none" stroke="#8b1a1a" stroke-width="2" cx="18" cy="-522" rx="18" ry="18"/>
<text xml:space="preserve" text-anchor="middle" x="18" y="-516.95" font-family="Times,serif" font-size="14.00">SMAD3</text>
</g>
<!-- MAPK14&#45;&gt;SMAD3 -->
<g id="edge7" class="edge">
<title>MAPK14&#45;&gt;SMAD3</title>
<path fill="none" stroke="#8b1a1a" stroke-width="5" d="M85.26,-581.13C73.97,-571.37 57.66,-557.28 43.93,-545.41"/>
<polygon fill="#8b1a1a" stroke="#8b1a1a" stroke-width="5" points="46.95,-542.24 36.53,-539.01 41.23,-548.86 46.95,-542.24"/>
</g>
<!-- GSK3B -->
<g id="node25" class="node">
<title>GSK3B</title>
<ellipse fill="none" stroke="#104e8b" stroke-width="2" cx="72" cy="-522" rx="18" ry="18"/>
<text xml:space="preserve" text-anchor="middle" x="72" y="-516.95" font-family="Times,serif" font-size="14.00">GSK3B</text>
</g>
<!-- MAPK14&#45;&gt;GSK3B -->
<g id="edge49" class="edge">
<title>MAPK14&#45;&gt;GSK3B</title>
<path fill="none" stroke="#104e8b" stroke-width="5" d="M92.6,-576.41C89.07,-567.26 84.63,-555.76 80.78,-545.77"/>
<polygon fill="#104e8b" stroke="#104e8b" stroke-width="5" points="74.59,-543.6 83.92,-540 84.64,-541.87 75.31,-545.47 74.59,-543.6"/>
<polyline fill="none" stroke="#104e8b" stroke-width="5" points="78.89,-540.87 80.69,-545.53"/>
</g>
<!-- JUNB -->
<g id="node40" class="node">
<title>JUNB</title>
<ellipse fill="none" stroke="#8b1a1a" stroke-width="2" cx="126" cy="-522" rx="18" ry="18"/>
<text xml:space="preserve" text-anchor="middle" x="126" y="-516.95" font-family="Times,serif" font-size="14.00">JUNB</text>
</g>
<!-- MAPK14&#45;&gt;JUNB -->
<g id="edge30" class="edge">
<title>MAPK14&#45;&gt;JUNB</title>
<path fill="none" stroke="#8b1a1a" stroke-width="5" d="M105.4,-576.41C107.92,-569.87 110.9,-562.14 113.81,-554.61"/>
<polygon fill="#8b1a1a" stroke="#8b1a1a" stroke-width="5" points="117.89,-556.19 117.4,-545.29 109.72,-553.04 117.89,-556.19"/>
</g>
<!-- SMAD4 -->
<g id="node23" class="node">
<title>SMAD4</title>
<ellipse fill="none" stroke="#8b1a1a" stroke-width="2" cx="18" cy="-450" rx="18" ry="18"/>
<text xml:space="preserve" text-anchor="middle" x="18" y="-444.95" font-family="Times,serif" font-size="14.00">SMAD4</text>
</g>
<!-- SMAD3&#45;&gt;SMAD4 -->
<g id="edge15" class="edge">
<title>SMAD3&#45;&gt;SMAD4</title>
<path fill="none" stroke="#8b1a1a" stroke-width="5" d="M18,-503.34C18,-497.74 18,-491.36 18,-485.02"/>
<polygon fill="#8b1a1a" stroke="#8b1a1a" stroke-width="5" points="22.38,-485.14 18,-475.14 13.63,-485.14 22.38,-485.14"/>
</g>
<!-- ABL1 -->
<g id="node14" class="node">
<title>ABL1</title>
<ellipse fill="none" stroke="#8b1a1a" stroke-width="2" cx="180" cy="-594" rx="18" ry="18"/>
<text xml:space="preserve" text-anchor="middle" x="180" y="-588.95" font-family="Times,serif" font-size="14.00">ABL1</text>
</g>
<!-- RACK1 -->
<g id="node15" class="node">
<title>RACK1</title>
<ellipse fill="none" stroke="#8b1a1a" stroke-width="2" cx="180" cy="-522" rx="18" ry="18"/>
<text xml:space="preserve" text-anchor="middle" x="180" y="-516.95" font-family="Times,serif" font-size="14.00">RACK1</text>
</g>
<!-- ABL1&#45;&gt;RACK1 -->
<g id="edge9" class="edge">
<title>ABL1&#45;&gt;RACK1</title>
<path fill="none" stroke="#8b1a1a" stroke-width="5" d="M180,-575.34C180,-569.74 180,-563.36 180,-557.02"/>
<polygon fill="#8b1a1a" stroke="#8b1a1a" stroke-width="5" points="184.38,-557.14 180,-547.14 175.63,-557.14 184.38,-557.14"/>
</g>
<!-- CDK5 -->
<g id="node17" class="node">
<title>CDK5</title>
<ellipse fill="none" stroke="#8b1a1a" stroke-width="2" cx="396" cy="-522" rx="18" ry="18"/>
<text xml:space="preserve" text-anchor="middle" x="396" y="-516.95" font-family="Times,serif" font-size="14.00">CDK5</text>
</g>
<!-- ABL1&#45;&gt;CDK5 -->
<g id="edge11" class="edge">
<title>ABL1&#45;&gt;CDK5</title>
<path fill="none" stroke="#8b1a1a" stroke-width="5" d="M197.68,-587.27C233.84,-575.55 316.76,-548.68 363.11,-533.66"/>
<polygon fill="#8b1a1a" stroke="#8b1a1a" stroke-width="5" points="364.28,-537.88 372.45,-530.63 361.59,-529.55 364.28,-537.88"/>
</g>
<!-- PPP2CA -->
<g id="node41" class="node">
<title>PPP2CA</title>
<ellipse fill="none" stroke="#8b1a1a" stroke-width="2" cx="180" cy="-450" rx="18" ry="18"/>
<text xml:space="preserve" text-anchor="middle" x="180" y="-444.95" font-family="Times,serif" font-size="14.00">PPP2CA</text>
</g>
<!-- RACK1&#45;&gt;PPP2CA -->
<g id="edge51" class="edge">
<title>RACK1&#45;&gt;PPP2CA</title>
<path fill="none" stroke="#8b1a1a" stroke-width="5" d="M180,-503.34C180,-497.74 180,-491.36 180,-485.02"/>
<polygon fill="#8b1a1a" stroke="#8b1a1a" stroke-width="5" points="184.38,-485.14 180,-475.14 175.63,-485.14 184.38,-485.14"/>
</g>
<!-- CDK5&#45;&gt;SRC -->
<g id="edge52" class="edge">
<title>CDK5&#45;&gt;SRC</title>
<path fill="none" stroke="#8b1a1a" stroke-width="5" d="M396,-503.34C396,-497.74 396,-491.36 396,-485.02"/>
<polygon fill="#8b1a1a" stroke="#8b1a1a" stroke-width="5" points="400.38,-485.14 396,-475.14 391.63,-485.14 400.38,-485.14"/>
</g>
<!-- TLN1 -->
<g id="node34" class="node">
<title>TLN1</title>
<ellipse fill="none" stroke="#8b1a1a" stroke-width="2" cx="504" cy="-450" rx="18" ry="18"/>
<text xml:space="preserve" text-anchor="middle" x="504" y="-444.95" font-family="Times,serif" font-size="14.00">TLN1</text>
</g>
<!-- CDK5&#45;&gt;TLN1 -->
<g id="edge26" class="edge">
<title>CDK5&#45;&gt;TLN1</title>
<path fill="none" stroke="#8b1a1a" stroke-width="5" d="M411.02,-511.27C427.61,-500.51 454.71,-482.95 475.39,-469.55"/>
<polygon fill="#8b1a1a" stroke="#8b1a1a" stroke-width="5" points="477.52,-473.38 483.53,-464.27 472.76,-466.04 477.52,-473.38"/>
</g>
<!-- SPI1 -->
<g id="node19" class="node">
<title>SPI1</title>
<ellipse fill="none" stroke="#104e8b" stroke-width="2" cx="396" cy="-162" rx="18" ry="18"/>
<text xml:space="preserve" text-anchor="middle" x="396" y="-156.95" font-family="Times,serif" font-size="14.00">SPI1</text>
</g>
<!-- GATA1&#45;&gt;SPI1 -->
<g id="edge12" class="edge">
<title>GATA1&#45;&gt;SPI1</title>
<path fill="none" stroke="#104e8b" stroke-width="5" d="M396,-215.34C396,-206.94 396,-196.77 396,-187.64"/>
<polygon fill="#104e8b" stroke="#104e8b" stroke-width="5" points="391,-183.4 401,-183.4 401,-185.4 391,-185.4 391,-183.4"/>
<polyline fill="none" stroke="#104e8b" stroke-width="5" points="396,-182.4 396,-187.4"/>
</g>
<!-- SMAD2 -->
<g id="node20" class="node">
<title>SMAD2</title>
<ellipse fill="none" stroke="#8b1a1a" stroke-width="2" cx="558" cy="-522" rx="18" ry="18"/>
<text xml:space="preserve" text-anchor="middle" x="558" y="-516.95" font-family="Times,serif" font-size="14.00">SMAD2</text>
</g>
<!-- MEF2A -->
<g id="node21" class="node">
<title>MEF2A</title>
<ellipse fill="none" stroke="#8b1a1a" stroke-width="2" cx="558" cy="-450" rx="18" ry="18"/>
<text xml:space="preserve" text-anchor="middle" x="558" y="-444.95" font-family="Times,serif" font-size="14.00">MEF2A</text>
</g>
<!-- SMAD2&#45;&gt;MEF2A -->
<g id="edge13" class="edge">
<title>SMAD2&#45;&gt;MEF2A</title>
<path fill="none" stroke="#8b1a1a" stroke-width="5" d="M558,-503.34C558,-497.74 558,-491.36 558,-485.02"/>
<polygon fill="#8b1a1a" stroke="#8b1a1a" stroke-width="5" points="562.38,-485.14 558,-475.14 553.63,-485.14 562.38,-485.14"/>
</g>
<!-- SMAD7&#45;&gt;SMURF2 -->
<g id="edge14" class="edge">
<title>SMAD7&#45;&gt;SMURF2</title>
<path fill="none" stroke="#8b1a1a" stroke-width="5" d="M234,-143.34C234,-137.74 234,-131.36 234,-125.02"/>
<polygon fill="#8b1a1a" stroke="#8b1a1a" stroke-width="5" points="238.38,-125.14 234,-115.14 229.63,-125.14 238.38,-125.14"/>
</g>
<!-- ZFYVE9&#45;&gt;SMAD2 -->
<g id="edge20" class="edge">
<title>ZFYVE9&#45;&gt;SMAD2</title>
<path fill="none" stroke="#8b1a1a" stroke-width="5" d="M558,-575.34C558,-569.74 558,-563.36 558,-557.02"/>
<polygon fill="#8b1a1a" stroke="#8b1a1a" stroke-width="5" points="562.38,-557.14 558,-547.14 553.63,-557.14 562.38,-557.14"/>
</g>
<!-- MYOCD -->
<g id="node26" class="node">
<title>MYOCD</title>
<ellipse fill="none" stroke="#8b1a1a" stroke-width="2" cx="72" cy="-450" rx="18" ry="18"/>
<text xml:space="preserve" text-anchor="middle" x="72" y="-444.95" font-family="Times,serif" font-size="14.00">MYOCD</text>
</g>
<!-- GSK3B&#45;&gt;MYOCD -->
<g id="edge18" class="edge">
<title>GSK3B&#45;&gt;MYOCD</title>
<path fill="none" stroke="#8b1a1a" stroke-width="5" d="M72,-503.34C72,-494.94 72,-484.77 72,-475.64"/>
<polygon fill="#8b1a1a" stroke="#8b1a1a" stroke-width="5" points="67,-471.4 77,-471.4 77,-473.4 67,-473.4 67,-471.4"/>
<polyline fill="none" stroke="#8b1a1a" stroke-width="5" points="72,-470.4 72,-475.4"/>
</g>
<!-- CIITA -->
<g id="node49" class="node">
<title>CIITA</title>
<ellipse fill="none" stroke="#104e8b" stroke-width="2" cx="126" cy="-450" rx="18" ry="18"/>
<text xml:space="preserve" text-anchor="middle" x="126" y="-444.95" font-family="Times,serif" font-size="14.00">CIITA</text>
</g>
<!-- GSK3B&#45;&gt;CIITA -->
<g id="edge41" class="edge">
<title>GSK3B&#45;&gt;CIITA</title>
<path fill="none" stroke="#104e8b" stroke-width="5" d="M82.93,-506.83C89.37,-498.48 97.73,-487.65 105.37,-477.75"/>
<polygon fill="#104e8b" stroke="#104e8b" stroke-width="5" points="108.63,-480.67 111.28,-470.08 101.71,-475.33 108.63,-480.67"/>
</g>
<!-- SRF -->
<g id="node36" class="node">
<title>SRF</title>
<ellipse fill="none" stroke="#8b1a1a" stroke-width="2" cx="72" cy="-378" rx="18" ry="18"/>
<text xml:space="preserve" text-anchor="middle" x="72" y="-372.95" font-family="Times,serif" font-size="14.00">SRF</text>
</g>
<!-- MYOCD&#45;&gt;SRF -->
<g id="edge27" class="edge">
<title>MYOCD&#45;&gt;SRF</title>
<path fill="none" stroke="#8b1a1a" stroke-width="5" d="M72,-431.34C72,-425.74 72,-419.36 72,-413.02"/>
<polygon fill="#8b1a1a" stroke="#8b1a1a" stroke-width="5" points="76.38,-413.14 72,-403.14 67.63,-413.14 76.38,-413.14"/>
</g>
<!-- TGFB1 -->
<g id="node27" class="node">
<title>TGFB1</title>
<ellipse fill="none" stroke="#8b1a1a" stroke-width="2" cx="531" cy="-738" rx="18" ry="18"/>
<text xml:space="preserve" text-anchor="middle" x="531" y="-732.95" font-family="Times,serif" font-size="14.00">TGFB1</text>
</g>
<!-- TGFB1&#45;&gt;TGFBR2 -->
<g id="edge19" class="edge">
<title>TGFB1&#45;&gt;TGFBR2</title>
<path fill="none" stroke="#8b1a1a" stroke-width="5" d="M531,-719.34C531,-713.74 531,-707.36 531,-701.02"/>
<polygon fill="#8b1a1a" stroke="#8b1a1a" stroke-width="5" points="535.38,-701.14 531,-691.14 526.63,-701.14 535.38,-701.14"/>
</g>
<!-- GNAI1 -->
<g id="node45" class="node">
<title>GNAI1</title>
<ellipse fill="none" stroke="#8b1a1a" stroke-width="2" cx="396" cy="-306" rx="18" ry="18"/>
<text xml:space="preserve" text-anchor="middle" x="396" y="-300.95" font-family="Times,serif" font-size="14.00">GNAI1</text>
</g>
<!-- BDKRB2&#45;&gt;GNAI1 -->
<g id="edge34" class="edge">
<title>BDKRB2&#45;&gt;GNAI1</title>
<path fill="none" stroke="#8b1a1a" stroke-width="5" d="M396,-359.34C396,-353.74 396,-347.36 396,-341.02"/>
<polygon fill="#8b1a1a" stroke="#8b1a1a" stroke-width="5" points="400.38,-341.14 396,-331.14 391.63,-341.14 400.38,-341.14"/>
</g>
<!-- PRKCD -->
<g id="node29" class="node">
<title>PRKCD</title>
<ellipse fill="none" stroke="#104e8b" stroke-width="2" cx="126" cy="-378" rx="18" ry="18"/>
<text xml:space="preserve" text-anchor="middle" x="126" y="-372.95" font-family="Times,serif" font-size="14.00">PRKCD</text>
</g>
<!-- NFE2L2 -->
<g id="node30" class="node">
<title>NFE2L2</title>
<ellipse fill="none" stroke="#104e8b" stroke-width="2" cx="18" cy="-306" rx="18" ry="18"/>
<text xml:space="preserve" text-anchor="middle" x="18" y="-300.95" font-family="Times,serif" font-size="14.00">NFE2L2</text>
</g>
<!-- PRKCD&#45;&gt;NFE2L2 -->
<g id="edge22" class="edge">
<title>PRKCD&#45;&gt;NFE2L2</title>
<path fill="none" stroke="#104e8b" stroke-width="5" d="M110.98,-367.27C94.39,-356.51 67.29,-338.95 46.61,-325.55"/>
<polygon fill="#104e8b" stroke="#104e8b" stroke-width="5" points="49.24,-322.04 38.47,-320.27 44.48,-329.38 49.24,-322.04"/>
</g>
<!-- STAT1 -->
<g id="node31" class="node">
<title>STAT1</title>
<ellipse fill="none" stroke="#104e8b" stroke-width="2" cx="72" cy="-306" rx="18" ry="18"/>
<text xml:space="preserve" text-anchor="middle" x="72" y="-300.95" font-family="Times,serif" font-size="14.00">STAT1</text>
</g>
<!-- PRKCD&#45;&gt;STAT1 -->
<g id="edge23" class="edge">
<title>PRKCD&#45;&gt;STAT1</title>
<path fill="none" stroke="#104e8b" stroke-width="5" d="M115.07,-362.83C108.63,-354.48 100.27,-343.65 92.63,-333.75"/>
<polygon fill="#104e8b" stroke="#104e8b" stroke-width="5" points="96.29,-331.33 86.72,-326.08 89.37,-336.67 96.29,-331.33"/>
</g>
<!-- HMGA1 -->
<g id="node32" class="node">
<title>HMGA1</title>
<ellipse fill="none" stroke="#8b1a1a" stroke-width="2" cx="126" cy="-306" rx="18" ry="18"/>
<text xml:space="preserve" text-anchor="middle" x="126" y="-300.95" font-family="Times,serif" font-size="14.00">HMGA1</text>
</g>
<!-- PRKCD&#45;&gt;HMGA1 -->
<g id="edge36" class="edge">
<title>PRKCD&#45;&gt;HMGA1</title>
<path fill="none" stroke="#8b1a1a" stroke-width="5" d="M126,-359.34C126,-350.94 126,-340.77 126,-331.64"/>
<polygon fill="#8b1a1a" stroke="#8b1a1a" stroke-width="5" points="121,-327.4 131,-327.4 131,-329.4 121,-329.4 121,-327.4"/>
<polyline fill="none" stroke="#8b1a1a" stroke-width="5" points="126,-326.4 126,-331.4"/>
</g>
<!-- IRF2 -->
<g id="node42" class="node">
<title>IRF2</title>
<ellipse fill="none" stroke="#104e8b" stroke-width="2" cx="72" cy="-234" rx="18" ry="18"/>
<text xml:space="preserve" text-anchor="middle" x="72" y="-228.95" font-family="Times,serif" font-size="14.00">IRF2</text>
</g>
<!-- STAT1&#45;&gt;IRF2 -->
<g id="edge32" class="edge">
<title>STAT1&#45;&gt;IRF2</title>
<path fill="none" stroke="#104e8b" stroke-width="5" d="M72,-287.34C72,-281.74 72,-275.36 72,-269.02"/>
<polygon fill="#104e8b" stroke="#104e8b" stroke-width="5" points="76.38,-269.14 72,-259.14 67.63,-269.14 76.38,-269.14"/>
</g>
<!-- POU3F1 -->
<g id="node33" class="node">
<title>POU3F1</title>
<ellipse fill="none" stroke="#8b1a1a" stroke-width="2" cx="126" cy="-234" rx="18" ry="18"/>
<text xml:space="preserve" text-anchor="middle" x="126" y="-228.95" font-family="Times,serif" font-size="14.00">POU3F1</text>
</g>
<!-- HMGA1&#45;&gt;POU3F1 -->
<g id="edge24" class="edge">
<title>HMGA1&#45;&gt;POU3F1</title>
<path fill="none" stroke="#8b1a1a" stroke-width="5" d="M126,-287.34C126,-281.74 126,-275.36 126,-269.02"/>
<polygon fill="#8b1a1a" stroke="#8b1a1a" stroke-width="5" points="130.38,-269.14 126,-259.14 121.63,-269.14 130.38,-269.14"/>
</g>
<!-- ITGA2B_ITGB3 -->
<g id="node35" class="node">
<title>ITGA2B_ITGB3</title>
<ellipse fill="none" stroke="#8b1a1a" stroke-width="2" cx="558" cy="-378" rx="18" ry="18"/>
<text xml:space="preserve" text-anchor="middle" x="558" y="-372.95" font-family="Times,serif" font-size="14.00">ITGA2B_ITGB3</text>
</g>
<!-- TLN1&#45;&gt;ITGA2B_ITGB3 -->
<g id="edge25" class="edge">
<title>TLN1&#45;&gt;ITGA2B_ITGB3</title>
<path fill="none" stroke="#8b1a1a" stroke-width="5" d="M514.93,-434.83C521.37,-426.48 529.73,-415.65 537.37,-405.75"/>
<polygon fill="#8b1a1a" stroke="#8b1a1a" stroke-width="5" points="540.63,-408.67 543.28,-398.08 533.71,-403.33 540.63,-408.67"/>
</g>
<!-- FGG -->
<g id="node53" class="node">
<title>FGG</title>
<ellipse fill="none" stroke="#8b1a1a" stroke-width="2" cx="558" cy="-306" rx="18" ry="18"/>
<text xml:space="preserve" text-anchor="middle" x="558" y="-300.95" font-family="Times,serif" font-size="14.00">FGG</text>
</g>
<!-- ITGA2B_ITGB3&#45;&gt;FGG -->
<g id="edge47" class="edge">
<title>ITGA2B_ITGB3&#45;&gt;FGG</title>
<path fill="none" stroke="#8b1a1a" stroke-width="5" d="M558,-359.34C558,-353.74 558,-347.36 558,-341.02"/>
<polygon fill="#8b1a1a" stroke="#8b1a1a" stroke-width="5" points="562.38,-341.14 558,-331.14 553.63,-341.14 562.38,-341.14"/>
</g>
<!-- CDH2 -->
<g id="node37" class="node">
<title>CDH2</title>
<ellipse fill="none" stroke="#8b1a1a" stroke-width="2" cx="153" cy="-738" rx="18" ry="18"/>
<text xml:space="preserve" text-anchor="middle" x="153" y="-732.95" font-family="Times,serif" font-size="14.00">CDH2</text>
</g>
<!-- CDON -->
<g id="node38" class="node">
<title>CDON</title>
<ellipse fill="none" stroke="#8b1a1a" stroke-width="2" cx="153" cy="-666" rx="18" ry="18"/>
<text xml:space="preserve" text-anchor="middle" x="153" y="-660.95" font-family="Times,serif" font-size="14.00">CDON</text>
</g>
<!-- CDH2&#45;&gt;CDON -->
<g id="edge28" class="edge">
<title>CDH2&#45;&gt;CDON</title>
<path fill="none" stroke="#8b1a1a" stroke-width="5" d="M153,-719.34C153,-713.74 153,-707.36 153,-701.02"/>
<polygon fill="#8b1a1a" stroke="#8b1a1a" stroke-width="5" points="157.38,-701.14 153,-691.14 148.63,-701.14 157.38,-701.14"/>
</g>
<!-- CDON&#45;&gt;MAPK14 -->
<g id="edge53" class="edge">
<title>CDON&#45;&gt;MAPK14</title>
<path fill="none" stroke="#8b1a1a" stroke-width="5" d="M142.07,-650.83C135.63,-642.48 127.27,-631.65 119.63,-621.75"/>
<polygon fill="#8b1a1a" stroke="#8b1a1a" stroke-width="5" points="123.29,-619.33 113.72,-614.08 116.37,-624.67 123.29,-619.33"/>
</g>
<!-- CDON&#45;&gt;ABL1 -->
<g id="edge50" class="edge">
<title>CDON&#45;&gt;ABL1</title>
<path fill="none" stroke="#8b1a1a" stroke-width="5" d="M159.4,-648.41C161.92,-641.87 164.9,-634.14 167.81,-626.61"/>
<polygon fill="#8b1a1a" stroke="#8b1a1a" stroke-width="5" points="171.89,-628.19 171.4,-617.29 163.72,-625.04 171.89,-628.19"/>
</g>
<!-- PPP2CA&#45;&gt;PRKCD -->
<g id="edge31" class="edge">
<title>PPP2CA&#45;&gt;PRKCD</title>
<path fill="none" stroke="#104e8b" stroke-width="5" d="M169.07,-434.83C161.02,-424.4 149.97,-410.07 141.08,-398.55"/>
<polygon fill="#104e8b" stroke="#104e8b" stroke-width="5" points="134.48,-398.18 142.4,-392.07 143.62,-393.65 135.7,-399.76 134.48,-398.18"/>
<polyline fill="none" stroke="#104e8b" stroke-width="5" points="137.83,-394.33 140.88,-398.29"/>
</g>
<!-- MAPK1 -->
<g id="node51" class="node">
<title>MAPK1</title>
<ellipse fill="none" stroke="#104e8b" stroke-width="2" cx="180" cy="-378" rx="18" ry="18"/>
<text xml:space="preserve" text-anchor="middle" x="180" y="-372.95" font-family="Times,serif" font-size="14.00">MAPK1</text>
</g>
<!-- PPP2CA&#45;&gt;MAPK1 -->
<g id="edge43" class="edge">
<title>PPP2CA&#45;&gt;MAPK1</title>
<path fill="none" stroke="#104e8b" stroke-width="5" d="M180,-431.34C180,-422.94 180,-412.77 180,-403.64"/>
<polygon fill="#104e8b" stroke="#104e8b" stroke-width="5" points="175,-399.4 185,-399.4 185,-401.4 175,-401.4 175,-399.4"/>
<polyline fill="none" stroke="#104e8b" stroke-width="5" points="180,-398.4 180,-403.4"/>
</g>
<!-- IRF3 -->
<g id="node55" class="node">
<title>IRF3</title>
<ellipse fill="none" stroke="#104e8b" stroke-width="2" cx="234" cy="-378" rx="18" ry="18"/>
<text xml:space="preserve" text-anchor="middle" x="234" y="-372.95" font-family="Times,serif" font-size="14.00">IRF3</text>
</g>
<!-- PPP2CA&#45;&gt;IRF3 -->
<g id="edge48" class="edge">
<title>PPP2CA&#45;&gt;IRF3</title>
<path fill="none" stroke="#104e8b" stroke-width="5" d="M190.93,-434.83C198.98,-424.4 210.03,-410.07 218.92,-398.55"/>
<polygon fill="#104e8b" stroke="#104e8b" stroke-width="5" points="217.6,-392.07 225.52,-398.18 224.3,-399.76 216.38,-393.65 217.6,-392.07"/>
<polyline fill="none" stroke="#104e8b" stroke-width="5" points="222.17,-394.33 219.12,-398.29"/>
</g>
<!-- ZEB2 -->
<g id="node44" class="node">
<title>ZEB2</title>
<ellipse fill="none" stroke="#8b1a1a" stroke-width="2" cx="180" cy="-90" rx="18" ry="18"/>
<text xml:space="preserve" text-anchor="middle" x="180" y="-84.95" font-family="Times,serif" font-size="14.00">ZEB2</text>
</g>
<!-- CTBP1&#45;&gt;ZEB2 -->
<g id="edge33" class="edge">
<title>CTBP1&#45;&gt;ZEB2</title>
<path fill="none" stroke="#8b1a1a" stroke-width="5" d="M180,-143.34C180,-137.74 180,-131.36 180,-125.02"/>
<polygon fill="#8b1a1a" stroke="#8b1a1a" stroke-width="5" points="184.38,-125.14 180,-115.14 175.63,-125.14 184.38,-125.14"/>
</g>
<!-- ULK1 -->
<g id="node50" class="node">
<title>ULK1</title>
<ellipse fill="none" stroke="#104e8b" stroke-width="2" cx="450" cy="-162" rx="18" ry="18"/>
<text xml:space="preserve" text-anchor="middle" x="450" y="-156.95" font-family="Times,serif" font-size="14.00">ULK1</text>
</g>
<!-- AKT1S1_DEPTOR_MLST8_MTOR_RPTOR&#45;&gt;ULK1 -->
<g id="edge42" class="edge">
<title>AKT1S1_DEPTOR_MLST8_MTOR_RPTOR&#45;&gt;ULK1</title>
<path fill="none" stroke="#104e8b" stroke-width="5" d="M450,-215.34C450,-206.94 450,-196.77 450,-187.64"/>
<polygon fill="#104e8b" stroke="#104e8b" stroke-width="5" points="445,-183.4 455,-183.4 455,-185.4 445,-185.4 445,-183.4"/>
<polyline fill="none" stroke="#104e8b" stroke-width="5" points="450,-182.4 450,-187.4"/>
</g>
<!-- NRBF2 -->
<g id="node52" class="node">
<title>NRBF2</title>
<ellipse fill="none" stroke="#8b1a1a" stroke-width="2" cx="504" cy="-162" rx="18" ry="18"/>
<text xml:space="preserve" text-anchor="middle" x="504" y="-156.95" font-family="Times,serif" font-size="14.00">NRBF2</text>
</g>
<!-- AKT1S1_DEPTOR_MLST8_MTOR_RPTOR&#45;&gt;NRBF2 -->
<g id="edge45" class="edge">
<title>AKT1S1_DEPTOR_MLST8_MTOR_RPTOR&#45;&gt;NRBF2</title>
<path fill="none" stroke="#8b1a1a" stroke-width="5" d="M460.93,-218.83C467.37,-210.48 475.73,-199.65 483.37,-189.75"/>
<polygon fill="#8b1a1a" stroke="#8b1a1a" stroke-width="5" points="486.63,-192.67 489.28,-182.08 479.71,-187.33 486.63,-192.67"/>
</g>
<!-- RORA -->
<g id="node56" class="node">
<title>RORA</title>
<ellipse fill="none" stroke="#8b1a1a" stroke-width="2" cx="180" cy="-306" rx="18" ry="18"/>
<text xml:space="preserve" text-anchor="middle" x="180" y="-300.95" font-family="Times,serif" font-size="14.00">RORA</text>
</g>
<!-- MAPK1&#45;&gt;RORA -->
<g id="edge54" class="edge">
<title>MAPK1&#45;&gt;RORA</title>
<path fill="none" stroke="#8b1a1a" stroke-width="5" d="M180,-359.34C180,-350.94 180,-340.77 180,-331.64"/>
<polygon fill="#8b1a1a" stroke="#8b1a1a" stroke-width="5" points="175,-327.4 185,-327.4 185,-329.4 175,-329.4 175,-327.4"/>
<polyline fill="none" stroke="#8b1a1a" stroke-width="5" points="180,-326.4 180,-331.4"/>
</g>
<!-- FN1 -->
<g id="node54" class="node">
<title>FN1</title>
<ellipse fill="none" stroke="#104e8b" stroke-width="2" cx="558" cy="-234" rx="18" ry="18"/>
<text xml:space="preserve" text-anchor="middle" x="558" y="-228.95" font-family="Times,serif" font-size="14.00">FN1</text>
</g>
<!-- FGG&#45;&gt;FN1 -->
<g id="edge46" class="edge">
<title>FGG&#45;&gt;FN1</title>
<path fill="none" stroke="#104e8b" stroke-width="5" d="M558,-287.34C558,-278.94 558,-268.77 558,-259.64"/>
<polygon fill="#104e8b" stroke="#104e8b" stroke-width="5" points="553,-255.4 563,-255.4 563,-257.4 553,-257.4 553,-255.4"/>
<polyline fill="none" stroke="#104e8b" stroke-width="5" points="558,-254.4 558,-259.4"/>
</g>
<!-- e_3275_source -->
<g id="node59" class="node">
<title>e_3275_source</title>
<ellipse fill="black" stroke="black" cx="531" cy="-793.8" rx="1.8" ry="1.8"/>
</g>
<!-- e_3275_source&#45;&gt;TGFB1 -->
<g id="edge57" class="edge">
<title>e_3275_source&#45;&gt;TGFB1</title>
<path fill="none" stroke="#8b1a1a" stroke-width="5" d="M531,-791.87C531,-789.27 531,-781.56 531,-772.81"/>
<polygon fill="#8b1a1a" stroke="#8b1a1a" stroke-width="5" points="535.38,-773.04 531,-763.04 526.63,-773.04 535.38,-773.04"/>
</g>
<!-- e_3276_source -->
<g id="node60" class="node">
<title>e_3276_source</title>
<ellipse fill="black" stroke="black" cx="585" cy="-793.8" rx="1.8" ry="1.8"/>
</g>
<!-- IGF1 -->
<g id="node61" class="node">
<title>IGF1</title>
<ellipse fill="none" stroke="#8b1a1a" stroke-width="2" cx="585" cy="-738" rx="18" ry="18"/>
<text xml:space="preserve" text-anchor="middle" x="585" y="-732.95" font-family="Times,serif" font-size="14.00">IGF1</text>
</g>
<!-- e_3276_source&#45;&gt;IGF1 -->
<g id="edge58" class="edge">
<title>e_3276_source&#45;&gt;IGF1</title>
<path fill="none" stroke="#8b1a1a" stroke-width="5" d="M585,-791.87C585,-789.27 585,-781.56 585,-772.81"/>
<polygon fill="#8b1a1a" stroke="#8b1a1a" stroke-width="5" points="589.38,-773.04 585,-763.04 580.63,-773.04 589.38,-773.04"/>
</g>
<!-- e_3277_source -->
<g id="node62" class="node">
<title>e_3277_source</title>
<ellipse fill="black" stroke="black" cx="153" cy="-793.8" rx="1.8" ry="1.8"/>
</g>
<!-- e_3277_source&#45;&gt;CDH2 -->
<g id="edge59" class="edge">
<title>e_3277_source&#45;&gt;CDH2</title>
<path fill="none" stroke="#8b1a1a" stroke-width="5" d="M153,-791.87C153,-789.27 153,-781.56 153,-772.81"/>
<polygon fill="#8b1a1a" stroke="#8b1a1a" stroke-width="5" points="157.38,-773.04 153,-763.04 148.63,-773.04 157.38,-773.04"/>
</g>
</g>
</svg>