<?xml version="1.0" encoding="UTF-8" standalone="no"?>
<!DOCTYPE svg PUBLIC "-//W3C//DTD SVG 1.1//EN"
 "http://www.w3.org/Graphics/SVG/1.1/DTD/svg11.dtd">
<!-- Generated by graphviz version 2.43.0 (0)
 -->
<!-- Title: %3 Pages: 1 -->
<svg width="145pt" height="444pt"
 viewBox="0.00 0.00 145.42 443.60" xmlns="http://www.w3.org/2000/svg" xmlns:xlink="http://www.w3.org/1999/xlink">
<g id="graph0" class="graph" transform="scale(1 1) rotate(0) translate(4 439.6)">
<title>%3</title>
<polygon fill="white" stroke="transparent" points="-4,4 -4,-439.6 141.42,-439.6 141.42,4 -4,4"/>
<!-- v1 -->
<g id="node1" class="node">
<title>v1</title>
<ellipse fill="none" stroke="black" cx="71" cy="-345.6" rx="18" ry="18"/>
<text text-anchor="middle" x="71" y="-341.9" font-family="Times,serif" font-size="14.00">v1</text>
</g>
<!-- v2 -->
<g id="node2" class="node">
<title>v2</title>
<ellipse fill="none" stroke="black" cx="48" cy="-273.6" rx="18" ry="18"/>
<text text-anchor="middle" x="48" y="-269.9" font-family="Times,serif" font-size="14.00">v2</text>
</g>
<!-- v1&#45;&gt;v2 -->
<g id="edge1" class="edge">
<title>v1&#45;&gt;v2</title>
<path fill="none" stroke="black" d="M65.66,-328.36C62.97,-320.18 59.65,-310.05 56.61,-300.8"/>
<polygon fill="black" stroke="black" points="59.91,-299.64 53.46,-291.23 53.26,-301.83 59.91,-299.64"/>
</g>
<!-- v7 -->
<g id="node3" class="node">
<title>v7</title>
<ellipse fill="none" stroke="black" cx="19" cy="-57.6" rx="18" ry="18"/>
<text text-anchor="middle" x="19" y="-53.9" font-family="Times,serif" font-size="14.00">v7</text>
</g>
<!-- v1&#45;&gt;v7 -->
<g id="edge2" class="edge">
<title>v1&#45;&gt;v7</title>
<path fill="none" stroke="black" d="M57.12,-334.02C45.48,-324.32 29.43,-308.88 21,-291.6 -12.26,-223.44 2.12,-130.16 12.2,-85.1"/>
<polygon fill="black" stroke="black" points="15.64,-85.76 14.52,-75.23 8.83,-84.17 15.64,-85.76"/>
</g>
<!-- v4 -->
<g id="node5" class="node">
<title>v4</title>
<ellipse fill="none" stroke="black" cx="46" cy="-201.6" rx="18" ry="18"/>
<text text-anchor="middle" x="46" y="-197.9" font-family="Times,serif" font-size="14.00">v4</text>
</g>
<!-- v2&#45;&gt;v4 -->
<g id="edge4" class="edge">
<title>v2&#45;&gt;v4</title>
<path fill="none" stroke="black" d="M47.5,-255.3C47.28,-247.58 47.02,-238.31 46.77,-229.71"/>
<polygon fill="black" stroke="black" points="50.27,-229.6 46.49,-219.7 43.27,-229.8 50.27,-229.6"/>
</g>
<!-- v5 -->
<g id="node7" class="node">
<title>v5</title>
<ellipse fill="none" stroke="black" cx="100" cy="-201.6" rx="18" ry="18"/>
<text text-anchor="middle" x="100" y="-197.9" font-family="Times,serif" font-size="14.00">v5</text>
</g>
<!-- v2&#45;&gt;v5 -->
<g id="edge10" class="edge">
<title>v2&#45;&gt;v5</title>
<path fill="none" stroke="black" d="M58.27,-258.77C65.54,-248.99 75.42,-235.68 83.75,-224.47"/>
<polygon fill="black" stroke="black" points="86.59,-226.52 89.75,-216.4 80.97,-222.34 86.59,-226.52"/>
</g>
<!-- v7&#45;&gt;v2 -->
<g id="edge9" class="edge">
<title>v7&#45;&gt;v2</title>
<path fill="none" stroke="black" d="M16.24,-75.87C12.08,-105.73 5.98,-168.69 19,-219.6 21.7,-230.16 26.98,-240.88 32.31,-249.89"/>
<polygon fill="black" stroke="black" points="29.49,-251.97 37.77,-258.58 35.42,-248.25 29.49,-251.97"/>
</g>
<!-- e_13_target -->
<g id="node9" class="node">
<title>e_13_target</title>
<ellipse fill="black" stroke="black" cx="19" cy="-1.8" rx="1.8" ry="1.8"/>
</g>
<!-- v7&#45;&gt;e_13_target -->
<g id="edge14" class="edge">
<title>v7&#45;&gt;e_13_target</title>
<path fill="none" stroke="black" d="M19,-39.58C19,-31.17 19,-21.28 19,-13.87"/>
<polygon fill="black" stroke="black" points="22.5,-13.73 19,-3.73 15.5,-13.73 22.5,-13.73"/>
</g>
<!-- v3 -->
<g id="node4" class="node">
<title>v3</title>
<ellipse fill="none" stroke="black" cx="113" cy="-417.6" rx="18" ry="18"/>
<text text-anchor="middle" x="113" y="-413.9" font-family="Times,serif" font-size="14.00">v3</text>
</g>
<!-- v3&#45;&gt;v1 -->
<g id="edge3" class="edge">
<title>v3&#45;&gt;v1</title>
<path fill="none" stroke="black" d="M104.09,-401.75C98.58,-392.57 91.38,-380.57 85.1,-370.11"/>
<polygon fill="black" stroke="black" points="88.04,-368.2 79.89,-361.42 82.04,-371.8 88.04,-368.2"/>
</g>
<!-- v6 -->
<g id="node6" class="node">
<title>v6</title>
<ellipse fill="none" stroke="black" cx="94" cy="-129.6" rx="18" ry="18"/>
<text text-anchor="middle" x="94" y="-125.9" font-family="Times,serif" font-size="14.00">v6</text>
</g>
<!-- v3&#45;&gt;v6 -->
<g id="edge11" class="edge">
<title>v3&#45;&gt;v6</title>
<path fill="none" stroke="black" d="M117.68,-400.09C127.88,-361.38 149.44,-262.11 127,-183.6 123.79,-172.39 117.45,-161.23 111.18,-152.07"/>
<polygon fill="black" stroke="black" points="113.99,-150 105.29,-143.97 108.33,-154.11 113.99,-150"/>
</g>
<!-- v4&#45;&gt;v7 -->
<g id="edge6" class="edge">
<title>v4&#45;&gt;v7</title>
<path fill="none" stroke="black" d="M42.79,-183.75C38.17,-159.41 29.56,-114.17 24.07,-85.27"/>
<polygon fill="black" stroke="black" points="27.5,-84.6 22.2,-75.42 20.63,-85.9 27.5,-84.6"/>
</g>
<!-- v4&#45;&gt;v6 -->
<g id="edge5" class="edge">
<title>v4&#45;&gt;v6</title>
<path fill="none" stroke="black" d="M55.71,-186.43C62.13,-177.07 70.7,-164.58 78.1,-153.79"/>
<polygon fill="black" stroke="black" points="81.2,-155.45 83.97,-145.23 75.43,-151.49 81.2,-155.45"/>
</g>
<!-- v6&#45;&gt;v7 -->
<g id="edge8" class="edge">
<title>v6&#45;&gt;v7</title>
<path fill="none" stroke="black" d="M81.28,-116.73C69.75,-105.97 52.56,-89.93 39.16,-77.42"/>
<polygon fill="black" stroke="black" points="41.48,-74.8 31.78,-70.53 36.71,-79.91 41.48,-74.8"/>
</g>
<!-- v5&#45;&gt;v1 -->
<g id="edge12" class="edge">
<title>v5&#45;&gt;v1</title>
<path fill="none" stroke="black" d="M96.56,-219.42C91.59,-243.75 82.35,-289 76.45,-317.91"/>
<polygon fill="black" stroke="black" points="73.01,-317.25 74.44,-327.75 79.87,-318.66 73.01,-317.25"/>
</g>
<!-- v5&#45;&gt;v6 -->
<g id="edge7" class="edge">
<title>v5&#45;&gt;v6</title>
<path fill="none" stroke="black" d="M98.55,-183.65C97.88,-175.95 97.09,-166.63 96.34,-157.96"/>
<polygon fill="black" stroke="black" points="99.82,-157.54 95.48,-147.88 92.85,-158.14 99.82,-157.54"/>
</g>
<!-- e_12_source -->
<g id="node8" class="node">
<title>e_12_source</title>
<ellipse fill="black" stroke="black" cx="71" cy="-417.6" rx="1.8" ry="1.8"/>
</g>
<!-- e_12_source&#45;&gt;v1 -->
<g id="edge13" class="edge">
<title>e_12_source&#45;&gt;v1</title>
<path fill="none" stroke="black" d="M71,-415.61C71,-411.01 71,-391.24 71,-374.04"/>
<polygon fill="black" stroke="black" points="74.5,-373.81 71,-363.81 67.5,-373.81 74.5,-373.81"/>
</g>
</g>
</svg>