<?xml version="1.0" encoding="UTF-8" standalone="no"?>
<!DOCTYPE svg PUBLIC "-//W3C//DTD SVG 1.1//EN"
 "http://www.w3.org/Graphics/SVG/1.1/DTD/svg11.dtd">
<!-- Generated by graphviz version 2.43.0 (0)
 -->
<!-- Title: %3 Pages: 1 -->
<svg width="98pt" height="555pt"
 viewBox="0.00 0.00 98.00 555.20" xmlns="http://www.w3.org/2000/svg" xmlns:xlink="http://www.w3.org/1999/xlink">
<g id="graph0" class="graph" transform="scale(1 1) rotate(0) translate(4 551.2)">
<title>%3</title>
<polygon fill="white" stroke="transparent" points="-4,4 -4,-551.2 94,-551.2 94,4 -4,4"/>
<!-- I1 -->
<g id="node1" class="node">
<title>I1</title>
<ellipse fill="none" stroke="#8b1a1a" stroke-width="2" cx="18" cy="-345.6" rx="18" ry="18"/>
<text text-anchor="middle" x="18" y="-341.9" font-family="Times,serif" font-size="14.00">I1</text>
</g>
<!-- N1 -->
<g id="node2" class="node">
<title>N1</title>
<ellipse fill="none" stroke="black" cx="18" cy="-273.6" rx="18" ry="18"/>
<text text-anchor="middle" x="18" y="-269.9" font-family="Times,serif" font-size="14.00">N1</text>
</g>
<!-- I1&#45;&gt;N1 -->
<g id="edge1" class="edge">
<title>I1&#45;&gt;N1</title>
<path fill="none" stroke="black" stroke-width="0.25" d="M18,-327.3C18,-319.58 18,-310.31 18,-301.71"/>
<polygon fill="black" stroke="black" stroke-width="0.25" points="21.5,-301.7 18,-291.7 14.5,-301.7 21.5,-301.7"/>
</g>
<!-- M1 -->
<g id="node3" class="node">
<title>M1</title>
<ellipse fill="none" stroke="#8b1a1a" stroke-width="2" cx="18" cy="-201.6" rx="18" ry="18"/>
<text text-anchor="middle" x="18" y="-197.9" font-family="Times,serif" font-size="14.00">M1</text>
</g>
<!-- N1&#45;&gt;M1 -->
<g id="edge2" class="edge">
<title>N1&#45;&gt;M1</title>
<path fill="none" stroke="black" stroke-width="0.25" d="M18,-255.3C18,-247.58 18,-238.31 18,-229.71"/>
<polygon fill="black" stroke="black" stroke-width="0.25" points="21.5,-229.7 18,-219.7 14.5,-229.7 21.5,-229.7"/>
</g>
<!-- M2 -->
<g id="node4" class="node">
<title>M2</title>
<ellipse fill="none" stroke="#8b1a1a" stroke-width="2" cx="72" cy="-201.6" rx="18" ry="18"/>
<text text-anchor="middle" x="72" y="-197.9" font-family="Times,serif" font-size="14.00">M2</text>
</g>
<!-- N1&#45;&gt;M2 -->
<g id="edge3" class="edge">
<title>N1&#45;&gt;M2</title>
<path fill="none" stroke="black" stroke-width="0.25" d="M28.67,-258.77C36.21,-248.99 46.48,-235.68 55.13,-224.47"/>
<polygon fill="black" stroke="black" stroke-width="0.25" points="58.02,-226.46 61.35,-216.4 52.47,-222.18 58.02,-226.46"/>
</g>
<!-- _meas_c0 -->
<g id="node9" class="node">
<title>_meas_c0</title>
<ellipse fill="none" stroke="black" cx="45" cy="-129.6" rx="18" ry="18"/>
<text text-anchor="middle" x="45" y="-125.9" font-family="Times,serif" font-size="14.00">_meas_c0</text>
</g>
<!-- M1&#45;&gt;_meas_c0 -->
<g id="edge10" class="edge">
<title>M1&#45;&gt;_meas_c0</title>
<path fill="none" stroke="#8b1a1a" stroke-width="5" d="M24.26,-184.36C27.5,-175.97 31.53,-165.53 35.17,-156.1"/>
<polygon fill="#8b1a1a" stroke="#8b1a1a" stroke-width="5" points="39.25,-157.65 38.77,-146.75 31.09,-154.5 39.25,-157.65"/>
</g>
<!-- M2&#45;&gt;_meas_c0 -->
<g id="edge11" class="edge">
<title>M2&#45;&gt;_meas_c0</title>
<path fill="none" stroke="#8b1a1a" stroke-width="5" d="M65.74,-184.36C62.5,-175.97 58.47,-165.53 54.83,-156.1"/>
<polygon fill="#8b1a1a" stroke="#8b1a1a" stroke-width="5" points="58.91,-154.5 51.23,-146.75 50.75,-157.65 58.91,-154.5"/>
</g>
<!-- I2 -->
<g id="node5" class="node">
<title>I2</title>
<ellipse fill="none" stroke="#8b1a1a" stroke-width="2" cx="72" cy="-345.6" rx="18" ry="18"/>
<text text-anchor="middle" x="72" y="-341.9" font-family="Times,serif" font-size="14.00">I2</text>
</g>
<!-- N2 -->
<g id="node6" class="node">
<title>N2</title>
<ellipse fill="none" stroke="#104e8b" stroke-width="2" cx="72" cy="-273.6" rx="18" ry="18"/>
<text text-anchor="middle" x="72" y="-269.9" font-family="Times,serif" font-size="14.00">N2</text>
</g>
<!-- I2&#45;&gt;N2 -->
<g id="edge4" class="edge">
<title>I2&#45;&gt;N2</title>
<path fill="none" stroke="#104e8b" stroke-width="5" d="M72,-327.3C72,-318.06 72,-306.58 72,-296.71"/>
<polygon fill="#104e8b" stroke="#104e8b" stroke-width="5" points="67,-292.7 77,-292.7 77,-294.7 67,-294.7 67,-292.7"/>
<polyline fill="none" stroke="#104e8b" stroke-width="5" points="72,-291.7 72,-296.7 "/>
</g>
<!-- N2&#45;&gt;M1 -->
<g id="edge6" class="edge">
<title>N2&#45;&gt;M1</title>
<path fill="none" stroke="#8b1a1a" stroke-width="5" d="M61.33,-258.77C52.9,-247.84 41.06,-232.5 31.89,-220.61"/>
<polygon fill="#8b1a1a" stroke="#8b1a1a" stroke-width="5" points="25.3,-220.25 33.22,-214.14 34.44,-215.72 26.52,-221.83 25.3,-220.25"/>
<polyline fill="none" stroke="#8b1a1a" stroke-width="5" points="28.65,-216.4 31.7,-220.36 "/>
</g>
<!-- N2&#45;&gt;M2 -->
<g id="edge5" class="edge">
<title>N2&#45;&gt;M2</title>
<path fill="none" stroke="#8b1a1a" stroke-width="5" d="M72,-255.3C72,-246.06 72,-234.58 72,-224.71"/>
<polygon fill="#8b1a1a" stroke="#8b1a1a" stroke-width="5" points="67,-220.7 77,-220.7 77,-222.7 67,-222.7 67,-220.7"/>
<polyline fill="none" stroke="#8b1a1a" stroke-width="5" points="72,-219.7 72,-224.7 "/>
</g>
<!-- _s -->
<g id="node7" class="node">
<title>_s</title>
<ellipse fill="none" stroke="#8b1a1a" stroke-width="2" cx="45" cy="-489.6" rx="18" ry="18"/>
<text text-anchor="middle" x="45" y="-485.9" font-family="Times,serif" font-size="14.00">_s</text>
</g>
<!-- _pert_c0 -->
<g id="node8" class="node">
<title>_pert_c0</title>
<ellipse fill="none" stroke="#8b1a1a" stroke-width="2" cx="45" cy="-417.6" rx="18" ry="18"/>
<text text-anchor="middle" x="45" y="-413.9" font-family="Times,serif" font-size="14.00">_pert_c0</text>
</g>
<!-- _s&#45;&gt;_pert_c0 -->
<g id="edge7" class="edge">
<title>_s&#45;&gt;_pert_c0</title>
<path fill="none" stroke="#8b1a1a" stroke-width="5" d="M45,-471.3C45,-463.58 45,-454.31 45,-445.71"/>
<polygon fill="#8b1a1a" stroke="#8b1a1a" stroke-width="5" points="49.38,-445.7 45,-435.7 40.63,-445.7 49.38,-445.7"/>
</g>
<!-- _pert_c0&#45;&gt;I1 -->
<g id="edge8" class="edge">
<title>_pert_c0&#45;&gt;I1</title>
<path fill="none" stroke="#8b1a1a" stroke-width="5" d="M38.74,-400.36C35.5,-391.97 31.47,-381.53 27.83,-372.1"/>
<polygon fill="#8b1a1a" stroke="#8b1a1a" stroke-width="5" points="31.91,-370.5 24.23,-362.75 23.75,-373.65 31.91,-370.5"/>
</g>
<!-- _pert_c0&#45;&gt;I2 -->
<g id="edge9" class="edge">
<title>_pert_c0&#45;&gt;I2</title>
<path fill="none" stroke="#8b1a1a" stroke-width="5" d="M51.26,-400.36C54.5,-391.97 58.53,-381.53 62.17,-372.1"/>
<polygon fill="#8b1a1a" stroke="#8b1a1a" stroke-width="5" points="66.25,-373.65 65.77,-362.75 58.09,-370.5 66.25,-373.65"/>
</g>
<!-- _t -->
<g id="node10" class="node">
<title>_t</title>
<ellipse fill="none" stroke="black" cx="45" cy="-57.6" rx="18" ry="18"/>
<text text-anchor="middle" x="45" y="-53.9" font-family="Times,serif" font-size="14.00">_t</text>
</g>
<!-- _meas_c0&#45;&gt;_t -->
<g id="edge12" class="edge">
<title>_meas_c0&#45;&gt;_t</title>
<path fill="none" stroke="black" stroke-width="0.25" d="M45,-111.3C45,-103.58 45,-94.31 45,-85.71"/>
<polygon fill="black" stroke="black" stroke-width="0.25" points="48.5,-85.7 45,-75.7 41.5,-85.7 48.5,-85.7"/>
</g>
<!-- e_13_target -->
<g id="node12" class="node">
<title>e_13_target</title>
<ellipse fill="black" stroke="black" cx="45" cy="-1.8" rx="1.8" ry="1.8"/>
</g>
<!-- _t&#45;&gt;e_13_target -->
<g id="edge14" class="edge">
<title>_t&#45;&gt;e_13_target</title>
<path fill="none" stroke="black" stroke-width="0.25" d="M45,-39.58C45,-31.17 45,-21.28 45,-13.87"/>
<polygon fill="black" stroke="black" stroke-width="0.25" points="48.5,-13.73 45,-3.73 41.5,-13.73 48.5,-13.73"/>
</g>
<!-- e_12_source -->
<g id="node11" class="node">
<title>e_12_source</title>
<ellipse fill="black" stroke="black" cx="45" cy="-545.4" rx="1.8" ry="1.8"/>
</g>
<!-- e_12_source&#45;&gt;_s -->
<g id="edge13" class="edge">
<title>e_12_source&#45;&gt;_s</title>
<path fill="none" stroke="#8b1a1a" stroke-width="5" d="M45,-543.47C45,-540.24 45,-529.15 45,-517.95"/>
<polygon fill="#8b1a1a" stroke="#8b1a1a" stroke-width="5" points="49.38,-517.86 45,-507.86 40.63,-517.86 49.38,-517.86"/>
</g>
</g>
</svg>