<?xml version="1.0" encoding="UTF-8" standalone="no"?>
<!DOCTYPE svg PUBLIC "-//W3C//DTD SVG 1.1//EN"
 "http://www.w3.org/Graphics/SVG/1.1/DTD/svg11.dtd">
<!-- Generated by graphviz version 10.0.1 (20240210.2158)
 -->
<!-- Pages: 1 -->
<svg width="98pt" height="332pt"
 viewBox="0.00 0.00 98.00 332.00" xmlns="http://www.w3.org/2000/svg" xmlns:xlink="http://www.w3.org/1999/xlink">
<g id="graph0" class="graph" transform="scale(1 1) rotate(0) translate(4 328)">
<polygon fill="white" stroke="none" points="-4,4 -4,-328 94,-328 94,4 -4,4"/>
<!-- A -->
<g id="node1" class="node">
<title>A</title>
<ellipse fill="none" stroke="black" cx="45" cy="-306" rx="18" ry="18"/>
<text text-anchor="middle" x="45" y="-300.57" font-family="Times New Roman,serif" font-size="14.00">A</text>
</g>
<!-- B -->
<g id="node2" class="node">
<title>B</title>
<ellipse fill="none" stroke="black" cx="18" cy="-234" rx="18" ry="18"/>
<text text-anchor="middle" x="18" y="-228.57" font-family="Times New Roman,serif" font-size="14.00">B</text>
</g>
<!-- A&#45;&gt;B -->
<g id="edge1" class="edge">
<title>A&#45;&gt;B</title>
<path fill="none" stroke="black" d="M38.74,-288.76C35.64,-280.72 31.81,-270.81 28.3,-261.69"/>
<polygon fill="black" stroke="black" points="31.64,-260.63 24.77,-252.56 25.11,-263.15 31.64,-260.63"/>
</g>
<!-- C -->
<g id="node3" class="node">
<title>C</title>
<ellipse fill="none" stroke="black" cx="72" cy="-234" rx="18" ry="18"/>
<text text-anchor="middle" x="72" y="-228.57" font-family="Times New Roman,serif" font-size="14.00">C</text>
</g>
<!-- A&#45;&gt;C -->
<g id="edge2" class="edge">
<title>A&#45;&gt;C</title>
<path fill="none" stroke="black" d="M51.26,-288.76C54.36,-280.72 58.19,-270.81 61.7,-261.69"/>
<polygon fill="black" stroke="black" points="64.89,-263.15 65.23,-252.56 58.36,-260.63 64.89,-263.15"/>
</g>
<!-- D -->
<g id="node4" class="node">
<title>D</title>
<ellipse fill="none" stroke="black" cx="18" cy="-162" rx="18" ry="18"/>
<text text-anchor="middle" x="18" y="-156.57" font-family="Times New Roman,serif" font-size="14.00">D</text>
</g>
<!-- B&#45;&gt;D -->
<g id="edge3" class="edge">
<title>B&#45;&gt;D</title>
<path fill="none" stroke="black" d="M18,-215.7C18,-208.41 18,-199.73 18,-191.54"/>
<polygon fill="black" stroke="black" points="21.5,-191.62 18,-181.62 14.5,-191.62 21.5,-191.62"/>
</g>
<!-- E -->
<g id="node5" class="node">
<title>E</title>
<ellipse fill="none" stroke="black" cx="72" cy="-162" rx="18" ry="18"/>
<text text-anchor="middle" x="72" y="-156.57" font-family="Times New Roman,serif" font-size="14.00">E</text>
</g>
<!-- C&#45;&gt;E -->
<g id="edge4" class="edge">
<title>C&#45;&gt;E</title>
<path fill="none" stroke="black" d="M72,-215.7C72,-208.41 72,-199.73 72,-191.54"/>
<polygon fill="black" stroke="black" points="75.5,-191.62 72,-181.62 68.5,-191.62 75.5,-191.62"/>
</g>
<!-- F -->
<g id="node6" class="node">
<title>F</title>
<ellipse fill="none" stroke="black" cx="45" cy="-90" rx="18" ry="18"/>
<text text-anchor="middle" x="45" y="-84.58" font-family="Times New Roman,serif" font-size="14.00">F</text>
</g>
<!-- D&#45;&gt;F -->
<g id="edge6" class="edge">
<title>D&#45;&gt;F</title>
<path fill="none" stroke="black" d="M24.26,-144.76C27.36,-136.72 31.19,-126.81 34.7,-117.69"/>
<polygon fill="black" stroke="black" points="37.89,-119.15 38.23,-108.56 31.36,-116.63 37.89,-119.15"/>
</g>
<!-- E&#45;&gt;F -->
<g id="edge5" class="edge">
<title>E&#45;&gt;F</title>
<path fill="none" stroke="black" d="M65.74,-144.76C62.64,-136.72 58.81,-126.81 55.3,-117.69"/>
<polygon fill="black" stroke="black" points="58.64,-116.63 51.77,-108.56 52.11,-119.15 58.64,-116.63"/>
</g>
<!-- G -->
<g id="node7" class="node">
<title>G</title>
<ellipse fill="none" stroke="black" cx="45" cy="-18" rx="18" ry="18"/>
<text text-anchor="middle" x="45" y="-12.57" font-family="Times New Roman,serif" font-size="14.00">G</text>
</g>
<!-- F&#45;&gt;G -->
<g id="edge7" class="edge">
<title>F&#45;&gt;G</title>
<path fill="none" stroke="black" d="M45,-71.7C45,-64.41 45,-55.73 45,-47.54"/>
<polygon fill="black" stroke="black" points="48.5,-47.62 45,-37.62 41.5,-47.62 48.5,-47.62"/>
</g>
</g>
</svg>