<?xml version="1.0" encoding="UTF-8" standalone="no"?>
<!DOCTYPE svg PUBLIC "-//W3C//DTD SVG 1.1//EN"
 "http://www.w3.org/Graphics/SVG/1.1/DTD/svg11.dtd">
<!-- Generated by graphviz version 10.0.1 (20240210.2158)
 -->
<!-- Pages: 1 -->
<svg width="368pt" height="260pt"
 viewBox="0.00 0.00 368.00 260.00" xmlns="http://www.w3.org/2000/svg" xmlns:xlink="http://www.w3.org/1999/xlink">
<g id="graph0" class="graph" transform="scale(1 1) rotate(0) translate(4 256)">
<polygon fill="white" stroke="none" points="-4,4 -4,-256 364,-256 364,4 -4,4"/>
<!-- 2 -->
<g id="node1" class="node">
<title>2</title>
<ellipse fill="none" stroke="black" cx="288" cy="-162" rx="18" ry="18"/>
<text text-anchor="middle" x="288" y="-156.57" font-family="Times New Roman,serif" font-size="14.00">2</text>
</g>
<!-- 30 -->
<g id="node2" class="node">
<title>30</title>
<ellipse fill="none" stroke="black" cx="288" cy="-90" rx="18" ry="18"/>
<text text-anchor="middle" x="288" y="-84.58" font-family="Times New Roman,serif" font-size="14.00">30</text>
</g>
<!-- 2&#45;&gt;30 -->
<g id="edge1" class="edge">
<title>2&#45;&gt;30</title>
<path fill="none" stroke="black" d="M288,-143.7C288,-132.85 288,-118.92 288,-108.1"/>
</g>
<!-- 46 -->
<g id="node3" class="node">
<title>46</title>
<ellipse fill="none" stroke="black" cx="72" cy="-162" rx="18" ry="18"/>
<text text-anchor="middle" x="72" y="-156.57" font-family="Times New Roman,serif" font-size="14.00">46</text>
</g>
<!-- 47 -->
<g id="node4" class="node">
<title>47</title>
<ellipse fill="none" stroke="black" cx="72" cy="-90" rx="18" ry="18"/>
<text text-anchor="middle" x="72" y="-84.58" font-family="Times New Roman,serif" font-size="14.00">47</text>
</g>
<!-- 46&#45;&gt;47 -->
<g id="edge2" class="edge">
<title>46&#45;&gt;47</title>
<path fill="none" stroke="black" d="M72,-143.7C72,-132.85 72,-118.92 72,-108.1"/>
</g>
<!-- 9 -->
<g id="node5" class="node">
<title>9</title>
<ellipse fill="none" stroke="black" cx="126" cy="-234" rx="18" ry="18"/>
<text text-anchor="middle" x="126" y="-228.57" font-family="Times New Roman,serif" font-size="14.00">9</text>
</g>
<!-- 23 -->
<g id="node6" class="node">
<title>23</title>
<ellipse fill="none" stroke="black" cx="234" cy="-162" rx="18" ry="18"/>
<text text-anchor="middle" x="234" y="-156.57" font-family="Times New Roman,serif" font-size="14.00">23</text>
</g>
<!-- 9&#45;&gt;23 -->
<g id="edge3" class="edge">
<title>9&#45;&gt;23</title>
<path fill="none" stroke="black" d="M141.02,-223.27C161.65,-209.89 198.54,-185.98 219.11,-172.65"/>
</g>
<!-- 34 -->
<g id="node7" class="node">
<title>34</title>
<ellipse fill="none" stroke="black" cx="18" cy="-162" rx="18" ry="18"/>
<text text-anchor="middle" x="18" y="-156.57" font-family="Times New Roman,serif" font-size="14.00">34</text>
</g>
<!-- 9&#45;&gt;34 -->
<g id="edge4" class="edge">
<title>9&#45;&gt;34</title>
<path fill="none" stroke="black" d="M110.98,-223.27C90.35,-209.89 53.46,-185.98 32.89,-172.65"/>
</g>
<!-- 23&#45;&gt;30 -->
<g id="edge10" class="edge">
<title>23&#45;&gt;30</title>
<path fill="none" stroke="black" d="M244.67,-147.17C254.14,-134.9 267.89,-117.06 277.35,-104.8"/>
</g>
<!-- 33 -->
<g id="node9" class="node">
<title>33</title>
<ellipse fill="none" stroke="black" cx="126" cy="-90" rx="18" ry="18"/>
<text text-anchor="middle" x="126" y="-84.58" font-family="Times New Roman,serif" font-size="14.00">33</text>
</g>
<!-- 23&#45;&gt;33 -->
<g id="edge11" class="edge">
<title>23&#45;&gt;33</title>
<path fill="none" stroke="black" d="M218.98,-151.27C198.35,-137.89 161.46,-113.98 140.89,-100.65"/>
</g>
<!-- 34&#45;&gt;47 -->
<g id="edge15" class="edge">
<title>34&#45;&gt;47</title>
<path fill="none" stroke="black" d="M28.67,-147.17C38.14,-134.9 51.89,-117.06 61.35,-104.8"/>
</g>
<!-- 41 -->
<g id="node17" class="node">
<title>41</title>
<ellipse fill="none" stroke="black" cx="18" cy="-90" rx="18" ry="18"/>
<text text-anchor="middle" x="18" y="-84.58" font-family="Times New Roman,serif" font-size="14.00">41</text>
</g>
<!-- 34&#45;&gt;41 -->
<g id="edge14" class="edge">
<title>34&#45;&gt;41</title>
<path fill="none" stroke="black" d="M18,-143.7C18,-132.85 18,-118.92 18,-108.1"/>
</g>
<!-- 14 -->
<g id="node8" class="node">
<title>14</title>
<ellipse fill="none" stroke="black" cx="126" cy="-162" rx="18" ry="18"/>
<text text-anchor="middle" x="126" y="-156.57" font-family="Times New Roman,serif" font-size="14.00">14</text>
</g>
<!-- 14&#45;&gt;33 -->
<g id="edge5" class="edge">
<title>14&#45;&gt;33</title>
<path fill="none" stroke="black" d="M126,-143.7C126,-132.85 126,-118.92 126,-108.1"/>
</g>
<!-- 17 -->
<g id="node10" class="node">
<title>17</title>
<ellipse fill="none" stroke="black" cx="180" cy="-90" rx="18" ry="18"/>
<text text-anchor="middle" x="180" y="-84.58" font-family="Times New Roman,serif" font-size="14.00">17</text>
</g>
<!-- 20 -->
<g id="node11" class="node">
<title>20</title>
<ellipse fill="none" stroke="black" cx="180" cy="-18" rx="18" ry="18"/>
<text text-anchor="middle" x="180" y="-12.57" font-family="Times New Roman,serif" font-size="14.00">20</text>
</g>
<!-- 17&#45;&gt;20 -->
<g id="edge6" class="edge">
<title>17&#45;&gt;20</title>
<path fill="none" stroke="black" d="M180,-71.7C180,-60.85 180,-46.92 180,-36.1"/>
</g>
<!-- 42 -->
<g id="node12" class="node">
<title>42</title>
<ellipse fill="none" stroke="black" cx="234" cy="-18" rx="18" ry="18"/>
<text text-anchor="middle" x="234" y="-12.57" font-family="Times New Roman,serif" font-size="14.00">42</text>
</g>
<!-- 17&#45;&gt;42 -->
<g id="edge7" class="edge">
<title>17&#45;&gt;42</title>
<path fill="none" stroke="black" d="M190.67,-75.17C200.14,-62.9 213.89,-45.06 223.35,-32.8"/>
</g>
<!-- 18 -->
<g id="node13" class="node">
<title>18</title>
<ellipse fill="none" stroke="black" cx="342" cy="-162" rx="18" ry="18"/>
<text text-anchor="middle" x="342" y="-156.57" font-family="Times New Roman,serif" font-size="14.00">18</text>
</g>
<!-- 18&#45;&gt;30 -->
<g id="edge8" class="edge">
<title>18&#45;&gt;30</title>
<path fill="none" stroke="black" d="M331.33,-147.17C321.86,-134.9 308.11,-117.06 298.65,-104.8"/>
</g>
<!-- 48 -->
<g id="node14" class="node">
<title>48</title>
<ellipse fill="none" stroke="black" cx="342" cy="-90" rx="18" ry="18"/>
<text text-anchor="middle" x="342" y="-84.58" font-family="Times New Roman,serif" font-size="14.00">48</text>
</g>
<!-- 18&#45;&gt;48 -->
<g id="edge9" class="edge">
<title>18&#45;&gt;48</title>
<path fill="none" stroke="black" d="M342,-143.7C342,-132.85 342,-118.92 342,-108.1"/>
</g>
<!-- 25 -->
<g id="node15" class="node">
<title>25</title>
<ellipse fill="none" stroke="black" cx="180" cy="-162" rx="18" ry="18"/>
<text text-anchor="middle" x="180" y="-156.57" font-family="Times New Roman,serif" font-size="14.00">25</text>
</g>
<!-- 25&#45;&gt;33 -->
<g id="edge12" class="edge">
<title>25&#45;&gt;33</title>
<path fill="none" stroke="black" d="M169.33,-147.17C159.86,-134.9 146.11,-117.06 136.65,-104.8"/>
</g>
<!-- 35 -->
<g id="node16" class="node">
<title>35</title>
<ellipse fill="none" stroke="black" cx="234" cy="-90" rx="18" ry="18"/>
<text text-anchor="middle" x="234" y="-84.58" font-family="Times New Roman,serif" font-size="14.00">35</text>
</g>
<!-- 25&#45;&gt;35 -->
<g id="edge13" class="edge">
<title>25&#45;&gt;35</title>
<path fill="none" stroke="black" d="M190.67,-147.17C200.14,-134.9 213.89,-117.06 223.35,-104.8"/>
</g>
<!-- 35&#45;&gt;42 -->
<g id="edge16" class="edge">
<title>35&#45;&gt;42</title>
<path fill="none" stroke="black" d="M234,-71.7C234,-60.85 234,-46.92 234,-36.1"/>
</g>
</g>
</svg>