<?xml version="1.0" encoding="UTF-8" standalone="no"?>
<!DOCTYPE svg PUBLIC "-//W3C//DTD SVG 1.1//EN"
 "http://www.w3.org/Graphics/SVG/1.1/DTD/svg11.dtd">
<!-- Generated by graphviz version 10.0.1 (20240210.2158)
 -->
<!-- Pages: 1 -->
<svg width="67pt" height="260pt"
 viewBox="0.00 0.00 67.00 260.00" xmlns="http://www.w3.org/2000/svg" xmlns:xlink="http://www.w3.org/1999/xlink">
<g id="graph0" class="graph" transform="scale(1 1) rotate(0) translate(4 256)">
<polygon fill="white" stroke="none" points="-4,4 -4,-256 63,-256 63,4 -4,4"/>
<!-- 1 -->
<g id="node1" class="node">
<title>1</title>
<ellipse fill="none" stroke="black" cx="41" cy="-234" rx="18" ry="18"/>
<text text-anchor="middle" x="41" y="-228.57" font-family="Times New Roman,serif" font-size="14.00">1</text>
</g>
<!-- 2 -->
<g id="node2" class="node">
<title>2</title>
<ellipse fill="none" stroke="black" cx="18" cy="-162" rx="18" ry="18"/>
<text text-anchor="middle" x="18" y="-156.57" font-family="Times New Roman,serif" font-size="14.00">2</text>
</g>
<!-- 1&#45;&gt;2 -->
<g id="edge1" class="edge">
<title>1&#45;&gt;2</title>
<path fill="none" stroke="black" d="M35.55,-216.41C32.97,-208.57 29.83,-198.99 26.91,-190.13"/>
<polygon fill="black" stroke="black" points="30.33,-189.32 23.88,-180.91 23.68,-191.5 30.33,-189.32"/>
</g>
<!-- 3 -->
<g id="node3" class="node">
<title>3</title>
<ellipse fill="none" stroke="black" cx="41" cy="-90" rx="18" ry="18"/>
<text text-anchor="middle" x="41" y="-84.58" font-family="Times New Roman,serif" font-size="14.00">3</text>
</g>
<!-- 1&#45;&gt;3 -->
<g id="edge3" class="edge">
<title>1&#45;&gt;3</title>
<path fill="none" stroke="black" d="M42.62,-215.83C43.52,-205.47 44.55,-191.99 45,-180 45.6,-164.01 45.6,-159.99 45,-144 44.7,-136.04 44.15,-127.42 43.55,-119.49"/>
<polygon fill="black" stroke="black" points="47.05,-119.36 42.75,-109.68 40.07,-119.93 47.05,-119.36"/>
</g>
<!-- 2&#45;&gt;3 -->
<g id="edge2" class="edge">
<title>2&#45;&gt;3</title>
<path fill="none" stroke="black" d="M23.45,-144.41C26.03,-136.57 29.17,-126.99 32.09,-118.13"/>
<polygon fill="black" stroke="black" points="35.32,-119.5 35.12,-108.91 28.67,-117.32 35.32,-119.5"/>
</g>
<!-- 4 -->
<g id="node4" class="node">
<title>4</title>
<ellipse fill="none" stroke="black" cx="41" cy="-18" rx="18" ry="18"/>
<text text-anchor="middle" x="41" y="-12.57" font-family="Times New Roman,serif" font-size="14.00">4</text>
</g>
<!-- 3&#45;&gt;4 -->
<g id="edge4" class="edge">
<title>3&#45;&gt;4</title>
<path fill="none" stroke="black" d="M41,-71.7C41,-60.85 41,-46.92 41,-36.1"/>
</g>
</g>
</svg>