<?xml version="1.0" encoding="UTF-8" standalone="no"?>
<!DOCTYPE svg PUBLIC "-//W3C//DTD SVG 1.1//EN"
 "http://www.w3.org/Graphics/SVG/1.1/DTD/svg11.dtd">
<!-- Generated by graphviz version 10.0.1 (20240210.2158)
 -->
<!-- Pages: 1 -->
<svg width="98pt" height="310pt"
 viewBox="0.00 0.00 98.00 310.40" xmlns="http://www.w3.org/2000/svg" xmlns:xlink="http://www.w3.org/1999/xlink">
<g id="graph0" class="graph" transform="scale(1 1) rotate(0) translate(4 306.4)">
<polygon fill="white" stroke="none" points="-4,4 -4,-306.4 94,-306.4 94,4 -4,4"/>
<!-- M1 -->
<g id="node1" class="node">
<title>M1</title>
<ellipse fill="none" stroke="black" cx="72" cy="-244.8" rx="18" ry="18"/>
<text text-anchor="middle" x="72" y="-239.37" font-family="Times New Roman,serif" font-size="14.00">M1</text>
</g>
<!-- M4 -->
<g id="node2" class="node">
<title>M4</title>
<ellipse fill="none" stroke="black" cx="72" cy="-172.8" rx="18" ry="18"/>
<text text-anchor="middle" x="72" y="-167.37" font-family="Times New Roman,serif" font-size="14.00">M4</text>
</g>
<!-- M1&#45;&gt;M4 -->
<g id="edge1" class="edge">
<title>M1&#45;&gt;M4</title>
<path fill="none" stroke="black" d="M72,-226.5C72,-219.21 72,-210.53 72,-202.34"/>
<polygon fill="black" stroke="black" points="75.5,-202.42 72,-192.42 68.5,-202.42 75.5,-202.42"/>
</g>
<!-- e_1_center -->
<g id="node6" class="node">
<title>e_1_center</title>
<polygon fill="none" stroke="black" points="48.6,-118.8 41.4,-118.8 41.4,-111.6 48.6,-111.6 48.6,-118.8"/>
</g>
<!-- M4&#45;&gt;e_1_center -->
<g id="edge3" class="edge">
<title>M4&#45;&gt;e_1_center</title>
<path fill="none" stroke="black" d="M64.34,-156.02C58.1,-143.17 49.81,-126.1 46.48,-119.24"/>
</g>
<!-- M3 -->
<g id="node3" class="node">
<title>M3</title>
<ellipse fill="none" stroke="black" cx="18" cy="-172.8" rx="18" ry="18"/>
<text text-anchor="middle" x="18" y="-167.37" font-family="Times New Roman,serif" font-size="14.00">M3</text>
</g>
<!-- M3&#45;&gt;e_1_center -->
<g id="edge2" class="edge">
<title>M3&#45;&gt;e_1_center</title>
<path fill="none" stroke="black" d="M25.66,-156.02C31.9,-143.17 40.19,-126.1 43.52,-119.24"/>
</g>
<!-- M7 -->
<g id="node4" class="node">
<title>M7</title>
<ellipse fill="none" stroke="black" cx="18" cy="-57.6" rx="18" ry="18"/>
<text text-anchor="middle" x="18" y="-52.17" font-family="Times New Roman,serif" font-size="14.00">M7</text>
</g>
<!-- e_4_target -->
<g id="node9" class="node">
<title>e_4_target</title>
<ellipse fill="black" stroke="black" cx="18" cy="-1.8" rx="1.8" ry="1.8"/>
</g>
<!-- M7&#45;&gt;e_4_target -->
<g id="edge8" class="edge">
<title>M7&#45;&gt;e_4_target</title>
<path fill="none" stroke="black" d="M18,-39.28C18,-31.47 18,-22.41 18,-15.28"/>
<polygon fill="black" stroke="black" points="21.5,-15.47 18,-5.47 14.5,-15.47 21.5,-15.47"/>
</g>
<!-- M8 -->
<g id="node5" class="node">
<title>M8</title>
<ellipse fill="none" stroke="black" cx="72" cy="-57.6" rx="18" ry="18"/>
<text text-anchor="middle" x="72" y="-52.17" font-family="Times New Roman,serif" font-size="14.00">M8</text>
</g>
<!-- e_5_target -->
<g id="node10" class="node">
<title>e_5_target</title>
<ellipse fill="black" stroke="black" cx="72" cy="-1.8" rx="1.8" ry="1.8"/>
</g>
<!-- M8&#45;&gt;e_5_target -->
<g id="edge9" class="edge">
<title>M8&#45;&gt;e_5_target</title>
<path fill="none" stroke="black" d="M72,-39.28C72,-31.47 72,-22.41 72,-15.28"/>
<polygon fill="black" stroke="black" points="75.5,-15.47 72,-5.47 68.5,-15.47 75.5,-15.47"/>
</g>
<!-- e_1_center&#45;&gt;M7 -->
<g id="edge4" class="edge">
<title>e_1_center&#45;&gt;M7</title>
<path fill="none" stroke="black" d="M43.55,-111.21C41.05,-106.07 35.71,-95.07 30.56,-84.46"/>
<polygon fill="black" stroke="black" points="33.75,-83.03 26.24,-75.56 27.46,-86.08 33.75,-83.03"/>
</g>
<!-- e_1_center&#45;&gt;M8 -->
<g id="edge5" class="edge">
<title>e_1_center&#45;&gt;M8</title>
<path fill="none" stroke="black" d="M46.45,-111.21C48.95,-106.07 54.29,-95.07 59.44,-84.46"/>
<polygon fill="black" stroke="black" points="62.54,-86.08 63.76,-75.56 56.25,-83.03 62.54,-86.08"/>
</g>
<!-- e_2_source -->
<g id="node7" class="node">
<title>e_2_source</title>
<ellipse fill="black" stroke="black" cx="72" cy="-300.6" rx="1.8" ry="1.8"/>
</g>
<!-- e_2_source&#45;&gt;M1 -->
<g id="edge6" class="edge">
<title>e_2_source&#45;&gt;M1</title>
<path fill="none" stroke="black" d="M72,-298.67C72,-295.57 72,-285.24 72,-274.52"/>
<polygon fill="black" stroke="black" points="75.5,-274.57 72,-264.57 68.5,-274.57 75.5,-274.57"/>
</g>
<!-- e_3_source -->
<g id="node8" class="node">
<title>e_3_source</title>
<ellipse fill="black" stroke="black" cx="18" cy="-244.8" rx="1.8" ry="1.8"/>
</g>
<!-- e_3_source&#45;&gt;M3 -->
<g id="edge7" class="edge">
<title>e_3_source&#45;&gt;M3</title>
<path fill="none" stroke="black" d="M18,-242.59C18,-237.69 18,-218.86 18,-202.14"/>
<polygon fill="black" stroke="black" points="21.5,-202.61 18,-192.61 14.5,-202.61 21.5,-202.61"/>
</g>
</g>
</svg>