<?xml version="1.0" encoding="UTF-8" standalone="no"?>
<!DOCTYPE svg PUBLIC "-//W3C//DTD SVG 1.1//EN"
 "http://www.w3.org/Graphics/SVG/1.1/DTD/svg11.dtd">
<!-- Generated by graphviz version 10.0.1 (20240210.2158)
 -->
<!-- Pages: 1 -->
<svg width="235pt" height="444pt"
 viewBox="0.00 0.00 234.57 443.60" xmlns="http://www.w3.org/2000/svg" xmlns:xlink="http://www.w3.org/1999/xlink">
<g id="graph0" class="graph" transform="scale(1 1) rotate(0) translate(4 439.6)">
<polygon fill="white" stroke="none" points="-4,4 -4,-439.6 230.57,-439.6 230.57,4 -4,4"/>
<!-- v1 -->
<g id="node1" class="node">
<title>v1</title>
<ellipse fill="none" stroke="black" cx="102.77" cy="-345.6" rx="18" ry="18"/>
<text text-anchor="middle" x="102.77" y="-340.18" font-family="Times New Roman,serif" font-size="14.00">v1</text>
</g>
<!-- v2 -->
<g id="node2" class="node">
<title>v2</title>
<ellipse fill="none" stroke="black" cx="102.77" cy="-273.6" rx="18" ry="18"/>
<text text-anchor="middle" x="102.77" y="-268.18" font-family="Times New Roman,serif" font-size="14.00">v2</text>
</g>
<!-- v1&#45;&gt;v2 -->
<g id="edge1" class="edge">
<title>v1&#45;&gt;v2</title>
<path fill="none" stroke="black" d="M102.77,-327.3C102.77,-320.01 102.77,-311.33 102.77,-303.14"/>
<polygon fill="black" stroke="black" points="106.27,-303.22 102.77,-293.22 99.27,-303.22 106.27,-303.22"/>
</g>
<!-- v7 -->
<g id="node3" class="node">
<title>v7</title>
<ellipse fill="none" stroke="black" cx="83.77" cy="-57.6" rx="18" ry="18"/>
<text text-anchor="middle" x="83.77" y="-52.17" font-family="Times New Roman,serif" font-size="14.00">v7</text>
</g>
<!-- v1&#45;&gt;v7 -->
<g id="edge2" class="edge">
<title>v1&#45;&gt;v7</title>
<path fill="none" stroke="black" d="M89.27,-333.24C66.64,-313.14 22.14,-268.79 7.77,-219.6 -5.84,-173.02 -0.88,-153.39 23.77,-111.6 32.55,-96.72 46.95,-83.79 59.44,-74.43"/>
<polygon fill="black" stroke="black" points="61.14,-77.52 67.27,-68.87 57.09,-71.81 61.14,-77.52"/>
</g>
<!-- e_12_target -->
<g id="node8" class="node">
<title>e_12_target</title>
<ellipse fill="black" stroke="black" cx="64.77" cy="-273.6" rx="1.8" ry="1.8"/>
</g>
<!-- v1&#45;&gt;e_12_target -->
<g id="edge13" class="edge">
<title>v1&#45;&gt;e_12_target</title>
<path fill="none" stroke="black" d="M94.53,-329.41C87.33,-316.15 77.05,-297.22 70.66,-285.44"/>
<polygon fill="black" stroke="black" points="73.81,-283.91 65.96,-276.79 67.66,-287.25 73.81,-283.91"/>
</g>
<!-- v4 -->
<g id="node5" class="node">
<title>v4</title>
<ellipse fill="none" stroke="black" cx="56.77" cy="-201.6" rx="18" ry="18"/>
<text text-anchor="middle" x="56.77" y="-196.17" font-family="Times New Roman,serif" font-size="14.00">v4</text>
</g>
<!-- v2&#45;&gt;v4 -->
<g id="edge4" class="edge">
<title>v2&#45;&gt;v4</title>
<path fill="none" stroke="black" d="M93.24,-258.1C87.26,-248.99 79.4,-237.03 72.51,-226.55"/>
<polygon fill="black" stroke="black" points="75.54,-224.79 67.12,-218.35 69.69,-228.63 75.54,-224.79"/>
</g>
<!-- v5 -->
<g id="node7" class="node">
<title>v5</title>
<ellipse fill="none" stroke="black" cx="148.77" cy="-201.6" rx="18" ry="18"/>
<text text-anchor="middle" x="148.77" y="-196.17" font-family="Times New Roman,serif" font-size="14.00">v5</text>
</g>
<!-- v2&#45;&gt;v5 -->
<g id="edge10" class="edge">
<title>v2&#45;&gt;v5</title>
<path fill="none" stroke="black" d="M112.3,-258.1C118.29,-248.99 126.15,-237.03 133.04,-226.55"/>
<polygon fill="black" stroke="black" points="135.86,-228.63 138.42,-218.35 130.01,-224.79 135.86,-228.63"/>
</g>
<!-- e_13_target -->
<g id="node9" class="node">
<title>e_13_target</title>
<ellipse fill="black" stroke="black" cx="18.77" cy="-201.6" rx="1.8" ry="1.8"/>
</g>
<!-- v2&#45;&gt;e_13_target -->
<g id="edge14" class="edge">
<title>v2&#45;&gt;e_13_target</title>
<path fill="none" stroke="black" d="M87.99,-262.81C69.5,-250.42 39.14,-229.49 29.77,-219.6 28.04,-217.78 26.42,-215.64 24.98,-213.52"/>
<polygon fill="black" stroke="black" points="28.05,-211.83 20.01,-204.92 21.99,-215.33 28.05,-211.83"/>
</g>
<!-- v7&#45;&gt;v2 -->
<g id="edge9" class="edge">
<title>v7&#45;&gt;v2</title>
<path fill="none" stroke="black" d="M85.3,-75.83C88.57,-112.61 96.25,-199.1 100.25,-244.17"/>
<polygon fill="black" stroke="black" points="96.74,-244.29 101.12,-253.94 103.72,-243.67 96.74,-244.29"/>
</g>
<!-- e_18_target -->
<g id="node14" class="node">
<title>e_18_target</title>
<ellipse fill="black" stroke="black" cx="83.77" cy="-1.8" rx="1.8" ry="1.8"/>
</g>
<!-- v7&#45;&gt;e_18_target -->
<g id="edge19" class="edge">
<title>v7&#45;&gt;e_18_target</title>
<path fill="none" stroke="black" d="M83.77,-39.28C83.77,-31.47 83.77,-22.41 83.77,-15.28"/>
<polygon fill="black" stroke="black" points="87.27,-15.47 83.77,-5.47 80.27,-15.47 87.27,-15.47"/>
</g>
<!-- v3 -->
<g id="node4" class="node">
<title>v3</title>
<ellipse fill="none" stroke="black" cx="194.77" cy="-417.6" rx="18" ry="18"/>
<text text-anchor="middle" x="194.77" y="-412.18" font-family="Times New Roman,serif" font-size="14.00">v3</text>
</g>
<!-- v3&#45;&gt;v1 -->
<g id="edge3" class="edge">
<title>v3&#45;&gt;v1</title>
<path fill="none" stroke="black" d="M180.8,-405.97C166.21,-394.87 143.09,-377.27 125.79,-364.12"/>
<polygon fill="black" stroke="black" points="128.16,-361.52 118.08,-358.25 123.92,-367.09 128.16,-361.52"/>
</g>
<!-- v6 -->
<g id="node6" class="node">
<title>v6</title>
<ellipse fill="none" stroke="black" cx="148.77" cy="-129.6" rx="18" ry="18"/>
<text text-anchor="middle" x="148.77" y="-124.17" font-family="Times New Roman,serif" font-size="14.00">v6</text>
</g>
<!-- v3&#45;&gt;v6 -->
<g id="edge11" class="edge">
<title>v3&#45;&gt;v6</title>
<path fill="none" stroke="black" d="M195.62,-399.24C197.06,-359.98 197.91,-261.69 175.77,-183.6 173.01,-173.85 168.4,-163.79 163.76,-155.09"/>
<polygon fill="black" stroke="black" points="166.92,-153.57 158.96,-146.58 160.83,-157.01 166.92,-153.57"/>
</g>
<!-- e_14_target -->
<g id="node10" class="node">
<title>e_14_target</title>
<ellipse fill="black" stroke="black" cx="224.77" cy="-345.6" rx="1.8" ry="1.8"/>
</g>
<!-- v3&#45;&gt;e_14_target -->
<g id="edge15" class="edge">
<title>v3&#45;&gt;e_14_target</title>
<path fill="none" stroke="black" d="M201.58,-400.72C207.16,-387.7 214.91,-369.6 219.89,-357.99"/>
<polygon fill="black" stroke="black" points="223.09,-359.41 223.81,-348.84 216.66,-356.65 223.09,-359.41"/>
</g>
<!-- v4&#45;&gt;v7 -->
<g id="edge6" class="edge">
<title>v4&#45;&gt;v7</title>
<path fill="none" stroke="black" d="M60.03,-183.47C64.59,-159.48 72.94,-115.59 78.42,-86.76"/>
<polygon fill="black" stroke="black" points="81.79,-87.75 80.22,-77.28 74.91,-86.45 81.79,-87.75"/>
</g>
<!-- v4&#45;&gt;v6 -->
<g id="edge5" class="edge">
<title>v4&#45;&gt;v6</title>
<path fill="none" stroke="black" d="M70.74,-189.97C85.33,-178.87 108.46,-161.27 125.75,-148.12"/>
<polygon fill="black" stroke="black" points="127.62,-151.09 133.46,-142.25 123.39,-145.52 127.62,-151.09"/>
</g>
<!-- e_15_target -->
<g id="node11" class="node">
<title>e_15_target</title>
<ellipse fill="black" stroke="black" cx="34.77" cy="-129.6" rx="1.8" ry="1.8"/>
</g>
<!-- v4&#45;&gt;e_15_target -->
<g id="edge16" class="edge">
<title>v4&#45;&gt;e_15_target</title>
<path fill="none" stroke="black" d="M51.56,-184.01C47.51,-171.11 41.99,-153.55 38.4,-142.15"/>
<polygon fill="black" stroke="black" points="41.82,-141.36 35.49,-132.87 35.14,-143.46 41.82,-141.36"/>
</g>
<!-- v6&#45;&gt;v7 -->
<g id="edge8" class="edge">
<title>v6&#45;&gt;v7</title>
<path fill="none" stroke="black" d="M136.85,-115.76C127.5,-105.7 114.3,-91.48 103.4,-79.74"/>
<polygon fill="black" stroke="black" points="106.02,-77.41 96.65,-72.47 100.89,-82.18 106.02,-77.41"/>
</g>
<!-- e_17_target -->
<g id="node13" class="node">
<title>e_17_target</title>
<ellipse fill="black" stroke="black" cx="148.77" cy="-57.6" rx="1.8" ry="1.8"/>
</g>
<!-- v6&#45;&gt;e_17_target -->
<g id="edge18" class="edge">
<title>v6&#45;&gt;e_17_target</title>
<path fill="none" stroke="black" d="M148.77,-111.3C148.77,-98.68 148.77,-81.89 148.77,-70.69"/>
<polygon fill="black" stroke="black" points="152.27,-70.92 148.77,-60.92 145.27,-70.92 152.27,-70.92"/>
</g>
<!-- v5&#45;&gt;v1 -->
<g id="edge12" class="edge">
<title>v5&#45;&gt;v1</title>
<path fill="none" stroke="black" d="M146.48,-219.69C143.73,-237.88 138.38,-267.33 129.77,-291.6 126.39,-301.15 121.63,-311.16 117.05,-319.88"/>
<polygon fill="black" stroke="black" points="114.1,-317.98 112.38,-328.43 120.25,-321.33 114.1,-317.98"/>
</g>
<!-- v5&#45;&gt;v6 -->
<g id="edge7" class="edge">
<title>v5&#45;&gt;v6</title>
<path fill="none" stroke="black" d="M148.77,-183.3C148.77,-176.01 148.77,-167.33 148.77,-159.14"/>
<polygon fill="black" stroke="black" points="152.27,-159.22 148.77,-149.22 145.27,-159.22 152.27,-159.22"/>
</g>
<!-- e_16_target -->
<g id="node12" class="node">
<title>e_16_target</title>
<ellipse fill="black" stroke="black" cx="186.77" cy="-129.6" rx="1.8" ry="1.8"/>
</g>
<!-- v5&#45;&gt;e_16_target -->
<g id="edge17" class="edge">
<title>v5&#45;&gt;e_16_target</title>
<path fill="none" stroke="black" d="M157.02,-185.41C164.22,-172.15 174.49,-153.22 180.89,-141.44"/>
<polygon fill="black" stroke="black" points="183.89,-143.25 185.58,-132.79 177.73,-139.91 183.89,-143.25"/>
</g>
</g>
</svg>