<?xml version="1.0" encoding="UTF-8" standalone="no"?>
<!DOCTYPE svg PUBLIC "-//W3C//DTD SVG 1.1//EN"
 "http://www.w3.org/Graphics/SVG/1.1/DTD/svg11.dtd">
<!-- Generated by graphviz version 10.0.1 (20240210.2158)
 -->
<!-- Pages: 1 -->
<svg width="152pt" height="314pt"
 viewBox="0.00 0.00 152.00 314.00" xmlns="http://www.w3.org/2000/svg" xmlns:xlink="http://www.w3.org/1999/xlink">
<g id="graph0" class="graph" transform="scale(1 1) rotate(0) translate(4 310)">
<polygon fill="white" stroke="none" points="-4,4 -4,-310 148,-310 148,4 -4,4"/>
<!-- B -->
<g id="node1" class="node">
<title>B</title>
<ellipse fill="none" stroke="black" cx="72" cy="-248.4" rx="18" ry="18"/>
<text text-anchor="middle" x="72" y="-242.97" font-family="Times New Roman,serif" font-size="14.00">B</text>
</g>
<!-- e_0_center -->
<g id="node5" class="node">
<title>e_0_center</title>
<polygon fill="none" stroke="black" points="48.6,-194.4 41.4,-194.4 41.4,-187.2 48.6,-187.2 48.6,-194.4"/>
</g>
<!-- B&#45;&gt;e_0_center -->
<g id="edge1" class="edge">
<title>B&#45;&gt;e_0_center</title>
<path fill="none" stroke="black" d="M64.34,-231.62C58.1,-218.77 49.81,-201.7 46.48,-194.84"/>
</g>
<!-- A -->
<g id="node2" class="node">
<title>A</title>
<ellipse fill="none" stroke="black" cx="18" cy="-248.4" rx="18" ry="18"/>
<text text-anchor="middle" x="18" y="-242.97" font-family="Times New Roman,serif" font-size="14.00">A</text>
</g>
<!-- A&#45;&gt;e_0_center -->
<g id="edge2" class="edge">
<title>A&#45;&gt;e_0_center</title>
<path fill="none" stroke="black" d="M25.66,-231.62C31.9,-218.77 40.19,-201.7 43.52,-194.84"/>
</g>
<!-- C -->
<g id="node3" class="node">
<title>C</title>
<ellipse fill="none" stroke="black" cx="18" cy="-133.2" rx="18" ry="18"/>
<text text-anchor="middle" x="18" y="-127.77" font-family="Times New Roman,serif" font-size="14.00">C</text>
</g>
<!-- e_4_target -->
<g id="node12" class="node">
<title>e_4_target</title>
<ellipse fill="black" stroke="black" cx="18" cy="-75.6" rx="1.8" ry="1.8"/>
</g>
<!-- C&#45;&gt;e_4_target -->
<g id="edge11" class="edge">
<title>C&#45;&gt;e_4_target</title>
<path fill="none" stroke="black" d="M18,-114.91C18,-106.58 18,-96.78 18,-89.17"/>
<polygon fill="black" stroke="black" points="21.5,-89.34 18,-79.34 14.5,-89.34 21.5,-89.34"/>
</g>
<!-- D -->
<g id="node4" class="node">
<title>D</title>
<ellipse fill="none" stroke="black" cx="72" cy="-133.2" rx="18" ry="18"/>
<text text-anchor="middle" x="72" y="-127.77" font-family="Times New Roman,serif" font-size="14.00">D</text>
</g>
<!-- e_1_center -->
<g id="node9" class="node">
<title>e_1_center</title>
<polygon fill="none" stroke="black" points="75.6,-79.2 68.4,-79.2 68.4,-72 75.6,-72 75.6,-79.2"/>
</g>
<!-- D&#45;&gt;e_1_center -->
<g id="edge5" class="edge">
<title>D&#45;&gt;e_1_center</title>
<path fill="none" stroke="black" d="M72,-114.91C72,-102.16 72,-85.95 72,-79.47"/>
</g>
<!-- e_0_center&#45;&gt;C -->
<g id="edge3" class="edge">
<title>e_0_center&#45;&gt;C</title>
<path fill="none" stroke="black" d="M43.55,-186.81C41.05,-181.67 35.71,-170.67 30.56,-160.06"/>
<polygon fill="black" stroke="black" points="33.75,-158.63 26.24,-151.16 27.46,-161.68 33.75,-158.63"/>
</g>
<!-- e_0_center&#45;&gt;D -->
<g id="edge4" class="edge">
<title>e_0_center&#45;&gt;D</title>
<path fill="none" stroke="black" d="M46.45,-186.81C48.95,-181.67 54.29,-170.67 59.44,-160.06"/>
<polygon fill="black" stroke="black" points="62.54,-161.68 63.76,-151.16 56.25,-158.63 62.54,-161.68"/>
</g>
<!-- 5 -->
<g id="node6" class="node">
<title>5</title>
<ellipse fill="none" stroke="black" cx="18" cy="-18" rx="18" ry="18"/>
<text text-anchor="middle" x="18" y="-12.57" font-family="Times New Roman,serif" font-size="14.00">5</text>
</g>
<!-- 6 -->
<g id="node7" class="node">
<title>6</title>
<ellipse fill="none" stroke="black" cx="72" cy="-18" rx="18" ry="18"/>
<text text-anchor="middle" x="72" y="-12.57" font-family="Times New Roman,serif" font-size="14.00">6</text>
</g>
<!-- 7 -->
<g id="node8" class="node">
<title>7</title>
<ellipse fill="none" stroke="black" cx="126" cy="-18" rx="18" ry="18"/>
<text text-anchor="middle" x="126" y="-12.57" font-family="Times New Roman,serif" font-size="14.00">7</text>
</g>
<!-- e_1_center&#45;&gt;5 -->
<g id="edge6" class="edge">
<title>e_1_center&#45;&gt;5</title>
<path fill="none" stroke="black" d="M69.1,-71.61C63.31,-65.66 49.92,-51.86 38.29,-39.89"/>
<polygon fill="black" stroke="black" points="40.8,-37.45 31.32,-32.72 35.78,-42.33 40.8,-37.45"/>
</g>
<!-- e_1_center&#45;&gt;6 -->
<g id="edge7" class="edge">
<title>e_1_center&#45;&gt;6</title>
<path fill="none" stroke="black" d="M72,-71.61C72,-66.96 72,-57.52 72,-47.91"/>
<polygon fill="black" stroke="black" points="75.5,-47.92 72,-37.92 68.5,-47.92 75.5,-47.92"/>
</g>
<!-- e_1_center&#45;&gt;7 -->
<g id="edge8" class="edge">
<title>e_1_center&#45;&gt;7</title>
<path fill="none" stroke="black" d="M74.9,-71.61C80.69,-65.66 94.08,-51.86 105.71,-39.89"/>
<polygon fill="black" stroke="black" points="108.22,-42.33 112.68,-32.72 103.2,-37.45 108.22,-42.33"/>
</g>
<!-- e_2_source -->
<g id="node10" class="node">
<title>e_2_source</title>
<ellipse fill="black" stroke="black" cx="18" cy="-304.2" rx="1.8" ry="1.8"/>
</g>
<!-- e_2_source&#45;&gt;A -->
<g id="edge9" class="edge">
<title>e_2_source&#45;&gt;A</title>
<path fill="none" stroke="black" d="M18,-302.27C18,-299.17 18,-288.84 18,-278.12"/>
<polygon fill="black" stroke="black" points="21.5,-278.17 18,-268.17 14.5,-278.17 21.5,-278.17"/>
</g>
<!-- e_3_source -->
<g id="node11" class="node">
<title>e_3_source</title>
<ellipse fill="black" stroke="black" cx="72" cy="-304.2" rx="1.8" ry="1.8"/>
</g>
<!-- e_3_source&#45;&gt;B -->
<g id="edge10" class="edge">
<title>e_3_source&#45;&gt;B</title>
<path fill="none" stroke="black" d="M72,-302.27C72,-299.17 72,-288.84 72,-278.12"/>
<polygon fill="black" stroke="black" points="75.5,-278.17 72,-268.17 68.5,-278.17 75.5,-278.17"/>
</g>
</g>
</svg>