<?xml version="1.0" encoding="UTF-8" standalone="no"?>
<!DOCTYPE svg PUBLIC "-//W3C//DTD SVG 1.1//EN"
 "http://www.w3.org/Graphics/SVG/1.1/DTD/svg11.dtd">
<!-- Generated by graphviz version 10.0.1 (20240210.2158)
 -->
<!-- Pages: 1 -->
<svg width="98pt" height="188pt"
 viewBox="0.00 0.00 98.00 188.00" xmlns="http://www.w3.org/2000/svg" xmlns:xlink="http://www.w3.org/1999/xlink">
<g id="graph0" class="graph" transform="scale(1 1) rotate(0) translate(4 184)">
<polygon fill="white" stroke="none" points="-4,4 -4,-184 94,-184 94,4 -4,4"/>
<!-- I1 -->
<g id="node1" class="node">
<title>I1</title>
<ellipse fill="none" stroke="#8b1a1a" stroke-width="2" cx="18" cy="-162" rx="18" ry="18"/>
<text text-anchor="middle" x="18" y="-156.57" font-family="Times New Roman,serif" font-size="14.00">I1</text>
</g>
<!-- N1 -->
<g id="node2" class="node">
<title>N1</title>
<ellipse fill="none" stroke="#8b1a1a" stroke-width="2" cx="18" cy="-90" rx="18" ry="18"/>
<text text-anchor="middle" x="18" y="-84.58" font-family="Times New Roman,serif" font-size="14.00">N1</text>
</g>
<!-- I1&#45;&gt;N1 -->
<g id="edge1" class="edge">
<title>I1&#45;&gt;N1</title>
<path fill="none" stroke="#8b1a1a" stroke-width="5" d="M18,-143.34C18,-137.74 18,-131.36 18,-125.02"/>
<polygon fill="#8b1a1a" stroke="#8b1a1a" stroke-width="5" points="22.38,-125.14 18,-115.14 13.63,-125.14 22.38,-125.14"/>
</g>
<!-- M1 -->
<g id="node3" class="node">
<title>M1</title>
<ellipse fill="none" stroke="#8b1a1a" stroke-width="2" cx="18" cy="-18" rx="18" ry="18"/>
<text text-anchor="middle" x="18" y="-12.57" font-family="Times New Roman,serif" font-size="14.00">M1</text>
</g>
<!-- N1&#45;&gt;M1 -->
<g id="edge2" class="edge">
<title>N1&#45;&gt;M1</title>
<path fill="none" stroke="#8b1a1a" stroke-width="5" d="M18,-71.34C18,-65.74 18,-59.36 18,-53.02"/>
<polygon fill="#8b1a1a" stroke="#8b1a1a" stroke-width="5" points="22.38,-53.14 18,-43.14 13.63,-53.14 22.38,-53.14"/>
</g>
<!-- M2 -->
<g id="node4" class="node">
<title>M2</title>
<ellipse fill="none" stroke="#8b1a1a" stroke-width="2" cx="72" cy="-18" rx="18" ry="18"/>
<text text-anchor="middle" x="72" y="-12.57" font-family="Times New Roman,serif" font-size="14.00">M2</text>
</g>
<!-- N1&#45;&gt;M2 -->
<g id="edge3" class="edge">
<title>N1&#45;&gt;M2</title>
<path fill="none" stroke="#8b1a1a" stroke-width="5" d="M28.93,-74.83C35.37,-66.48 43.73,-55.65 51.37,-45.75"/>
<polygon fill="#8b1a1a" stroke="#8b1a1a" stroke-width="5" points="54.63,-48.67 57.28,-38.08 47.71,-43.33 54.63,-48.67"/>
</g>
<!-- I2 -->
<g id="node5" class="node">
<title>I2</title>
<ellipse fill="none" stroke="#8b1a1a" stroke-width="2" cx="72" cy="-162" rx="18" ry="18"/>
<text text-anchor="middle" x="72" y="-156.57" font-family="Times New Roman,serif" font-size="14.00">I2</text>
</g>
<!-- N2 -->
<g id="node6" class="node">
<title>N2</title>
<ellipse fill="none" stroke="black" cx="72" cy="-90" rx="18" ry="18"/>
<text text-anchor="middle" x="72" y="-84.58" font-family="Times New Roman,serif" font-size="14.00">N2</text>
</g>
<!-- I2&#45;&gt;N2 -->
<g id="edge4" class="edge">
<title>I2&#45;&gt;N2</title>
<path fill="none" stroke="black" stroke-width="0.25" d="M72,-143.34C72,-134.23 72,-123.03 72,-113.33"/>
<polygon fill="black" stroke="black" stroke-width="0.25" points="67,-109.42 77,-109.42 77,-111.42 67,-111.42 67,-109.42"/>
<polyline fill="none" stroke="black" stroke-width="0.25" points="72,-108.42 72,-113.42"/>
</g>
<!-- N2&#45;&gt;M1 -->
<g id="edge6" class="edge">
<title>N2&#45;&gt;M1</title>
<path fill="none" stroke="black" stroke-width="0.25" d="M61.33,-75.17C52.94,-64.29 41.17,-49.03 32.01,-37.16"/>
<polygon fill="black" stroke="black" stroke-width="0.25" points="25.67,-37.13 33.59,-31.02 34.81,-32.6 26.89,-38.71 25.67,-37.13"/>
<polyline fill="none" stroke="black" stroke-width="0.25" points="29.02,-33.28 32.07,-37.24"/>
</g>
<!-- N2&#45;&gt;M2 -->
<g id="edge5" class="edge">
<title>N2&#45;&gt;M2</title>
<path fill="none" stroke="black" stroke-width="0.25" d="M72,-71.7C72,-62.59 72,-51.33 72,-41.55"/>
<polygon fill="black" stroke="black" stroke-width="0.25" points="67,-37.59 77,-37.59 77,-39.59 67,-39.59 67,-37.59"/>
<polyline fill="none" stroke="black" stroke-width="0.25" points="72,-36.59 72,-41.59"/>
</g>
</g>
</svg>