<?xml version="1.0" encoding="UTF-8" standalone="no"?>
<!DOCTYPE svg PUBLIC "-//W3C//DTD SVG 1.1//EN"
 "http://www.w3.org/Graphics/SVG/1.1/DTD/svg11.dtd">
<!-- Generated by graphviz version 10.0.1 (20240210.2158)
 -->
<!-- Pages: 1 -->
<svg width="98pt" height="228pt"
 viewBox="0.00 0.00 98.00 227.60" xmlns="http://www.w3.org/2000/svg" xmlns:xlink="http://www.w3.org/1999/xlink">
<g id="graph0" class="graph" transform="scale(1 1) rotate(0) translate(4 223.6)">
<polygon fill="white" stroke="none" points="-4,4 -4,-223.6 94,-223.6 94,4 -4,4"/>
<!-- A -->
<g id="node1" class="node">
<title>A</title>
<ellipse fill="none" stroke="black" cx="18" cy="-129.6" rx="18" ry="18"/>
<text text-anchor="middle" x="18" y="-124.17" font-family="Times New Roman,serif" font-size="14.00">A</text>
</g>
<!-- B -->
<g id="node2" class="node">
<title>B</title>
<ellipse fill="none" stroke="black" cx="18" cy="-57.6" rx="18" ry="18"/>
<text text-anchor="middle" x="18" y="-52.17" font-family="Times New Roman,serif" font-size="14.00">B</text>
</g>
<!-- A&#45;&gt;B -->
<g id="edge1" class="edge">
<title>A&#45;&gt;B</title>
<path fill="none" stroke="black" d="M18,-111.3C18,-100.45 18,-86.52 18,-75.7"/>
</g>
<!-- e_4_target -->
<g id="node6" class="node">
<title>e_4_target</title>
<ellipse fill="black" stroke="black" cx="18" cy="-1.8" rx="1.8" ry="1.8"/>
</g>
<!-- B&#45;&gt;e_4_target -->
<g id="edge5" class="edge">
<title>B&#45;&gt;e_4_target</title>
<path fill="none" stroke="black" d="M18,-39.28C18,-25.77 18,-8.54 18,-3.96"/>
</g>
<!-- J -->
<g id="node3" class="node">
<title>J</title>
<ellipse fill="none" stroke="black" cx="26" cy="-201.6" rx="18" ry="18"/>
<text text-anchor="middle" x="26" y="-196.17" font-family="Times New Roman,serif" font-size="14.00">J</text>
</g>
<!-- J&#45;&gt;A -->
<g id="edge3" class="edge">
<title>J&#45;&gt;A</title>
<path fill="none" stroke="black" d="M24.02,-183.3C22.78,-172.45 21.19,-158.52 19.95,-147.7"/>
</g>
<!-- G -->
<g id="node4" class="node">
<title>G</title>
<ellipse fill="none" stroke="black" cx="72" cy="-129.6" rx="18" ry="18"/>
<text text-anchor="middle" x="72" y="-124.17" font-family="Times New Roman,serif" font-size="14.00">G</text>
</g>
<!-- J&#45;&gt;G -->
<g id="edge2" class="edge">
<title>J&#45;&gt;G</title>
<path fill="none" stroke="black" d="M35.53,-186.1C43.43,-174.08 54.59,-157.09 62.48,-145.09"/>
</g>
<!-- e_3_source -->
<g id="node5" class="node">
<title>e_3_source</title>
<ellipse fill="black" stroke="black" cx="72" cy="-201.6" rx="1.8" ry="1.8"/>
</g>
<!-- e_3_source&#45;&gt;G -->
<g id="edge4" class="edge">
<title>e_3_source&#45;&gt;G</title>
<path fill="none" stroke="black" d="M72,-199.39C72,-193.36 72,-166.22 72,-147.89"/>
</g>
</g>
</svg>