<?xml version="1.0" encoding="UTF-8" standalone="no"?>
<!DOCTYPE svg PUBLIC "-//W3C//DTD SVG 1.1//EN"
 "http://www.w3.org/Graphics/SVG/1.1/DTD/svg11.dtd">
<!-- Generated by graphviz version 10.0.1 (20240210.2158)
 -->
<!-- Pages: 1 -->
<svg width="339pt" height="216pt"
 viewBox="0.00 0.00 339.20 216.00" xmlns="http://www.w3.org/2000/svg" xmlns:xlink="http://www.w3.org/1999/xlink">
<g id="graph0" class="graph" transform="scale(1 1) rotate(0) translate(4 212)">
<polygon fill="white" stroke="none" points="-4,4 -4,-212 335.2,-212 335.2,4 -4,4"/>
<!-- M2 -->
<g id="node1" class="node">
<title>M2</title>
<ellipse fill="none" stroke="black" cx="57.6" cy="-56" rx="18" ry="18"/>
<text text-anchor="middle" x="57.6" y="-50.58" font-family="Times New Roman,serif" font-size="14.00">M2</text>
</g>
<!-- e_0_center -->
<g id="node5" class="node">
<title>e_0_center</title>
<polygon fill="none" stroke="black" points="133.2,-66.6 126,-66.6 126,-59.4 133.2,-59.4 133.2,-66.6"/>
</g>
<!-- M2&#45;&gt;e_0_center -->
<g id="edge1" class="edge">
<title>M2&#45;&gt;e_0_center</title>
<path fill="none" stroke="black" stroke-width="0.25" d="M75.9,-57.73C92.75,-59.41 117.01,-61.84 125.51,-62.69"/>
</g>
<!-- M1 -->
<g id="node2" class="node">
<title>M1</title>
<ellipse fill="none" stroke="black" cx="57.6" cy="-110" rx="18" ry="18"/>
<text text-anchor="middle" x="57.6" y="-104.58" font-family="Times New Roman,serif" font-size="14.00">M1</text>
</g>
<!-- M1&#45;&gt;e_0_center -->
<g id="edge2" class="edge">
<title>M1&#45;&gt;e_0_center</title>
<path fill="none" stroke="black" stroke-width="0.25" d="M73.1,-100.26C90.08,-88.86 117,-70.79 125.75,-64.91"/>
</g>
<!-- M4 -->
<g id="node6" class="node">
<title>M4</title>
<ellipse fill="none" stroke="black" cx="129.6" cy="-110" rx="18" ry="18"/>
<text text-anchor="middle" x="129.6" y="-104.58" font-family="Times New Roman,serif" font-size="14.00">M4</text>
</g>
<!-- M1&#45;&gt;M4 -->
<g id="edge5" class="edge">
<title>M1&#45;&gt;M4</title>
<path fill="none" stroke="#8b1a1a" stroke-width="5" d="M75.9,-110C81.84,-110 88.69,-110 95.45,-110"/>
<polygon fill="#8b1a1a" stroke="#8b1a1a" stroke-width="5" points="95.26,-114.38 105.26,-110 95.26,-105.63 95.26,-114.38"/>
</g>
<!-- M6 -->
<g id="node3" class="node">
<title>M6</title>
<ellipse fill="none" stroke="black" cx="201.6" cy="-72" rx="18" ry="18"/>
<text text-anchor="middle" x="201.6" y="-66.58" font-family="Times New Roman,serif" font-size="14.00">M6</text>
</g>
<!-- M9 -->
<g id="node11" class="node">
<title>M9</title>
<ellipse fill="none" stroke="black" cx="273.6" cy="-72" rx="18" ry="18"/>
<text text-anchor="middle" x="273.6" y="-66.58" font-family="Times New Roman,serif" font-size="14.00">M9</text>
</g>
<!-- M6&#45;&gt;M9 -->
<g id="edge10" class="edge">
<title>M6&#45;&gt;M9</title>
<path fill="none" stroke="black" stroke-width="0.25" d="M219.9,-72C227.53,-72 236.68,-72 245.2,-72"/>
<polygon fill="black" stroke="black" stroke-width="0.25" points="245.12,-75.5 255.12,-72 245.12,-68.5 245.12,-75.5"/>
</g>
<!-- M5 -->
<g id="node4" class="node">
<title>M5</title>
<ellipse fill="none" stroke="black" cx="201.6" cy="-18" rx="18" ry="18"/>
<text text-anchor="middle" x="201.6" y="-12.57" font-family="Times New Roman,serif" font-size="14.00">M5</text>
</g>
<!-- e_7_target -->
<g id="node15" class="node">
<title>e_7_target</title>
<ellipse fill="black" stroke="black" cx="273.6" cy="-18" rx="1.8" ry="1.8"/>
</g>
<!-- M5&#45;&gt;e_7_target -->
<g id="edge14" class="edge">
<title>M5&#45;&gt;e_7_target</title>
<path fill="none" stroke="black" stroke-width="0.25" d="M219.9,-18C232.97,-18 250.49,-18 261.67,-18"/>
<polygon fill="black" stroke="black" stroke-width="0.25" points="261.41,-21.5 271.41,-18 261.41,-14.5 261.41,-21.5"/>
</g>
<!-- e_0_center&#45;&gt;M6 -->
<g id="edge3" class="edge">
<title>e_0_center&#45;&gt;M6</title>
<path fill="none" stroke="black" stroke-width="0.25" d="M133.61,-63.39C140.45,-64.27 157.8,-66.5 173.12,-68.47"/>
<polygon fill="black" stroke="black" stroke-width="0.25" points="172.51,-71.92 182.88,-69.72 173.4,-64.97 172.51,-71.92"/>
</g>
<!-- e_0_center&#45;&gt;M5 -->
<g id="edge4" class="edge">
<title>e_0_center&#45;&gt;M5</title>
<path fill="none" stroke="black" stroke-width="0.25" d="M133.61,-61.07C141.11,-56.24 161.24,-43.3 177.49,-32.86"/>
<polygon fill="black" stroke="black" stroke-width="0.25" points="179.17,-35.94 185.69,-27.58 175.39,-30.05 179.17,-35.94"/>
</g>
<!-- e_2_center -->
<g id="node10" class="node">
<title>e_2_center</title>
<polygon fill="none" stroke="black" points="205.2,-159.6 198,-159.6 198,-152.4 205.2,-152.4 205.2,-159.6"/>
</g>
<!-- M4&#45;&gt;e_2_center -->
<g id="edge7" class="edge">
<title>M4&#45;&gt;e_2_center</title>
<path fill="none" stroke="#8b1a1a" stroke-width="5" d="M145.1,-119.53C162.08,-130.69 189,-148.38 197.75,-154.13"/>
</g>
<!-- M3 -->
<g id="node7" class="node">
<title>M3</title>
<ellipse fill="none" stroke="black" cx="129.6" cy="-164" rx="18" ry="18"/>
<text text-anchor="middle" x="129.6" y="-158.57" font-family="Times New Roman,serif" font-size="14.00">M3</text>
</g>
<!-- M3&#45;&gt;e_2_center -->
<g id="edge6" class="edge">
<title>M3&#45;&gt;e_2_center</title>
<path fill="none" stroke="#8b1a1a" stroke-width="5" d="M147.9,-162.02C164.75,-160.1 189.01,-157.32 197.51,-156.35"/>
</g>
<!-- M7 -->
<g id="node8" class="node">
<title>M7</title>
<ellipse fill="none" stroke="black" cx="273.6" cy="-190" rx="18" ry="18"/>
<text text-anchor="middle" x="273.6" y="-184.57" font-family="Times New Roman,serif" font-size="14.00">M7</text>
</g>
<!-- e_8_target -->
<g id="node16" class="node">
<title>e_8_target</title>
<ellipse fill="black" stroke="black" cx="329.4" cy="-190" rx="1.8" ry="1.8"/>
</g>
<!-- M7&#45;&gt;e_8_target -->
<g id="edge15" class="edge">
<title>M7&#45;&gt;e_8_target</title>
<path fill="none" stroke="#8b1a1a" stroke-width="5" d="M291.92,-190C298.04,-190 304.93,-190 311.06,-190"/>
<polygon fill="#8b1a1a" stroke="#8b1a1a" stroke-width="5" points="311,-194.38 321,-190 311,-185.63 311,-194.38"/>
</g>
<!-- M8 -->
<g id="node9" class="node">
<title>M8</title>
<ellipse fill="none" stroke="black" cx="273.6" cy="-136" rx="18" ry="18"/>
<text text-anchor="middle" x="273.6" y="-130.57" font-family="Times New Roman,serif" font-size="14.00">M8</text>
</g>
<!-- e_9_target -->
<g id="node17" class="node">
<title>e_9_target</title>
<ellipse fill="black" stroke="black" cx="329.4" cy="-136" rx="1.8" ry="1.8"/>
</g>
<!-- M8&#45;&gt;e_9_target -->
<g id="edge16" class="edge">
<title>M8&#45;&gt;e_9_target</title>
<path fill="none" stroke="#8b1a1a" stroke-width="5" d="M291.92,-136C298.04,-136 304.93,-136 311.06,-136"/>
<polygon fill="#8b1a1a" stroke="#8b1a1a" stroke-width="5" points="311,-140.38 321,-136 311,-131.63 311,-140.38"/>
</g>
<!-- e_2_center&#45;&gt;M7 -->
<g id="edge8" class="edge">
<title>e_2_center&#45;&gt;M7</title>
<path fill="none" stroke="#8b1a1a" stroke-width="5" d="M205.61,-157.46C212.06,-160.59 227.81,-168.25 242.43,-175.34"/>
<polygon fill="#8b1a1a" stroke="#8b1a1a" stroke-width="5" points="240.29,-179.17 251.19,-179.6 244.11,-171.3 240.29,-179.17"/>
</g>
<!-- e_2_center&#45;&gt;M8 -->
<g id="edge9" class="edge">
<title>e_2_center&#45;&gt;M8</title>
<path fill="none" stroke="#8b1a1a" stroke-width="5" d="M205.61,-155.14C211.74,-153.39 226.29,-149.23 240.27,-145.24"/>
<polygon fill="#8b1a1a" stroke="#8b1a1a" stroke-width="5" points="241.47,-149.45 249.88,-142.49 239.06,-141.03 241.47,-149.45"/>
</g>
<!-- e_10_target -->
<g id="node18" class="node">
<title>e_10_target</title>
<ellipse fill="black" stroke="black" cx="329.4" cy="-72" rx="1.8" ry="1.8"/>
</g>
<!-- M9&#45;&gt;e_10_target -->
<g id="edge17" class="edge">
<title>M9&#45;&gt;e_10_target</title>
<path fill="none" stroke="black" stroke-width="0.25" d="M291.92,-72C300.15,-72 309.77,-72 317.06,-72"/>
<polygon fill="black" stroke="black" stroke-width="0.25" points="316.86,-75.5 326.86,-72 316.86,-68.5 316.86,-75.5"/>
</g>
<!-- e_4_source -->
<g id="node12" class="node">
<title>e_4_source</title>
<ellipse fill="black" stroke="black" cx="1.8" cy="-110" rx="1.8" ry="1.8"/>
</g>
<!-- e_4_source&#45;&gt;M1 -->
<g id="edge11" class="edge">
<title>e_4_source&#45;&gt;M1</title>
<path fill="none" stroke="#8b1a1a" stroke-width="5" d="M3.73,-110C6.37,-110 14.24,-110 23.14,-110"/>
<polygon fill="#8b1a1a" stroke="#8b1a1a" stroke-width="5" points="23.1,-114.38 33.1,-110 23.1,-105.63 23.1,-114.38"/>
</g>
<!-- e_5_source -->
<g id="node13" class="node">
<title>e_5_source</title>
<ellipse fill="black" stroke="black" cx="1.8" cy="-56" rx="1.8" ry="1.8"/>
</g>
<!-- e_5_source&#45;&gt;M2 -->
<g id="edge12" class="edge">
<title>e_5_source&#45;&gt;M2</title>
<path fill="none" stroke="black" stroke-width="0.25" d="M3.73,-56C6.96,-56 18.05,-56 29.25,-56"/>
<polygon fill="black" stroke="black" stroke-width="0.25" points="28.96,-59.5 38.96,-56 28.96,-52.5 28.96,-59.5"/>
</g>
<!-- e_6_source -->
<g id="node14" class="node">
<title>e_6_source</title>
<ellipse fill="black" stroke="black" cx="57.6" cy="-164" rx="1.8" ry="1.8"/>
</g>
<!-- e_6_source&#45;&gt;M3 -->
<g id="edge13" class="edge">
<title>e_6_source&#45;&gt;M3</title>
<path fill="none" stroke="#8b1a1a" stroke-width="5" d="M59.81,-164C64.24,-164 80.05,-164 95.4,-164"/>
<polygon fill="#8b1a1a" stroke="#8b1a1a" stroke-width="5" points="95.07,-168.38 105.07,-164 95.07,-159.63 95.07,-168.38"/>
</g>
</g>
</svg>