<?xml version="1.0" encoding="UTF-8" standalone="no"?>
<!DOCTYPE svg PUBLIC "-//W3C//DTD SVG 1.1//EN"
 "http://www.w3.org/Graphics/SVG/1.1/DTD/svg11.dtd">
<!-- Generated by graphviz version 10.0.1 (20240210.2158)
 -->
<!-- Pages: 1 -->
<svg width="44pt" height="411pt"
 viewBox="0.00 0.00 44.00 411.20" xmlns="http://www.w3.org/2000/svg" xmlns:xlink="http://www.w3.org/1999/xlink">
<g id="graph0" class="graph" transform="scale(1 1) rotate(0) translate(4 407.2)">
<polygon fill="white" stroke="none" points="-4,4 -4,-407.2 40,-407.2 40,4 -4,4"/>
<!-- 2071 -->
<g id="node1" class="node">
<title>2071</title>
<ellipse fill="none" stroke="black" cx="18" cy="-345.6" rx="18" ry="18"/>
<text text-anchor="middle" x="18" y="-340.18" font-family="Times New Roman,serif" font-size="14.00">2071</text>
</g>
<!-- 166 -->
<g id="node2" class="node">
<title>166</title>
<ellipse fill="none" stroke="black" cx="18" cy="-273.6" rx="18" ry="18"/>
<text text-anchor="middle" x="18" y="-268.18" font-family="Times New Roman,serif" font-size="14.00">166</text>
</g>
<!-- 2071&#45;&gt;166 -->
<g id="edge1" class="edge">
<title>2071&#45;&gt;166</title>
<path fill="none" stroke="black" d="M18,-327.3C18,-320.01 18,-311.33 18,-303.14"/>
<polygon fill="black" stroke="black" points="21.5,-303.22 18,-293.22 14.5,-303.22 21.5,-303.22"/>
</g>
<!-- 1 -->
<g id="node3" class="node">
<title>1</title>
<ellipse fill="none" stroke="black" cx="18" cy="-201.6" rx="18" ry="18"/>
<text text-anchor="middle" x="18" y="-196.17" font-family="Times New Roman,serif" font-size="14.00">1</text>
</g>
<!-- 166&#45;&gt;1 -->
<g id="edge4" class="edge">
<title>166&#45;&gt;1</title>
<path fill="none" stroke="black" d="M18,-255.3C18,-248.01 18,-239.33 18,-231.14"/>
<polygon fill="black" stroke="black" points="21.5,-231.22 18,-221.22 14.5,-231.22 21.5,-231.22"/>
</g>
<!-- 12 -->
<g id="node4" class="node">
<title>12</title>
<ellipse fill="none" stroke="black" cx="18" cy="-129.6" rx="18" ry="18"/>
<text text-anchor="middle" x="18" y="-124.17" font-family="Times New Roman,serif" font-size="14.00">12</text>
</g>
<!-- 1&#45;&gt;12 -->
<g id="edge2" class="edge">
<title>1&#45;&gt;12</title>
<path fill="none" stroke="black" d="M18,-183.3C18,-176.01 18,-167.33 18,-159.14"/>
<polygon fill="black" stroke="black" points="21.5,-159.22 18,-149.22 14.5,-159.22 21.5,-159.22"/>
</g>
<!-- 22 -->
<g id="node5" class="node">
<title>22</title>
<ellipse fill="none" stroke="black" cx="18" cy="-57.6" rx="18" ry="18"/>
<text text-anchor="middle" x="18" y="-52.17" font-family="Times New Roman,serif" font-size="14.00">22</text>
</g>
<!-- 12&#45;&gt;22 -->
<g id="edge3" class="edge">
<title>12&#45;&gt;22</title>
<path fill="none" stroke="black" d="M18,-111.3C18,-104.01 18,-95.33 18,-87.14"/>
<polygon fill="black" stroke="black" points="21.5,-87.22 18,-77.22 14.5,-87.22 21.5,-87.22"/>
</g>
<!-- e_5_target -->
<g id="node7" class="node">
<title>e_5_target</title>
<ellipse fill="black" stroke="black" cx="18" cy="-1.8" rx="1.8" ry="1.8"/>
</g>
<!-- 22&#45;&gt;e_5_target -->
<g id="edge6" class="edge">
<title>22&#45;&gt;e_5_target</title>
<path fill="none" stroke="black" d="M18,-39.28C18,-31.47 18,-22.41 18,-15.28"/>
<polygon fill="black" stroke="black" points="21.5,-15.47 18,-5.47 14.5,-15.47 21.5,-15.47"/>
</g>
<!-- e_4_source -->
<g id="node6" class="node">
<title>e_4_source</title>
<ellipse fill="black" stroke="black" cx="18" cy="-401.4" rx="1.8" ry="1.8"/>
</g>
<!-- e_4_source&#45;&gt;2071 -->
<g id="edge5" class="edge">
<title>e_4_source&#45;&gt;2071</title>
<path fill="none" stroke="black" d="M18,-399.47C18,-396.37 18,-386.04 18,-375.32"/>
<polygon fill="black" stroke="black" points="21.5,-375.37 18,-365.37 14.5,-375.37 21.5,-375.37"/>
</g>
</g>
</svg>