<?xml version="1.0" encoding="UTF-8" standalone="no"?>
<!DOCTYPE svg PUBLIC "-//W3C//DTD SVG 1.1//EN"
 "http://www.w3.org/Graphics/SVG/1.1/DTD/svg11.dtd">
<!-- Generated by graphviz version 10.0.1 (20240210.2158)
 -->
<!-- Pages: 1 -->
<svg width="121pt" height="332pt"
 viewBox="0.00 0.00 121.00 332.00" xmlns="http://www.w3.org/2000/svg" xmlns:xlink="http://www.w3.org/1999/xlink">
<g id="graph0" class="graph" transform="scale(1 1) rotate(0) translate(4 328)">
<polygon fill="white" stroke="none" points="-4,4 -4,-328 117,-328 117,4 -4,4"/>
<!-- v1 -->
<g id="node1" class="node">
<title>v1</title>
<ellipse fill="none" stroke="black" cx="95" cy="-306" rx="18" ry="18"/>
<text text-anchor="middle" x="95" y="-300.57" font-family="Times New Roman,serif" font-size="14.00">v1</text>
</g>
<!-- v2 -->
<g id="node2" class="node">
<title>v2</title>
<ellipse fill="none" stroke="black" cx="72" cy="-234" rx="18" ry="18"/>
<text text-anchor="middle" x="72" y="-228.57" font-family="Times New Roman,serif" font-size="14.00">v2</text>
</g>
<!-- v1&#45;&gt;v2 -->
<g id="edge1" class="edge">
<title>v1&#45;&gt;v2</title>
<path fill="none" stroke="black" d="M89.55,-288.41C86.97,-280.57 83.83,-270.99 80.91,-262.13"/>
<polygon fill="black" stroke="black" points="84.33,-261.32 77.88,-252.91 77.68,-263.5 84.33,-261.32"/>
</g>
<!-- v7 -->
<g id="node3" class="node">
<title>v7</title>
<ellipse fill="none" stroke="black" cx="70" cy="-18" rx="18" ry="18"/>
<text text-anchor="middle" x="70" y="-12.57" font-family="Times New Roman,serif" font-size="14.00">v7</text>
</g>
<!-- v1&#45;&gt;v7 -->
<g id="edge2" class="edge">
<title>v1&#45;&gt;v7</title>
<path fill="none" stroke="black" d="M98.06,-287.98C104.46,-249 117.02,-150.6 97,-72 94.5,-62.18 89.95,-52.11 85.29,-43.41"/>
<polygon fill="black" stroke="black" points="88.43,-41.86 80.43,-34.91 82.36,-45.33 88.43,-41.86"/>
</g>
<!-- v4 -->
<g id="node4" class="node">
<title>v4</title>
<ellipse fill="none" stroke="black" cx="18" cy="-162" rx="18" ry="18"/>
<text text-anchor="middle" x="18" y="-156.57" font-family="Times New Roman,serif" font-size="14.00">v4</text>
</g>
<!-- v2&#45;&gt;v4 -->
<g id="edge3" class="edge">
<title>v2&#45;&gt;v4</title>
<path fill="none" stroke="black" d="M61.33,-219.17C54.01,-209.68 44.12,-196.86 35.64,-185.86"/>
<polygon fill="black" stroke="black" points="38.45,-183.78 29.57,-178 32.91,-188.06 38.45,-183.78"/>
</g>
<!-- v5 -->
<g id="node6" class="node">
<title>v5</title>
<ellipse fill="none" stroke="black" cx="72" cy="-162" rx="18" ry="18"/>
<text text-anchor="middle" x="72" y="-156.57" font-family="Times New Roman,serif" font-size="14.00">v5</text>
</g>
<!-- v2&#45;&gt;v5 -->
<g id="edge8" class="edge">
<title>v2&#45;&gt;v5</title>
<path fill="none" stroke="black" d="M72,-215.7C72,-208.41 72,-199.73 72,-191.54"/>
<polygon fill="black" stroke="black" points="75.5,-191.62 72,-181.62 68.5,-191.62 75.5,-191.62"/>
</g>
<!-- v4&#45;&gt;v7 -->
<g id="edge5" class="edge">
<title>v4&#45;&gt;v7</title>
<path fill="none" stroke="black" d="M21.73,-143.94C25.95,-125.79 33.48,-96.37 43,-72 46.69,-62.56 51.51,-52.58 56.07,-43.84"/>
<polygon fill="black" stroke="black" points="59.02,-45.74 60.67,-35.27 52.85,-42.43 59.02,-45.74"/>
</g>
<!-- v6 -->
<g id="node5" class="node">
<title>v6</title>
<ellipse fill="none" stroke="black" cx="70" cy="-90" rx="18" ry="18"/>
<text text-anchor="middle" x="70" y="-84.58" font-family="Times New Roman,serif" font-size="14.00">v6</text>
</g>
<!-- v4&#45;&gt;v6 -->
<g id="edge4" class="edge">
<title>v4&#45;&gt;v6</title>
<path fill="none" stroke="black" d="M28.52,-146.83C35.5,-137.44 44.82,-124.9 52.85,-114.08"/>
<polygon fill="black" stroke="black" points="55.44,-116.47 58.59,-106.36 49.82,-112.3 55.44,-116.47"/>
</g>
<!-- v6&#45;&gt;v7 -->
<g id="edge7" class="edge">
<title>v6&#45;&gt;v7</title>
<path fill="none" stroke="black" d="M70,-71.7C70,-64.41 70,-55.73 70,-47.54"/>
<polygon fill="black" stroke="black" points="73.5,-47.62 70,-37.62 66.5,-47.62 73.5,-47.62"/>
</g>
<!-- v5&#45;&gt;v6 -->
<g id="edge6" class="edge">
<title>v5&#45;&gt;v6</title>
<path fill="none" stroke="black" d="M71.51,-143.7C71.3,-136.41 71.05,-127.73 70.82,-119.54"/>
<polygon fill="black" stroke="black" points="74.32,-119.51 70.53,-109.62 67.32,-119.71 74.32,-119.51"/>
</g>
</g>
</svg>