<?xml version="1.0" encoding="UTF-8" standalone="no"?>
<!DOCTYPE svg PUBLIC "-//W3C//DTD SVG 1.1//EN"
 "http://www.w3.org/Graphics/SVG/1.1/DTD/svg11.dtd">
<!-- Generated by graphviz version 10.0.1 (20240210.2158)
 -->
<!-- Pages: 1 -->
<svg width="146pt" height="404pt"
 viewBox="0.00 0.00 146.30 404.00" xmlns="http://www.w3.org/2000/svg" xmlns:xlink="http://www.w3.org/1999/xlink">
<g id="graph0" class="graph" transform="scale(1 1) rotate(0) translate(4 400)">
<polygon fill="white" stroke="none" points="-4,4 -4,-400 142.3,-400 142.3,4 -4,4"/>
<!-- v1 -->
<g id="node1" class="node">
<title>v1</title>
<ellipse fill="none" stroke="black" cx="76.46" cy="-306" rx="18" ry="18"/>
<text text-anchor="middle" x="76.46" y="-300.57" font-family="Times New Roman,serif" font-size="14.00">v1</text>
</g>
<!-- v2 -->
<g id="node2" class="node">
<title>v2</title>
<ellipse fill="none" stroke="black" cx="53.46" cy="-234" rx="18" ry="18"/>
<text text-anchor="middle" x="53.46" y="-228.57" font-family="Times New Roman,serif" font-size="14.00">v2</text>
</g>
<!-- v1&#45;&gt;v2 -->
<g id="edge1" class="edge">
<title>v1&#45;&gt;v2</title>
<path fill="none" stroke="black" d="M71.01,-288.41C68.43,-280.57 65.28,-270.99 62.37,-262.13"/>
<polygon fill="black" stroke="black" points="65.79,-261.32 59.34,-252.91 59.14,-263.5 65.79,-261.32"/>
</g>
<!-- v7 -->
<g id="node3" class="node">
<title>v7</title>
<ellipse fill="none" stroke="black" cx="22.46" cy="-18" rx="18" ry="18"/>
<text text-anchor="middle" x="22.46" y="-12.57" font-family="Times New Roman,serif" font-size="14.00">v7</text>
</g>
<!-- v1&#45;&gt;v7 -->
<g id="edge2" class="edge">
<title>v1&#45;&gt;v7</title>
<path fill="none" stroke="black" d="M62.81,-294.31C51.31,-284.54 35.35,-269.05 26.46,-252 -10.71,-180.76 -0.18,-151.78 9.46,-72 10.47,-63.66 12.34,-54.74 14.35,-46.64"/>
<polygon fill="black" stroke="black" points="17.73,-47.55 16.93,-36.98 10.97,-45.74 17.73,-47.55"/>
</g>
<!-- v4 -->
<g id="node5" class="node">
<title>v4</title>
<ellipse fill="none" stroke="black" cx="49.46" cy="-162" rx="18" ry="18"/>
<text text-anchor="middle" x="49.46" y="-156.57" font-family="Times New Roman,serif" font-size="14.00">v4</text>
</g>
<!-- v2&#45;&gt;v4 -->
<g id="edge4" class="edge">
<title>v2&#45;&gt;v4</title>
<path fill="none" stroke="black" d="M52.47,-215.7C52.05,-208.41 51.56,-199.73 51.09,-191.54"/>
<polygon fill="black" stroke="black" points="54.59,-191.4 50.52,-181.62 47.6,-191.8 54.59,-191.4"/>
</g>
<!-- v5 -->
<g id="node7" class="node">
<title>v5</title>
<ellipse fill="none" stroke="black" cx="103.46" cy="-162" rx="18" ry="18"/>
<text text-anchor="middle" x="103.46" y="-156.57" font-family="Times New Roman,serif" font-size="14.00">v5</text>
</g>
<!-- v2&#45;&gt;v5 -->
<g id="edge10" class="edge">
<title>v2&#45;&gt;v5</title>
<path fill="none" stroke="black" d="M63.58,-218.83C70.22,-209.54 79.06,-197.15 86.73,-186.41"/>
<polygon fill="black" stroke="black" points="89.51,-188.55 92.47,-178.38 83.81,-184.48 89.51,-188.55"/>
</g>
<!-- v7&#45;&gt;v2 -->
<g id="edge9" class="edge">
<title>v7&#45;&gt;v2</title>
<path fill="none" stroke="black" d="M19.62,-35.83C15.23,-65.56 8.64,-129.01 22.46,-180 25.26,-190.35 30.65,-200.76 36.16,-209.57"/>
<polygon fill="black" stroke="black" points="33.22,-211.47 41.69,-217.83 39.04,-207.57 33.22,-211.47"/>
</g>
<!-- v3 -->
<g id="node4" class="node">
<title>v3</title>
<ellipse fill="none" stroke="black" cx="99.46" cy="-378" rx="18" ry="18"/>
<text text-anchor="middle" x="99.46" y="-372.57" font-family="Times New Roman,serif" font-size="14.00">v3</text>
</g>
<!-- v3&#45;&gt;v1 -->
<g id="edge3" class="edge">
<title>v3&#45;&gt;v1</title>
<path fill="none" stroke="black" d="M94.01,-360.41C91.43,-352.57 88.28,-342.99 85.37,-334.13"/>
<polygon fill="black" stroke="black" points="88.79,-333.32 82.34,-324.91 82.14,-335.5 88.79,-333.32"/>
</g>
<!-- v6 -->
<g id="node6" class="node">
<title>v6</title>
<ellipse fill="none" stroke="black" cx="97.46" cy="-90" rx="18" ry="18"/>
<text text-anchor="middle" x="97.46" y="-84.58" font-family="Times New Roman,serif" font-size="14.00">v6</text>
</g>
<!-- v3&#45;&gt;v6 -->
<g id="edge11" class="edge">
<title>v3&#45;&gt;v6</title>
<path fill="none" stroke="black" d="M106.04,-360.85C120.71,-322.51 153.12,-223.26 130.46,-144 127.38,-133.25 121.43,-122.55 115.41,-113.62"/>
<polygon fill="black" stroke="black" points="118.32,-111.66 109.63,-105.59 112.64,-115.75 118.32,-111.66"/>
</g>
<!-- v4&#45;&gt;v7 -->
<g id="edge6" class="edge">
<title>v4&#45;&gt;v7</title>
<path fill="none" stroke="black" d="M46.2,-143.87C41.64,-119.88 33.29,-75.99 27.81,-47.16"/>
<polygon fill="black" stroke="black" points="31.31,-46.85 26.01,-37.68 24.44,-48.15 31.31,-46.85"/>
</g>
<!-- v4&#45;&gt;v6 -->
<g id="edge5" class="edge">
<title>v4&#45;&gt;v6</title>
<path fill="none" stroke="black" d="M59.4,-146.5C65.65,-137.39 73.85,-125.43 81.04,-114.95"/>
<polygon fill="black" stroke="black" points="83.9,-116.96 86.67,-106.73 78.13,-113 83.9,-116.96"/>
</g>
<!-- v6&#45;&gt;v7 -->
<g id="edge8" class="edge">
<title>v6&#45;&gt;v7</title>
<path fill="none" stroke="black" d="M84.73,-77.13C73.42,-66.57 56.66,-50.92 43.38,-38.53"/>
<polygon fill="black" stroke="black" points="46.05,-36.23 36.35,-31.97 41.27,-41.35 46.05,-36.23"/>
</g>
<!-- v5&#45;&gt;v1 -->
<g id="edge12" class="edge">
<title>v5&#45;&gt;v1</title>
<path fill="none" stroke="black" d="M100.19,-180.19C95.62,-204.21 87.28,-248.11 81.8,-276.91"/>
<polygon fill="black" stroke="black" points="78.43,-275.91 80,-286.38 85.3,-277.21 78.43,-275.91"/>
</g>
<!-- v5&#45;&gt;v6 -->
<g id="edge7" class="edge">
<title>v5&#45;&gt;v6</title>
<path fill="none" stroke="black" d="M101.97,-143.7C101.35,-136.41 100.61,-127.73 99.9,-119.54"/>
<polygon fill="black" stroke="black" points="103.39,-119.28 99.05,-109.61 96.42,-119.87 103.39,-119.28"/>
</g>
</g>
</svg>