<?xml version="1.0" encoding="UTF-8" standalone="no"?>
<!DOCTYPE svg PUBLIC "-//W3C//DTD SVG 1.1//EN"
 "http://www.w3.org/Graphics/SVG/1.1/DTD/svg11.dtd">
<!-- Generated by graphviz version 10.0.1 (20240210.2158)
 -->
<!-- Pages: 1 -->
<svg width="131pt" height="404pt"
 viewBox="0.00 0.00 130.59 404.00" xmlns="http://www.w3.org/2000/svg" xmlns:xlink="http://www.w3.org/1999/xlink">
<g id="graph0" class="graph" transform="scale(1 1) rotate(0) translate(4 400)">
<polygon fill="white" stroke="none" points="-4,4 -4,-400 126.59,-400 126.59,4 -4,4"/>
<!-- v1 -->
<g id="node1" class="node">
<title>v1</title>
<ellipse fill="none" stroke="black" cx="54.59" cy="-306" rx="18" ry="18"/>
<text text-anchor="middle" x="54.59" y="-300.57" font-family="Times New Roman,serif" font-size="14.00">v1</text>
</g>
<!-- v2 -->
<g id="node2" class="node">
<title>v2</title>
<ellipse fill="none" stroke="black" cx="54.59" cy="-234" rx="18" ry="18"/>
<text text-anchor="middle" x="54.59" y="-228.57" font-family="Times New Roman,serif" font-size="14.00">v2</text>
</g>
<!-- v1&#45;&gt;v2 -->
<g id="edge1" class="edge">
<title>v1&#45;&gt;v2</title>
<path fill="none" stroke="black" d="M54.59,-287.7C54.59,-280.41 54.59,-271.73 54.59,-263.54"/>
<polygon fill="black" stroke="black" points="58.09,-263.62 54.59,-253.62 51.09,-263.62 58.09,-263.62"/>
</g>
<!-- v7 -->
<g id="node3" class="node">
<title>v7</title>
<ellipse fill="none" stroke="black" cx="29.59" cy="-18" rx="18" ry="18"/>
<text text-anchor="middle" x="29.59" y="-12.57" font-family="Times New Roman,serif" font-size="14.00">v7</text>
</g>
<!-- v1&#45;&gt;v7 -->
<g id="edge2" class="edge">
<title>v1&#45;&gt;v7</title>
<path fill="none" stroke="black" d="M45.64,-289.9C32.73,-267.07 9.67,-221.95 2.59,-180 -5.38,-132.71 8.98,-77.59 19.64,-45.66"/>
<polygon fill="black" stroke="black" points="22.87,-47.02 22.85,-36.43 16.26,-44.72 22.87,-47.02"/>
</g>
<!-- v4 -->
<g id="node5" class="node">
<title>v4</title>
<ellipse fill="none" stroke="black" cx="29.59" cy="-162" rx="18" ry="18"/>
<text text-anchor="middle" x="29.59" y="-156.57" font-family="Times New Roman,serif" font-size="14.00">v4</text>
</g>
<!-- v2&#45;&gt;v4 -->
<g id="edge4" class="edge">
<title>v2&#45;&gt;v4</title>
<path fill="none" stroke="black" d="M48.79,-216.76C45.92,-208.72 42.38,-198.81 39.13,-189.69"/>
<polygon fill="black" stroke="black" points="42.53,-188.81 35.87,-180.57 35.94,-191.17 42.53,-188.81"/>
</g>
<!-- v5 -->
<g id="node7" class="node">
<title>v5</title>
<ellipse fill="none" stroke="black" cx="83.59" cy="-162" rx="18" ry="18"/>
<text text-anchor="middle" x="83.59" y="-156.57" font-family="Times New Roman,serif" font-size="14.00">v5</text>
</g>
<!-- v2&#45;&gt;v5 -->
<g id="edge9" class="edge">
<title>v2&#45;&gt;v5</title>
<path fill="none" stroke="black" d="M61.17,-217.12C64.58,-208.88 68.84,-198.61 72.72,-189.24"/>
<polygon fill="black" stroke="black" points="75.86,-190.8 76.46,-180.22 69.4,-188.12 75.86,-190.8"/>
</g>
<!-- v3 -->
<g id="node4" class="node">
<title>v3</title>
<ellipse fill="none" stroke="black" cx="104.59" cy="-378" rx="18" ry="18"/>
<text text-anchor="middle" x="104.59" y="-372.57" font-family="Times New Roman,serif" font-size="14.00">v3</text>
</g>
<!-- v3&#45;&gt;v1 -->
<g id="edge3" class="edge">
<title>v3&#45;&gt;v1</title>
<path fill="none" stroke="black" d="M94.47,-362.83C87.83,-353.54 78.99,-341.15 71.31,-330.41"/>
<polygon fill="black" stroke="black" points="74.24,-328.48 65.57,-322.38 68.54,-332.55 74.24,-328.48"/>
</g>
<!-- v6 -->
<g id="node6" class="node">
<title>v6</title>
<ellipse fill="none" stroke="black" cx="79.59" cy="-90" rx="18" ry="18"/>
<text text-anchor="middle" x="79.59" y="-84.58" font-family="Times New Roman,serif" font-size="14.00">v6</text>
</g>
<!-- v3&#45;&gt;v6 -->
<g id="edge10" class="edge">
<title>v3&#45;&gt;v6</title>
<path fill="none" stroke="black" d="M108.31,-359.94C116.11,-320.88 131.81,-222.31 110.59,-144 107.79,-133.65 102.4,-123.24 96.89,-114.43"/>
<polygon fill="black" stroke="black" points="99.83,-112.53 91.36,-106.17 94.01,-116.43 99.83,-112.53"/>
</g>
<!-- v4&#45;&gt;v7 -->
<g id="edge6" class="edge">
<title>v4&#45;&gt;v7</title>
<path fill="none" stroke="black" d="M29.59,-143.59C29.59,-119.61 29.59,-76.14 29.59,-47.42"/>
<polygon fill="black" stroke="black" points="33.09,-47.62 29.59,-37.62 26.09,-47.62 33.09,-47.62"/>
</g>
<!-- v4&#45;&gt;v6 -->
<g id="edge5" class="edge">
<title>v4&#45;&gt;v6</title>
<path fill="none" stroke="black" d="M39.71,-146.83C46.35,-137.54 55.2,-125.15 62.87,-114.41"/>
<polygon fill="black" stroke="black" points="65.64,-116.55 68.61,-106.38 59.95,-112.48 65.64,-116.55"/>
</g>
<!-- v6&#45;&gt;v7 -->
<g id="edge8" class="edge">
<title>v6&#45;&gt;v7</title>
<path fill="none" stroke="black" d="M69.47,-74.83C62.83,-65.54 53.99,-53.15 46.31,-42.41"/>
<polygon fill="black" stroke="black" points="49.24,-40.48 40.57,-34.38 43.54,-44.55 49.24,-40.48"/>
</g>
<!-- v5&#45;&gt;v6 -->
<g id="edge7" class="edge">
<title>v5&#45;&gt;v6</title>
<path fill="none" stroke="black" d="M82.6,-143.7C82.19,-136.41 81.69,-127.73 81.22,-119.54"/>
<polygon fill="black" stroke="black" points="84.72,-119.4 80.66,-109.62 77.73,-119.8 84.72,-119.4"/>
</g>
</g>
</svg>