<?xml version="1.0" encoding="UTF-8" standalone="no"?>
<!DOCTYPE svg PUBLIC "-//W3C//DTD SVG 1.1//EN"
 "http://www.w3.org/Graphics/SVG/1.1/DTD/svg11.dtd">
<!-- Generated by graphviz version 10.0.1 (20240210.2158)
 -->
<!-- Pages: 1 -->
<svg width="98pt" height="116pt"
 viewBox="0.00 0.00 98.00 116.00" xmlns="http://www.w3.org/2000/svg" xmlns:xlink="http://www.w3.org/1999/xlink">
<g id="graph0" class="graph" transform="scale(1 1) rotate(0) translate(4 112)">
<polygon fill="white" stroke="none" points="-4,4 -4,-112 94,-112 94,4 -4,4"/>
<!-- A -->
<g id="node1" class="node">
<title>A</title>
<ellipse fill="none" stroke="black" cx="45" cy="-90" rx="18" ry="18"/>
<text text-anchor="middle" x="45" y="-84.58" font-family="Times New Roman,serif" font-size="14.00">A</text>
</g>
<!-- B -->
<g id="node2" class="node">
<title>B</title>
<ellipse fill="none" stroke="black" cx="18" cy="-18" rx="18" ry="18"/>
<text text-anchor="middle" x="18" y="-12.57" font-family="Times New Roman,serif" font-size="14.00">B</text>
</g>
<!-- A&#45;&gt;B -->
<g id="edge1" class="edge">
<title>A&#45;&gt;B</title>
<path fill="none" stroke="black" d="M38.74,-72.76C35.64,-64.72 31.81,-54.81 28.3,-45.69"/>
<polygon fill="black" stroke="black" points="31.64,-44.63 24.77,-36.56 25.11,-47.15 31.64,-44.63"/>
</g>
<!-- C -->
<g id="node3" class="node">
<title>C</title>
<ellipse fill="none" stroke="black" cx="72" cy="-18" rx="18" ry="18"/>
<text text-anchor="middle" x="72" y="-12.57" font-family="Times New Roman,serif" font-size="14.00">C</text>
</g>
<!-- A&#45;&gt;C -->
<g id="edge2" class="edge">
<title>A&#45;&gt;C</title>
<path fill="none" stroke="black" d="M51.26,-72.76C55.08,-62.87 59.99,-50.13 64.08,-39.54"/>
<polygon fill="black" stroke="black" points="60.75,-34.28 70.08,-37.88 69.36,-39.75 60.03,-36.15 60.75,-34.28"/>
<polyline fill="none" stroke="black" points="65.77,-35.15 63.97,-39.81"/>
</g>
</g>
</svg>