<?xml version="1.0" encoding="UTF-8" standalone="no"?>
<!DOCTYPE svg PUBLIC "-//W3C//DTD SVG 1.1//EN"
 "http://www.w3.org/Graphics/SVG/1.1/DTD/svg11.dtd">
<!-- Generated by graphviz version 10.0.1 (20240210.2158)
 -->
<!-- Pages: 1 -->
<svg width="44pt" height="332pt"
 viewBox="0.00 0.00 44.00 332.00" xmlns="http://www.w3.org/2000/svg" xmlns:xlink="http://www.w3.org/1999/xlink">
<g id="graph0" class="graph" transform="scale(1 1) rotate(0) translate(4 328)">
<polygon fill="white" stroke="none" points="-4,4 -4,-328 40,-328 40,4 -4,4"/>
<!-- A -->
<g id="node1" class="node">
<title>A</title>
<ellipse fill="none" stroke="black" cx="18" cy="-306" rx="18" ry="18"/>
<text text-anchor="middle" x="18" y="-300.57" font-family="Times New Roman,serif" font-size="14.00">A</text>
</g>
<!-- C -->
<g id="node2" class="node">
<title>C</title>
<ellipse fill="none" stroke="black" cx="18" cy="-234" rx="18" ry="18"/>
<text text-anchor="middle" x="18" y="-228.57" font-family="Times New Roman,serif" font-size="14.00">C</text>
</g>
<!-- A&#45;&gt;C -->
<g id="edge1" class="edge">
<title>A&#45;&gt;C</title>
<path fill="none" stroke="black" d="M18,-287.7C18,-280.41 18,-271.73 18,-263.54"/>
<polygon fill="black" stroke="black" points="21.5,-263.62 18,-253.62 14.5,-263.62 21.5,-263.62"/>
</g>
<!-- E -->
<g id="node3" class="node">
<title>E</title>
<ellipse fill="none" stroke="black" cx="18" cy="-162" rx="18" ry="18"/>
<text text-anchor="middle" x="18" y="-156.57" font-family="Times New Roman,serif" font-size="14.00">E</text>
</g>
<!-- C&#45;&gt;E -->
<g id="edge2" class="edge">
<title>C&#45;&gt;E</title>
<path fill="none" stroke="black" d="M18,-215.7C18,-208.41 18,-199.73 18,-191.54"/>
<polygon fill="black" stroke="black" points="21.5,-191.62 18,-181.62 14.5,-191.62 21.5,-191.62"/>
</g>
<!-- F -->
<g id="node4" class="node">
<title>F</title>
<ellipse fill="none" stroke="black" cx="18" cy="-90" rx="18" ry="18"/>
<text text-anchor="middle" x="18" y="-84.58" font-family="Times New Roman,serif" font-size="14.00">F</text>
</g>
<!-- E&#45;&gt;F -->
<g id="edge3" class="edge">
<title>E&#45;&gt;F</title>
<path fill="none" stroke="black" d="M18,-143.7C18,-136.41 18,-127.73 18,-119.54"/>
<polygon fill="black" stroke="black" points="21.5,-119.62 18,-109.62 14.5,-119.62 21.5,-119.62"/>
</g>
<!-- G -->
<g id="node5" class="node">
<title>G</title>
<ellipse fill="none" stroke="black" cx="18" cy="-18" rx="18" ry="18"/>
<text text-anchor="middle" x="18" y="-12.57" font-family="Times New Roman,serif" font-size="14.00">G</text>
</g>
<!-- F&#45;&gt;G -->
<g id="edge4" class="edge">
<title>F&#45;&gt;G</title>
<path fill="none" stroke="black" d="M18,-71.7C18,-64.41 18,-55.73 18,-47.54"/>
<polygon fill="black" stroke="black" points="21.5,-47.62 18,-37.62 14.5,-47.62 21.5,-47.62"/>
</g>
</g>
</svg>