<?xml version="1.0" encoding="UTF-8" standalone="no"?>
<!DOCTYPE svg PUBLIC "-//W3C//DTD SVG 1.1//EN"
 "http://www.w3.org/Graphics/SVG/1.1/DTD/svg11.dtd">
<!-- Generated by graphviz version 10.0.1 (20240210.2158)
 -->
<!-- Pages: 1 -->
<svg width="339pt" height="216pt"
 viewBox="0.00 0.00 339.20 216.00" xmlns="http://www.w3.org/2000/svg" xmlns:xlink="http://www.w3.org/1999/xlink">
<g id="graph0" class="graph" transform="scale(1 1) rotate(0) translate(4 212)">
<polygon fill="white" stroke="none" points="-4,4 -4,-212 335.2,-212 335.2,4 -4,4"/>
<!-- M2 -->
<g id="node1" class="node">
<title>M2</title>
<ellipse fill="none" stroke="black" cx="57.6" cy="-56" rx="18" ry="18"/>
<text text-anchor="middle" x="57.6" y="-50.58" font-family="Times New Roman,serif" font-size="14.00">M2</text>
</g>
<!-- e_0_center -->
<g id="node5" class="node">
<title>e_0_center</title>
<polygon fill="none" stroke="black" points="133.2,-66.6 126,-66.6 126,-59.4 133.2,-59.4 133.2,-66.6"/>
</g>
<!-- M2&#45;&gt;e_0_center -->
<g id="edge1" class="edge">
<title>M2&#45;&gt;e_0_center</title>
<path fill="none" stroke="black" d="M75.9,-57.73C92.75,-59.41 117.01,-61.84 125.51,-62.69"/>
</g>
<!-- M1 -->
<g id="node2" class="node">
<title>M1</title>
<ellipse fill="none" stroke="black" cx="57.6" cy="-110" rx="18" ry="18"/>
<text text-anchor="middle" x="57.6" y="-104.58" font-family="Times New Roman,serif" font-size="14.00">M1</text>
</g>
<!-- M1&#45;&gt;e_0_center -->
<g id="edge2" class="edge">
<title>M1&#45;&gt;e_0_center</title>
<path fill="none" stroke="black" d="M73.1,-100.26C90.08,-88.86 117,-70.79 125.75,-64.91"/>
</g>
<!-- M4 -->
<g id="node6" class="node">
<title>M4</title>
<ellipse fill="none" stroke="black" cx="129.6" cy="-110" rx="18" ry="18"/>
<text text-anchor="middle" x="129.6" y="-104.58" font-family="Times New Roman,serif" font-size="14.00">M4</text>
</g>
<!-- M1&#45;&gt;M4 -->
<g id="edge5" class="edge">
<title>M1&#45;&gt;M4</title>
<path fill="none" stroke="black" d="M75.9,-110C83.19,-110 91.87,-110 100.06,-110"/>
<polygon fill="black" stroke="black" points="99.98,-113.5 109.98,-110 99.98,-106.5 99.98,-113.5"/>
</g>
<!-- M6 -->
<g id="node3" class="node">
<title>M6</title>
<ellipse fill="none" stroke="black" cx="201.6" cy="-72" rx="18" ry="18"/>
<text text-anchor="middle" x="201.6" y="-66.58" font-family="Times New Roman,serif" font-size="14.00">M6</text>
</g>
<!-- M9 -->
<g id="node11" class="node">
<title>M9</title>
<ellipse fill="none" stroke="black" cx="273.6" cy="-72" rx="18" ry="18"/>
<text text-anchor="middle" x="273.6" y="-66.58" font-family="Times New Roman,serif" font-size="14.00">M9</text>
</g>
<!-- M6&#45;&gt;M9 -->
<g id="edge10" class="edge">
<title>M6&#45;&gt;M9</title>
<path fill="none" stroke="black" d="M219.9,-72C227.19,-72 235.87,-72 244.06,-72"/>
<polygon fill="black" stroke="black" points="243.98,-75.5 253.98,-72 243.98,-68.5 243.98,-75.5"/>
</g>
<!-- M5 -->
<g id="node4" class="node">
<title>M5</title>
<ellipse fill="none" stroke="black" cx="201.6" cy="-18" rx="18" ry="18"/>
<text text-anchor="middle" x="201.6" y="-12.57" font-family="Times New Roman,serif" font-size="14.00">M5</text>
</g>
<!-- e_7_target -->
<g id="node15" class="node">
<title>e_7_target</title>
<ellipse fill="black" stroke="black" cx="273.6" cy="-18" rx="1.8" ry="1.8"/>
</g>
<!-- M5&#45;&gt;e_7_target -->
<g id="edge14" class="edge">
<title>M5&#45;&gt;e_7_target</title>
<path fill="none" stroke="black" d="M219.9,-18C232.52,-18 249.31,-18 260.51,-18"/>
<polygon fill="black" stroke="black" points="260.28,-21.5 270.28,-18 260.28,-14.5 260.28,-21.5"/>
</g>
<!-- e_0_center&#45;&gt;M6 -->
<g id="edge3" class="edge">
<title>e_0_center&#45;&gt;M6</title>
<path fill="none" stroke="black" d="M133.61,-63.39C140.32,-64.25 157.13,-66.41 172.23,-68.35"/>
<polygon fill="black" stroke="black" points="171.39,-71.77 181.75,-69.58 172.28,-64.83 171.39,-71.77"/>
</g>
<!-- e_0_center&#45;&gt;M5 -->
<g id="edge4" class="edge">
<title>e_0_center&#45;&gt;M5</title>
<path fill="none" stroke="black" d="M133.61,-61.07C140.98,-56.33 160.5,-43.78 176.58,-33.44"/>
<polygon fill="black" stroke="black" points="178.22,-36.55 184.74,-28.2 174.43,-30.66 178.22,-36.55"/>
</g>
<!-- e_2_center -->
<g id="node10" class="node">
<title>e_2_center</title>
<polygon fill="none" stroke="black" points="205.2,-159.6 198,-159.6 198,-152.4 205.2,-152.4 205.2,-159.6"/>
</g>
<!-- M4&#45;&gt;e_2_center -->
<g id="edge7" class="edge">
<title>M4&#45;&gt;e_2_center</title>
<path fill="none" stroke="black" d="M145.1,-119.53C162.08,-130.69 189,-148.38 197.75,-154.13"/>
</g>
<!-- M3 -->
<g id="node7" class="node">
<title>M3</title>
<ellipse fill="none" stroke="black" cx="129.6" cy="-164" rx="18" ry="18"/>
<text text-anchor="middle" x="129.6" y="-158.57" font-family="Times New Roman,serif" font-size="14.00">M3</text>
</g>
<!-- M3&#45;&gt;e_2_center -->
<g id="edge6" class="edge">
<title>M3&#45;&gt;e_2_center</title>
<path fill="none" stroke="black" d="M147.9,-162.02C164.75,-160.1 189.01,-157.32 197.51,-156.35"/>
</g>
<!-- M7 -->
<g id="node8" class="node">
<title>M7</title>
<ellipse fill="none" stroke="black" cx="273.6" cy="-190" rx="18" ry="18"/>
<text text-anchor="middle" x="273.6" y="-184.57" font-family="Times New Roman,serif" font-size="14.00">M7</text>
</g>
<!-- e_8_target -->
<g id="node16" class="node">
<title>e_8_target</title>
<ellipse fill="black" stroke="black" cx="329.4" cy="-190" rx="1.8" ry="1.8"/>
</g>
<!-- M7&#45;&gt;e_8_target -->
<g id="edge15" class="edge">
<title>M7&#45;&gt;e_8_target</title>
<path fill="none" stroke="black" d="M291.92,-190C299.73,-190 308.79,-190 315.92,-190"/>
<polygon fill="black" stroke="black" points="315.73,-193.5 325.73,-190 315.73,-186.5 315.73,-193.5"/>
</g>
<!-- M8 -->
<g id="node9" class="node">
<title>M8</title>
<ellipse fill="none" stroke="black" cx="273.6" cy="-136" rx="18" ry="18"/>
<text text-anchor="middle" x="273.6" y="-130.57" font-family="Times New Roman,serif" font-size="14.00">M8</text>
</g>
<!-- e_9_target -->
<g id="node17" class="node">
<title>e_9_target</title>
<ellipse fill="black" stroke="black" cx="329.4" cy="-136" rx="1.8" ry="1.8"/>
</g>
<!-- M8&#45;&gt;e_9_target -->
<g id="edge16" class="edge">
<title>M8&#45;&gt;e_9_target</title>
<path fill="none" stroke="black" d="M291.92,-136C299.73,-136 308.79,-136 315.92,-136"/>
<polygon fill="black" stroke="black" points="315.73,-139.5 325.73,-136 315.73,-132.5 315.73,-139.5"/>
</g>
<!-- e_2_center&#45;&gt;M7 -->
<g id="edge8" class="edge">
<title>e_2_center&#45;&gt;M7</title>
<path fill="none" stroke="black" d="M205.61,-157.46C212.67,-160.89 230.88,-169.74 246.54,-177.34"/>
<polygon fill="black" stroke="black" points="244.92,-180.45 255.44,-181.67 247.98,-174.15 244.92,-180.45"/>
</g>
<!-- e_2_center&#45;&gt;M8 -->
<g id="edge9" class="edge">
<title>e_2_center&#45;&gt;M8</title>
<path fill="none" stroke="black" d="M205.61,-155.14C212.47,-153.18 229.89,-148.2 245.24,-143.82"/>
<polygon fill="black" stroke="black" points="245.77,-147.31 254.42,-141.19 243.85,-140.58 245.77,-147.31"/>
</g>
<!-- e_10_target -->
<g id="node18" class="node">
<title>e_10_target</title>
<ellipse fill="black" stroke="black" cx="329.4" cy="-72" rx="1.8" ry="1.8"/>
</g>
<!-- M9&#45;&gt;e_10_target -->
<g id="edge17" class="edge">
<title>M9&#45;&gt;e_10_target</title>
<path fill="none" stroke="black" d="M291.92,-72C299.73,-72 308.79,-72 315.92,-72"/>
<polygon fill="black" stroke="black" points="315.73,-75.5 325.73,-72 315.73,-68.5 315.73,-75.5"/>
</g>
<!-- e_4_source -->
<g id="node12" class="node">
<title>e_4_source</title>
<ellipse fill="black" stroke="black" cx="1.8" cy="-110" rx="1.8" ry="1.8"/>
</g>
<!-- e_4_source&#45;&gt;M1 -->
<g id="edge11" class="edge">
<title>e_4_source&#45;&gt;M1</title>
<path fill="none" stroke="black" d="M3.73,-110C6.83,-110 17.16,-110 27.88,-110"/>
<polygon fill="black" stroke="black" points="27.83,-113.5 37.83,-110 27.83,-106.5 27.83,-113.5"/>
</g>
<!-- e_5_source -->
<g id="node13" class="node">
<title>e_5_source</title>
<ellipse fill="black" stroke="black" cx="1.8" cy="-56" rx="1.8" ry="1.8"/>
</g>
<!-- e_5_source&#45;&gt;M2 -->
<g id="edge12" class="edge">
<title>e_5_source&#45;&gt;M2</title>
<path fill="none" stroke="black" d="M3.73,-56C6.83,-56 17.16,-56 27.88,-56"/>
<polygon fill="black" stroke="black" points="27.83,-59.5 37.83,-56 27.83,-52.5 27.83,-59.5"/>
</g>
<!-- e_6_source -->
<g id="node14" class="node">
<title>e_6_source</title>
<ellipse fill="black" stroke="black" cx="57.6" cy="-164" rx="1.8" ry="1.8"/>
</g>
<!-- e_6_source&#45;&gt;M3 -->
<g id="edge13" class="edge">
<title>e_6_source&#45;&gt;M3</title>
<path fill="none" stroke="black" d="M59.81,-164C64.71,-164 83.54,-164 100.26,-164"/>
<polygon fill="black" stroke="black" points="99.79,-167.5 109.79,-164 99.79,-160.5 99.79,-167.5"/>
</g>
</g>
</svg>