<?xml version="1.0" encoding="UTF-8" standalone="no"?>
<!DOCTYPE svg PUBLIC "-//W3C//DTD SVG 1.1//EN"
 "http://www.w3.org/Graphics/SVG/1.1/DTD/svg11.dtd">
<!-- Generated by graphviz version 10.0.1 (20240210.2158)
 -->
<!-- Pages: 1 -->
<svg width="145pt" height="444pt"
 viewBox="0.00 0.00 145.38 443.60" xmlns="http://www.w3.org/2000/svg" xmlns:xlink="http://www.w3.org/1999/xlink">
<g id="graph0" class="graph" transform="scale(1 1) rotate(0) translate(4 439.6)">
<polygon fill="white" stroke="none" points="-4,4 -4,-439.6 141.38,-439.6 141.38,4 -4,4"/>
<!-- v1 -->
<g id="node1" class="node">
<title>v1</title>
<ellipse fill="none" stroke="black" cx="70.96" cy="-345.6" rx="18" ry="18"/>
<text text-anchor="middle" x="70.96" y="-340.18" font-family="Times New Roman,serif" font-size="14.00">v1</text>
</g>
<!-- v2 -->
<g id="node2" class="node">
<title>v2</title>
<ellipse fill="none" stroke="black" cx="47.96" cy="-273.6" rx="18" ry="18"/>
<text text-anchor="middle" x="47.96" y="-268.18" font-family="Times New Roman,serif" font-size="14.00">v2</text>
</g>
<!-- v1&#45;&gt;v2 -->
<g id="edge1" class="edge">
<title>v1&#45;&gt;v2</title>
<path fill="none" stroke="black" d="M65.51,-328.01C62.93,-320.17 59.78,-310.59 56.87,-301.73"/>
<polygon fill="black" stroke="black" points="60.29,-300.92 53.84,-292.51 53.64,-303.1 60.29,-300.92"/>
</g>
<!-- v7 -->
<g id="node3" class="node">
<title>v7</title>
<ellipse fill="none" stroke="black" cx="18.96" cy="-57.6" rx="18" ry="18"/>
<text text-anchor="middle" x="18.96" y="-52.17" font-family="Times New Roman,serif" font-size="14.00">v7</text>
</g>
<!-- v1&#45;&gt;v7 -->
<g id="edge2" class="edge">
<title>v1&#45;&gt;v7</title>
<path fill="none" stroke="black" d="M57.08,-334.02C45.43,-324.32 29.39,-308.88 20.96,-291.6 -11.94,-224.19 1.77,-132.19 11.83,-86.59"/>
<polygon fill="black" stroke="black" points="15.2,-87.53 14.06,-77 8.39,-85.95 15.2,-87.53"/>
</g>
<!-- v4 -->
<g id="node5" class="node">
<title>v4</title>
<ellipse fill="none" stroke="black" cx="45.96" cy="-201.6" rx="18" ry="18"/>
<text text-anchor="middle" x="45.96" y="-196.17" font-family="Times New Roman,serif" font-size="14.00">v4</text>
</g>
<!-- v2&#45;&gt;v4 -->
<g id="edge4" class="edge">
<title>v2&#45;&gt;v4</title>
<path fill="none" stroke="black" d="M47.46,-255.3C47.25,-248.01 47.01,-239.33 46.77,-231.14"/>
<polygon fill="black" stroke="black" points="50.27,-231.11 46.49,-221.22 43.28,-231.31 50.27,-231.11"/>
</g>
<!-- v5 -->
<g id="node7" class="node">
<title>v5</title>
<ellipse fill="none" stroke="black" cx="99.96" cy="-201.6" rx="18" ry="18"/>
<text text-anchor="middle" x="99.96" y="-196.17" font-family="Times New Roman,serif" font-size="14.00">v5</text>
</g>
<!-- v2&#45;&gt;v5 -->
<g id="edge10" class="edge">
<title>v2&#45;&gt;v5</title>
<path fill="none" stroke="black" d="M58.48,-258.43C65.46,-249.04 74.77,-236.5 82.81,-225.68"/>
<polygon fill="black" stroke="black" points="85.39,-228.07 88.55,-217.96 79.77,-223.9 85.39,-228.07"/>
</g>
<!-- v7&#45;&gt;v2 -->
<g id="edge9" class="edge">
<title>v7&#45;&gt;v2</title>
<path fill="none" stroke="black" d="M16.2,-75.87C12.04,-105.73 5.94,-168.69 18.96,-219.6 21.57,-229.83 26.61,-240.2 31.77,-249.03"/>
<polygon fill="black" stroke="black" points="28.66,-250.67 36.93,-257.3 34.6,-246.96 28.66,-250.67"/>
</g>
<!-- e_13_target -->
<g id="node9" class="node">
<title>e_13_target</title>
<ellipse fill="black" stroke="black" cx="18.96" cy="-1.8" rx="1.8" ry="1.8"/>
</g>
<!-- v7&#45;&gt;e_13_target -->
<g id="edge14" class="edge">
<title>v7&#45;&gt;e_13_target</title>
<path fill="none" stroke="black" d="M18.96,-39.28C18.96,-31.47 18.96,-22.41 18.96,-15.28"/>
<polygon fill="black" stroke="black" points="22.46,-15.47 18.96,-5.47 15.46,-15.47 22.46,-15.47"/>
</g>
<!-- v3 -->
<g id="node4" class="node">
<title>v3</title>
<ellipse fill="none" stroke="black" cx="112.96" cy="-417.6" rx="18" ry="18"/>
<text text-anchor="middle" x="112.96" y="-412.18" font-family="Times New Roman,serif" font-size="14.00">v3</text>
</g>
<!-- v3&#45;&gt;v1 -->
<g id="edge3" class="edge">
<title>v3&#45;&gt;v1</title>
<path fill="none" stroke="black" d="M104.05,-401.75C98.7,-392.85 91.77,-381.29 85.64,-371.06"/>
<polygon fill="black" stroke="black" points="88.78,-369.5 80.63,-362.72 82.77,-373.1 88.78,-369.5"/>
</g>
<!-- v6 -->
<g id="node6" class="node">
<title>v6</title>
<ellipse fill="none" stroke="black" cx="93.96" cy="-129.6" rx="18" ry="18"/>
<text text-anchor="middle" x="93.96" y="-124.17" font-family="Times New Roman,serif" font-size="14.00">v6</text>
</g>
<!-- v3&#45;&gt;v6 -->
<g id="edge11" class="edge">
<title>v3&#45;&gt;v6</title>
<path fill="none" stroke="black" d="M117.72,-399.8C127.95,-360.89 149.35,-261.92 126.96,-183.6 123.88,-172.85 117.93,-162.15 111.91,-153.22"/>
<polygon fill="black" stroke="black" points="114.81,-151.26 106.13,-145.19 109.14,-155.35 114.81,-151.26"/>
</g>
<!-- v4&#45;&gt;v7 -->
<g id="edge6" class="edge">
<title>v4&#45;&gt;v7</title>
<path fill="none" stroke="black" d="M42.7,-183.47C38.14,-159.48 29.79,-115.59 24.31,-86.76"/>
<polygon fill="black" stroke="black" points="27.81,-86.45 22.51,-77.28 20.94,-87.75 27.81,-86.45"/>
</g>
<!-- v4&#45;&gt;v6 -->
<g id="edge5" class="edge">
<title>v4&#45;&gt;v6</title>
<path fill="none" stroke="black" d="M55.9,-186.1C62.14,-176.99 70.35,-165.03 77.54,-154.55"/>
<polygon fill="black" stroke="black" points="80.4,-156.56 83.17,-146.33 74.63,-152.6 80.4,-156.56"/>
</g>
<!-- v6&#45;&gt;v7 -->
<g id="edge8" class="edge">
<title>v6&#45;&gt;v7</title>
<path fill="none" stroke="black" d="M81.23,-116.73C69.92,-106.17 53.16,-90.52 39.88,-78.13"/>
<polygon fill="black" stroke="black" points="42.55,-75.83 32.85,-71.57 37.77,-80.95 42.55,-75.83"/>
</g>
<!-- v5&#45;&gt;v1 -->
<g id="edge12" class="edge">
<title>v5&#45;&gt;v1</title>
<path fill="none" stroke="black" d="M96.54,-219.35C91.65,-243.25 82.63,-287.46 76.71,-316.45"/>
<polygon fill="black" stroke="black" points="73.33,-315.49 74.76,-325.99 80.19,-316.89 73.33,-315.49"/>
</g>
<!-- v5&#45;&gt;v6 -->
<g id="edge7" class="edge">
<title>v5&#45;&gt;v6</title>
<path fill="none" stroke="black" d="M98.47,-183.3C97.85,-176.01 97.1,-167.33 96.4,-159.14"/>
<polygon fill="black" stroke="black" points="99.89,-158.88 95.55,-149.21 92.92,-159.47 99.89,-158.88"/>
</g>
<!-- e_12_source -->
<g id="node8" class="node">
<title>e_12_source</title>
<ellipse fill="black" stroke="black" cx="70.96" cy="-417.6" rx="1.8" ry="1.8"/>
</g>
<!-- e_12_source&#45;&gt;v1 -->
<g id="edge13" class="edge">
<title>e_12_source&#45;&gt;v1</title>
<path fill="none" stroke="black" d="M70.96,-415.39C70.96,-410.49 70.96,-391.66 70.96,-374.94"/>
<polygon fill="black" stroke="black" points="74.46,-375.41 70.96,-365.41 67.46,-375.41 74.46,-375.41"/>
</g>
</g>
</svg>