<?xml version="1.0" encoding="UTF-8" standalone="no"?>
<!DOCTYPE svg PUBLIC "-//W3C//DTD SVG 1.1//EN"
 "http://www.w3.org/Graphics/SVG/1.1/DTD/svg11.dtd">
<!-- Generated by graphviz version 14.1.2 (0)
 -->
<!-- Pages: 1 -->
<svg width="832pt" height="608pt"
 viewBox="0.00 0.00 832.00 608.00" xmlns="http://www.w3.org/2000/svg" xmlns:xlink="http://www.w3.org/1999/xlink">
<g id="graph0" class="graph" transform="scale(1 1) rotate(0) translate(4 603.5)">
<polygon fill="white" stroke="none" points="-4,4 -4,-603.5 827.75,-603.5 827.75,4 -4,4"/>
<text xml:space="preserve" text-anchor="middle" x="411.88" y="-582.2" font-family="Times,serif" font-size="14.00">Shift fit: selected network and learned treatment effects</text>
<!-- mek -->
<g id="node1" class="node">
<title>mek</title>
<ellipse fill="none" stroke="black" cx="493" cy="-248" rx="18" ry="18"/>
<text xml:space="preserve" text-anchor="middle" x="493" y="-242.95" font-family="Times,serif" font-size="14.00">mek</text>
</g>
<!-- raf -->
<g id="node2" class="node">
<title>raf</title>
<ellipse fill="none" stroke="black" cx="701.5" cy="-244" rx="18" ry="18"/>
<text xml:space="preserve" text-anchor="middle" x="701.5" y="-238.95" font-family="Times,serif" font-size="14.00">raf</text>
</g>
<!-- mek&#45;&gt;raf -->
<g id="edge1" class="edge">
<title>mek&#45;&gt;raf</title>
<path fill="none" stroke="#0072b2" stroke-width="2.5" d="M511.04,-245.07C516.73,-244.23 523.12,-243.42 529,-243 578.16,-239.51 635.44,-240.95 669.79,-242.4"/>
<polygon fill="#0072b2" stroke="#0072b2" stroke-width="2.5" points="669.5,-245.89 679.65,-242.86 669.83,-238.9 669.5,-245.89"/>
<text xml:space="preserve" text-anchor="middle" x="597.25" y="-244.15" font-family="Times,serif" font-size="14.00" fill="#333333">+0.54</text>
</g>
<!-- erk -->
<g id="node3" class="node">
<title>erk</title>
<ellipse fill="none" stroke="black" cx="701.5" cy="-153" rx="18" ry="18"/>
<text xml:space="preserve" text-anchor="middle" x="701.5" y="-147.95" font-family="Times,serif" font-size="14.00">erk</text>
</g>
<!-- mek&#45;&gt;erk -->
<g id="edge2" class="edge">
<title>mek&#45;&gt;erk</title>
<path fill="none" stroke="#d55e00" stroke-width="2.5" d="M509.86,-240.7C544.7,-224.68 628.28,-186.23 672.29,-165.98"/>
<polygon fill="#d55e00" stroke="#d55e00" stroke-width="2.5" points="673.53,-169.26 681.15,-161.9 670.6,-162.9 673.53,-169.26"/>
<text xml:space="preserve" text-anchor="middle" x="597.25" y="-211.58" font-family="Times,serif" font-size="14.00" fill="#333333">&#45;0.33</text>
</g>
<!-- akt -->
<g id="node4" class="node">
<title>akt</title>
<ellipse fill="none" stroke="black" cx="597.25" cy="-61" rx="18" ry="18"/>
<text xml:space="preserve" text-anchor="middle" x="597.25" y="-55.95" font-family="Times,serif" font-size="14.00">akt</text>
</g>
<!-- mek&#45;&gt;akt -->
<g id="edge3" class="edge">
<title>mek&#45;&gt;akt</title>
<path fill="none" stroke="#0072b2" stroke-width="2.5" d="M500.34,-231.09C506.82,-214.34 517.55,-188.14 529,-166.5 543.94,-138.25 563.92,-107.63 578.21,-86.69"/>
<polygon fill="#0072b2" stroke="#0072b2" stroke-width="2.5" points="580.94,-88.9 583.74,-78.68 575.18,-84.92 580.94,-88.9"/>
<text xml:space="preserve" text-anchor="middle" x="545.12" y="-169.7" font-family="Times,serif" font-size="14.00" fill="#333333">+0.24</text>
</g>
<!-- pka -->
<g id="node5" class="node">
<title>pka</title>
<ellipse fill="none" stroke="black" cx="597.25" cy="-431" rx="18" ry="18"/>
<text xml:space="preserve" text-anchor="middle" x="597.25" y="-425.95" font-family="Times,serif" font-size="14.00">pka</text>
</g>
<!-- mek&#45;&gt;pka -->
<g id="edge4" class="edge">
<title>mek&#45;&gt;pka</title>
<path fill="none" stroke="#d55e00" stroke-width="2.5" d="M502.75,-263.44C515.62,-286.19 540.4,-330.06 561.25,-367.5 567.77,-379.2 574.91,-392.14 581.03,-403.27"/>
<polygon fill="#d55e00" stroke="#d55e00" stroke-width="2.5" points="577.95,-404.93 585.84,-412.01 584.09,-401.56 577.95,-404.93"/>
<text xml:space="preserve" text-anchor="middle" x="545.12" y="-370.7" font-family="Times,serif" font-size="14.00" fill="#333333">&#45;0.56</text>
</g>
<!-- p38 -->
<g id="node6" class="node">
<title>p38</title>
<ellipse fill="none" stroke="black" cx="597.25" cy="-317" rx="18" ry="18"/>
<text xml:space="preserve" text-anchor="middle" x="597.25" y="-311.95" font-family="Times,serif" font-size="14.00">p38</text>
</g>
<!-- mek&#45;&gt;p38 -->
<g id="edge5" class="edge">
<title>mek&#45;&gt;p38</title>
<path fill="none" stroke="#0072b2" stroke-width="2.5" d="M511.19,-246.16C525.71,-245.48 546.44,-246.67 561.25,-256.5 572.27,-263.81 580.25,-275.87 585.78,-287.3"/>
<polygon fill="#0072b2" stroke="#0072b2" stroke-width="2.5" points="582.42,-288.32 589.54,-296.17 588.86,-285.59 582.42,-288.32"/>
<text xml:space="preserve" text-anchor="middle" x="545.12" y="-259.7" font-family="Times,serif" font-size="14.00" fill="#333333">+0.26</text>
</g>
<!-- plc -->
<g id="node7" class="node">
<title>plc</title>
<ellipse fill="none" stroke="black" cx="805.75" cy="-462" rx="18" ry="18"/>
<text xml:space="preserve" text-anchor="middle" x="805.75" y="-456.95" font-family="Times,serif" font-size="14.00">plc</text>
</g>
<!-- erk&#45;&gt;plc -->
<g id="edge6" class="edge">
<title>erk&#45;&gt;plc</title>
<path fill="none" stroke="#0072b2" stroke-width="2.5" d="M707.35,-170.33C710.88,-183.17 715.69,-201.13 719.5,-217 728.4,-254.13 726.09,-264.56 737.5,-301 739.59,-307.66 773.57,-388.28 792.41,-432.84"/>
<polygon fill="#0072b2" stroke="#0072b2" stroke-width="2.5" points="789.12,-434.06 796.24,-441.91 795.57,-431.33 789.12,-434.06"/>
<text xml:space="preserve" text-anchor="middle" x="753.62" y="-378.78" font-family="Times,serif" font-size="14.00" fill="#333333">+0.30</text>
</g>
<!-- pip3 -->
<g id="node8" class="node">
<title>pip3</title>
<ellipse fill="none" stroke="black" cx="805.75" cy="-349" rx="18" ry="18"/>
<text xml:space="preserve" text-anchor="middle" x="805.75" y="-343.95" font-family="Times,serif" font-size="14.00">pip3</text>
</g>
<!-- erk&#45;&gt;pip3 -->
<g id="edge7" class="edge">
<title>erk&#45;&gt;pip3</title>
<path fill="none" stroke="#d55e00" stroke-width="2.5" d="M710.69,-168.71C728.01,-201.9 768.5,-279.52 790.28,-321.26"/>
<polygon fill="#d55e00" stroke="#d55e00" stroke-width="2.5" points="787.04,-322.62 794.77,-329.86 793.24,-319.38 787.04,-322.62"/>
<text xml:space="preserve" text-anchor="middle" x="753.62" y="-283.21" font-family="Times,serif" font-size="14.00" fill="#333333">&#45;0.22</text>
</g>
<!-- akt&#45;&gt;erk -->
<g id="edge8" class="edge">
<title>akt&#45;&gt;erk</title>
<path fill="none" stroke="#0072b2" stroke-width="2.5" d="M615.54,-60.9C630.32,-61.68 651.39,-64.99 665.5,-76.5 679.59,-87.99 688.26,-106.41 693.44,-122.29"/>
<polygon fill="#0072b2" stroke="#0072b2" stroke-width="2.5" points="690.02,-123.05 696.11,-131.71 696.75,-121.14 690.02,-123.05"/>
<text xml:space="preserve" text-anchor="middle" x="649.38" y="-79.7" font-family="Times,serif" font-size="14.00" fill="#333333">+0.88</text>
</g>
<!-- pka&#45;&gt;plc -->
<g id="edge10" class="edge">
<title>pka&#45;&gt;plc</title>
<path fill="none" stroke="#d55e00" stroke-width="2.5" d="M612.65,-441.2C618.75,-445.1 626.1,-449.27 633.25,-452 677.32,-468.84 690.53,-467.54 737.5,-472 751.77,-473.36 755.56,-473.99 769.75,-472 771.47,-471.76 773.23,-471.45 775,-471.1"/>
<polygon fill="#d55e00" stroke="#d55e00" stroke-width="2.5" points="775.72,-474.53 784.55,-468.68 774,-467.74 775.72,-474.53"/>
<text xml:space="preserve" text-anchor="middle" x="701.5" y="-473.55" font-family="Times,serif" font-size="14.00" fill="#333333">&#45;0.37</text>
</g>
<!-- pka&#45;&gt;pip3 -->
<g id="edge11" class="edge">
<title>pka&#45;&gt;pip3</title>
<path fill="none" stroke="#0072b2" stroke-width="2.5" d="M613.12,-422.01C637.98,-407.39 689.93,-378.53 737.5,-363 749.35,-359.13 762.73,-356.09 774.42,-353.84"/>
<polygon fill="#0072b2" stroke="#0072b2" stroke-width="2.5" points="774.66,-357.35 783.89,-352.16 773.44,-350.46 774.66,-357.35"/>
<text xml:space="preserve" text-anchor="middle" x="701.5" y="-387.32" font-family="Times,serif" font-size="14.00" fill="#333333">+0.17</text>
</g>
<!-- pip2 -->
<g id="node9" class="node">
<title>pip2</title>
<ellipse fill="none" stroke="black" cx="701.5" cy="-431" rx="18" ry="18"/>
<text xml:space="preserve" text-anchor="middle" x="701.5" y="-425.95" font-family="Times,serif" font-size="14.00">pip2</text>
</g>
<!-- pka&#45;&gt;pip2 -->
<g id="edge9" class="edge">
<title>pka&#45;&gt;pip2</title>
<path fill="none" stroke="#d55e00" stroke-width="2.5" d="M615.6,-431C630.28,-431 651.71,-431 669.36,-431"/>
<polygon fill="#d55e00" stroke="#d55e00" stroke-width="2.5" points="669.29,-434.5 679.29,-431 669.29,-427.5 669.29,-434.5"/>
<text xml:space="preserve" text-anchor="middle" x="649.38" y="-434.2" font-family="Times,serif" font-size="14.00" fill="#333333">&#45;0.27</text>
</g>
<!-- p38&#45;&gt;raf -->
<g id="edge12" class="edge">
<title>p38&#45;&gt;raf</title>
<path fill="none" stroke="#0072b2" stroke-width="2.5" d="M608.86,-303.02C615.32,-295.15 624.07,-285.53 633.25,-278.5 644.96,-269.54 659.34,-261.8 671.8,-255.93"/>
<polygon fill="#0072b2" stroke="#0072b2" stroke-width="2.5" points="673.18,-259.15 680.89,-251.87 670.33,-252.75 673.18,-259.15"/>
<text xml:space="preserve" text-anchor="middle" x="649.38" y="-281.7" font-family="Times,serif" font-size="14.00" fill="#333333">+0.20</text>
</g>
<!-- p38&#45;&gt;pip2 -->
<g id="edge13" class="edge">
<title>p38&#45;&gt;pip2</title>
<path fill="none" stroke="#0072b2" stroke-width="2.5" d="M609.98,-330.08C627.01,-349.06 658.83,-384.54 679.84,-407.96"/>
<polygon fill="#0072b2" stroke="#0072b2" stroke-width="2.5" points="677.1,-410.15 686.38,-415.26 682.31,-405.48 677.1,-410.15"/>
<text xml:space="preserve" text-anchor="middle" x="649.38" y="-394.07" font-family="Times,serif" font-size="14.00" fill="#333333">+0.30</text>
</g>
<!-- pip2&#45;&gt;plc -->
<g id="edge14" class="edge">
<title>pip2&#45;&gt;plc</title>
<path fill="none" stroke="#0072b2" stroke-width="2.5" d="M718.93,-435.98C733.97,-440.54 756.6,-447.4 774.84,-452.93"/>
<polygon fill="#0072b2" stroke="#0072b2" stroke-width="2.5" points="773.82,-456.28 784.4,-455.83 775.85,-449.58 773.82,-456.28"/>
<text xml:space="preserve" text-anchor="middle" x="753.62" y="-454.29" font-family="Times,serif" font-size="14.00" fill="#333333">+0.31</text>
</g>
<!-- pip2&#45;&gt;pip3 -->
<g id="edge15" class="edge">
<title>pip2&#45;&gt;pip3</title>
<path fill="none" stroke="#0072b2" stroke-width="2.5" d="M719.1,-426.14C733.63,-421.28 754.71,-412.68 769.75,-400 777.47,-393.49 784.24,-384.88 789.72,-376.59"/>
<polygon fill="#0072b2" stroke="#0072b2" stroke-width="2.5" points="792.62,-378.55 794.82,-368.19 786.64,-374.92 792.62,-378.55"/>
<text xml:space="preserve" text-anchor="middle" x="753.62" y="-421.75" font-family="Times,serif" font-size="14.00" fill="#333333">+0.26</text>
</g>
<!-- pkc -->
<g id="node10" class="node">
<title>pkc</title>
<ellipse fill="none" stroke="black" cx="191.5" cy="-307" rx="18" ry="18"/>
<text xml:space="preserve" text-anchor="middle" x="191.5" y="-301.95" font-family="Times,serif" font-size="14.00">pkc</text>
</g>
<!-- pkc&#45;&gt;mek -->
<g id="edge16" class="edge">
<title>pkc&#45;&gt;mek</title>
<path fill="none" stroke="#0072b2" stroke-width="2.5" d="M208.14,-299.33C229.55,-289.22 269.44,-271.76 305.5,-263.5 359.32,-251.17 423.87,-248.38 461.19,-247.9"/>
<polygon fill="#0072b2" stroke="#0072b2" stroke-width="2.5" points="460.76,-251.4 470.74,-247.83 460.71,-244.4 460.76,-251.4"/>
<text xml:space="preserve" text-anchor="middle" x="344.12" y="-266.7" font-family="Times,serif" font-size="14.00" fill="#333333">+0.46</text>
</g>
<!-- pkc&#45;&gt;raf -->
<g id="edge17" class="edge">
<title>pkc&#45;&gt;raf</title>
<path fill="none" stroke="#d55e00" stroke-width="2.5" d="M201.7,-291.65C207.9,-282.59 216.87,-271.63 227.5,-265 336.8,-196.79 382.84,-191.29 511,-204.5 568.11,-210.39 633.38,-226.01 670.49,-235.75"/>
<polygon fill="#d55e00" stroke="#d55e00" stroke-width="2.5" points="669.48,-239.1 680.04,-238.3 671.29,-232.34 669.48,-239.1"/>
<text xml:space="preserve" text-anchor="middle" x="493" y="-207.7" font-family="Times,serif" font-size="14.00" fill="#333333">&#45;0.22</text>
</g>
<!-- pkc&#45;&gt;erk -->
<g id="edge18" class="edge">
<title>pkc&#45;&gt;erk</title>
<path fill="none" stroke="#0072b2" stroke-width="2.5" d="M196.68,-289.25C209.37,-240.3 252.28,-107 343.12,-107 343.12,-107 343.12,-107 598.25,-107 626.49,-107 655.55,-121.77 675.44,-134.57"/>
<polygon fill="#0072b2" stroke="#0072b2" stroke-width="2.5" points="673.46,-137.46 683.7,-140.2 677.41,-131.67 673.46,-137.46"/>
<text xml:space="preserve" text-anchor="middle" x="493" y="-110.2" font-family="Times,serif" font-size="14.00" fill="#333333">+0.19</text>
</g>
<!-- pkc&#45;&gt;akt -->
<g id="edge19" class="edge">
<title>pkc&#45;&gt;akt</title>
<path fill="none" stroke="#0072b2" stroke-width="2.5" d="M192.74,-288.73C193.77,-241.91 199.18,-119.48 227.5,-93 275.9,-47.75 485.59,-54.64 565.32,-59.03"/>
<polygon fill="#0072b2" stroke="#0072b2" stroke-width="2.5" points="565.08,-62.52 575.26,-59.61 565.49,-55.53 565.08,-62.52"/>
<text xml:space="preserve" text-anchor="middle" x="428.88" y="-59.84" font-family="Times,serif" font-size="14.00" fill="#333333">+0.20</text>
</g>
<!-- pkc&#45;&gt;pka -->
<g id="edge20" class="edge">
<title>pkc&#45;&gt;pka</title>
<path fill="none" stroke="#d55e00" stroke-width="2.5" d="M202.61,-321.59C208.89,-329.62 217.64,-339.12 227.5,-345 324.98,-403.15 364.58,-381.69 475,-408 498.92,-413.7 504.86,-415.35 529,-420 540.93,-422.3 554.1,-424.52 565.61,-426.36"/>
<polygon fill="#d55e00" stroke="#d55e00" stroke-width="2.5" points="564.91,-429.8 575.33,-427.88 565.99,-422.88 564.91,-429.8"/>
<text xml:space="preserve" text-anchor="middle" x="428.88" y="-406.86" font-family="Times,serif" font-size="14.00" fill="#333333">&#45;0.28</text>
</g>
<!-- pkc&#45;&gt;p38 -->
<g id="edge21" class="edge">
<title>pkc&#45;&gt;p38</title>
<path fill="none" stroke="#0072b2" stroke-width="2.5" d="M206.42,-317.39C212.57,-321.42 220.07,-325.63 227.5,-328 260.63,-338.56 270.76,-332.67 305.5,-334 396.77,-337.51 419.78,-338.53 511,-334 533.42,-332.89 539.32,-333.78 561.25,-329 563.21,-328.57 565.22,-328.07 567.22,-327.52"/>
<polygon fill="#0072b2" stroke="#0072b2" stroke-width="2.5" points="568.02,-330.94 576.49,-324.56 565.9,-324.27 568.02,-330.94"/>
<text xml:space="preserve" text-anchor="middle" x="428.88" y="-340.22" font-family="Times,serif" font-size="14.00" fill="#333333">+0.59</text>
</g>
<!-- jnk -->
<g id="node11" class="node">
<title>jnk</title>
<ellipse fill="none" stroke="black" cx="344.12" cy="-307" rx="18" ry="18"/>
<text xml:space="preserve" text-anchor="middle" x="344.12" y="-301.95" font-family="Times,serif" font-size="14.00">jnk</text>
</g>
<!-- pkc&#45;&gt;jnk -->
<g id="edge22" class="edge">
<title>pkc&#45;&gt;jnk</title>
<path fill="none" stroke="#0072b2" stroke-width="2.5" d="M209.78,-307C234.75,-307 281.31,-307 312.27,-307"/>
<polygon fill="#0072b2" stroke="#0072b2" stroke-width="2.5" points="312.26,-310.5 322.26,-307 312.26,-303.5 312.26,-310.5"/>
<text xml:space="preserve" text-anchor="middle" x="257.5" y="-310.2" font-family="Times,serif" font-size="14.00" fill="#333333">+0.89</text>
</g>
<!-- jnk&#45;&gt;mek -->
<g id="edge23" class="edge">
<title>jnk&#45;&gt;mek</title>
<path fill="none" stroke="#0072b2" stroke-width="2.5" d="M359.83,-297.88C370.82,-291.34 386.36,-282.62 400.75,-276.5 420.63,-268.04 443.9,-260.82 461.95,-255.76"/>
<polygon fill="#0072b2" stroke="#0072b2" stroke-width="2.5" points="462.77,-259.16 471.51,-253.17 460.94,-252.41 462.77,-259.16"/>
<text xml:space="preserve" text-anchor="middle" x="428.88" y="-279.7" font-family="Times,serif" font-size="14.00" fill="#333333">+0.41</text>
</g>
<!-- jnk&#45;&gt;pka -->
<g id="edge24" class="edge">
<title>jnk&#45;&gt;pka</title>
<path fill="none" stroke="#d55e00" stroke-width="2.5" d="M360.83,-314.76C402.41,-335.29 515.73,-391.24 568.51,-417.3"/>
<polygon fill="#d55e00" stroke="#d55e00" stroke-width="2.5" points="566.64,-420.28 577.15,-421.57 569.74,-414.01 566.64,-420.28"/>
<text xml:space="preserve" text-anchor="middle" x="493" y="-390.55" font-family="Times,serif" font-size="14.00" fill="#333333">&#45;0.25</text>
</g>
<!-- jnk&#45;&gt;p38 -->
<g id="edge25" class="edge">
<title>jnk&#45;&gt;p38</title>
<path fill="none" stroke="#0072b2" stroke-width="2.5" d="M362.39,-307.69C404.32,-309.36 512.02,-313.65 565.36,-315.77"/>
<polygon fill="#0072b2" stroke="#0072b2" stroke-width="2.5" points="564.96,-319.26 575.09,-316.16 565.23,-312.26 564.96,-319.26"/>
<text xml:space="preserve" text-anchor="middle" x="493" y="-316.68" font-family="Times,serif" font-size="14.00" fill="#333333">+0.23</text>
</g>
<!-- treatment_conditions -->
<g id="node12" class="node">
<title>treatment_conditions</title>
<path fill="#f3e8f8" stroke="#7b3294" d="M65.5,-412C65.5,-412 12,-412 12,-412 6,-412 0,-406 0,-400 0,-400 0,-388 0,-388 0,-382 6,-376 12,-376 12,-376 65.5,-376 65.5,-376 71.5,-376 77.5,-382 77.5,-388 77.5,-388 77.5,-400 77.5,-400 77.5,-406 71.5,-412 65.5,-412"/>
<text xml:space="preserve" text-anchor="middle" x="38.75" y="-388.95" font-family="Times,serif" font-size="14.00">Treatments</text>
</g>
<!-- treatment_conditions&#45;&gt;mek -->
<g id="edge30" class="edge">
<title>treatment_conditions&#45;&gt;mek</title>
<path fill="none" stroke="#7b3294" stroke-width="2" stroke-dasharray="5,2" d="M77.96,-401.27C100.59,-404.5 129.78,-406.82 155.5,-403 296,-382.14 348.95,-389.2 457,-297 464.46,-290.63 471.15,-282.36 476.64,-274.42"/>
<polygon fill="#7b3294" stroke="#7b3294" stroke-width="2" points="479.45,-276.52 481.91,-266.21 473.56,-272.74 479.45,-276.52"/>
<text xml:space="preserve" text-anchor="middle" x="257.5" y="-412.86" font-family="Times,serif" font-size="14.00" fill="#7b3294">U0126</text>
<text xml:space="preserve" text-anchor="middle" x="257.5" y="-396.36" font-family="Times,serif" font-size="14.00" fill="#7b3294">shift +3.52</text>
</g>
<!-- treatment_conditions&#45;&gt;akt -->
<g id="edge27" class="edge">
<title>treatment_conditions&#45;&gt;akt</title>
<path fill="none" stroke="#7b3294" stroke-width="2" stroke-dasharray="5,2" d="M42.63,-375.53C55.3,-297.63 109.02,0 190.5,0 190.5,0 190.5,0 494,0 525.54,0 555.8,-21.67 575.11,-39.18"/>
<polygon fill="#7b3294" stroke="#7b3294" stroke-width="2" points="572.57,-41.59 582.22,-45.97 577.41,-36.53 572.57,-41.59"/>
<text xml:space="preserve" text-anchor="middle" x="344.12" y="-19.7" font-family="Times,serif" font-size="14.00" fill="#7b3294">AKT inhibitor</text>
<text xml:space="preserve" text-anchor="middle" x="344.12" y="-3.2" font-family="Times,serif" font-size="14.00" fill="#7b3294">shift &#45;0.40</text>
</g>
<!-- treatment_conditions&#45;&gt;pka -->
<g id="edge26" class="edge">
<title>treatment_conditions&#45;&gt;pka</title>
<path fill="none" stroke="#7b3294" stroke-width="2" stroke-dasharray="5,2" d="M57.34,-412.45C83.68,-437.99 136.11,-481 190.5,-481 190.5,-481 190.5,-481 494,-481 523.37,-481 553.11,-464.14 572.89,-450"/>
<polygon fill="#7b3294" stroke="#7b3294" stroke-width="2" points="574.75,-452.98 580.62,-444.17 570.53,-447.39 574.75,-452.98"/>
<text xml:space="preserve" text-anchor="middle" x="344.12" y="-500.7" font-family="Times,serif" font-size="14.00" fill="#7b3294">β2cAMP</text>
<text xml:space="preserve" text-anchor="middle" x="344.12" y="-484.2" font-family="Times,serif" font-size="14.00" fill="#7b3294">shift &#45;2.96</text>
</g>
<!-- treatment_conditions&#45;&gt;pip2 -->
<g id="edge29" class="edge">
<title>treatment_conditions&#45;&gt;pip2</title>
<path fill="none" stroke="#7b3294" stroke-width="2" stroke-dasharray="5,2" d="M47.85,-412.45C66.65,-452.12 117.33,-542 190.5,-542 190.5,-542 190.5,-542 598.25,-542 621.34,-542 661.09,-489.4 683.63,-456.62"/>
<polygon fill="#7b3294" stroke="#7b3294" stroke-width="2" points="686.43,-458.72 689.13,-448.48 680.63,-454.8 686.43,-458.72"/>
<text xml:space="preserve" text-anchor="middle" x="428.88" y="-561.7" font-family="Times,serif" font-size="14.00" fill="#7b3294">Psitect</text>
<text xml:space="preserve" text-anchor="middle" x="428.88" y="-545.2" font-family="Times,serif" font-size="14.00" fill="#7b3294">shift &#45;3.39</text>
</g>
<!-- treatment_conditions&#45;&gt;pkc -->
<g id="edge28" class="edge">
<title>treatment_conditions&#45;&gt;pkc</title>
<path fill="none" stroke="#7b3294" stroke-width="2" stroke-dasharray="5,2" d="M77.81,-377.54C83.73,-375.01 89.78,-372.42 95.5,-370 122.1,-358.73 131.83,-361.56 155.5,-345 161.23,-340.99 166.72,-335.89 171.58,-330.75"/>
<polygon fill="#7b3294" stroke="#7b3294" stroke-width="2" points="174.11,-333.17 178.06,-323.34 168.84,-328.56 174.11,-333.17"/>
<text xml:space="preserve" text-anchor="middle" x="125.5" y="-389.7" font-family="Times,serif" font-size="14.00" fill="#7b3294">Gö6976</text>
<text xml:space="preserve" text-anchor="middle" x="125.5" y="-373.2" font-family="Times,serif" font-size="14.00" fill="#7b3294">shift +2.06</text>
</g>
<!-- treatment_conditions&#45;&gt;pkc -->
<g id="edge31" class="edge">
<title>treatment_conditions&#45;&gt;pkc</title>
<path fill="none" stroke="#7b3294" stroke-width="2" stroke-dasharray="5,2" d="M45.7,-375.61C53.49,-354.95 69.31,-322.41 95.5,-308 115.36,-297.07 141.29,-297.59 161.03,-300.41"/>
<polygon fill="#7b3294" stroke="#7b3294" stroke-width="2" points="160.42,-303.86 170.88,-302.16 161.64,-296.97 160.42,-303.86"/>
<text xml:space="preserve" text-anchor="middle" x="125.5" y="-327.7" font-family="Times,serif" font-size="14.00" fill="#7b3294">PMA</text>
<text xml:space="preserve" text-anchor="middle" x="125.5" y="-311.2" font-family="Times,serif" font-size="14.00" fill="#7b3294">shift +0.38</text>
</g>
</g>
</svg>