<?xml version="1.0" encoding="UTF-8" standalone="no"?>
<!DOCTYPE svg PUBLIC "-//W3C//DTD SVG 1.1//EN"
 "http://www.w3.org/Graphics/SVG/1.1/DTD/svg11.dtd">
<!-- Generated by graphviz version 2.43.0 (0)
 -->
<!-- Title: %3 Pages: 1 -->
<svg width="44pt" height="843pt"
 viewBox="0.00 0.00 44.00 843.20" xmlns="http://www.w3.org/2000/svg" xmlns:xlink="http://www.w3.org/1999/xlink">
<g id="graph0" class="graph" transform="scale(1 1) rotate(0) translate(4 839.2)">
<title>%3</title>
<polygon fill="white" stroke="transparent" points="-4,4 -4,-839.2 40,-839.2 40,4 -4,4"/>
<!-- 28 -->
<g id="node1" class="node">
<title>28</title>
<ellipse fill="none" stroke="black" cx="18" cy="-561.6" rx="18" ry="18"/>
<text text-anchor="middle" x="18" y="-557.9" font-family="Times,serif" font-size="14.00">28</text>
</g>
<!-- 44 -->
<g id="node2" class="node">
<title>44</title>
<ellipse fill="none" stroke="black" cx="18" cy="-489.6" rx="18" ry="18"/>
<text text-anchor="middle" x="18" y="-485.9" font-family="Times,serif" font-size="14.00">44</text>
</g>
<!-- 28&#45;&gt;44 -->
<g id="edge1" class="edge">
<title>28&#45;&gt;44</title>
<path fill="none" stroke="black" d="M18,-543.3C18,-535.58 18,-526.31 18,-517.71"/>
<polygon fill="black" stroke="black" points="21.5,-517.7 18,-507.7 14.5,-517.7 21.5,-517.7"/>
</g>
<!-- 1234 -->
<g id="node8" class="node">
<title>1234</title>
<ellipse fill="none" stroke="black" cx="18" cy="-417.6" rx="18" ry="18"/>
<text text-anchor="middle" x="18" y="-413.9" font-family="Times,serif" font-size="14.00">1234</text>
</g>
<!-- 44&#45;&gt;1234 -->
<g id="edge5" class="edge">
<title>44&#45;&gt;1234</title>
<path fill="none" stroke="black" d="M18,-471.3C18,-463.58 18,-454.31 18,-445.71"/>
<polygon fill="black" stroke="black" points="21.5,-445.7 18,-435.7 14.5,-445.7 21.5,-445.7"/>
</g>
<!-- 1137 -->
<g id="node3" class="node">
<title>1137</title>
<ellipse fill="none" stroke="black" cx="18" cy="-201.6" rx="18" ry="18"/>
<text text-anchor="middle" x="18" y="-197.9" font-family="Times,serif" font-size="14.00">1137</text>
</g>
<!-- 3967 -->
<g id="node4" class="node">
<title>3967</title>
<ellipse fill="none" stroke="black" cx="18" cy="-129.6" rx="18" ry="18"/>
<text text-anchor="middle" x="18" y="-125.9" font-family="Times,serif" font-size="14.00">3967</text>
</g>
<!-- 1137&#45;&gt;3967 -->
<g id="edge2" class="edge">
<title>1137&#45;&gt;3967</title>
<path fill="none" stroke="black" d="M18,-183.3C18,-175.58 18,-166.31 18,-157.71"/>
<polygon fill="black" stroke="black" points="21.5,-157.7 18,-147.7 14.5,-157.7 21.5,-157.7"/>
</g>
<!-- 3240 -->
<g id="node5" class="node">
<title>3240</title>
<ellipse fill="none" stroke="black" cx="18" cy="-57.6" rx="18" ry="18"/>
<text text-anchor="middle" x="18" y="-53.9" font-family="Times,serif" font-size="14.00">3240</text>
</g>
<!-- 3967&#45;&gt;3240 -->
<g id="edge3" class="edge">
<title>3967&#45;&gt;3240</title>
<path fill="none" stroke="black" d="M18,-111.3C18,-103.58 18,-94.31 18,-85.71"/>
<polygon fill="black" stroke="black" points="21.5,-85.7 18,-75.7 14.5,-85.7 21.5,-85.7"/>
</g>
<!-- e_11_target -->
<g id="node13" class="node">
<title>e_11_target</title>
<ellipse fill="black" stroke="black" cx="18" cy="-1.8" rx="1.8" ry="1.8"/>
</g>
<!-- 3240&#45;&gt;e_11_target -->
<g id="edge12" class="edge">
<title>3240&#45;&gt;e_11_target</title>
<path fill="none" stroke="black" d="M18,-39.58C18,-31.17 18,-21.28 18,-13.87"/>
<polygon fill="black" stroke="black" points="21.5,-13.73 18,-3.73 14.5,-13.73 21.5,-13.73"/>
</g>
<!-- 80 -->
<g id="node6" class="node">
<title>80</title>
<ellipse fill="none" stroke="black" cx="18" cy="-345.6" rx="18" ry="18"/>
<text text-anchor="middle" x="18" y="-341.9" font-family="Times,serif" font-size="14.00">80</text>
</g>
<!-- 817 -->
<g id="node7" class="node">
<title>817</title>
<ellipse fill="none" stroke="black" cx="18" cy="-273.6" rx="18" ry="18"/>
<text text-anchor="middle" x="18" y="-269.9" font-family="Times,serif" font-size="14.00">817</text>
</g>
<!-- 80&#45;&gt;817 -->
<g id="edge4" class="edge">
<title>80&#45;&gt;817</title>
<path fill="none" stroke="black" d="M18,-327.3C18,-319.58 18,-310.31 18,-301.71"/>
<polygon fill="black" stroke="black" points="21.5,-301.7 18,-291.7 14.5,-301.7 21.5,-301.7"/>
</g>
<!-- 817&#45;&gt;1137 -->
<g id="edge8" class="edge">
<title>817&#45;&gt;1137</title>
<path fill="none" stroke="black" d="M18,-255.3C18,-247.58 18,-238.31 18,-229.71"/>
<polygon fill="black" stroke="black" points="21.5,-229.7 18,-219.7 14.5,-229.7 21.5,-229.7"/>
</g>
<!-- 1234&#45;&gt;80 -->
<g id="edge7" class="edge">
<title>1234&#45;&gt;80</title>
<path fill="none" stroke="black" d="M18,-399.3C18,-391.58 18,-382.31 18,-373.71"/>
<polygon fill="black" stroke="black" points="21.5,-373.7 18,-363.7 14.5,-373.7 21.5,-373.7"/>
</g>
<!-- 4550 -->
<g id="node9" class="node">
<title>4550</title>
<ellipse fill="none" stroke="black" cx="18" cy="-777.6" rx="18" ry="18"/>
<text text-anchor="middle" x="18" y="-773.9" font-family="Times,serif" font-size="14.00">4550</text>
</g>
<!-- 2061 -->
<g id="node10" class="node">
<title>2061</title>
<ellipse fill="none" stroke="black" cx="18" cy="-705.6" rx="18" ry="18"/>
<text text-anchor="middle" x="18" y="-701.9" font-family="Times,serif" font-size="14.00">2061</text>
</g>
<!-- 4550&#45;&gt;2061 -->
<g id="edge6" class="edge">
<title>4550&#45;&gt;2061</title>
<path fill="none" stroke="black" d="M18,-759.3C18,-751.58 18,-742.31 18,-733.71"/>
<polygon fill="black" stroke="black" points="21.5,-733.7 18,-723.7 14.5,-733.7 21.5,-733.7"/>
</g>
<!-- 113 -->
<g id="node11" class="node">
<title>113</title>
<ellipse fill="none" stroke="black" cx="18" cy="-633.6" rx="18" ry="18"/>
<text text-anchor="middle" x="18" y="-629.9" font-family="Times,serif" font-size="14.00">113</text>
</g>
<!-- 2061&#45;&gt;113 -->
<g id="edge10" class="edge">
<title>2061&#45;&gt;113</title>
<path fill="none" stroke="black" d="M18,-687.3C18,-679.58 18,-670.31 18,-661.71"/>
<polygon fill="black" stroke="black" points="21.5,-661.7 18,-651.7 14.5,-661.7 21.5,-661.7"/>
</g>
<!-- 113&#45;&gt;28 -->
<g id="edge9" class="edge">
<title>113&#45;&gt;28</title>
<path fill="none" stroke="black" d="M18,-615.3C18,-607.58 18,-598.31 18,-589.71"/>
<polygon fill="black" stroke="black" points="21.5,-589.7 18,-579.7 14.5,-589.7 21.5,-589.7"/>
</g>
<!-- e_10_source -->
<g id="node12" class="node">
<title>e_10_source</title>
<ellipse fill="black" stroke="black" cx="18" cy="-833.4" rx="1.8" ry="1.8"/>
</g>
<!-- e_10_source&#45;&gt;4550 -->
<g id="edge11" class="edge">
<title>e_10_source&#45;&gt;4550</title>
<path fill="none" stroke="black" d="M18,-831.47C18,-828.24 18,-817.15 18,-805.95"/>
<polygon fill="black" stroke="black" points="21.5,-805.86 18,-795.86 14.5,-805.86 21.5,-805.86"/>
</g>
</g>
</svg>