<?xml version="1.0" encoding="UTF-8" standalone="no"?>
<!DOCTYPE svg PUBLIC "-//W3C//DTD SVG 1.1//EN"
 "http://www.w3.org/Graphics/SVG/1.1/DTD/svg11.dtd">
<!-- Generated by graphviz version 2.43.0 (0)
 -->
<!-- Title: %3 Pages: 1 -->
<svg width="44pt" height="483pt"
 viewBox="0.00 0.00 44.00 483.20" xmlns="http://www.w3.org/2000/svg" xmlns:xlink="http://www.w3.org/1999/xlink">
<g id="graph0" class="graph" transform="scale(1 1) rotate(0) translate(4 479.2)">
<title>%3</title>
<polygon fill="white" stroke="transparent" points="-4,4 -4,-479.2 40,-479.2 40,4 -4,4"/>
<!-- e_0_target -->
<g id="node1" class="node">
<title>e_0_target</title>
<ellipse fill="black" stroke="black" cx="18" cy="-1.8" rx="1.8" ry="1.8"/>
</g>
<!-- 708 -->
<g id="node2" class="node">
<title>708</title>
<ellipse fill="none" stroke="black" cx="18" cy="-57.6" rx="18" ry="18"/>
<text text-anchor="middle" x="18" y="-53.9" font-family="Times,serif" font-size="14.00">708</text>
</g>
<!-- 708&#45;&gt;e_0_target -->
<g id="edge1" class="edge">
<title>708&#45;&gt;e_0_target</title>
<path fill="none" stroke="black" d="M18,-39.58C18,-31.17 18,-21.28 18,-13.87"/>
<polygon fill="black" stroke="black" points="21.5,-13.73 18,-3.73 14.5,-13.73 21.5,-13.73"/>
</g>
<!-- 118 -->
<g id="node3" class="node">
<title>118</title>
<ellipse fill="none" stroke="black" cx="18" cy="-201.6" rx="18" ry="18"/>
<text text-anchor="middle" x="18" y="-197.9" font-family="Times,serif" font-size="14.00">118</text>
</g>
<!-- 161 -->
<g id="node4" class="node">
<title>161</title>
<ellipse fill="none" stroke="black" cx="18" cy="-129.6" rx="18" ry="18"/>
<text text-anchor="middle" x="18" y="-125.9" font-family="Times,serif" font-size="14.00">161</text>
</g>
<!-- 118&#45;&gt;161 -->
<g id="edge2" class="edge">
<title>118&#45;&gt;161</title>
<path fill="none" stroke="black" d="M18,-183.3C18,-175.58 18,-166.31 18,-157.71"/>
<polygon fill="black" stroke="black" points="21.5,-157.7 18,-147.7 14.5,-157.7 21.5,-157.7"/>
</g>
<!-- 161&#45;&gt;708 -->
<g id="edge6" class="edge">
<title>161&#45;&gt;708</title>
<path fill="none" stroke="black" d="M18,-111.3C18,-103.58 18,-94.31 18,-85.71"/>
<polygon fill="black" stroke="black" points="21.5,-85.7 18,-75.7 14.5,-85.7 21.5,-85.7"/>
</g>
<!-- 1273 -->
<g id="node5" class="node">
<title>1273</title>
<ellipse fill="none" stroke="black" cx="18" cy="-417.6" rx="18" ry="18"/>
<text text-anchor="middle" x="18" y="-413.9" font-family="Times,serif" font-size="14.00">1273</text>
</g>
<!-- 26 -->
<g id="node6" class="node">
<title>26</title>
<ellipse fill="none" stroke="black" cx="18" cy="-345.6" rx="18" ry="18"/>
<text text-anchor="middle" x="18" y="-341.9" font-family="Times,serif" font-size="14.00">26</text>
</g>
<!-- 1273&#45;&gt;26 -->
<g id="edge3" class="edge">
<title>1273&#45;&gt;26</title>
<path fill="none" stroke="black" d="M18,-399.3C18,-391.58 18,-382.31 18,-373.71"/>
<polygon fill="black" stroke="black" points="21.5,-373.7 18,-363.7 14.5,-373.7 21.5,-373.7"/>
</g>
<!-- 5 -->
<g id="node7" class="node">
<title>5</title>
<ellipse fill="none" stroke="black" cx="18" cy="-273.6" rx="18" ry="18"/>
<text text-anchor="middle" x="18" y="-269.9" font-family="Times,serif" font-size="14.00">5</text>
</g>
<!-- 26&#45;&gt;5 -->
<g id="edge4" class="edge">
<title>26&#45;&gt;5</title>
<path fill="none" stroke="black" d="M18,-327.3C18,-319.58 18,-310.31 18,-301.71"/>
<polygon fill="black" stroke="black" points="21.5,-301.7 18,-291.7 14.5,-301.7 21.5,-301.7"/>
</g>
<!-- 5&#45;&gt;118 -->
<g id="edge5" class="edge">
<title>5&#45;&gt;118</title>
<path fill="none" stroke="black" d="M18,-255.3C18,-247.58 18,-238.31 18,-229.71"/>
<polygon fill="black" stroke="black" points="21.5,-229.7 18,-219.7 14.5,-229.7 21.5,-229.7"/>
</g>
<!-- e_6_source -->
<g id="node8" class="node">
<title>e_6_source</title>
<ellipse fill="black" stroke="black" cx="18" cy="-473.4" rx="1.8" ry="1.8"/>
</g>
<!-- e_6_source&#45;&gt;1273 -->
<g id="edge7" class="edge">
<title>e_6_source&#45;&gt;1273</title>
<path fill="none" stroke="black" d="M18,-471.47C18,-468.24 18,-457.15 18,-445.95"/>
<polygon fill="black" stroke="black" points="21.5,-445.86 18,-435.86 14.5,-445.86 21.5,-445.86"/>
</g>
</g>
</svg>