<?xml version="1.0" encoding="UTF-8" standalone="no"?>
<!DOCTYPE svg PUBLIC "-//W3C//DTD SVG 1.1//EN"
 "http://www.w3.org/Graphics/SVG/1.1/DTD/svg11.dtd">
<!-- Generated by graphviz version 2.43.0 (0)
 -->
<!-- Title: %3 Pages: 1 -->
<svg width="98pt" height="310pt"
 viewBox="0.00 0.00 98.00 310.20" xmlns="http://www.w3.org/2000/svg" xmlns:xlink="http://www.w3.org/1999/xlink">
<g id="graph0" class="graph" transform="scale(1 1) rotate(0) translate(4 306.2)">
<title>%3</title>
<polygon fill="white" stroke="transparent" points="-4,4 -4,-306.2 94,-306.2 94,4 -4,4"/>
<!-- M1 -->
<g id="node1" class="node">
<title>M1</title>
<ellipse fill="none" stroke="black" cx="72" cy="-244.6" rx="18" ry="18"/>
<text text-anchor="middle" x="72" y="-240.9" font-family="Times,serif" font-size="14.00">M1</text>
</g>
<!-- M4 -->
<g id="node2" class="node">
<title>M4</title>
<ellipse fill="none" stroke="black" cx="72" cy="-172.6" rx="18" ry="18"/>
<text text-anchor="middle" x="72" y="-168.9" font-family="Times,serif" font-size="14.00">M4</text>
</g>
<!-- M1&#45;&gt;M4 -->
<g id="edge1" class="edge">
<title>M1&#45;&gt;M4</title>
<path fill="none" stroke="black" d="M72,-226.3C72,-218.58 72,-209.31 72,-200.71"/>
<polygon fill="black" stroke="black" points="75.5,-200.7 72,-190.7 68.5,-200.7 75.5,-200.7"/>
</g>
<!-- e_1_center -->
<g id="node6" class="node">
<title>e_1_center</title>
<polygon fill="none" stroke="black" points="48.5,-118.6 41.5,-118.6 41.5,-111.6 48.5,-111.6 48.5,-118.6"/>
</g>
<!-- M4&#45;&gt;e_1_center -->
<g id="edge2" class="edge">
<title>M4&#45;&gt;e_1_center</title>
<path fill="none" stroke="black" d="M64.48,-156.14C58.11,-143.05 49.52,-125.4 46.3,-118.77"/>
</g>
<!-- M3 -->
<g id="node3" class="node">
<title>M3</title>
<ellipse fill="none" stroke="black" cx="18" cy="-172.6" rx="18" ry="18"/>
<text text-anchor="middle" x="18" y="-168.9" font-family="Times,serif" font-size="14.00">M3</text>
</g>
<!-- M3&#45;&gt;e_1_center -->
<g id="edge3" class="edge">
<title>M3&#45;&gt;e_1_center</title>
<path fill="none" stroke="black" d="M25.52,-156.14C31.89,-143.05 40.48,-125.4 43.7,-118.77"/>
</g>
<!-- M7 -->
<g id="node4" class="node">
<title>M7</title>
<ellipse fill="none" stroke="black" cx="18" cy="-57.6" rx="18" ry="18"/>
<text text-anchor="middle" x="18" y="-53.9" font-family="Times,serif" font-size="14.00">M7</text>
</g>
<!-- e_4_target -->
<g id="node9" class="node">
<title>e_4_target</title>
<ellipse fill="black" stroke="black" cx="18" cy="-1.8" rx="1.8" ry="1.8"/>
</g>
<!-- M7&#45;&gt;e_4_target -->
<g id="edge8" class="edge">
<title>M7&#45;&gt;e_4_target</title>
<path fill="none" stroke="black" d="M18,-39.58C18,-31.17 18,-21.28 18,-13.87"/>
<polygon fill="black" stroke="black" points="21.5,-13.73 18,-3.73 14.5,-13.73 21.5,-13.73"/>
</g>
<!-- M8 -->
<g id="node5" class="node">
<title>M8</title>
<ellipse fill="none" stroke="black" cx="72" cy="-57.6" rx="18" ry="18"/>
<text text-anchor="middle" x="72" y="-53.9" font-family="Times,serif" font-size="14.00">M8</text>
</g>
<!-- e_5_target -->
<g id="node10" class="node">
<title>e_5_target</title>
<ellipse fill="black" stroke="black" cx="72" cy="-1.8" rx="1.8" ry="1.8"/>
</g>
<!-- M8&#45;&gt;e_5_target -->
<g id="edge9" class="edge">
<title>M8&#45;&gt;e_5_target</title>
<path fill="none" stroke="black" d="M72,-39.58C72,-31.17 72,-21.28 72,-13.87"/>
<polygon fill="black" stroke="black" points="75.5,-13.73 72,-3.73 68.5,-13.73 75.5,-13.73"/>
</g>
<!-- e_1_center&#45;&gt;M7 -->
<g id="edge4" class="edge">
<title>e_1_center&#45;&gt;M7</title>
<path fill="none" stroke="black" d="M43.7,-111.42C41.18,-106.25 35.41,-94.39 29.98,-83.22"/>
<polygon fill="black" stroke="black" points="33.09,-81.62 25.57,-74.15 26.79,-84.68 33.09,-81.62"/>
</g>
<!-- e_1_center&#45;&gt;M8 -->
<g id="edge5" class="edge">
<title>e_1_center&#45;&gt;M8</title>
<path fill="none" stroke="black" d="M46.3,-111.42C48.82,-106.25 54.59,-94.39 60.02,-83.22"/>
<polygon fill="black" stroke="black" points="63.21,-84.68 64.43,-74.15 56.91,-81.62 63.21,-84.68"/>
</g>
<!-- e_2_source -->
<g id="node7" class="node">
<title>e_2_source</title>
<ellipse fill="black" stroke="black" cx="72" cy="-300.4" rx="1.8" ry="1.8"/>
</g>
<!-- e_2_source&#45;&gt;M1 -->
<g id="edge6" class="edge">
<title>e_2_source&#45;&gt;M1</title>
<path fill="none" stroke="black" d="M72,-298.47C72,-295.24 72,-284.15 72,-272.95"/>
<polygon fill="black" stroke="black" points="75.5,-272.86 72,-262.86 68.5,-272.86 75.5,-272.86"/>
</g>
<!-- e_3_source -->
<g id="node8" class="node">
<title>e_3_source</title>
<ellipse fill="black" stroke="black" cx="18" cy="-244.6" rx="1.8" ry="1.8"/>
</g>
<!-- e_3_source&#45;&gt;M3 -->
<g id="edge7" class="edge">
<title>e_3_source&#45;&gt;M3</title>
<path fill="none" stroke="black" d="M18,-242.61C18,-238.01 18,-218.24 18,-201.04"/>
<polygon fill="black" stroke="black" points="21.5,-200.81 18,-190.81 14.5,-200.81 21.5,-200.81"/>
</g>
</g>
</svg>