<?xml version="1.0" encoding="UTF-8" standalone="no"?>
<!DOCTYPE svg PUBLIC "-//W3C//DTD SVG 1.1//EN"
 "http://www.w3.org/Graphics/SVG/1.1/DTD/svg11.dtd">
<!-- Generated by graphviz version 13.0.1 (0)
 -->
<!-- Pages: 1 -->
<svg width="597pt" height="588pt"
 viewBox="0.00 0.00 597.00 588.00" xmlns="http://www.w3.org/2000/svg" xmlns:xlink="http://www.w3.org/1999/xlink">
<g id="graph0" class="graph" transform="scale(1 1) rotate(0) translate(4 583.6)">
<polygon fill="white" stroke="none" points="-4,4 -4,-583.6 593,-583.6 593,4 -4,4"/>
<!-- STAT6 -->
<g id="node1" class="node">
<title>STAT6</title>
<ellipse fill="none" stroke="#8b1a1a" stroke-width="2" cx="18" cy="-234" rx="18" ry="18"/>
<text xml:space="preserve" text-anchor="middle" x="18" y="-228.95" font-family="Times,serif" font-size="14.00">STAT6</text>
</g>
<!-- STAT1 -->
<g id="node2" class="node">
<title>STAT1</title>
<ellipse fill="none" stroke="#104e8b" stroke-width="2" cx="18" cy="-162" rx="18" ry="18"/>
<text xml:space="preserve" text-anchor="middle" x="18" y="-156.95" font-family="Times,serif" font-size="14.00">STAT1</text>
</g>
<!-- STAT6&#45;&gt;STAT1 -->
<g id="edge1" class="edge">
<title>STAT6&#45;&gt;STAT1</title>
<path fill="none" stroke="#104e8b" stroke-width="5" d="M18,-215.34C18,-206.94 18,-196.77 18,-187.64"/>
<polygon fill="#104e8b" stroke="#104e8b" stroke-width="5" points="13,-183.4 23,-183.4 23,-185.4 13,-185.4 13,-183.4"/>
<polyline fill="none" stroke="#104e8b" stroke-width="5" points="18,-182.4 18,-187.4"/>
</g>
<!-- AKT1 -->
<g id="node3" class="node">
<title>AKT1</title>
<ellipse fill="none" stroke="#8b1a1a" stroke-width="2" cx="153" cy="-378" rx="18" ry="18"/>
<text xml:space="preserve" text-anchor="middle" x="153" y="-372.95" font-family="Times,serif" font-size="14.00">AKT1</text>
</g>
<!-- EP300 -->
<g id="node4" class="node">
<title>EP300</title>
<ellipse fill="none" stroke="#8b1a1a" stroke-width="2" cx="153" cy="-306" rx="18" ry="18"/>
<text xml:space="preserve" text-anchor="middle" x="153" y="-300.95" font-family="Times,serif" font-size="14.00">EP300</text>
</g>
<!-- AKT1&#45;&gt;EP300 -->
<g id="edge2" class="edge">
<title>AKT1&#45;&gt;EP300</title>
<path fill="none" stroke="#8b1a1a" stroke-width="5" d="M153,-359.34C153,-353.74 153,-347.36 153,-341.02"/>
<polygon fill="#8b1a1a" stroke="#8b1a1a" stroke-width="5" points="157.38,-341.14 153,-331.14 148.63,-341.14 157.38,-341.14"/>
</g>
<!-- SMAD7 -->
<g id="node7" class="node">
<title>SMAD7</title>
<ellipse fill="none" stroke="#8b1a1a" stroke-width="2" cx="139" cy="-234" rx="18" ry="18"/>
<text xml:space="preserve" text-anchor="middle" x="139" y="-228.95" font-family="Times,serif" font-size="14.00">SMAD7</text>
</g>
<!-- EP300&#45;&gt;SMAD7 -->
<g id="edge6" class="edge">
<title>EP300&#45;&gt;SMAD7</title>
<path fill="none" stroke="#8b1a1a" stroke-width="5" d="M149.47,-287.34C148.3,-281.49 146.96,-274.78 145.63,-268.15"/>
<polygon fill="#8b1a1a" stroke="#8b1a1a" stroke-width="5" points="149.96,-267.48 143.71,-258.53 141.38,-269.2 149.96,-267.48"/>
</g>
<!-- MEF2A -->
<g id="node28" class="node">
<title>MEF2A</title>
<ellipse fill="none" stroke="#8b1a1a" stroke-width="2" cx="193" cy="-234" rx="18" ry="18"/>
<text xml:space="preserve" text-anchor="middle" x="193" y="-228.95" font-family="Times,serif" font-size="14.00">MEF2A</text>
</g>
<!-- EP300&#45;&gt;MEF2A -->
<g id="edge20" class="edge">
<title>EP300&#45;&gt;MEF2A</title>
<path fill="none" stroke="#8b1a1a" stroke-width="5" d="M161.88,-289.46C166.07,-282.12 171.22,-273.11 176.12,-264.54"/>
<polygon fill="#8b1a1a" stroke="#8b1a1a" stroke-width="5" points="179.89,-266.76 181.05,-255.91 172.29,-262.42 179.89,-266.76"/>
</g>
<!-- SMURF2 -->
<g id="node5" class="node">
<title>SMURF2</title>
<ellipse fill="none" stroke="#8b1a1a" stroke-width="2" cx="126" cy="-162" rx="18" ry="18"/>
<text xml:space="preserve" text-anchor="middle" x="126" y="-156.95" font-family="Times,serif" font-size="14.00">SMURF2</text>
</g>
<!-- SMAD5 -->
<g id="node6" class="node">
<title>SMAD5</title>
<ellipse fill="none" stroke="#104e8b" stroke-width="2" cx="126" cy="-90" rx="18" ry="18"/>
<text xml:space="preserve" text-anchor="middle" x="126" y="-84.95" font-family="Times,serif" font-size="14.00">SMAD5</text>
</g>
<!-- SMURF2&#45;&gt;SMAD5 -->
<g id="edge3" class="edge">
<title>SMURF2&#45;&gt;SMAD5</title>
<path fill="none" stroke="#104e8b" stroke-width="5" d="M126,-143.34C126,-134.94 126,-124.77 126,-115.64"/>
<polygon fill="#104e8b" stroke="#104e8b" stroke-width="5" points="121,-111.4 131,-111.4 131,-113.4 121,-113.4 121,-111.4"/>
<polyline fill="none" stroke="#104e8b" stroke-width="5" points="126,-110.4 126,-115.4"/>
</g>
<!-- SMAD7&#45;&gt;SMURF2 -->
<g id="edge4" class="edge">
<title>SMAD7&#45;&gt;SMURF2</title>
<path fill="none" stroke="#8b1a1a" stroke-width="5" d="M135.72,-215.34C134.63,-209.49 133.39,-202.78 132.16,-196.15"/>
<polygon fill="#8b1a1a" stroke="#8b1a1a" stroke-width="5" points="136.5,-195.58 130.37,-186.55 127.9,-197.18 136.5,-195.58"/>
</g>
<!-- TAB3 -->
<g id="node10" class="node">
<title>TAB3</title>
<ellipse fill="none" stroke="#8b1a1a" stroke-width="2" cx="180" cy="-162" rx="18" ry="18"/>
<text xml:space="preserve" text-anchor="middle" x="180" y="-156.95" font-family="Times,serif" font-size="14.00">TAB3</text>
</g>
<!-- SMAD7&#45;&gt;TAB3 -->
<g id="edge29" class="edge">
<title>SMAD7&#45;&gt;TAB3</title>
<path fill="none" stroke="#8b1a1a" stroke-width="5" d="M148.1,-217.46C152.45,-210.03 157.81,-200.89 162.88,-192.22"/>
<polygon fill="#8b1a1a" stroke="#8b1a1a" stroke-width="5" points="166.49,-194.71 167.77,-183.87 158.94,-190.29 166.49,-194.71"/>
</g>
<!-- SMAD3 -->
<g id="node8" class="node">
<title>SMAD3</title>
<ellipse fill="none" stroke="#8b1a1a" stroke-width="2" cx="247" cy="-306" rx="18" ry="18"/>
<text xml:space="preserve" text-anchor="middle" x="247" y="-300.95" font-family="Times,serif" font-size="14.00">SMAD3</text>
</g>
<!-- SMAD4 -->
<g id="node9" class="node">
<title>SMAD4</title>
<ellipse fill="none" stroke="#8b1a1a" stroke-width="2" cx="247" cy="-234" rx="18" ry="18"/>
<text xml:space="preserve" text-anchor="middle" x="247" y="-228.95" font-family="Times,serif" font-size="14.00">SMAD4</text>
</g>
<!-- SMAD3&#45;&gt;SMAD4 -->
<g id="edge5" class="edge">
<title>SMAD3&#45;&gt;SMAD4</title>
<path fill="none" stroke="#8b1a1a" stroke-width="5" d="M247,-287.34C247,-281.74 247,-275.36 247,-269.02"/>
<polygon fill="#8b1a1a" stroke="#8b1a1a" stroke-width="5" points="251.38,-269.14 247,-259.14 242.63,-269.14 251.38,-269.14"/>
</g>
<!-- MAP3K7 -->
<g id="node11" class="node">
<title>MAP3K7</title>
<ellipse fill="none" stroke="#8b1a1a" stroke-width="2" cx="180" cy="-90" rx="18" ry="18"/>
<text xml:space="preserve" text-anchor="middle" x="180" y="-84.95" font-family="Times,serif" font-size="14.00">MAP3K7</text>
</g>
<!-- TAB3&#45;&gt;MAP3K7 -->
<g id="edge7" class="edge">
<title>TAB3&#45;&gt;MAP3K7</title>
<path fill="none" stroke="#8b1a1a" stroke-width="5" d="M180,-143.34C180,-137.74 180,-131.36 180,-125.02"/>
<polygon fill="#8b1a1a" stroke="#8b1a1a" stroke-width="5" points="184.38,-125.14 180,-115.14 175.63,-125.14 184.38,-125.14"/>
</g>
<!-- NFKBIB -->
<g id="node35" class="node">
<title>NFKBIB</title>
<ellipse fill="none" stroke="#104e8b" stroke-width="2" cx="180" cy="-18" rx="18" ry="18"/>
<text xml:space="preserve" text-anchor="middle" x="180" y="-12.95" font-family="Times,serif" font-size="14.00">NFKBIB</text>
</g>
<!-- MAP3K7&#45;&gt;NFKBIB -->
<g id="edge26" class="edge">
<title>MAP3K7&#45;&gt;NFKBIB</title>
<path fill="none" stroke="#104e8b" stroke-width="5" d="M180,-71.34C180,-62.94 180,-52.77 180,-43.64"/>
<polygon fill="#104e8b" stroke="#104e8b" stroke-width="5" points="175,-39.4 185,-39.4 185,-41.4 175,-41.4 175,-39.4"/>
<polyline fill="none" stroke="#104e8b" stroke-width="5" points="180,-38.4 180,-43.4"/>
</g>
<!-- ACVR2B -->
<g id="node12" class="node">
<title>ACVR2B</title>
<ellipse fill="none" stroke="#8b1a1a" stroke-width="2" cx="274" cy="-450" rx="18" ry="18"/>
<text xml:space="preserve" text-anchor="middle" x="274" y="-444.95" font-family="Times,serif" font-size="14.00">ACVR2B</text>
</g>
<!-- ACVR1B -->
<g id="node13" class="node">
<title>ACVR1B</title>
<ellipse fill="none" stroke="#8b1a1a" stroke-width="2" cx="274" cy="-378" rx="18" ry="18"/>
<text xml:space="preserve" text-anchor="middle" x="274" y="-372.95" font-family="Times,serif" font-size="14.00">ACVR1B</text>
</g>
<!-- ACVR2B&#45;&gt;ACVR1B -->
<g id="edge8" class="edge">
<title>ACVR2B&#45;&gt;ACVR1B</title>
<path fill="none" stroke="#8b1a1a" stroke-width="5" d="M274,-431.34C274,-425.74 274,-419.36 274,-413.02"/>
<polygon fill="#8b1a1a" stroke="#8b1a1a" stroke-width="5" points="278.38,-413.14 274,-403.14 269.63,-413.14 278.38,-413.14"/>
</g>
<!-- ACVR1B&#45;&gt;SMAD3 -->
<g id="edge15" class="edge">
<title>ACVR1B&#45;&gt;SMAD3</title>
<path fill="none" stroke="#8b1a1a" stroke-width="5" d="M267.6,-360.41C265.08,-353.87 262.1,-346.14 259.19,-338.61"/>
<polygon fill="#8b1a1a" stroke="#8b1a1a" stroke-width="5" points="263.28,-337.04 255.6,-329.29 255.11,-340.19 263.28,-337.04"/>
</g>
<!-- SMAD2 -->
<g id="node17" class="node">
<title>SMAD2</title>
<ellipse fill="none" stroke="#8b1a1a" stroke-width="2" cx="301" cy="-306" rx="18" ry="18"/>
<text xml:space="preserve" text-anchor="middle" x="301" y="-300.95" font-family="Times,serif" font-size="14.00">SMAD2</text>
</g>
<!-- ACVR1B&#45;&gt;SMAD2 -->
<g id="edge11" class="edge">
<title>ACVR1B&#45;&gt;SMAD2</title>
<path fill="none" stroke="#8b1a1a" stroke-width="5" d="M280.4,-360.41C282.92,-353.87 285.9,-346.14 288.81,-338.61"/>
<polygon fill="#8b1a1a" stroke="#8b1a1a" stroke-width="5" points="292.89,-340.19 292.4,-329.29 284.72,-337.04 292.89,-340.19"/>
</g>
<!-- IL21R -->
<g id="node14" class="node">
<title>IL21R</title>
<ellipse fill="none" stroke="#8b1a1a" stroke-width="2" cx="72" cy="-522" rx="18" ry="18"/>
<text xml:space="preserve" text-anchor="middle" x="72" y="-516.95" font-family="Times,serif" font-size="14.00">IL21R</text>
</g>
<!-- JAK1 -->
<g id="node15" class="node">
<title>JAK1</title>
<ellipse fill="none" stroke="#8b1a1a" stroke-width="2" cx="72" cy="-450" rx="18" ry="18"/>
<text xml:space="preserve" text-anchor="middle" x="72" y="-444.95" font-family="Times,serif" font-size="14.00">JAK1</text>
</g>
<!-- IL21R&#45;&gt;JAK1 -->
<g id="edge9" class="edge">
<title>IL21R&#45;&gt;JAK1</title>
<path fill="none" stroke="#8b1a1a" stroke-width="5" d="M72,-503.34C72,-497.74 72,-491.36 72,-485.02"/>
<polygon fill="#8b1a1a" stroke="#8b1a1a" stroke-width="5" points="76.38,-485.14 72,-475.14 67.63,-485.14 76.38,-485.14"/>
</g>
<!-- IFNGR1 -->
<g id="node16" class="node">
<title>IFNGR1</title>
<ellipse fill="none" stroke="#8b1a1a" stroke-width="2" cx="72" cy="-378" rx="18" ry="18"/>
<text xml:space="preserve" text-anchor="middle" x="72" y="-372.95" font-family="Times,serif" font-size="14.00">IFNGR1</text>
</g>
<!-- JAK1&#45;&gt;IFNGR1 -->
<g id="edge10" class="edge">
<title>JAK1&#45;&gt;IFNGR1</title>
<path fill="none" stroke="#8b1a1a" stroke-width="5" d="M72,-431.34C72,-425.74 72,-419.36 72,-413.02"/>
<polygon fill="#8b1a1a" stroke="#8b1a1a" stroke-width="5" points="76.38,-413.14 72,-403.14 67.63,-413.14 76.38,-413.14"/>
</g>
<!-- JAK2 -->
<g id="node18" class="node">
<title>JAK2</title>
<ellipse fill="none" stroke="#8b1a1a" stroke-width="2" cx="72" cy="-306" rx="18" ry="18"/>
<text xml:space="preserve" text-anchor="middle" x="72" y="-300.95" font-family="Times,serif" font-size="14.00">JAK2</text>
</g>
<!-- IFNGR1&#45;&gt;JAK2 -->
<g id="edge12" class="edge">
<title>IFNGR1&#45;&gt;JAK2</title>
<path fill="none" stroke="#8b1a1a" stroke-width="5" d="M72,-359.34C72,-353.74 72,-347.36 72,-341.02"/>
<polygon fill="#8b1a1a" stroke="#8b1a1a" stroke-width="5" points="76.38,-341.14 72,-331.14 67.63,-341.14 76.38,-341.14"/>
</g>
<!-- JAK2&#45;&gt;STAT6 -->
<g id="edge14" class="edge">
<title>JAK2&#45;&gt;STAT6</title>
<path fill="none" stroke="#8b1a1a" stroke-width="5" d="M61.07,-290.83C54.63,-282.48 46.27,-271.65 38.63,-261.75"/>
<polygon fill="#8b1a1a" stroke="#8b1a1a" stroke-width="5" points="42.29,-259.33 32.72,-254.08 35.37,-264.67 42.29,-259.33"/>
</g>
<!-- GTF2I -->
<g id="node22" class="node">
<title>GTF2I</title>
<ellipse fill="none" stroke="#8b1a1a" stroke-width="2" cx="72" cy="-234" rx="18" ry="18"/>
<text xml:space="preserve" text-anchor="middle" x="72" y="-228.95" font-family="Times,serif" font-size="14.00">GTF2I</text>
</g>
<!-- JAK2&#45;&gt;GTF2I -->
<g id="edge31" class="edge">
<title>JAK2&#45;&gt;GTF2I</title>
<path fill="none" stroke="#8b1a1a" stroke-width="5" d="M72,-287.34C72,-281.74 72,-275.36 72,-269.02"/>
<polygon fill="#8b1a1a" stroke="#8b1a1a" stroke-width="5" points="76.38,-269.14 72,-259.14 67.63,-269.14 76.38,-269.14"/>
</g>
<!-- INHBA -->
<g id="node19" class="node">
<title>INHBA</title>
<ellipse fill="none" stroke="#8b1a1a" stroke-width="2" cx="274" cy="-522" rx="18" ry="18"/>
<text xml:space="preserve" text-anchor="middle" x="274" y="-516.95" font-family="Times,serif" font-size="14.00">INHBA</text>
</g>
<!-- INHBA&#45;&gt;ACVR2B -->
<g id="edge13" class="edge">
<title>INHBA&#45;&gt;ACVR2B</title>
<path fill="none" stroke="#8b1a1a" stroke-width="5" d="M274,-503.34C274,-497.74 274,-491.36 274,-485.02"/>
<polygon fill="#8b1a1a" stroke="#8b1a1a" stroke-width="5" points="278.38,-485.14 274,-475.14 269.63,-485.14 278.38,-485.14"/>
</g>
<!-- HMGA1 -->
<g id="node20" class="node">
<title>HMGA1</title>
<ellipse fill="none" stroke="#8b1a1a" stroke-width="2" cx="463" cy="-162" rx="18" ry="18"/>
<text xml:space="preserve" text-anchor="middle" x="463" y="-156.95" font-family="Times,serif" font-size="14.00">HMGA1</text>
</g>
<!-- POU3F1 -->
<g id="node21" class="node">
<title>POU3F1</title>
<ellipse fill="none" stroke="#8b1a1a" stroke-width="2" cx="463" cy="-90" rx="18" ry="18"/>
<text xml:space="preserve" text-anchor="middle" x="463" y="-84.95" font-family="Times,serif" font-size="14.00">POU3F1</text>
</g>
<!-- HMGA1&#45;&gt;POU3F1 -->
<g id="edge16" class="edge">
<title>HMGA1&#45;&gt;POU3F1</title>
<path fill="none" stroke="#8b1a1a" stroke-width="5" d="M463,-143.34C463,-137.74 463,-131.36 463,-125.02"/>
<polygon fill="#8b1a1a" stroke="#8b1a1a" stroke-width="5" points="467.38,-125.14 463,-115.14 458.63,-125.14 467.38,-125.14"/>
</g>
<!-- PRRX1 -->
<g id="node23" class="node">
<title>PRRX1</title>
<ellipse fill="none" stroke="#8b1a1a" stroke-width="2" cx="72" cy="-162" rx="18" ry="18"/>
<text xml:space="preserve" text-anchor="middle" x="72" y="-156.95" font-family="Times,serif" font-size="14.00">PRRX1</text>
</g>
<!-- GTF2I&#45;&gt;PRRX1 -->
<g id="edge17" class="edge">
<title>GTF2I&#45;&gt;PRRX1</title>
<path fill="none" stroke="#8b1a1a" stroke-width="5" d="M72,-215.34C72,-209.74 72,-203.36 72,-197.02"/>
<polygon fill="#8b1a1a" stroke="#8b1a1a" stroke-width="5" points="76.38,-197.14 72,-187.14 67.63,-197.14 76.38,-197.14"/>
</g>
<!-- SRF -->
<g id="node42" class="node">
<title>SRF</title>
<ellipse fill="none" stroke="#8b1a1a" stroke-width="2" cx="72" cy="-90" rx="18" ry="18"/>
<text xml:space="preserve" text-anchor="middle" x="72" y="-84.95" font-family="Times,serif" font-size="14.00">SRF</text>
</g>
<!-- PRRX1&#45;&gt;SRF -->
<g id="edge36" class="edge">
<title>PRRX1&#45;&gt;SRF</title>
<path fill="none" stroke="#8b1a1a" stroke-width="5" d="M72,-143.34C72,-137.74 72,-131.36 72,-125.02"/>
<polygon fill="#8b1a1a" stroke="#8b1a1a" stroke-width="5" points="76.38,-125.14 72,-115.14 67.63,-125.14 76.38,-125.14"/>
</g>
<!-- CDH2 -->
<g id="node24" class="node">
<title>CDH2</title>
<ellipse fill="none" stroke="#8b1a1a" stroke-width="2" cx="476" cy="-522" rx="18" ry="18"/>
<text xml:space="preserve" text-anchor="middle" x="476" y="-516.95" font-family="Times,serif" font-size="14.00">CDH2</text>
</g>
<!-- CDON -->
<g id="node25" class="node">
<title>CDON</title>
<ellipse fill="none" stroke="#8b1a1a" stroke-width="2" cx="476" cy="-450" rx="18" ry="18"/>
<text xml:space="preserve" text-anchor="middle" x="476" y="-444.95" font-family="Times,serif" font-size="14.00">CDON</text>
</g>
<!-- CDH2&#45;&gt;CDON -->
<g id="edge18" class="edge">
<title>CDH2&#45;&gt;CDON</title>
<path fill="none" stroke="#8b1a1a" stroke-width="5" d="M476,-503.34C476,-497.74 476,-491.36 476,-485.02"/>
<polygon fill="#8b1a1a" stroke="#8b1a1a" stroke-width="5" points="480.38,-485.14 476,-475.14 471.63,-485.14 480.38,-485.14"/>
</g>
<!-- MAPK14 -->
<g id="node26" class="node">
<title>MAPK14</title>
<ellipse fill="none" stroke="#8b1a1a" stroke-width="2" cx="436" cy="-378" rx="18" ry="18"/>
<text xml:space="preserve" text-anchor="middle" x="436" y="-372.95" font-family="Times,serif" font-size="14.00">MAPK14</text>
</g>
<!-- CDON&#45;&gt;MAPK14 -->
<g id="edge37" class="edge">
<title>CDON&#45;&gt;MAPK14</title>
<path fill="none" stroke="#8b1a1a" stroke-width="5" d="M467.12,-433.46C462.93,-426.12 457.78,-417.11 452.88,-408.54"/>
<polygon fill="#8b1a1a" stroke="#8b1a1a" stroke-width="5" points="456.71,-406.42 447.95,-399.91 449.11,-410.76 456.71,-406.42"/>
</g>
<!-- ABL1 -->
<g id="node32" class="node">
<title>ABL1</title>
<ellipse fill="none" stroke="#8b1a1a" stroke-width="2" cx="517" cy="-378" rx="18" ry="18"/>
<text xml:space="preserve" text-anchor="middle" x="517" y="-372.95" font-family="Times,serif" font-size="14.00">ABL1</text>
</g>
<!-- CDON&#45;&gt;ABL1 -->
<g id="edge33" class="edge">
<title>CDON&#45;&gt;ABL1</title>
<path fill="none" stroke="#8b1a1a" stroke-width="5" d="M485.1,-433.46C489.45,-426.03 494.81,-416.89 499.88,-408.22"/>
<polygon fill="#8b1a1a" stroke="#8b1a1a" stroke-width="5" points="503.49,-410.71 504.77,-399.87 495.94,-406.29 503.49,-410.71"/>
</g>
<!-- JUNB -->
<g id="node27" class="node">
<title>JUNB</title>
<ellipse fill="none" stroke="#8b1a1a" stroke-width="2" cx="355" cy="-306" rx="18" ry="18"/>
<text xml:space="preserve" text-anchor="middle" x="355" y="-300.95" font-family="Times,serif" font-size="14.00">JUNB</text>
</g>
<!-- MAPK14&#45;&gt;JUNB -->
<g id="edge19" class="edge">
<title>MAPK14&#45;&gt;JUNB</title>
<path fill="none" stroke="#8b1a1a" stroke-width="5" d="M422.26,-365.13C410.97,-355.37 394.66,-341.28 380.93,-329.41"/>
<polygon fill="#8b1a1a" stroke="#8b1a1a" stroke-width="5" points="383.95,-326.24 373.53,-323.01 378.23,-332.86 383.95,-326.24"/>
</g>
<!-- GATA2 -->
<g id="node33" class="node">
<title>GATA2</title>
<ellipse fill="none" stroke="#8b1a1a" stroke-width="2" cx="409" cy="-306" rx="18" ry="18"/>
<text xml:space="preserve" text-anchor="middle" x="409" y="-300.95" font-family="Times,serif" font-size="14.00">GATA2</text>
</g>
<!-- MAPK14&#45;&gt;GATA2 -->
<g id="edge24" class="edge">
<title>MAPK14&#45;&gt;GATA2</title>
<path fill="none" stroke="#8b1a1a" stroke-width="5" d="M429.6,-360.41C427.08,-353.87 424.1,-346.14 421.19,-338.61"/>
<polygon fill="#8b1a1a" stroke="#8b1a1a" stroke-width="5" points="425.28,-337.04 417.6,-329.29 417.11,-340.19 425.28,-337.04"/>
</g>
<!-- NR3C1 -->
<g id="node41" class="node">
<title>NR3C1</title>
<ellipse fill="none" stroke="#8b1a1a" stroke-width="2" cx="463" cy="-306" rx="18" ry="18"/>
<text xml:space="preserve" text-anchor="middle" x="463" y="-300.95" font-family="Times,serif" font-size="14.00">NR3C1</text>
</g>
<!-- MAPK14&#45;&gt;NR3C1 -->
<g id="edge38" class="edge">
<title>MAPK14&#45;&gt;NR3C1</title>
<path fill="none" stroke="#8b1a1a" stroke-width="5" d="M442.4,-360.41C444.92,-353.87 447.9,-346.14 450.81,-338.61"/>
<polygon fill="#8b1a1a" stroke="#8b1a1a" stroke-width="5" points="454.89,-340.19 454.4,-329.29 446.72,-337.04 454.89,-340.19"/>
</g>
<!-- PLK1 -->
<g id="node29" class="node">
<title>PLK1</title>
<ellipse fill="none" stroke="#8b1a1a" stroke-width="2" cx="517" cy="-306" rx="18" ry="18"/>
<text xml:space="preserve" text-anchor="middle" x="517" y="-300.95" font-family="Times,serif" font-size="14.00">PLK1</text>
</g>
<!-- PIN1 -->
<g id="node30" class="node">
<title>PIN1</title>
<ellipse fill="none" stroke="#8b1a1a" stroke-width="2" cx="517" cy="-234" rx="18" ry="18"/>
<text xml:space="preserve" text-anchor="middle" x="517" y="-228.95" font-family="Times,serif" font-size="14.00">PIN1</text>
</g>
<!-- PLK1&#45;&gt;PIN1 -->
<g id="edge21" class="edge">
<title>PLK1&#45;&gt;PIN1</title>
<path fill="none" stroke="#8b1a1a" stroke-width="5" d="M517,-287.34C517,-281.74 517,-275.36 517,-269.02"/>
<polygon fill="#8b1a1a" stroke="#8b1a1a" stroke-width="5" points="521.38,-269.14 517,-259.14 512.63,-269.14 521.38,-269.14"/>
</g>
<!-- IRF3 -->
<g id="node37" class="node">
<title>IRF3</title>
<ellipse fill="none" stroke="#104e8b" stroke-width="2" cx="517" cy="-162" rx="18" ry="18"/>
<text xml:space="preserve" text-anchor="middle" x="517" y="-156.95" font-family="Times,serif" font-size="14.00">IRF3</text>
</g>
<!-- PIN1&#45;&gt;IRF3 -->
<g id="edge28" class="edge">
<title>PIN1&#45;&gt;IRF3</title>
<path fill="none" stroke="#104e8b" stroke-width="5" d="M517,-215.34C517,-206.94 517,-196.77 517,-187.64"/>
<polygon fill="#104e8b" stroke="#104e8b" stroke-width="5" points="512,-183.4 522,-183.4 522,-185.4 512,-185.4 512,-183.4"/>
<polyline fill="none" stroke="#104e8b" stroke-width="5" points="517,-182.4 517,-187.4"/>
</g>
<!-- PIK3CA_PIK3R1 -->
<g id="node31" class="node">
<title>PIK3CA_PIK3R1</title>
<ellipse fill="none" stroke="#8b1a1a" stroke-width="2" cx="153" cy="-450" rx="18" ry="18"/>
<text xml:space="preserve" text-anchor="middle" x="153" y="-444.95" font-family="Times,serif" font-size="14.00">PIK3CA_PIK3R1</text>
</g>
<!-- PIK3CA_PIK3R1&#45;&gt;AKT1 -->
<g id="edge22" class="edge">
<title>PIK3CA_PIK3R1&#45;&gt;AKT1</title>
<path fill="none" stroke="#8b1a1a" stroke-width="5" d="M153,-431.34C153,-425.74 153,-419.36 153,-413.02"/>
<polygon fill="#8b1a1a" stroke="#8b1a1a" stroke-width="5" points="157.38,-413.14 153,-403.14 148.63,-413.14 157.38,-413.14"/>
</g>
<!-- ABL1&#45;&gt;PLK1 -->
<g id="edge23" class="edge">
<title>ABL1&#45;&gt;PLK1</title>
<path fill="none" stroke="#8b1a1a" stroke-width="5" d="M517,-359.34C517,-353.74 517,-347.36 517,-341.02"/>
<polygon fill="#8b1a1a" stroke="#8b1a1a" stroke-width="5" points="521.38,-341.14 517,-331.14 512.63,-341.14 521.38,-341.14"/>
</g>
<!-- HDAC2 -->
<g id="node39" class="node">
<title>HDAC2</title>
<ellipse fill="none" stroke="#8b1a1a" stroke-width="2" cx="571" cy="-306" rx="18" ry="18"/>
<text xml:space="preserve" text-anchor="middle" x="571" y="-300.95" font-family="Times,serif" font-size="14.00">HDAC2</text>
</g>
<!-- ABL1&#45;&gt;HDAC2 -->
<g id="edge32" class="edge">
<title>ABL1&#45;&gt;HDAC2</title>
<path fill="none" stroke="#8b1a1a" stroke-width="5" d="M527.93,-362.83C534.37,-354.48 542.73,-343.65 550.37,-333.75"/>
<polygon fill="#8b1a1a" stroke="#8b1a1a" stroke-width="5" points="553.63,-336.67 556.28,-326.08 546.71,-331.33 553.63,-336.67"/>
</g>
<!-- SPI1 -->
<g id="node38" class="node">
<title>SPI1</title>
<ellipse fill="none" stroke="#104e8b" stroke-width="2" cx="409" cy="-234" rx="18" ry="18"/>
<text xml:space="preserve" text-anchor="middle" x="409" y="-228.95" font-family="Times,serif" font-size="14.00">SPI1</text>
</g>
<!-- GATA2&#45;&gt;SPI1 -->
<g id="edge30" class="edge">
<title>GATA2&#45;&gt;SPI1</title>
<path fill="none" stroke="#104e8b" stroke-width="5" d="M409,-287.34C409,-278.94 409,-268.77 409,-259.64"/>
<polygon fill="#104e8b" stroke="#104e8b" stroke-width="5" points="404,-255.4 414,-255.4 414,-257.4 404,-257.4 404,-255.4"/>
<polyline fill="none" stroke="#104e8b" stroke-width="5" points="409,-254.4 409,-259.4"/>
</g>
<!-- CAV1 -->
<g id="node34" class="node">
<title>CAV1</title>
<ellipse fill="none" stroke="#8b1a1a" stroke-width="2" cx="463" cy="-234" rx="18" ry="18"/>
<text xml:space="preserve" text-anchor="middle" x="463" y="-228.95" font-family="Times,serif" font-size="14.00">CAV1</text>
</g>
<!-- CAV1&#45;&gt;HMGA1 -->
<g id="edge25" class="edge">
<title>CAV1&#45;&gt;HMGA1</title>
<path fill="none" stroke="#8b1a1a" stroke-width="5" d="M463,-215.34C463,-209.74 463,-203.36 463,-197.02"/>
<polygon fill="#8b1a1a" stroke="#8b1a1a" stroke-width="5" points="467.38,-197.14 463,-187.14 458.63,-197.14 467.38,-197.14"/>
</g>
<!-- TGFB1 -->
<g id="node36" class="node">
<title>TGFB1</title>
<ellipse fill="none" stroke="#8b1a1a" stroke-width="2" cx="153" cy="-522" rx="18" ry="18"/>
<text xml:space="preserve" text-anchor="middle" x="153" y="-516.95" font-family="Times,serif" font-size="14.00">TGFB1</text>
</g>
<!-- TGFB1&#45;&gt;PIK3CA_PIK3R1 -->
<g id="edge27" class="edge">
<title>TGFB1&#45;&gt;PIK3CA_PIK3R1</title>
<path fill="none" stroke="#8b1a1a" stroke-width="5" d="M153,-503.34C153,-497.74 153,-491.36 153,-485.02"/>
<polygon fill="#8b1a1a" stroke="#8b1a1a" stroke-width="5" points="157.38,-485.14 153,-475.14 148.63,-485.14 157.38,-485.14"/>
</g>
<!-- CIITA -->
<g id="node40" class="node">
<title>CIITA</title>
<ellipse fill="none" stroke="#104e8b" stroke-width="2" cx="571" cy="-234" rx="18" ry="18"/>
<text xml:space="preserve" text-anchor="middle" x="571" y="-228.95" font-family="Times,serif" font-size="14.00">CIITA</text>
</g>
<!-- HDAC2&#45;&gt;CIITA -->
<g id="edge34" class="edge">
<title>HDAC2&#45;&gt;CIITA</title>
<path fill="none" stroke="#104e8b" stroke-width="5" d="M571,-287.34C571,-278.94 571,-268.77 571,-259.64"/>
<polygon fill="#104e8b" stroke="#104e8b" stroke-width="5" points="566,-255.4 576,-255.4 576,-257.4 566,-257.4 566,-255.4"/>
<polyline fill="none" stroke="#104e8b" stroke-width="5" points="571,-254.4 571,-259.4"/>
</g>
<!-- NR3C1&#45;&gt;CAV1 -->
<g id="edge35" class="edge">
<title>NR3C1&#45;&gt;CAV1</title>
<path fill="none" stroke="#8b1a1a" stroke-width="5" d="M463,-287.34C463,-281.74 463,-275.36 463,-269.02"/>
<polygon fill="#8b1a1a" stroke="#8b1a1a" stroke-width="5" points="467.38,-269.14 463,-259.14 458.63,-269.14 467.38,-269.14"/>
</g>
<!-- e_3271_source -->
<g id="node43" class="node">
<title>e_3271_source</title>
<ellipse fill="black" stroke="black" cx="274" cy="-577.8" rx="1.8" ry="1.8"/>
</g>
<!-- e_3271_source&#45;&gt;INHBA -->
<g id="edge39" class="edge">
<title>e_3271_source&#45;&gt;INHBA</title>
<path fill="none" stroke="#8b1a1a" stroke-width="5" d="M274,-575.87C274,-573.27 274,-565.56 274,-556.81"/>
<polygon fill="#8b1a1a" stroke="#8b1a1a" stroke-width="5" points="278.38,-557.04 274,-547.04 269.63,-557.04 278.38,-557.04"/>
</g>
<!-- e_3273_source -->
<g id="node44" class="node">
<title>e_3273_source</title>
<ellipse fill="black" stroke="black" cx="72" cy="-577.8" rx="1.8" ry="1.8"/>
</g>
<!-- e_3273_source&#45;&gt;IL21R -->
<g id="edge40" class="edge">
<title>e_3273_source&#45;&gt;IL21R</title>
<path fill="none" stroke="#8b1a1a" stroke-width="5" d="M72,-575.87C72,-573.27 72,-565.56 72,-556.81"/>
<polygon fill="#8b1a1a" stroke="#8b1a1a" stroke-width="5" points="76.38,-557.04 72,-547.04 67.63,-557.04 76.38,-557.04"/>
</g>
<!-- e_3275_source -->
<g id="node45" class="node">
<title>e_3275_source</title>
<ellipse fill="black" stroke="black" cx="153" cy="-577.8" rx="1.8" ry="1.8"/>
</g>
<!-- e_3275_source&#45;&gt;TGFB1 -->
<g id="edge41" class="edge">
<title>e_3275_source&#45;&gt;TGFB1</title>
<path fill="none" stroke="#8b1a1a" stroke-width="5" d="M153,-575.87C153,-573.27 153,-565.56 153,-556.81"/>
<polygon fill="#8b1a1a" stroke="#8b1a1a" stroke-width="5" points="157.38,-557.04 153,-547.04 148.63,-557.04 157.38,-557.04"/>
</g>
<!-- e_3277_source -->
<g id="node46" class="node">
<title>e_3277_source</title>
<ellipse fill="black" stroke="black" cx="476" cy="-577.8" rx="1.8" ry="1.8"/>
</g>
<!-- e_3277_source&#45;&gt;CDH2 -->
<g id="edge42" class="edge">
<title>e_3277_source&#45;&gt;CDH2</title>
<path fill="none" stroke="#8b1a1a" stroke-width="5" d="M476,-575.87C476,-573.27 476,-565.56 476,-556.81"/>
<polygon fill="#8b1a1a" stroke="#8b1a1a" stroke-width="5" points="480.38,-557.04 476,-547.04 471.63,-557.04 480.38,-557.04"/>
</g>
</g>
</svg>