<?xml version="1.0" encoding="UTF-8" standalone="no"?>
<!DOCTYPE svg PUBLIC "-//W3C//DTD SVG 1.1//EN"
 "http://www.w3.org/Graphics/SVG/1.1/DTD/svg11.dtd">
<!-- Generated by graphviz version 12.2.1 (0)
 -->
<!-- Pages: 1 -->
<svg width="584pt" height="876pt"
 viewBox="0.00 0.00 584.00 875.60" xmlns="http://www.w3.org/2000/svg" xmlns:xlink="http://www.w3.org/1999/xlink">
<g id="graph0" class="graph" transform="scale(1 1) rotate(0) translate(4 871.6)">
<polygon fill="white" stroke="none" points="-4,4 -4,-871.6 580,-871.6 580,4 -4,4"/>
<!-- MAPK14 -->
<g id="node1" class="node">
<title>MAPK14</title>
<ellipse fill="none" stroke="#8b1a1a" stroke-width="2" cx="99" cy="-666" rx="18" ry="18"/>
<text text-anchor="middle" x="99" y="-660.95" font-family="Times,serif" font-size="14.00">MAPK14</text>
</g>
<!-- MAPKAPK2 -->
<g id="node2" class="node">
<title>MAPKAPK2</title>
<ellipse fill="none" stroke="#8b1a1a" stroke-width="2" cx="18" cy="-594" rx="18" ry="18"/>
<text text-anchor="middle" x="18" y="-588.95" font-family="Times,serif" font-size="14.00">MAPKAPK2</text>
</g>
<!-- MAPK14&#45;&gt;MAPKAPK2 -->
<g id="edge1" class="edge">
<title>MAPK14&#45;&gt;MAPKAPK2</title>
<path fill="none" stroke="#8b1a1a" stroke-width="5" d="M85.26,-653.13C73.97,-643.37 57.66,-629.28 43.93,-617.41"/>
<polygon fill="#8b1a1a" stroke="#8b1a1a" stroke-width="5" points="46.95,-614.24 36.53,-611.01 41.23,-620.86 46.95,-614.24"/>
</g>
<!-- SMAD3 -->
<g id="node16" class="node">
<title>SMAD3</title>
<ellipse fill="none" stroke="#8b1a1a" stroke-width="2" cx="72" cy="-594" rx="18" ry="18"/>
<text text-anchor="middle" x="72" y="-588.95" font-family="Times,serif" font-size="14.00">SMAD3</text>
</g>
<!-- MAPK14&#45;&gt;SMAD3 -->
<g id="edge11" class="edge">
<title>MAPK14&#45;&gt;SMAD3</title>
<path fill="none" stroke="#8b1a1a" stroke-width="5" d="M92.6,-648.41C90.08,-641.87 87.1,-634.14 84.19,-626.61"/>
<polygon fill="#8b1a1a" stroke="#8b1a1a" stroke-width="5" points="88.28,-625.04 80.6,-617.29 80.11,-628.19 88.28,-625.04"/>
</g>
<!-- JUNB -->
<g id="node37" class="node">
<title>JUNB</title>
<ellipse fill="none" stroke="#8b1a1a" stroke-width="2" cx="126" cy="-594" rx="18" ry="18"/>
<text text-anchor="middle" x="126" y="-588.95" font-family="Times,serif" font-size="14.00">JUNB</text>
</g>
<!-- MAPK14&#45;&gt;JUNB -->
<g id="edge26" class="edge">
<title>MAPK14&#45;&gt;JUNB</title>
<path fill="none" stroke="#8b1a1a" stroke-width="5" d="M105.4,-648.41C107.92,-641.87 110.9,-634.14 113.81,-626.61"/>
<polygon fill="#8b1a1a" stroke="#8b1a1a" stroke-width="5" points="117.89,-628.19 117.4,-617.29 109.72,-625.04 117.89,-628.19"/>
</g>
<!-- NR3C1 -->
<g id="node46" class="node">
<title>NR3C1</title>
<ellipse fill="none" stroke="#8b1a1a" stroke-width="2" cx="180" cy="-594" rx="18" ry="18"/>
<text text-anchor="middle" x="180" y="-588.95" font-family="Times,serif" font-size="14.00">NR3C1</text>
</g>
<!-- MAPK14&#45;&gt;NR3C1 -->
<g id="edge45" class="edge">
<title>MAPK14&#45;&gt;NR3C1</title>
<path fill="none" stroke="#8b1a1a" stroke-width="5" d="M112.74,-653.13C124.03,-643.37 140.34,-629.28 154.07,-617.41"/>
<polygon fill="#8b1a1a" stroke="#8b1a1a" stroke-width="5" points="156.77,-620.86 161.47,-611.01 151.05,-614.24 156.77,-620.86"/>
</g>
<!-- SRF -->
<g id="node11" class="node">
<title>SRF</title>
<ellipse fill="none" stroke="#8b1a1a" stroke-width="2" cx="18" cy="-522" rx="18" ry="18"/>
<text text-anchor="middle" x="18" y="-516.95" font-family="Times,serif" font-size="14.00">SRF</text>
</g>
<!-- MAPKAPK2&#45;&gt;SRF -->
<g id="edge7" class="edge">
<title>MAPKAPK2&#45;&gt;SRF</title>
<path fill="none" stroke="#8b1a1a" stroke-width="5" d="M18,-575.34C18,-569.74 18,-563.36 18,-557.02"/>
<polygon fill="#8b1a1a" stroke="#8b1a1a" stroke-width="5" points="22.38,-557.14 18,-547.14 13.63,-557.14 22.38,-557.14"/>
</g>
<!-- IGF1 -->
<g id="node3" class="node">
<title>IGF1</title>
<ellipse fill="none" stroke="#104e8b" stroke-width="2" cx="423" cy="-810" rx="18" ry="18"/>
<text text-anchor="middle" x="423" y="-804.95" font-family="Times,serif" font-size="14.00">IGF1</text>
</g>
<!-- IGF1R -->
<g id="node4" class="node">
<title>IGF1R</title>
<ellipse fill="none" stroke="#104e8b" stroke-width="2" cx="423" cy="-738" rx="18" ry="18"/>
<text text-anchor="middle" x="423" y="-732.95" font-family="Times,serif" font-size="14.00">IGF1R</text>
</g>
<!-- IGF1&#45;&gt;IGF1R -->
<g id="edge2" class="edge">
<title>IGF1&#45;&gt;IGF1R</title>
<path fill="none" stroke="#104e8b" stroke-width="5" d="M423,-791.34C423,-785.74 423,-779.36 423,-773.02"/>
<polygon fill="#104e8b" stroke="#104e8b" stroke-width="5" points="427.38,-773.14 423,-763.14 418.63,-773.14 427.38,-773.14"/>
</g>
<!-- PDPK1 -->
<g id="node12" class="node">
<title>PDPK1</title>
<ellipse fill="none" stroke="#104e8b" stroke-width="2" cx="423" cy="-666" rx="18" ry="18"/>
<text text-anchor="middle" x="423" y="-660.95" font-family="Times,serif" font-size="14.00">PDPK1</text>
</g>
<!-- IGF1R&#45;&gt;PDPK1 -->
<g id="edge34" class="edge">
<title>IGF1R&#45;&gt;PDPK1</title>
<path fill="none" stroke="#104e8b" stroke-width="5" d="M423,-719.34C423,-713.74 423,-707.36 423,-701.02"/>
<polygon fill="#104e8b" stroke="#104e8b" stroke-width="5" points="427.38,-701.14 423,-691.14 418.63,-701.14 427.38,-701.14"/>
</g>
<!-- PRKCE -->
<g id="node5" class="node">
<title>PRKCE</title>
<ellipse fill="none" stroke="#104e8b" stroke-width="2" cx="315" cy="-450" rx="18" ry="18"/>
<text text-anchor="middle" x="315" y="-444.95" font-family="Times,serif" font-size="14.00">PRKCE</text>
</g>
<!-- TICAM2 -->
<g id="node6" class="node">
<title>TICAM2</title>
<ellipse fill="none" stroke="#104e8b" stroke-width="2" cx="315" cy="-378" rx="18" ry="18"/>
<text text-anchor="middle" x="315" y="-372.95" font-family="Times,serif" font-size="14.00">TICAM2</text>
</g>
<!-- PRKCE&#45;&gt;TICAM2 -->
<g id="edge3" class="edge">
<title>PRKCE&#45;&gt;TICAM2</title>
<path fill="none" stroke="#104e8b" stroke-width="5" d="M315,-431.34C315,-425.74 315,-419.36 315,-413.02"/>
<polygon fill="#104e8b" stroke="#104e8b" stroke-width="5" points="319.38,-413.14 315,-403.14 310.63,-413.14 319.38,-413.14"/>
</g>
<!-- TICAM1 -->
<g id="node9" class="node">
<title>TICAM1</title>
<ellipse fill="none" stroke="#104e8b" stroke-width="2" cx="315" cy="-306" rx="18" ry="18"/>
<text text-anchor="middle" x="315" y="-300.95" font-family="Times,serif" font-size="14.00">TICAM1</text>
</g>
<!-- TICAM2&#45;&gt;TICAM1 -->
<g id="edge6" class="edge">
<title>TICAM2&#45;&gt;TICAM1</title>
<path fill="none" stroke="#104e8b" stroke-width="5" d="M315,-359.34C315,-353.74 315,-347.36 315,-341.02"/>
<polygon fill="#104e8b" stroke="#104e8b" stroke-width="5" points="319.38,-341.14 315,-331.14 310.63,-341.14 319.38,-341.14"/>
</g>
<!-- MAP2K1 -->
<g id="node7" class="node">
<title>MAP2K1</title>
<ellipse fill="none" stroke="#104e8b" stroke-width="2" cx="315" cy="-594" rx="18" ry="18"/>
<text text-anchor="middle" x="315" y="-588.95" font-family="Times,serif" font-size="14.00">MAP2K1</text>
</g>
<!-- MAPK3 -->
<g id="node8" class="node">
<title>MAPK3</title>
<ellipse fill="none" stroke="#104e8b" stroke-width="2" cx="261" cy="-522" rx="18" ry="18"/>
<text text-anchor="middle" x="261" y="-516.95" font-family="Times,serif" font-size="14.00">MAPK3</text>
</g>
<!-- MAP2K1&#45;&gt;MAPK3 -->
<g id="edge4" class="edge">
<title>MAP2K1&#45;&gt;MAPK3</title>
<path fill="none" stroke="#104e8b" stroke-width="5" d="M304.07,-578.83C297.63,-570.48 289.27,-559.65 281.63,-549.75"/>
<polygon fill="#104e8b" stroke="#104e8b" stroke-width="5" points="285.29,-547.33 275.72,-542.08 278.37,-552.67 285.29,-547.33"/>
</g>
<!-- GSK3B -->
<g id="node41" class="node">
<title>GSK3B</title>
<ellipse fill="none" stroke="#104e8b" stroke-width="2" cx="315" cy="-522" rx="18" ry="18"/>
<text text-anchor="middle" x="315" y="-516.95" font-family="Times,serif" font-size="14.00">GSK3B</text>
</g>
<!-- MAP2K1&#45;&gt;GSK3B -->
<g id="edge37" class="edge">
<title>MAP2K1&#45;&gt;GSK3B</title>
<path fill="none" stroke="#104e8b" stroke-width="5" d="M315,-575.34C315,-569.74 315,-563.36 315,-557.02"/>
<polygon fill="#104e8b" stroke="#104e8b" stroke-width="5" points="319.38,-557.14 315,-547.14 310.63,-557.14 319.38,-557.14"/>
</g>
<!-- MYC -->
<g id="node25" class="node">
<title>MYC</title>
<ellipse fill="none" stroke="#104e8b" stroke-width="2" cx="261" cy="-450" rx="18" ry="18"/>
<text text-anchor="middle" x="261" y="-444.95" font-family="Times,serif" font-size="14.00">MYC</text>
</g>
<!-- MAPK3&#45;&gt;MYC -->
<g id="edge18" class="edge">
<title>MAPK3&#45;&gt;MYC</title>
<path fill="none" stroke="#104e8b" stroke-width="5" d="M261,-503.34C261,-497.74 261,-491.36 261,-485.02"/>
<polygon fill="#104e8b" stroke="#104e8b" stroke-width="5" points="265.38,-485.14 261,-475.14 256.63,-485.14 265.38,-485.14"/>
</g>
<!-- TBK1 -->
<g id="node10" class="node">
<title>TBK1</title>
<ellipse fill="none" stroke="#104e8b" stroke-width="2" cx="315" cy="-234" rx="18" ry="18"/>
<text text-anchor="middle" x="315" y="-228.95" font-family="Times,serif" font-size="14.00">TBK1</text>
</g>
<!-- TICAM1&#45;&gt;TBK1 -->
<g id="edge5" class="edge">
<title>TICAM1&#45;&gt;TBK1</title>
<path fill="none" stroke="#104e8b" stroke-width="5" d="M315,-287.34C315,-281.74 315,-275.36 315,-269.02"/>
<polygon fill="#104e8b" stroke="#104e8b" stroke-width="5" points="319.38,-269.14 315,-259.14 310.63,-269.14 319.38,-269.14"/>
</g>
<!-- IRF3 -->
<g id="node14" class="node">
<title>IRF3</title>
<ellipse fill="none" stroke="#104e8b" stroke-width="2" cx="261" cy="-162" rx="18" ry="18"/>
<text text-anchor="middle" x="261" y="-156.95" font-family="Times,serif" font-size="14.00">IRF3</text>
</g>
<!-- TBK1&#45;&gt;IRF3 -->
<g id="edge9" class="edge">
<title>TBK1&#45;&gt;IRF3</title>
<path fill="none" stroke="#104e8b" stroke-width="5" d="M304.07,-218.83C297.63,-210.48 289.27,-199.65 281.63,-189.75"/>
<polygon fill="#104e8b" stroke="#104e8b" stroke-width="5" points="285.29,-187.33 275.72,-182.08 278.37,-192.67 285.29,-187.33"/>
</g>
<!-- RELA -->
<g id="node15" class="node">
<title>RELA</title>
<ellipse fill="none" stroke="#104e8b" stroke-width="2" cx="315" cy="-162" rx="18" ry="18"/>
<text text-anchor="middle" x="315" y="-156.95" font-family="Times,serif" font-size="14.00">RELA</text>
</g>
<!-- TBK1&#45;&gt;RELA -->
<g id="edge10" class="edge">
<title>TBK1&#45;&gt;RELA</title>
<path fill="none" stroke="#104e8b" stroke-width="5" d="M315,-215.34C315,-209.74 315,-203.36 315,-197.02"/>
<polygon fill="#104e8b" stroke="#104e8b" stroke-width="5" points="319.38,-197.14 315,-187.14 310.63,-197.14 319.38,-197.14"/>
</g>
<!-- REL -->
<g id="node26" class="node">
<title>REL</title>
<ellipse fill="none" stroke="#104e8b" stroke-width="2" cx="369" cy="-162" rx="18" ry="18"/>
<text text-anchor="middle" x="369" y="-156.95" font-family="Times,serif" font-size="14.00">REL</text>
</g>
<!-- TBK1&#45;&gt;REL -->
<g id="edge19" class="edge">
<title>TBK1&#45;&gt;REL</title>
<path fill="none" stroke="#104e8b" stroke-width="5" d="M325.93,-218.83C332.37,-210.48 340.73,-199.65 348.37,-189.75"/>
<polygon fill="#104e8b" stroke="#104e8b" stroke-width="5" points="351.63,-192.67 354.28,-182.08 344.71,-187.33 351.63,-192.67"/>
</g>
<!-- PDPK1&#45;&gt;MAP2K1 -->
<g id="edge17" class="edge">
<title>PDPK1&#45;&gt;MAP2K1</title>
<path fill="none" stroke="#104e8b" stroke-width="5" d="M407.98,-655.27C391.39,-644.51 364.29,-626.95 343.61,-613.55"/>
<polygon fill="#104e8b" stroke="#104e8b" stroke-width="5" points="346.24,-610.04 335.47,-608.27 341.48,-617.38 346.24,-610.04"/>
</g>
<!-- PRKCA -->
<g id="node13" class="node">
<title>PRKCA</title>
<ellipse fill="none" stroke="#104e8b" stroke-width="2" cx="423" cy="-594" rx="18" ry="18"/>
<text text-anchor="middle" x="423" y="-588.95" font-family="Times,serif" font-size="14.00">PRKCA</text>
</g>
<!-- PDPK1&#45;&gt;PRKCA -->
<g id="edge8" class="edge">
<title>PDPK1&#45;&gt;PRKCA</title>
<path fill="none" stroke="#104e8b" stroke-width="5" d="M423,-647.34C423,-641.74 423,-635.36 423,-629.02"/>
<polygon fill="#104e8b" stroke="#104e8b" stroke-width="5" points="427.38,-629.14 423,-619.14 418.63,-629.14 427.38,-629.14"/>
</g>
<!-- PRKCD -->
<g id="node30" class="node">
<title>PRKCD</title>
<ellipse fill="none" stroke="#104e8b" stroke-width="2" cx="504" cy="-594" rx="18" ry="18"/>
<text text-anchor="middle" x="504" y="-588.95" font-family="Times,serif" font-size="14.00">PRKCD</text>
</g>
<!-- PDPK1&#45;&gt;PRKCD -->
<g id="edge27" class="edge">
<title>PDPK1&#45;&gt;PRKCD</title>
<path fill="none" stroke="#104e8b" stroke-width="5" d="M436.74,-653.13C448.03,-643.37 464.34,-629.28 478.07,-617.41"/>
<polygon fill="#104e8b" stroke="#104e8b" stroke-width="5" points="480.77,-620.86 485.47,-611.01 475.05,-614.24 480.77,-620.86"/>
</g>
<!-- NFE2L2 -->
<g id="node29" class="node">
<title>NFE2L2</title>
<ellipse fill="none" stroke="#104e8b" stroke-width="2" cx="369" cy="-522" rx="18" ry="18"/>
<text text-anchor="middle" x="369" y="-516.95" font-family="Times,serif" font-size="14.00">NFE2L2</text>
</g>
<!-- PRKCA&#45;&gt;NFE2L2 -->
<g id="edge21" class="edge">
<title>PRKCA&#45;&gt;NFE2L2</title>
<path fill="none" stroke="#104e8b" stroke-width="5" d="M412.07,-578.83C405.63,-570.48 397.27,-559.65 389.63,-549.75"/>
<polygon fill="#104e8b" stroke="#104e8b" stroke-width="5" points="393.29,-547.33 383.72,-542.08 386.37,-552.67 393.29,-547.33"/>
</g>
<!-- TP53 -->
<g id="node38" class="node">
<title>TP53</title>
<ellipse fill="none" stroke="#104e8b" stroke-width="2" cx="423" cy="-522" rx="18" ry="18"/>
<text text-anchor="middle" x="423" y="-516.95" font-family="Times,serif" font-size="14.00">TP53</text>
</g>
<!-- PRKCA&#45;&gt;TP53 -->
<g id="edge38" class="edge">
<title>PRKCA&#45;&gt;TP53</title>
<path fill="none" stroke="#104e8b" stroke-width="5" d="M423,-575.34C423,-569.74 423,-563.36 423,-557.02"/>
<polygon fill="#104e8b" stroke="#104e8b" stroke-width="5" points="427.38,-557.14 423,-547.14 418.63,-557.14 427.38,-557.14"/>
</g>
<!-- NR1H4 -->
<g id="node45" class="node">
<title>NR1H4</title>
<ellipse fill="none" stroke="#104e8b" stroke-width="2" cx="477" cy="-522" rx="18" ry="18"/>
<text text-anchor="middle" x="477" y="-516.95" font-family="Times,serif" font-size="14.00">NR1H4</text>
</g>
<!-- PRKCA&#45;&gt;NR1H4 -->
<g id="edge36" class="edge">
<title>PRKCA&#45;&gt;NR1H4</title>
<path fill="none" stroke="#104e8b" stroke-width="5" d="M433.93,-578.83C440.37,-570.48 448.73,-559.65 456.37,-549.75"/>
<polygon fill="#104e8b" stroke="#104e8b" stroke-width="5" points="459.63,-552.67 462.28,-542.08 452.71,-547.33 459.63,-552.67"/>
</g>
<!-- EGR1 -->
<g id="node27" class="node">
<title>EGR1</title>
<ellipse fill="none" stroke="#104e8b" stroke-width="2" cx="288" cy="-90" rx="18" ry="18"/>
<text text-anchor="middle" x="288" y="-84.95" font-family="Times,serif" font-size="14.00">EGR1</text>
</g>
<!-- RELA&#45;&gt;EGR1 -->
<g id="edge31" class="edge">
<title>RELA&#45;&gt;EGR1</title>
<path fill="none" stroke="#104e8b" stroke-width="5" d="M308.6,-144.41C306.08,-137.87 303.1,-130.14 300.19,-122.61"/>
<polygon fill="#104e8b" stroke="#104e8b" stroke-width="5" points="304.28,-121.04 296.6,-113.29 296.11,-124.19 304.28,-121.04"/>
</g>
<!-- JUN -->
<g id="node32" class="node">
<title>JUN</title>
<ellipse fill="none" stroke="#104e8b" stroke-width="2" cx="342" cy="-90" rx="18" ry="18"/>
<text text-anchor="middle" x="342" y="-84.95" font-family="Times,serif" font-size="14.00">JUN</text>
</g>
<!-- RELA&#45;&gt;JUN -->
<g id="edge23" class="edge">
<title>RELA&#45;&gt;JUN</title>
<path fill="none" stroke="#104e8b" stroke-width="5" d="M321.4,-144.41C323.92,-137.87 326.9,-130.14 329.81,-122.61"/>
<polygon fill="#104e8b" stroke="#104e8b" stroke-width="5" points="333.89,-124.19 333.4,-113.29 325.72,-121.04 333.89,-124.19"/>
</g>
<!-- SMAD4 -->
<g id="node22" class="node">
<title>SMAD4</title>
<ellipse fill="none" stroke="#8b1a1a" stroke-width="2" cx="72" cy="-522" rx="18" ry="18"/>
<text text-anchor="middle" x="72" y="-516.95" font-family="Times,serif" font-size="14.00">SMAD4</text>
</g>
<!-- SMAD3&#45;&gt;SMAD4 -->
<g id="edge15" class="edge">
<title>SMAD3&#45;&gt;SMAD4</title>
<path fill="none" stroke="#8b1a1a" stroke-width="5" d="M72,-575.34C72,-569.74 72,-563.36 72,-557.02"/>
<polygon fill="#8b1a1a" stroke="#8b1a1a" stroke-width="5" points="76.38,-557.14 72,-547.14 67.63,-557.14 76.38,-557.14"/>
</g>
<!-- KAT2B -->
<g id="node17" class="node">
<title>KAT2B</title>
<ellipse fill="none" stroke="#8b1a1a" stroke-width="2" cx="153" cy="-522" rx="18" ry="18"/>
<text text-anchor="middle" x="153" y="-516.95" font-family="Times,serif" font-size="14.00">KAT2B</text>
</g>
<!-- SMAD2 -->
<g id="node18" class="node">
<title>SMAD2</title>
<ellipse fill="none" stroke="#8b1a1a" stroke-width="2" cx="153" cy="-450" rx="18" ry="18"/>
<text text-anchor="middle" x="153" y="-444.95" font-family="Times,serif" font-size="14.00">SMAD2</text>
</g>
<!-- KAT2B&#45;&gt;SMAD2 -->
<g id="edge12" class="edge">
<title>KAT2B&#45;&gt;SMAD2</title>
<path fill="none" stroke="#8b1a1a" stroke-width="5" d="M153,-503.34C153,-497.74 153,-491.36 153,-485.02"/>
<polygon fill="#8b1a1a" stroke="#8b1a1a" stroke-width="5" points="157.38,-485.14 153,-475.14 148.63,-485.14 157.38,-485.14"/>
</g>
<!-- MEF2A -->
<g id="node21" class="node">
<title>MEF2A</title>
<ellipse fill="none" stroke="#8b1a1a" stroke-width="2" cx="153" cy="-378" rx="18" ry="18"/>
<text text-anchor="middle" x="153" y="-372.95" font-family="Times,serif" font-size="14.00">MEF2A</text>
</g>
<!-- SMAD2&#45;&gt;MEF2A -->
<g id="edge14" class="edge">
<title>SMAD2&#45;&gt;MEF2A</title>
<path fill="none" stroke="#8b1a1a" stroke-width="5" d="M153,-431.34C153,-425.74 153,-419.36 153,-413.02"/>
<polygon fill="#8b1a1a" stroke="#8b1a1a" stroke-width="5" points="157.38,-413.14 153,-403.14 148.63,-413.14 157.38,-413.14"/>
</g>
<!-- NFKB2 -->
<g id="node19" class="node">
<title>NFKB2</title>
<ellipse fill="none" stroke="#104e8b" stroke-width="2" cx="423" cy="-450" rx="18" ry="18"/>
<text text-anchor="middle" x="423" y="-444.95" font-family="Times,serif" font-size="14.00">NFKB2</text>
</g>
<!-- RELB -->
<g id="node20" class="node">
<title>RELB</title>
<ellipse fill="none" stroke="#104e8b" stroke-width="2" cx="423" cy="-378" rx="18" ry="18"/>
<text text-anchor="middle" x="423" y="-372.95" font-family="Times,serif" font-size="14.00">RELB</text>
</g>
<!-- NFKB2&#45;&gt;RELB -->
<g id="edge13" class="edge">
<title>NFKB2&#45;&gt;RELB</title>
<path fill="none" stroke="#104e8b" stroke-width="5" d="M423,-431.34C423,-425.74 423,-419.36 423,-413.02"/>
<polygon fill="#104e8b" stroke="#104e8b" stroke-width="5" points="427.38,-413.14 423,-403.14 418.63,-413.14 427.38,-413.14"/>
</g>
<!-- ACVR1 -->
<g id="node23" class="node">
<title>ACVR1</title>
<ellipse fill="none" stroke="#104e8b" stroke-width="2" cx="558" cy="-666" rx="18" ry="18"/>
<text text-anchor="middle" x="558" y="-660.95" font-family="Times,serif" font-size="14.00">ACVR1</text>
</g>
<!-- SMAD5 -->
<g id="node24" class="node">
<title>SMAD5</title>
<ellipse fill="none" stroke="#104e8b" stroke-width="2" cx="558" cy="-594" rx="18" ry="18"/>
<text text-anchor="middle" x="558" y="-588.95" font-family="Times,serif" font-size="14.00">SMAD5</text>
</g>
<!-- ACVR1&#45;&gt;SMAD5 -->
<g id="edge16" class="edge">
<title>ACVR1&#45;&gt;SMAD5</title>
<path fill="none" stroke="#104e8b" stroke-width="5" d="M558,-647.34C558,-641.74 558,-635.36 558,-629.02"/>
<polygon fill="#104e8b" stroke="#104e8b" stroke-width="5" points="562.38,-629.14 558,-619.14 553.63,-629.14 562.38,-629.14"/>
</g>
<!-- DNMT3A -->
<g id="node48" class="node">
<title>DNMT3A</title>
<ellipse fill="none" stroke="#104e8b" stroke-width="2" cx="261" cy="-378" rx="18" ry="18"/>
<text text-anchor="middle" x="261" y="-372.95" font-family="Times,serif" font-size="14.00">DNMT3A</text>
</g>
<!-- MYC&#45;&gt;DNMT3A -->
<g id="edge44" class="edge">
<title>MYC&#45;&gt;DNMT3A</title>
<path fill="none" stroke="#104e8b" stroke-width="5" d="M261,-431.34C261,-425.74 261,-419.36 261,-413.02"/>
<polygon fill="#104e8b" stroke="#104e8b" stroke-width="5" points="265.38,-413.14 261,-403.14 256.63,-413.14 265.38,-413.14"/>
</g>
<!-- PITX1 -->
<g id="node28" class="node">
<title>PITX1</title>
<ellipse fill="none" stroke="#104e8b" stroke-width="2" cx="288" cy="-18" rx="18" ry="18"/>
<text text-anchor="middle" x="288" y="-12.95" font-family="Times,serif" font-size="14.00">PITX1</text>
</g>
<!-- EGR1&#45;&gt;PITX1 -->
<g id="edge20" class="edge">
<title>EGR1&#45;&gt;PITX1</title>
<path fill="none" stroke="#104e8b" stroke-width="5" d="M288,-71.34C288,-65.74 288,-59.36 288,-53.02"/>
<polygon fill="#104e8b" stroke="#104e8b" stroke-width="5" points="292.38,-53.14 288,-43.14 283.63,-53.14 292.38,-53.14"/>
</g>
<!-- STAT1 -->
<g id="node31" class="node">
<title>STAT1</title>
<ellipse fill="none" stroke="#104e8b" stroke-width="2" cx="531" cy="-522" rx="18" ry="18"/>
<text text-anchor="middle" x="531" y="-516.95" font-family="Times,serif" font-size="14.00">STAT1</text>
</g>
<!-- PRKCD&#45;&gt;STAT1 -->
<g id="edge22" class="edge">
<title>PRKCD&#45;&gt;STAT1</title>
<path fill="none" stroke="#104e8b" stroke-width="5" d="M510.4,-576.41C512.92,-569.87 515.9,-562.14 518.81,-554.61"/>
<polygon fill="#104e8b" stroke="#104e8b" stroke-width="5" points="522.89,-556.19 522.4,-545.29 514.72,-553.04 522.89,-556.19"/>
</g>
<!-- IRF2 -->
<g id="node39" class="node">
<title>IRF2</title>
<ellipse fill="none" stroke="#104e8b" stroke-width="2" cx="531" cy="-450" rx="18" ry="18"/>
<text text-anchor="middle" x="531" y="-444.95" font-family="Times,serif" font-size="14.00">IRF2</text>
</g>
<!-- STAT1&#45;&gt;IRF2 -->
<g id="edge29" class="edge">
<title>STAT1&#45;&gt;IRF2</title>
<path fill="none" stroke="#104e8b" stroke-width="5" d="M531,-503.34C531,-497.74 531,-491.36 531,-485.02"/>
<polygon fill="#104e8b" stroke="#104e8b" stroke-width="5" points="535.38,-485.14 531,-475.14 526.63,-485.14 535.38,-485.14"/>
</g>
<!-- SPI1 -->
<g id="node40" class="node">
<title>SPI1</title>
<ellipse fill="none" stroke="#104e8b" stroke-width="2" cx="342" cy="-18" rx="18" ry="18"/>
<text text-anchor="middle" x="342" y="-12.95" font-family="Times,serif" font-size="14.00">SPI1</text>
</g>
<!-- JUN&#45;&gt;SPI1 -->
<g id="edge30" class="edge">
<title>JUN&#45;&gt;SPI1</title>
<path fill="none" stroke="#104e8b" stroke-width="5" d="M342,-71.34C342,-65.74 342,-59.36 342,-53.02"/>
<polygon fill="#104e8b" stroke="#104e8b" stroke-width="5" points="346.38,-53.14 342,-43.14 337.63,-53.14 346.38,-53.14"/>
</g>
<!-- HMGA1 -->
<g id="node33" class="node">
<title>HMGA1</title>
<ellipse fill="none" stroke="#8b1a1a" stroke-width="2" cx="207" cy="-450" rx="18" ry="18"/>
<text text-anchor="middle" x="207" y="-444.95" font-family="Times,serif" font-size="14.00">HMGA1</text>
</g>
<!-- POU3F1 -->
<g id="node34" class="node">
<title>POU3F1</title>
<ellipse fill="none" stroke="#8b1a1a" stroke-width="2" cx="207" cy="-378" rx="18" ry="18"/>
<text text-anchor="middle" x="207" y="-372.95" font-family="Times,serif" font-size="14.00">POU3F1</text>
</g>
<!-- HMGA1&#45;&gt;POU3F1 -->
<g id="edge24" class="edge">
<title>HMGA1&#45;&gt;POU3F1</title>
<path fill="none" stroke="#8b1a1a" stroke-width="5" d="M207,-431.34C207,-425.74 207,-419.36 207,-413.02"/>
<polygon fill="#8b1a1a" stroke="#8b1a1a" stroke-width="5" points="211.38,-413.14 207,-403.14 202.63,-413.14 211.38,-413.14"/>
</g>
<!-- CDH2 -->
<g id="node35" class="node">
<title>CDH2</title>
<ellipse fill="none" stroke="#8b1a1a" stroke-width="2" cx="99" cy="-810" rx="18" ry="18"/>
<text text-anchor="middle" x="99" y="-804.95" font-family="Times,serif" font-size="14.00">CDH2</text>
</g>
<!-- CDON -->
<g id="node36" class="node">
<title>CDON</title>
<ellipse fill="none" stroke="#8b1a1a" stroke-width="2" cx="99" cy="-738" rx="18" ry="18"/>
<text text-anchor="middle" x="99" y="-732.95" font-family="Times,serif" font-size="14.00">CDON</text>
</g>
<!-- CDH2&#45;&gt;CDON -->
<g id="edge25" class="edge">
<title>CDH2&#45;&gt;CDON</title>
<path fill="none" stroke="#8b1a1a" stroke-width="5" d="M99,-791.34C99,-785.74 99,-779.36 99,-773.02"/>
<polygon fill="#8b1a1a" stroke="#8b1a1a" stroke-width="5" points="103.38,-773.14 99,-763.14 94.63,-773.14 103.38,-773.14"/>
</g>
<!-- CDON&#45;&gt;MAPK14 -->
<g id="edge43" class="edge">
<title>CDON&#45;&gt;MAPK14</title>
<path fill="none" stroke="#8b1a1a" stroke-width="5" d="M99,-719.34C99,-713.74 99,-707.36 99,-701.02"/>
<polygon fill="#8b1a1a" stroke="#8b1a1a" stroke-width="5" points="103.38,-701.14 99,-691.14 94.63,-701.14 103.38,-701.14"/>
</g>
<!-- TP53&#45;&gt;NFKB2 -->
<g id="edge28" class="edge">
<title>TP53&#45;&gt;NFKB2</title>
<path fill="none" stroke="#104e8b" stroke-width="5" d="M423,-503.34C423,-497.74 423,-491.36 423,-485.02"/>
<polygon fill="#104e8b" stroke="#104e8b" stroke-width="5" points="427.38,-485.14 423,-475.14 418.63,-485.14 427.38,-485.14"/>
</g>
<!-- GSK3B&#45;&gt;PRKCE -->
<g id="edge40" class="edge">
<title>GSK3B&#45;&gt;PRKCE</title>
<path fill="none" stroke="#104e8b" stroke-width="5" d="M315,-503.34C315,-497.74 315,-491.36 315,-485.02"/>
<polygon fill="#104e8b" stroke="#104e8b" stroke-width="5" points="319.38,-485.14 315,-475.14 310.63,-485.14 319.38,-485.14"/>
</g>
<!-- CIITA -->
<g id="node42" class="node">
<title>CIITA</title>
<ellipse fill="none" stroke="#104e8b" stroke-width="2" cx="369" cy="-450" rx="18" ry="18"/>
<text text-anchor="middle" x="369" y="-444.95" font-family="Times,serif" font-size="14.00">CIITA</text>
</g>
<!-- GSK3B&#45;&gt;CIITA -->
<g id="edge32" class="edge">
<title>GSK3B&#45;&gt;CIITA</title>
<path fill="none" stroke="#104e8b" stroke-width="5" d="M325.93,-506.83C332.37,-498.48 340.73,-487.65 348.37,-477.75"/>
<polygon fill="#104e8b" stroke="#104e8b" stroke-width="5" points="351.63,-480.67 354.28,-470.08 344.71,-475.33 351.63,-480.67"/>
</g>
<!-- CAV1 -->
<g id="node43" class="node">
<title>CAV1</title>
<ellipse fill="none" stroke="#8b1a1a" stroke-width="2" cx="207" cy="-522" rx="18" ry="18"/>
<text text-anchor="middle" x="207" y="-516.95" font-family="Times,serif" font-size="14.00">CAV1</text>
</g>
<!-- CAV1&#45;&gt;HMGA1 -->
<g id="edge33" class="edge">
<title>CAV1&#45;&gt;HMGA1</title>
<path fill="none" stroke="#8b1a1a" stroke-width="5" d="M207,-503.34C207,-497.74 207,-491.36 207,-485.02"/>
<polygon fill="#8b1a1a" stroke="#8b1a1a" stroke-width="5" points="211.38,-485.14 207,-475.14 202.63,-485.14 211.38,-485.14"/>
</g>
<!-- ACVR2A -->
<g id="node44" class="node">
<title>ACVR2A</title>
<ellipse fill="none" stroke="#104e8b" stroke-width="2" cx="558" cy="-738" rx="18" ry="18"/>
<text text-anchor="middle" x="558" y="-732.95" font-family="Times,serif" font-size="14.00">ACVR2A</text>
</g>
<!-- ACVR2A&#45;&gt;ACVR1 -->
<g id="edge35" class="edge">
<title>ACVR2A&#45;&gt;ACVR1</title>
<path fill="none" stroke="#104e8b" stroke-width="5" d="M558,-719.34C558,-713.74 558,-707.36 558,-701.02"/>
<polygon fill="#104e8b" stroke="#104e8b" stroke-width="5" points="562.38,-701.14 558,-691.14 553.63,-701.14 562.38,-701.14"/>
</g>
<!-- NR3C1&#45;&gt;KAT2B -->
<g id="edge39" class="edge">
<title>NR3C1&#45;&gt;KAT2B</title>
<path fill="none" stroke="#8b1a1a" stroke-width="5" d="M173.6,-576.41C171.08,-569.87 168.1,-562.14 165.19,-554.61"/>
<polygon fill="#8b1a1a" stroke="#8b1a1a" stroke-width="5" points="169.28,-553.04 161.6,-545.29 161.11,-556.19 169.28,-553.04"/>
</g>
<!-- NR3C1&#45;&gt;CAV1 -->
<g id="edge42" class="edge">
<title>NR3C1&#45;&gt;CAV1</title>
<path fill="none" stroke="#8b1a1a" stroke-width="5" d="M186.4,-576.41C188.92,-569.87 191.9,-562.14 194.81,-554.61"/>
<polygon fill="#8b1a1a" stroke="#8b1a1a" stroke-width="5" points="198.89,-556.19 198.4,-545.29 190.72,-553.04 198.89,-556.19"/>
</g>
<!-- INHBA -->
<g id="node47" class="node">
<title>INHBA</title>
<ellipse fill="none" stroke="#104e8b" stroke-width="2" cx="558" cy="-810" rx="18" ry="18"/>
<text text-anchor="middle" x="558" y="-804.95" font-family="Times,serif" font-size="14.00">INHBA</text>
</g>
<!-- INHBA&#45;&gt;ACVR2A -->
<g id="edge41" class="edge">
<title>INHBA&#45;&gt;ACVR2A</title>
<path fill="none" stroke="#104e8b" stroke-width="5" d="M558,-791.34C558,-785.74 558,-779.36 558,-773.02"/>
<polygon fill="#104e8b" stroke="#104e8b" stroke-width="5" points="562.38,-773.14 558,-763.14 553.63,-773.14 562.38,-773.14"/>
</g>
<!-- e_3272_source -->
<g id="node49" class="node">
<title>e_3272_source</title>
<ellipse fill="black" stroke="black" cx="558" cy="-865.8" rx="1.8" ry="1.8"/>
</g>
<!-- e_3272_source&#45;&gt;INHBA -->
<g id="edge46" class="edge">
<title>e_3272_source&#45;&gt;INHBA</title>
<path fill="none" stroke="#104e8b" stroke-width="5" d="M558,-863.87C558,-861.27 558,-853.56 558,-844.81"/>
<polygon fill="#104e8b" stroke="#104e8b" stroke-width="5" points="562.38,-845.04 558,-835.04 553.63,-845.04 562.38,-845.04"/>
</g>
<!-- e_3273_source -->
<g id="node50" class="node">
<title>e_3273_source</title>
<ellipse fill="black" stroke="black" cx="423" cy="-865.8" rx="1.8" ry="1.8"/>
</g>
<!-- e_3273_source&#45;&gt;IGF1 -->
<g id="edge47" class="edge">
<title>e_3273_source&#45;&gt;IGF1</title>
<path fill="none" stroke="#104e8b" stroke-width="5" d="M423,-863.87C423,-861.27 423,-853.56 423,-844.81"/>
<polygon fill="#104e8b" stroke="#104e8b" stroke-width="5" points="427.38,-845.04 423,-835.04 418.63,-845.04 427.38,-845.04"/>
</g>
<!-- e_3278_source -->
<g id="node51" class="node">
<title>e_3278_source</title>
<ellipse fill="black" stroke="black" cx="99" cy="-865.8" rx="1.8" ry="1.8"/>
</g>
<!-- e_3278_source&#45;&gt;CDH2 -->
<g id="edge48" class="edge">
<title>e_3278_source&#45;&gt;CDH2</title>
<path fill="none" stroke="#8b1a1a" stroke-width="5" d="M99,-863.87C99,-861.27 99,-853.56 99,-844.81"/>
<polygon fill="#8b1a1a" stroke="#8b1a1a" stroke-width="5" points="103.38,-845.04 99,-835.04 94.63,-845.04 103.38,-845.04"/>
</g>
</g>
</svg>