<?xml version="1.0" encoding="UTF-8" standalone="no"?>
<!DOCTYPE svg PUBLIC "-//W3C//DTD SVG 1.1//EN"
 "http://www.w3.org/Graphics/SVG/1.1/DTD/svg11.dtd">
<!-- Generated by graphviz version 2.43.0 (0)
 -->
<!-- Title: %3 Pages: 1 -->
<svg width="163pt" height="332pt"
 viewBox="0.00 0.00 163.00 332.00" xmlns="http://www.w3.org/2000/svg" xmlns:xlink="http://www.w3.org/1999/xlink">
<g id="graph0" class="graph" transform="scale(1 1) rotate(0) translate(4 328)">
<title>%3</title>
<polygon fill="white" stroke="transparent" points="-4,4 -4,-328 159,-328 159,4 -4,4"/>
<!-- 0 -->
<g id="node1" class="node">
<title>0</title>
<ellipse fill="none" stroke="black" cx="95" cy="-234" rx="18" ry="18"/>
<text text-anchor="middle" x="95" y="-230.3" font-family="Times,serif" font-size="14.00">0</text>
</g>
<!-- 1 -->
<g id="node2" class="node">
<title>1</title>
<ellipse fill="none" stroke="black" cx="72" cy="-90" rx="18" ry="18"/>
<text text-anchor="middle" x="72" y="-86.3" font-family="Times,serif" font-size="14.00">1</text>
</g>
<!-- 0&#45;&gt;1 -->
<g id="edge1" class="edge">
<title>0&#45;&gt;1</title>
<path fill="none" stroke="black" d="M92.27,-216.15C88.35,-191.92 81.06,-146.96 76.38,-118.05"/>
<polygon fill="black" stroke="black" points="79.78,-117.14 74.73,-107.82 72.87,-118.26 79.78,-117.14"/>
</g>
<!-- 2 -->
<g id="node3" class="node">
<title>2</title>
<ellipse fill="none" stroke="black" cx="22" cy="-162" rx="18" ry="18"/>
<text text-anchor="middle" x="22" y="-158.3" font-family="Times,serif" font-size="14.00">2</text>
</g>
<!-- 0&#45;&gt;2 -->
<g id="edge2" class="edge">
<title>0&#45;&gt;2</title>
<path fill="none" stroke="black" d="M82.28,-220.81C68.89,-207.96 47.91,-187.85 34.57,-175.05"/>
</g>
<!-- 7 -->
<g id="node8" class="node">
<title>7</title>
<ellipse fill="none" stroke="black" cx="114" cy="-162" rx="18" ry="18"/>
<text text-anchor="middle" x="114" y="-158.3" font-family="Times,serif" font-size="14.00">7</text>
</g>
<!-- 0&#45;&gt;7 -->
<g id="edge10" class="edge">
<title>0&#45;&gt;7</title>
<path fill="none" stroke="black" d="M99.5,-216.41C102.53,-205.25 106.51,-190.6 109.53,-179.47"/>
</g>
<!-- 5 -->
<g id="node6" class="node">
<title>5</title>
<ellipse fill="none" stroke="black" cx="72" cy="-18" rx="18" ry="18"/>
<text text-anchor="middle" x="72" y="-14.3" font-family="Times,serif" font-size="14.00">5</text>
</g>
<!-- 1&#45;&gt;5 -->
<g id="edge9" class="edge">
<title>1&#45;&gt;5</title>
<path fill="none" stroke="black" d="M72,-71.7C72,-60.85 72,-46.92 72,-36.1"/>
</g>
<!-- 2&#45;&gt;1 -->
<g id="edge3" class="edge">
<title>2&#45;&gt;1</title>
<path fill="none" stroke="black" d="M32.12,-146.83C40.79,-134.69 53.23,-117.28 61.9,-105.14"/>
</g>
<!-- 4 -->
<g id="node5" class="node">
<title>4</title>
<ellipse fill="none" stroke="black" cx="18" cy="-90" rx="18" ry="18"/>
<text text-anchor="middle" x="18" y="-86.3" font-family="Times,serif" font-size="14.00">4</text>
</g>
<!-- 2&#45;&gt;4 -->
<g id="edge5" class="edge">
<title>2&#45;&gt;4</title>
<path fill="none" stroke="black" d="M21.01,-143.7C20.39,-132.85 19.6,-118.92 18.98,-108.1"/>
</g>
<!-- 3 -->
<g id="node4" class="node">
<title>3</title>
<ellipse fill="none" stroke="black" cx="22" cy="-234" rx="18" ry="18"/>
<text text-anchor="middle" x="22" y="-230.3" font-family="Times,serif" font-size="14.00">3</text>
</g>
<!-- 3&#45;&gt;2 -->
<g id="edge4" class="edge">
<title>3&#45;&gt;2</title>
<path fill="none" stroke="black" d="M22,-215.7C22,-204.85 22,-190.92 22,-180.1"/>
</g>
<!-- 4&#45;&gt;5 -->
<g id="edge6" class="edge">
<title>4&#45;&gt;5</title>
<path fill="none" stroke="black" d="M28.67,-75.17C36.21,-65.39 46.48,-52.08 55.13,-40.87"/>
<polygon fill="black" stroke="black" points="58.02,-42.86 61.35,-32.8 52.47,-38.58 58.02,-42.86"/>
</g>
<!-- 6 -->
<g id="node7" class="node">
<title>6</title>
<ellipse fill="none" stroke="black" cx="137" cy="-306" rx="18" ry="18"/>
<text text-anchor="middle" x="137" y="-302.3" font-family="Times,serif" font-size="14.00">6</text>
</g>
<!-- 6&#45;&gt;0 -->
<g id="edge8" class="edge">
<title>6&#45;&gt;0</title>
<path fill="none" stroke="black" d="M128.09,-290.15C120.97,-278.28 111.02,-261.7 103.89,-249.82"/>
</g>
<!-- 6&#45;&gt;5 -->
<g id="edge7" class="edge">
<title>6&#45;&gt;5</title>
<path fill="none" stroke="black" d="M140.39,-288.2C145.72,-258.54 154.19,-195.17 141,-144 130.91,-104.84 105.65,-64.82 88.66,-40.94"/>
<polygon fill="black" stroke="black" points="91.32,-38.65 82.6,-32.62 85.66,-42.77 91.32,-38.65"/>
</g>
</g>
</svg>