<?xml version="1.0" encoding="UTF-8" standalone="no"?>
<!DOCTYPE svg PUBLIC "-//W3C//DTD SVG 1.1//EN"
 "http://www.w3.org/Graphics/SVG/1.1/DTD/svg11.dtd">
<!-- Generated by graphviz version 13.0.1 (0)
 -->
<!-- Pages: 1 -->
<svg width="308pt" height="771pt"
 viewBox="0.00 0.00 308.00 771.00" xmlns="http://www.w3.org/2000/svg" xmlns:xlink="http://www.w3.org/1999/xlink">
<g id="graph0" class="graph" transform="scale(1 1) rotate(0) translate(4 767.2)">
<polygon fill="white" stroke="none" points="-4,4 -4,-767.2 304,-767.2 304,4 -4,4"/>
<!-- rec1 -->
<g id="node1" class="node">
<title>rec1</title>
<ellipse fill="none" stroke="#8b1a1a" stroke-width="2" cx="170" cy="-705.6" rx="18" ry="18"/>
<text xml:space="preserve" text-anchor="middle" x="170" y="-700.55" font-family="Times,serif" font-size="14.00">rec1</text>
</g>
<!-- a -->
<g id="node2" class="node">
<title>a</title>
<ellipse fill="none" stroke="black" cx="132" cy="-633.6" rx="18" ry="18"/>
<text xml:space="preserve" text-anchor="middle" x="132" y="-628.55" font-family="Times,serif" font-size="14.00">a</text>
</g>
<!-- rec1&#45;&gt;a -->
<g id="edge1" class="edge">
<title>rec1&#45;&gt;a</title>
<path fill="none" stroke="black" stroke-width="0.25" d="M161.38,-688.72C156.6,-679.91 150.56,-668.78 145.19,-658.91"/>
<polygon fill="black" stroke="black" stroke-width="0.25" points="148.36,-657.39 140.51,-650.27 142.2,-660.73 148.36,-657.39"/>
</g>
<!-- b -->
<g id="node3" class="node">
<title>b</title>
<ellipse fill="none" stroke="black" cx="140" cy="-273.6" rx="18" ry="18"/>
<text xml:space="preserve" text-anchor="middle" x="140" y="-268.55" font-family="Times,serif" font-size="14.00">b</text>
</g>
<!-- rec1&#45;&gt;b -->
<g id="edge2" class="edge">
<title>rec1&#45;&gt;b</title>
<path fill="none" stroke="black" stroke-width="0.25" d="M170.52,-686.74C171.49,-647.66 172.98,-551.68 167,-471.6 162.21,-407.52 150.11,-332.47 143.87,-296.29"/>
<polygon fill="black" stroke="black" stroke-width="0.25" points="138.31,-293.49 148.16,-291.78 148.5,-293.75 138.65,-295.46 138.31,-293.49"/>
<polyline fill="none" stroke="black" stroke-width="0.25" points="143.06,-291.65 143.92,-296.58"/>
</g>
<!-- c -->
<g id="node4" class="node">
<title>c</title>
<ellipse fill="none" stroke="#104e8b" stroke-width="2" cx="48" cy="-561.6" rx="18" ry="18"/>
<text xml:space="preserve" text-anchor="middle" x="48" y="-556.55" font-family="Times,serif" font-size="14.00">c</text>
</g>
<!-- rec1&#45;&gt;c -->
<g id="edge3" class="edge">
<title>rec1&#45;&gt;c</title>
<path fill="none" stroke="#104e8b" stroke-width="5" d="M154.91,-694.42C140.95,-684.53 120.12,-668.55 105,-651.6 86.46,-630.81 69.86,-603.37 59.42,-584.49"/>
<polygon fill="#104e8b" stroke="#104e8b" stroke-width="5" points="52.93,-583.02 61.71,-578.24 62.67,-579.99 53.89,-584.77 52.93,-583.02"/>
<polyline fill="none" stroke="#104e8b" stroke-width="5" points="56.84,-579.75 59.23,-584.14"/>
</g>
<!-- a&#45;&gt;c -->
<g id="edge9" class="edge">
<title>a&#45;&gt;c</title>
<path fill="none" stroke="black" stroke-width="0.25" d="M118.5,-621.35C105.31,-610.36 85.02,-593.45 69.59,-580.59"/>
<polygon fill="black" stroke="black" stroke-width="0.25" points="72.24,-578.24 62.31,-574.53 67.76,-583.62 72.24,-578.24"/>
</g>
<!-- d -->
<g id="node8" class="node">
<title>d</title>
<ellipse fill="none" stroke="black" cx="117" cy="-129.6" rx="18" ry="18"/>
<text xml:space="preserve" text-anchor="middle" x="117" y="-124.55" font-family="Times,serif" font-size="14.00">d</text>
</g>
<!-- a&#45;&gt;d -->
<g id="edge10" class="edge">
<title>a&#45;&gt;d</title>
<path fill="none" stroke="black" stroke-width="0.25" d="M124.85,-616.79C113.84,-590.95 94,-537.81 94,-490.6 94,-490.6 94,-490.6 94,-272.6 94,-229.4 104.5,-179.74 111.31,-152.08"/>
<polygon fill="black" stroke="black" stroke-width="0.25" points="107.36,-147.26 117.06,-149.69 116.58,-151.63 106.88,-149.2 107.36,-147.26"/>
<polyline fill="none" stroke="black" stroke-width="0.25" points="112.46,-147.51 111.24,-152.36"/>
</g>
<!-- tf1 -->
<g id="node10" class="node">
<title>tf1</title>
<ellipse fill="none" stroke="black" cx="228" cy="-417.6" rx="18" ry="18"/>
<text xml:space="preserve" text-anchor="middle" x="228" y="-412.55" font-family="Times,serif" font-size="14.00">tf1</text>
</g>
<!-- a&#45;&gt;tf1 -->
<g id="edge16" class="edge">
<title>a&#45;&gt;tf1</title>
<path fill="none" stroke="black" stroke-width="0.25" d="M139.06,-616.86C156.19,-578.68 199.94,-481.15 218.95,-438.77"/>
<polygon fill="black" stroke="black" stroke-width="0.25" points="215.96,-433.22 225.08,-437.32 224.26,-439.14 215.14,-435.05 215.96,-433.22"/>
<polyline fill="none" stroke="black" stroke-width="0.25" points="220.93,-434.36 218.88,-438.92"/>
</g>
<!-- g -->
<g id="node7" class="node">
<title>g</title>
<ellipse fill="none" stroke="black" cx="140" cy="-201.6" rx="18" ry="18"/>
<text xml:space="preserve" text-anchor="middle" x="140" y="-196.55" font-family="Times,serif" font-size="14.00">g</text>
</g>
<!-- b&#45;&gt;g -->
<g id="edge6" class="edge">
<title>b&#45;&gt;g</title>
<path fill="none" stroke="black" stroke-width="0.25" d="M140,-255.3C140,-247.67 140,-238.52 140,-230"/>
<polygon fill="black" stroke="black" stroke-width="0.25" points="143.5,-230.08 140,-220.08 136.5,-230.08 143.5,-230.08"/>
</g>
<!-- tf2 -->
<g id="node6" class="node">
<title>tf2</title>
<ellipse fill="none" stroke="#8b1a1a" stroke-width="2" cx="224" cy="-57.6" rx="18" ry="18"/>
<text xml:space="preserve" text-anchor="middle" x="224" y="-52.55" font-family="Times,serif" font-size="14.00">tf2</text>
</g>
<!-- c&#45;&gt;tf2 -->
<g id="edge18" class="edge">
<title>c&#45;&gt;tf2</title>
<path fill="none" stroke="#8b1a1a" stroke-width="5" d="M38.97,-545C25.07,-519.46 0,-466.74 0,-418.6 0,-418.6 0,-418.6 0,-200.6 0,-107.24 140.52,-72.69 198.96,-62.36"/>
<polygon fill="#8b1a1a" stroke="#8b1a1a" stroke-width="5" points="202.36,-56.71 204.04,-66.56 202.07,-66.9 200.39,-57.04 202.36,-56.71"/>
<polyline fill="none" stroke="#8b1a1a" stroke-width="5" points="204.19,-61.47 199.26,-62.31"/>
</g>
<!-- c&#45;&gt;d -->
<g id="edge11" class="edge">
<title>c&#45;&gt;d</title>
<path fill="none" stroke="black" stroke-width="0.25" d="M42.09,-543.55C38.51,-516.89 38,-463.72 38,-418.6 38,-418.6 38,-418.6 38,-272.6 38,-223.53 72.04,-173.84 95.7,-148.26"/>
<polygon fill="black" stroke="black" stroke-width="0.25" points="97.92,-151 102.4,-141.39 92.91,-146.11 97.92,-151"/>
</g>
<!-- e -->
<g id="node9" class="node">
<title>e</title>
<ellipse fill="none" stroke="black" cx="140" cy="-489.6" rx="18" ry="18"/>
<text xml:space="preserve" text-anchor="middle" x="140" y="-484.55" font-family="Times,serif" font-size="14.00">e</text>
</g>
<!-- c&#45;&gt;e -->
<g id="edge12" class="edge">
<title>c&#45;&gt;e</title>
<path fill="none" stroke="black" stroke-width="0.25" d="M62.38,-549.66C78.54,-537.37 104.8,-517.39 122.23,-504.12"/>
<polygon fill="black" stroke="black" stroke-width="0.25" points="122.2,-497.86 128.26,-505.82 126.67,-507.03 120.61,-499.07 122.2,-497.86"/>
<polyline fill="none" stroke="black" stroke-width="0.25" points="126.03,-501.23 122.05,-504.26"/>
</g>
<!-- rec2 -->
<g id="node5" class="node">
<title>rec2</title>
<ellipse fill="none" stroke="black" cx="194" cy="-345.6" rx="18" ry="18"/>
<text xml:space="preserve" text-anchor="middle" x="194" y="-340.55" font-family="Times,serif" font-size="14.00">rec2</text>
</g>
<!-- rec2&#45;&gt;b -->
<g id="edge4" class="edge">
<title>rec2&#45;&gt;b</title>
<path fill="none" stroke="black" stroke-width="0.25" d="M183.33,-330.77C175.79,-320.99 165.52,-307.68 156.87,-296.47"/>
<polygon fill="black" stroke="black" stroke-width="0.25" points="159.76,-294.48 150.88,-288.7 154.21,-298.76 159.76,-294.48"/>
</g>
<!-- rec2&#45;&gt;tf2 -->
<g id="edge5" class="edge">
<title>rec2&#45;&gt;tf2</title>
<path fill="none" stroke="black" stroke-width="0.25" d="M198,-327.98C200.36,-317.59 203.23,-303.88 205,-291.6 215.58,-218.09 220.75,-130.62 222.83,-86.71"/>
<polygon fill="black" stroke="black" stroke-width="0.25" points="226.32,-87.04 223.28,-76.89 219.32,-86.72 226.32,-87.04"/>
</g>
<!-- rec2&#45;&gt;d -->
<g id="edge8" class="edge">
<title>rec2&#45;&gt;d</title>
<path fill="none" stroke="black" stroke-width="0.25" d="M194.32,-327.15C194.19,-296.46 190.84,-231.57 167,-183.6 159.31,-168.13 145.6,-154.08 134.47,-144.34"/>
<polygon fill="black" stroke="black" stroke-width="0.25" points="128.32,-145.66 134.83,-138.06 136.35,-139.36 129.84,-146.96 128.32,-145.66"/>
<polyline fill="none" stroke="black" stroke-width="0.25" points="130.81,-141.21 134.61,-144.46"/>
</g>
<!-- tf2&#45;&gt;rec1 -->
<g id="edge21" class="edge">
<title>tf2&#45;&gt;rec1</title>
<path fill="none" stroke="black" stroke-width="0.25" d="M236.55,-71.45C258.14,-94.99 300,-147.47 300,-200.6 300,-562.6 300,-562.6 300,-562.6 300,-623.92 233.24,-670.27 195.4,-691.62"/>
<polygon fill="black" stroke="black" stroke-width="0.25" points="193.89,-688.46 186.8,-696.33 197.25,-694.6 193.89,-688.46"/>
</g>
<!-- e_22_target -->
<g id="node12" class="node">
<title>e_22_target</title>
<ellipse fill="black" stroke="black" cx="224" cy="-1.8" rx="1.8" ry="1.8"/>
</g>
<!-- tf2&#45;&gt;e_22_target -->
<g id="edge23" class="edge">
<title>tf2&#45;&gt;e_22_target</title>
<path fill="none" stroke="black" stroke-width="0.25" d="M224,-38.69C224,-30.59 224,-21.28 224,-14.17"/>
<polygon fill="black" stroke="black" stroke-width="0.25" points="227.5,-14.31 224,-4.31 220.5,-14.31 227.5,-14.31"/>
</g>
<!-- g&#45;&gt;d -->
<g id="edge7" class="edge">
<title>g&#45;&gt;d</title>
<path fill="none" stroke="black" stroke-width="0.25" d="M134.55,-184.01C131.37,-174.33 127.33,-162.03 123.92,-151.68"/>
<polygon fill="black" stroke="black" stroke-width="0.25" points="117.97,-149.58 127.47,-146.46 128.1,-148.36 118.6,-151.48 117.97,-149.58"/>
<polyline fill="none" stroke="black" stroke-width="0.25" points="122.41,-147.07 123.97,-151.82"/>
</g>
<!-- d&#45;&gt;c -->
<g id="edge14" class="edge">
<title>d&#45;&gt;c</title>
<path fill="none" stroke="black" stroke-width="0.25" d="M109.16,-145.98C92.16,-170.8 56,-222.03 56,-272.6 56,-418.6 56,-418.6 56,-418.6 56,-461.07 56.45,-510.69 54.01,-538.6"/>
<polygon fill="black" stroke="black" stroke-width="0.25" points="58.59,-543.05 48.64,-542.06 48.84,-540.07 58.79,-541.06 58.59,-543.05"/>
<polyline fill="none" stroke="black" stroke-width="0.25" points="53.51,-543.55 54.01,-538.58"/>
</g>
<!-- d&#45;&gt;tf2 -->
<g id="edge17" class="edge">
<title>d&#45;&gt;tf2</title>
<path fill="none" stroke="black" stroke-width="0.25" d="M131.88,-118.87C149.59,-107.28 179.38,-87.79 200.28,-74.12"/>
<polygon fill="black" stroke="black" stroke-width="0.25" points="202.13,-77.09 208.59,-68.68 198.3,-71.23 202.13,-77.09"/>
</g>
<!-- e&#45;&gt;a -->
<g id="edge13" class="edge">
<title>e&#45;&gt;a</title>
<path fill="none" stroke="black" stroke-width="0.25" d="M139.04,-507.71C137.68,-531.84 135.18,-576.14 133.56,-604.97"/>
<polygon fill="black" stroke="black" stroke-width="0.25" points="130.07,-604.63 133,-614.81 137.06,-605.02 130.07,-604.63"/>
</g>
<!-- e&#45;&gt;tf1 -->
<g id="edge15" class="edge">
<title>e&#45;&gt;tf1</title>
<path fill="none" stroke="black" stroke-width="0.25" d="M153.75,-477.66C167.75,-466.53 189.66,-449.1 206.05,-436.06"/>
<polygon fill="black" stroke="black" stroke-width="0.25" points="208.11,-438.89 213.76,-429.93 203.76,-433.41 208.11,-438.89"/>
</g>
<!-- tf1&#45;&gt;rec2 -->
<g id="edge20" class="edge">
<title>tf1&#45;&gt;rec2</title>
<path fill="none" stroke="black" stroke-width="0.25" d="M220.45,-401.06C215.48,-390.82 208.92,-377.32 203.58,-366.33"/>
<polygon fill="black" stroke="black" stroke-width="0.25" points="197.46,-365.18 206.46,-360.81 207.33,-362.61 198.34,-366.97 197.46,-365.18"/>
<polyline fill="none" stroke="black" stroke-width="0.25" points="201.52,-362.09 203.71,-366.59"/>
</g>
<!-- tf1&#45;&gt;tf2 -->
<g id="edge19" class="edge">
<title>tf1&#45;&gt;tf2</title>
<path fill="none" stroke="black" stroke-width="0.25" d="M234.4,-400.71C244.24,-374.77 262,-321.5 262,-274.6 262,-274.6 262,-274.6 262,-200.6 262,-158.78 246.43,-112.31 235.22,-84.28"/>
<polygon fill="black" stroke="black" stroke-width="0.25" points="238.52,-83.1 231.47,-75.19 232.05,-85.76 238.52,-83.1"/>
</g>
<!-- e_21_target -->
<g id="node11" class="node">
<title>e_21_target</title>
<ellipse fill="black" stroke="black" cx="232" cy="-345.6" rx="1.8" ry="1.8"/>
</g>
<!-- tf1&#45;&gt;e_21_target -->
<g id="edge22" class="edge">
<title>tf1&#45;&gt;e_21_target</title>
<path fill="none" stroke="black" stroke-width="0.25" d="M228.99,-399.3C229.74,-386.23 230.74,-368.71 231.38,-357.53"/>
<polygon fill="black" stroke="black" stroke-width="0.25" points="234.86,-357.97 231.93,-347.79 227.87,-357.57 234.86,-357.97"/>
</g>
<!-- e_23_source -->
<g id="node13" class="node">
<title>e_23_source</title>
<ellipse fill="black" stroke="black" cx="170" cy="-761.4" rx="1.8" ry="1.8"/>
</g>
<!-- e_23_source&#45;&gt;rec1 -->
<g id="edge24" class="edge">
<title>e_23_source&#45;&gt;rec1</title>
<path fill="none" stroke="#8b1a1a" stroke-width="5" d="M170,-759.47C170,-756.87 170,-749.16 170,-740.41"/>
<polygon fill="#8b1a1a" stroke="#8b1a1a" stroke-width="5" points="174.38,-740.64 170,-730.64 165.63,-740.64 174.38,-740.64"/>
</g>
<!-- e_24_source -->
<g id="node14" class="node">
<title>e_24_source</title>
<ellipse fill="black" stroke="black" cx="190" cy="-417.6" rx="1.8" ry="1.8"/>
</g>
<!-- e_24_source&#45;&gt;rec2 -->
<g id="edge25" class="edge">
<title>e_24_source&#45;&gt;rec2</title>
<path fill="none" stroke="black" stroke-width="0.25" d="M190.07,-415.39C190.35,-410.39 191.47,-390.93 192.44,-373.97"/>
<polygon fill="black" stroke="black" stroke-width="0.25" points="195.91,-374.45 192.99,-364.27 188.93,-374.05 195.91,-374.45"/>
</g>
</g>
</svg>