<?xml version="1.0" encoding="UTF-8" standalone="no"?>
<!DOCTYPE svg PUBLIC "-//W3C//DTD SVG 1.1//EN"
 "http://www.w3.org/Graphics/SVG/1.1/DTD/svg11.dtd">
<!-- Generated by graphviz version 2.43.0 (0)
 -->
<!-- Title: %3 Pages: 1 -->
<svg width="569pt" height="238pt"
 viewBox="0.00 0.00 568.80 237.80" xmlns="http://www.w3.org/2000/svg" xmlns:xlink="http://www.w3.org/1999/xlink">
<g id="graph0" class="graph" transform="scale(1 1) rotate(0) translate(14.4 223.4)">
<title>%3</title>
<polygon fill="white" stroke="transparent" points="-14.4,14.4 -14.4,-223.4 554.4,-223.4 554.4,14.4 -14.4,14.4"/>
<!-- D -->
<g id="node1" class="node">
<title>D</title>
<g id="a_node1"><a xlink:title="stimulus; state=1">
<path fill="#9acd32" stroke="#4c4c4c" stroke-width="2.5" d="M42,-150C42,-150 12,-150 12,-150 6,-150 0,-144 0,-138 0,-138 0,-126 0,-126 0,-120 6,-114 12,-114 12,-114 42,-114 42,-114 48,-114 54,-120 54,-126 54,-126 54,-138 54,-138 54,-144 48,-150 42,-150"/>
<text text-anchor="middle" x="27" y="-129.5" font-family="Helvetica,sans-Serif" font-size="10.00" fill="#111111">D</text>
</a>
</g>
</g>
<!-- B -->
<g id="node2" class="node">
<title>B</title>
<g id="a_node2"><a xlink:title="inhibitor target; state=0">
<path fill="#ff6846" stroke="#4c4c4c" d="M132,-209C132,-209 102,-209 102,-209 96,-209 90,-203 90,-197 90,-197 90,-185 90,-185 90,-179 96,-173 102,-173 102,-173 132,-173 132,-173 138,-173 144,-179 144,-185 144,-185 144,-197 144,-197 144,-203 138,-209 132,-209"/>
<text text-anchor="middle" x="117" y="-188.5" font-family="Helvetica,sans-Serif" font-size="10.00" fill="#111111">B</text>
</a>
</g>
</g>
<!-- D&#45;&gt;B -->
<g id="edge1" class="edge">
<title>D&#45;&gt;B</title>
<g id="a_edge1"><a xlink:title="D &#45;&gt; B; selected=1; active=1; structural flow=1">
<path fill="none" stroke="#222222" stroke-width="2.8" d="M54.4,-149.7C62.92,-155.41 72.49,-161.83 81.5,-167.87"/>
<polygon fill="#222222" stroke="#222222" stroke-width="2.8" points="79.66,-170.85 89.92,-173.51 83.56,-165.04 79.66,-170.85"/>
</a>
</g>
</g>
<!-- Y -->
<g id="node4" class="node">
<title>Y</title>
<g id="a_node4"><a xlink:title="measurement; state=1">
<path fill="#add8e6" stroke="#4c4c4c" stroke-width="2.5" d="M375,-92C375,-92 345,-92 345,-92 339,-92 333,-86 333,-80 333,-80 333,-68 333,-68 333,-62 339,-56 345,-56 345,-56 375,-56 375,-56 381,-56 387,-62 387,-68 387,-68 387,-80 387,-80 387,-86 381,-92 375,-92"/>
<text text-anchor="middle" x="360" y="-71.5" font-family="Helvetica,sans-Serif" font-size="10.00" fill="#111111">Y</text>
</a>
</g>
</g>
<!-- D&#45;&gt;Y -->
<g id="edge5" class="edge">
<title>D&#45;&gt;Y</title>
<g id="a_edge5"><a xlink:title="NOT D &#45;&gt; Y; selected=1; active=0; structural flow=1">
<path fill="none" stroke="#e3a19f" stroke-dasharray="5,2" d="M54.23,-115.65C64.94,-109.74 77.68,-103.63 90,-100 173.33,-75.46 276.82,-72.82 327.73,-73.23"/>
<polygon fill="#e3a19f" stroke="#e3a19f" points="331.84,-68.28 331.74,-78.27 329.74,-78.25 329.84,-68.25 331.84,-68.28"/>
<polyline fill="none" stroke="#e3a19f" points="332.79,-73.29 327.79,-73.23 "/>
</a>
</g>
</g>
<!-- __cellnopt_and_10 -->
<g id="node8" class="node">
<title>__cellnopt_and_10</title>
<g id="a_node8"><a xlink:title="A AND NOT B &#45;&gt; X">
<ellipse fill="white" stroke="#333333" cx="193.5" cy="-132" rx="13.5" ry="13.5"/>
<text text-anchor="middle" x="193.5" y="-130.1" font-family="Helvetica,sans-Serif" font-size="8.00">AND</text>
</a>
</g>
</g>
<!-- B&#45;&gt;__cellnopt_and_10 -->
<g id="edge7" class="edge">
<title>B&#45;&gt;__cellnopt_and_10</title>
<g id="a_edge7"><a xlink:title="A AND NOT B &#45;&gt; X; selected=1; active=1; structural flow=1">
<path fill="none" stroke="#c43c39" stroke-width="2.8" d="M140.76,-172.98C153,-163.28 167.71,-151.63 178.31,-143.24"/>
<polygon fill="#c43c39" stroke="#c43c39" stroke-width="2.8" points="178.41,-136.78 184.62,-144.62 183.05,-145.86 176.85,-138.02 178.41,-136.78"/>
<polyline fill="none" stroke="#c43c39" stroke-width="2.8" points="182.3,-140.08 178.38,-143.18 "/>
</a>
</g>
</g>
<!-- X -->
<g id="node3" class="node">
<title>X</title>
<g id="a_node3"><a xlink:title="internal species; state=1">
<path fill="white" stroke="#4c4c4c" stroke-width="2.5" d="M285,-150C285,-150 255,-150 255,-150 249,-150 243,-144 243,-138 243,-138 243,-126 243,-126 243,-120 249,-114 255,-114 255,-114 285,-114 285,-114 291,-114 297,-120 297,-126 297,-126 297,-138 297,-138 297,-144 291,-150 285,-150"/>
<text text-anchor="middle" x="270" y="-129.5" font-family="Helvetica,sans-Serif" font-size="10.00" fill="#111111">X</text>
</a>
</g>
</g>
<!-- X&#45;&gt;Y -->
<g id="edge2" class="edge">
<title>X&#45;&gt;Y</title>
<g id="a_edge2"><a xlink:title="X &#45;&gt; Y; selected=1; active=1; structural flow=1">
<path fill="none" stroke="#222222" stroke-width="2.8" d="M297.4,-114.6C305.92,-108.98 315.49,-102.68 324.5,-96.74"/>
<polygon fill="#222222" stroke="#222222" stroke-width="2.8" points="326.5,-99.62 332.92,-91.19 322.64,-93.77 326.5,-99.62"/>
</a>
</g>
</g>
<!-- W -->
<g id="node5" class="node">
<title>W</title>
<g id="a_node5"><a xlink:title="internal species; state=1">
<path fill="white" stroke="#4c4c4c" stroke-width="2.5" d="M375,-153C375,-153 345,-153 345,-153 339,-153 333,-147 333,-141 333,-141 333,-129 333,-129 333,-123 339,-117 345,-117 345,-117 375,-117 375,-117 381,-117 387,-123 387,-129 387,-129 387,-141 387,-141 387,-147 381,-153 375,-153"/>
<text text-anchor="middle" x="360" y="-132.5" font-family="Helvetica,sans-Serif" font-size="10.00" fill="#111111">W</text>
</a>
</g>
</g>
<!-- X&#45;&gt;W -->
<g id="edge3" class="edge">
<title>X&#45;&gt;W</title>
<g id="a_edge3"><a xlink:title="X &#45;&gt; W; selected=1; active=1; structural flow=1">
<path fill="none" stroke="#222222" stroke-width="2.8" d="M297.4,-132.9C305.39,-133.17 314.31,-133.48 322.82,-133.77"/>
<polygon fill="#222222" stroke="#222222" stroke-width="2.8" points="322.81,-137.27 332.92,-134.11 323.04,-130.27 322.81,-137.27"/>
</a>
</g>
</g>
<!-- __cellnopt_and_11 -->
<g id="node9" class="node">
<title>__cellnopt_and_11</title>
<g id="a_node9"><a xlink:title="W AND C &#45;&gt; Z">
<ellipse fill="white" stroke="#333333" cx="436.5" cy="-76" rx="13.5" ry="13.5"/>
<text text-anchor="middle" x="436.5" y="-74.1" font-family="Helvetica,sans-Serif" font-size="8.00">AND</text>
</a>
</g>
</g>
<!-- W&#45;&gt;__cellnopt_and_11 -->
<g id="edge9" class="edge">
<title>W&#45;&gt;__cellnopt_and_11</title>
<g id="a_edge9"><a xlink:title="W AND C &#45;&gt; Z; selected=1; active=0; structural flow=1">
<path fill="none" stroke="#a8a8a8" stroke-dasharray="5,2" d="M383.76,-116.98C394.48,-108.49 407.1,-98.49 417.19,-90.5"/>
<polygon fill="#a8a8a8" stroke="#a8a8a8" points="419.64,-93.03 425.3,-84.08 415.29,-87.54 419.64,-93.03"/>
</a>
</g>
</g>
<!-- C -->
<g id="node6" class="node">
<title>C</title>
<g id="a_node6"><a xlink:title="stimulus; state=0">
<path fill="#9acd32" stroke="#4c4c4c" d="M285,-36C285,-36 255,-36 255,-36 249,-36 243,-30 243,-24 243,-24 243,-12 243,-12 243,-6 249,0 255,0 255,0 285,0 285,0 291,0 297,-6 297,-12 297,-12 297,-24 297,-24 297,-30 291,-36 285,-36"/>
<text text-anchor="middle" x="270" y="-15.5" font-family="Helvetica,sans-Serif" font-size="10.00" fill="#111111">C</text>
</a>
</g>
</g>
<!-- C&#45;&gt;Y -->
<g id="edge4" class="edge">
<title>C&#45;&gt;Y</title>
<g id="a_edge4"><a xlink:title="C &#45;&gt; Y; selected=1; active=0; structural flow=1">
<path fill="none" stroke="#a8a8a8" stroke-dasharray="5,2" d="M297.4,-34.8C305.83,-40.17 315.29,-46.19 324.22,-51.87"/>
<polygon fill="#a8a8a8" stroke="#a8a8a8" points="322.6,-54.99 332.92,-57.4 326.36,-49.08 322.6,-54.99"/>
</a>
</g>
</g>
<!-- C&#45;&gt;__cellnopt_and_11 -->
<g id="edge10" class="edge">
<title>C&#45;&gt;__cellnopt_and_11</title>
<g id="a_edge10"><a xlink:title="W AND C &#45;&gt; Z; selected=1; active=0; structural flow=1">
<path fill="none" stroke="#a8a8a8" stroke-dasharray="5,2" d="M297.17,-21.1C321.24,-24.6 357.56,-31.49 387,-44 397.61,-48.51 408.42,-55.37 417.12,-61.59"/>
<polygon fill="#a8a8a8" stroke="#a8a8a8" points="415.23,-64.54 425.35,-67.7 419.41,-58.93 415.23,-64.54"/>
</a>
</g>
</g>
<!-- A -->
<g id="node7" class="node">
<title>A</title>
<g id="a_node7"><a xlink:title="stimulus; state=1">
<path fill="#9acd32" stroke="#4c4c4c" stroke-width="2.5" d="M132,-148C132,-148 102,-148 102,-148 96,-148 90,-142 90,-136 90,-136 90,-124 90,-124 90,-118 96,-112 102,-112 102,-112 132,-112 132,-112 138,-112 144,-118 144,-124 144,-124 144,-136 144,-136 144,-142 138,-148 132,-148"/>
<text text-anchor="middle" x="117" y="-127.5" font-family="Helvetica,sans-Serif" font-size="10.00" fill="#111111">A</text>
</a>
</g>
</g>
<!-- A&#45;&gt;__cellnopt_and_10 -->
<g id="edge6" class="edge">
<title>A&#45;&gt;__cellnopt_and_10</title>
<g id="a_edge6"><a xlink:title="A AND NOT B &#45;&gt; X; selected=1; active=1; structural flow=1">
<path fill="none" stroke="#222222" stroke-width="2.8" d="M144.06,-130.7C152.36,-130.92 161.49,-131.17 169.56,-131.38"/>
<polygon fill="#222222" stroke="#222222" stroke-width="2.8" points="169.64,-134.89 179.74,-131.66 169.83,-127.89 169.64,-134.89"/>
</a>
</g>
</g>
<!-- __cellnopt_and_10&#45;&gt;X -->
<g id="edge8" class="edge">
<title>__cellnopt_and_10&#45;&gt;X</title>
<g id="a_edge8"><a xlink:title="A AND NOT B &#45;&gt; X; selected=1; active=1; aggregate structural flow=2">
<path fill="none" stroke="#222222" stroke-width="2.8" d="M207.14,-132C214.26,-132 223.55,-132 232.75,-132"/>
<polygon fill="#222222" stroke="#222222" stroke-width="2.8" points="232.99,-135.5 242.99,-132 232.99,-128.5 232.99,-135.5"/>
</a>
</g>
</g>
<!-- Z -->
<g id="node10" class="node">
<title>Z</title>
<g id="a_node10"><a xlink:title="measurement; state=0">
<path fill="#add8e6" stroke="#4c4c4c" d="M528,-94C528,-94 498,-94 498,-94 492,-94 486,-88 486,-82 486,-82 486,-70 486,-70 486,-64 492,-58 498,-58 498,-58 528,-58 528,-58 534,-58 540,-64 540,-70 540,-70 540,-82 540,-82 540,-88 534,-94 528,-94"/>
<text text-anchor="middle" x="513" y="-73.5" font-family="Helvetica,sans-Serif" font-size="10.00" fill="#111111">Z</text>
</a>
</g>
</g>
<!-- __cellnopt_and_11&#45;&gt;Z -->
<g id="edge11" class="edge">
<title>__cellnopt_and_11&#45;&gt;Z</title>
<g id="a_edge11"><a xlink:title="W AND C &#45;&gt; Z; selected=1; active=0; aggregate structural flow=2">
<path fill="none" stroke="#a8a8a8" stroke-dasharray="5,2" d="M450.14,-76C457.26,-76 466.55,-76 475.75,-76"/>
<polygon fill="#a8a8a8" stroke="#a8a8a8" points="475.99,-79.5 485.99,-76 475.99,-72.5 475.99,-79.5"/>
</a>
</g>
</g>
</g>
</svg>